<svg fill="none" xmlns="http://www.w3.org/2000/svg" viewBox="8 16 20 17">
    <path fill-rule="evenodd" clip-rule="evenodd"
        d="M23.3789 24.9999C21.1719 24.9999 19.3826 26.7908 19.3826 29.0001C19.3826 31.2091 21.1719 33 23.3789 33C25.586 33 27.3752 31.2091 27.3752 29.0001C27.3752 26.7908 25.586 24.9999 23.3789 24.9999ZM12.9963 25.0003C10.7892 25.0003 9 26.7908 9 29C9 31.2091 10.7892 33 12.9963 33C15.2034 33 16.9927 31.2091 16.9927 29C16.9927 26.7908 15.2034 25.0003 12.9963 25.0003ZM22.1838 19.9999C22.1838 22.2091 20.3947 24.0002 18.1876 24.0002C15.9805 24.0002 14.1913 22.2091 14.1913 19.9999C14.1913 17.791 15.9805 16 18.1876 16C20.3947 16 22.1838 17.791 22.1838 19.9999Z"
        fill="#FF584A"></path>
</svg>