<svg xmlns="http://www.w3.org/2000/svg" viewBox="0 0 128 128">
  <path fill="#4386FA" d="M58.4 17.6C38.7 17.6 22.7 33.6 22.7 53.3c0 19.7 16 35.7 35.7 35.7 8.1 0 15.6-2.7 21.6-7.3l4.7 4.7v4.1l24.6 24.5 8.5-8.5L93.7 81.9h-4.1l-4.7-4.7c4.6-6 7.3-13.5 7.3-21.6 0-19.7-16-35.7-35.7-35.7-.1 0-.1 0-.1 0zm0 11.4c13.4 0 24.3 10.9 24.3 24.3S71.8 77.6 58.4 77.6 34.1 66.7 34.1 53.3 45 29 58.4 29z"/>
  <path fill="#FFF" d="M44.6 50.1v8.9c1.6 2.8 3.9 5.2 6.7 6.8V50.1h-6.7zm10.4-7.4v25.8c1.1.2 2.2.3 3.4.3.9 0 1.9-.1 2.8-.2V42.7H55zm10.6 11.6v14c2.8-1.6 5.1-3.9 6.7-6.6v-7.4h-6.7z"/>
</svg>
