<svg width="24" height="24" viewBox="0 0 24 24" fill="none" xmlns="http://www.w3.org/2000/svg">
<g id="confluence">
<mask id="mask0_847_577111" style="mask-type:luminance" maskUnits="userSpaceOnUse" x="0" y="0" width="24" height="24">
<rect id="&#231;&#159;&#169;&#229;&#189;&#162;" width="24" height="24" fill="white"/>
</mask>
<g mask="url(#mask0_847_577111)">
</g>
<g id="confluence-svgrepo-com 1" clip-path="url(#clip0_847_577111)">
<g id="Group">
<path id="Vector" d="M3.65113 16.5245C3.46543 16.8274 3.25686 17.1788 3.07973 17.4588C2.92118 17.7267 3.0063 18.0722 3.27115 18.2359L6.98526 20.5215C7.11564 20.602 7.27287 20.6267 7.42168 20.5902C7.57048 20.5537 7.69838 20.4589 7.77665 20.3272C7.92522 20.0787 8.11664 19.7558 8.3252 19.4101C9.79656 16.9817 11.2765 17.2788 13.9449 18.553L17.6276 20.3044C17.7671 20.3707 17.9275 20.3778 18.0723 20.324C18.2171 20.2702 18.3339 20.16 18.3962 20.0187L20.1646 16.0188C20.2896 15.7332 20.1625 15.4001 19.8789 15.2703C19.1018 14.9046 17.5562 14.1761 16.1648 13.5047C11.1594 11.0734 6.90527 11.2305 3.65113 16.5245Z" fill="url(#paint0_linear_847_577111)"/>
<path id="Vector_2" d="M20.3049 7.446C20.4906 7.14315 20.6992 6.79174 20.8763 6.51175C21.0348 6.24383 20.9497 5.89828 20.6849 5.73465L16.9708 3.44904C16.8393 3.36051 16.677 3.33054 16.5226 3.3663C16.3683 3.40205 16.2357 3.50031 16.1565 3.6376C16.008 3.88616 15.8165 4.209 15.608 4.5547C14.1366 6.98316 12.6567 6.68603 9.98823 5.4118L6.31698 3.66903C6.1775 3.60264 6.01709 3.59555 5.8723 3.64938C5.72751 3.7032 5.61068 3.81335 5.54844 3.95473L3.77995 7.95454C3.65501 8.24021 3.78214 8.57331 4.06565 8.70308C4.84276 9.06878 6.3884 9.79732 7.77977 10.4687C12.7967 12.8972 17.0508 12.7343 20.3049 7.446Z" fill="url(#paint1_linear_847_577111)"/>
</g>
</g>
</g>
<defs>
<linearGradient id="paint0_linear_847_577111" x1="1709.47" y1="982.917" x2="1293.54" y2="28.7335" gradientUnits="userSpaceOnUse">
<stop offset="0.18" stop-color="#0052CC"/>
<stop offset="1" stop-color="#2684FF"/>
</linearGradient>
<linearGradient id="paint1_linear_847_577111" x1="19.6761" y1="-105.181" x2="436.26" y2="849.465" gradientUnits="userSpaceOnUse">
<stop offset="0.18" stop-color="#0052CC"/>
<stop offset="1" stop-color="#2684FF"/>
</linearGradient>
<clipPath id="clip0_847_577111">
<rect width="18" height="18" fill="white" transform="translate(3 3)"/>
</clipPath>
</defs>
</svg>
