<svg width="24" height="24" fill="none" viewBox="0 0 24 24" xmlns="http://www.w3.org/2000/svg">
    <defs>
        <clipPath id="4ab946_0">
            <rect width="24" height="24" rx="0"></rect>
        </clipPath>
        <clipPath id="4ab946_1">
            <rect width="20.965" height="20.965" x="1.518" y="1.518" rx="6"></rect>
        </clipPath>
    </defs>
    <g clip-path="url(#4ab946_0)">
        <g clip-path="url(#4ab946_1)">
            <rect width="20.965" height="20.965" x="1.518" y="1.518" fill="#256CFB" rx="6"></rect>
            <path fill="#FFF"
                d="M6.089 8.679c0-.293.156-.563.409-.709l4.688-2.707a.205.205 0 0 1 .307.177v1.897c0 .364-.193.7-.508.884l-4.778 2.784a.27.27 0 0 0-.118.143v-2.47Z">
            </path>
            <path fill="#FFF"
                d="M6.089 8.482v2.585c0 .6.32 1.154.84 1.454l4.257 2.459a.205.205 0 0 0 .307-.178V13.06c0-.473-.25-.91-.659-1.149L6.862 9.587a1.617 1.617 0 0 1-.773-1.105ZM17.62 8.63c.252.147.408.417.408.71v5.413c0 .158-.17.256-.306.177l-1.643-.948a1.023 1.023 0 0 1-.511-.882l-.022-5.53a.27.27 0 0 0-.065-.174l2.138 1.235Z">
            </path>
            <path fill="#FFF"
                d="m17.79 8.729-2.239-1.293c-.52-.3-1.16-.3-1.679 0L9.614 9.895a.205.205 0 0 0 0 .354l1.509.87c.41.237.914.239 1.325.005l3.998-2.277c.41-.234.9-.277 1.344-.118ZM11.873 18.616a.818.818 0 0 1-.819 0l-4.688-2.707a.205.205 0 0 1 0-.354l1.642-.949a1.023 1.023 0 0 1 1.02-.002l4.8 2.746a.27.27 0 0 0 .182.032l-2.137 1.234Z">
            </path>
            <path fill="#FFF"
                d="m11.701 18.715 2.24-1.293c.519-.3.839-.854.839-1.454V11.05a.205.205 0 0 0-.307-.177l-1.509.87c-.41.237-.663.673-.666 1.146l-.027 4.602c-.002.471-.21.918-.57 1.223Z">
            </path>
        </g>
    </g>
</svg>