<svg width="24" height="24" viewBox="0 0 24 24" fill="none" xmlns="http://www.w3.org/2000/svg">
<g id="discord">
<mask id="mask0_826_561469" style="mask-type:luminance" maskUnits="userSpaceOnUse" x="0" y="0" width="24" height="24">
<rect id="&#231;&#159;&#169;&#229;&#189;&#162;" width="24" height="24" fill="white"/>
</mask>
<g mask="url(#mask0_826_561469)">
</g>
<g id="Discord Icon SVG Vector Icon 1">
<g id="Group">
<path id="Vector" d="M18.2477 6.17085C17.0825 5.6257 15.8367 5.2295 14.5342 5.00391C14.3742 5.29311 14.1873 5.68211 14.0585 5.99155C12.6739 5.78332 11.302 5.78332 9.94287 5.99155C9.81404 5.68211 9.62292 5.29311 9.46152 5.00391C8.1576 5.2295 6.91032 5.62716 5.74514 6.17374C3.39498 9.72515 2.75789 13.1883 3.07644 16.6024C4.63519 17.7664 6.14581 18.4735 7.63093 18.9362C7.99762 18.4316 8.32465 17.8951 8.60638 17.3297C8.06981 17.1258 7.5559 16.8742 7.07031 16.5821C7.19913 16.4867 7.32514 16.3869 7.44689 16.2842C10.4086 17.6695 13.6267 17.6695 16.5531 16.2842C16.6762 16.3869 16.8022 16.4867 16.9296 16.5821C16.4426 16.8756 15.9273 17.1273 15.3907 17.3312C15.6724 17.8951 15.9981 18.433 16.3662 18.9377C17.8527 18.4749 19.3647 17.7678 20.9235 16.6024C21.2973 12.6446 20.285 9.21325 18.2477 6.17085ZM9.00988 14.5028C8.12079 14.5028 7.39166 13.6727 7.39166 12.662C7.39166 11.6512 8.10522 10.8198 9.00988 10.8198C9.91457 10.8198 10.6437 11.6498 10.6281 12.662C10.6295 13.6727 9.91457 14.5028 9.00988 14.5028ZM14.9901 14.5028C14.101 14.5028 13.3718 13.6727 13.3718 12.662C13.3718 11.6512 14.0854 10.8198 14.9901 10.8198C15.8947 10.8198 16.6238 11.6498 16.6083 12.662C16.6083 13.6727 15.8947 14.5028 14.9901 14.5028Z" fill="#5865F2"/>
</g>
</g>
</g>
</svg>
