<svg width="24" height="24" viewBox="0 0 24 24" fill="none" xmlns="http://www.w3.org/2000/svg">
  <defs>
    <linearGradient id="feishu_g" x1="3" y1="4" x2="21" y2="20" gradientUnits="userSpaceOnUse">
      <stop stop-color="#00D6B9"/>
      <stop offset="0.5" stop-color="#3370FF"/>
      <stop offset="1" stop-color="#133C9A"/>
    </linearGradient>
  </defs>
  <path d="M12.6 3.2c-.5-.3-1.2-.2-1.6.3L4.3 11c-1 1.1-.5 2.9.9 3.4l3.6 1.2c1.3.4 2.7 0 3.6-1l5.9-6.7c.5-.6.4-1.5-.3-1.9L12.6 3.2z" fill="url(#feishu_g)"/>
  <path d="M3.5 13.4c2.9 3.2 6.7 5.1 11 5.6 2.1.2 4.2 0 6.2-.7.4-.1.5-.7.1-1-2.3-1.7-4.9-3-7.7-3.8-.9-.3-1.9-.1-2.6.5l-1.6 1.3c-.5.4-1.2.5-1.8.2l-3.3-1.6c-.3-.2-.7.2-.5.5l.2.8z" fill="#3370FF"/>
</svg>
