<svg width="24" height="24" viewBox="0 0 24 24" fill="none" xmlns="http://www.w3.org/2000/svg">
<g id="firecrawl">
<rect width="24" height="24" fill="white" fill-opacity="0.01"/>
<path d="M12 2C12 2 8 6 8 10C8 12.21 9.79 14 12 14C14.21 14 16 12.21 16 10C16 6 12 2 12 2Z" fill="#FF6B35"/>
<path d="M12 6C12 6 10 8 10 10C10 11.1 10.9 12 12 12C13.1 12 14 11.1 14 10C14 8 12 6 12 6Z" fill="#FFE66D"/>
<path d="M17 13C17 13 14.5 15 14.5 17.5C14.5 18.88 15.62 20 17 20C18.38 20 19.5 18.88 19.5 17.5C19.5 15 17 13 17 13Z" fill="#FF6B35"/>
<path d="M7 13C7 13 9.5 15 9.5 17.5C9.5 18.88 8.38 20 7 20C5.62 20 4.5 18.88 4.5 17.5C4.5 15 7 13 7 13Z" fill="#FF6B35"/>
<path d="M12 12C12 12 9 16 9 19C9 20.66 10.34 22 12 22C13.66 22 15 20.66 15 19C15 16 12 12 12 12Z" fill="#FF8C42"/>
<path d="M12 16C12 16 11 17.5 11 18.5C11 19.05 11.45 19.5 12 19.5C12.55 19.5 13 19.05 13 18.5C13 17.5 12 16 12 16Z" fill="#FFE66D"/>
</g>
</svg>
