<svg width="24" height="24" viewBox="0 0 24 24" fill="none" xmlns="http://www.w3.org/2000/svg">
<g id="googledrive">
<mask id="mask0_886_29931" style="mask-type:luminance" maskUnits="userSpaceOnUse" x="0" y="0" width="24" height="24">
<rect id="&#231;&#159;&#169;&#229;&#189;&#162;" width="24" height="24" fill="white"/>
</mask>
<g mask="url(#mask0_886_29931)">
</g>
<g id="RAGFlow 4" clip-path="url(#clip0_886_29931)">
<path id="Vector" d="M4.36082 17.7121L5.15464 19.0762C5.31959 19.3634 5.5567 19.589 5.83505 19.7531L8.6701 14.8711H3C3 15.189 3.08247 15.507 3.24742 15.7942L4.36082 17.7121Z" fill="#0066DA"/>
<path id="Vector_2" d="M12 9.12814L9.16495 4.24609C8.8866 4.4102 8.64948 4.63584 8.48454 4.92302L3.24742 13.9487C3.08551 14.2296 3.00022 14.5478 3 14.8717H8.6701L12 9.12814Z" fill="#00AC47"/>
<path id="Vector_3" d="M18.1651 19.7531C18.4434 19.589 18.6805 19.3634 18.8455 19.0762L19.1754 18.5121L20.7527 15.7942C20.9176 15.507 21.0001 15.189 21.0001 14.8711H15.3296L16.5362 17.2301L18.1651 19.7531Z" fill="#EA4335"/>
<path id="Vector_4" d="M12.0001 9.12821L14.8351 4.24615C14.5568 4.08205 14.2372 4 13.9073 4H10.0929C9.76298 4 9.44339 4.09231 9.16504 4.24615L12.0001 9.12821Z" fill="#00832D"/>
<path id="Vector_5" d="M15.3298 14.8711H8.67001L5.83496 19.7531C6.11331 19.9172 6.4329 19.9993 6.7628 19.9993H17.237C17.5669 19.9993 17.8865 19.907 18.1649 19.7531L15.3298 14.8711Z" fill="#2684FC"/>
<path id="Vector_6" d="M18.134 9.43584L15.5155 4.92302C15.3505 4.63584 15.1134 4.4102 14.8351 4.24609L12 9.12814L15.3299 14.8717H20.9897C20.9897 14.5538 20.9072 14.2358 20.7423 13.9487L18.134 9.43584Z" fill="#FFBA00"/>
</g>
</g>
<defs>
<clipPath id="clip0_886_29931">
<rect width="18" height="16" fill="white" transform="translate(3 4)"/>
</clipPath>
</defs>
</svg>
