<svg xmlns="http://www.w3.org/2000/svg" width="128" height="128" viewBox="0 0 128 128">
  <defs>
    <linearGradient id="jira-a" x1="88.136" y1="39.092" x2="68.472" y2="59.368" gradientUnits="userSpaceOnUse">
      <stop offset="0.176" stop-color="#0052cc"/>
      <stop offset="1" stop-color="#2684ff"/>
    </linearGradient>
    <linearGradient id="jira-b" x1="66.564" y1="62.256" x2="43.828" y2="84.376" gradientUnits="userSpaceOnUse">
      <stop offset="0.176" stop-color="#0052cc"/>
      <stop offset="1" stop-color="#2684ff"/>
    </linearGradient>
  </defs>

  <path d="M108.023 16H61.805c0 11.52 9.324 20.848 20.847 20.848h8.5v8.226c0 11.52 9.328 20.848 20.848 20.848V19.977A3.98 3.98 0 00108.023 16z" fill="#2684ff"/>
  <path d="M85.121 39.04H38.902c0 11.519 9.325 20.847 20.844 20.847h8.504v8.226c0 11.52 9.328 20.848 20.848 20.848V43.016a3.983 3.983 0 00-3.977-3.977z" fill="url(#jira-a)"/>
  <path d="M62.219 62.078H16c0 11.524 9.324 20.848 20.848 20.848h8.5v8.23c0 11.52 9.328 20.844 20.847 20.844V66.059a3.984 3.984 0 00-3.976-3.98z" fill="url(#jira-b)"/>
</svg>
