<svg width="24" height="24" viewBox="0 0 24 24" fill="none" xmlns="http://www.w3.org/2000/svg">
<g id="notion">
<rect id="&#231;&#159;&#169;&#229;&#189;&#162;" width="12" height="12" fill="#D8D8D8" fill-opacity="0.01"/>
<mask id="mask0_826_561463" style="mask-type:luminance" maskUnits="userSpaceOnUse" x="0" y="0" width="24" height="24">
<rect id="&#231;&#159;&#169;&#229;&#189;&#162;_2" width="24" height="24" fill="white"/>
</mask>
<g mask="url(#mask0_826_561463)">
</g>
<g id="Log in  out &#226;&#128;&#147; Notion Help Center 1" clip-path="url(#clip0_826_561463)">
<path id="Vector" d="M4.6861 3.77652L14.6677 3.04092C15.8935 2.93592 16.2085 3.00672 16.9789 3.56592L20.1655 5.80572C20.6917 6.19092 20.8669 6.29592 20.8669 6.71532V18.9991C20.8669 19.7689 20.5861 20.2243 19.6057 20.2939L8.0143 20.9941C7.2775 21.0289 6.9277 20.9239 6.5419 20.4337L4.1959 17.3893C3.7741 16.8289 3.6001 16.4095 3.6001 15.9193V5.00052C3.6001 4.37112 3.8809 3.84612 4.6861 3.77652Z" fill="white"/>
<path id="Vector_2" fill-rule="evenodd" clip-rule="evenodd" d="M14.6683 3.04092L4.6849 3.77652C3.8809 3.84612 3.6001 4.37112 3.6001 5.00052V15.9193C3.6001 16.4095 3.7747 16.8289 4.1953 17.3893L6.5419 20.4337C6.9277 20.9239 7.2775 21.0289 8.0137 20.9941L19.6063 20.2939C20.5867 20.2243 20.8675 19.7689 20.8675 18.9991V6.71532C20.8675 6.31752 20.7097 6.20292 20.2453 5.86332L20.1661 5.80572L16.9801 3.56592C16.2091 3.00672 15.8941 2.93592 14.6677 3.04092H14.6683ZM8.2759 6.51432C7.3297 6.57792 7.1143 6.59232 6.5773 6.15612L5.2111 5.07132C5.0713 4.93092 5.1415 4.75572 5.4913 4.72092L15.0883 4.02132C15.8935 3.95112 16.3141 4.23132 16.6291 4.47612L18.2755 5.66592C18.3457 5.70132 18.5203 5.91072 18.3103 5.91072L8.3983 6.50592L8.2759 6.51432ZM7.1725 18.8941V8.46612C7.1725 8.01072 7.3129 7.80072 7.7329 7.76532L19.1155 7.10052C19.5013 7.06572 19.6765 7.31052 19.6765 7.76532V18.1237C19.6765 18.5791 19.6063 18.9643 18.9757 18.9991L8.0833 19.6291C7.4533 19.6639 7.1725 19.4545 7.1725 18.8941ZM17.9257 9.02532C17.9953 9.34032 17.9257 9.65532 17.6095 9.69132L17.0851 9.79512V17.4943C16.6291 17.7391 16.2091 17.8789 15.8587 17.8789C15.2983 17.8789 15.1579 17.7037 14.7379 17.1793L11.3053 11.7901V17.0041L12.3913 17.2495C12.3913 17.2495 12.3913 17.8795 11.5153 17.8795L9.0991 18.0193C9.0289 17.8789 9.0991 17.5291 9.3439 17.4595L9.9745 17.2849V10.3909L9.0991 10.3201C9.0289 10.0051 9.2035 9.55032 9.6943 9.51552L12.2863 9.34032L15.8587 14.8003V9.97032L14.9479 9.86592C14.8783 9.48012 15.1579 9.20052 15.5083 9.16572L17.9257 9.02532Z" fill="black"/>
</g>
</g>
<defs>
<clipPath id="clip0_826_561463">
<rect width="17.4" height="18" fill="white" transform="translate(3.6001 3)"/>
</clipPath>
</defs>
</svg>
