<svg xmlns="http://www.w3.org/2000/svg" viewBox="0 0 48 48" width="48" height="48">
  <path d="M28.5 22.5a7.5 7.5 0 0 0-14 0 6 6 0 0 0-5 4.4 6 6 0 0 0-3.5 5.6A6.5 6.5 0 0 0 12 39h26a7 7 0 0 0 1.4-13.8 7 7 0 0 0-10.9-2.7z" fill="#0364B8"/>
  <path d="M16.5 25.5a6 6 0 0 1 12-2 7 7 0 0 1 8.4 1 7 7 0 0 1 2.5 4.7 6 6 0 0 0-2.6-3.4 7 7 0 0 0-8.6-1A6 6 0 0 0 14 26a6 6 0 0 0-5.5 5.5 6.5 6.5 0 0 1 0-1c0-3 2.2-5.4 5.1-6 0-.2 0-.5.2-.7l2.7 1.7z" fill="#0078D4"/>
  <path d="M14.5 26a6 6 0 0 1 11.7-2 7 7 0 0 1 10.3 1.8A6 6 0 0 1 36.5 38H12a6 6 0 0 1-1-12 7 7 0 0 1 3.5 0z" fill="#1490DF"/>
  <path d="M12 28a4.5 4.5 0 0 0 0 9h25.5a5.5 5.5 0 0 0 .8-11 7 7 0 0 0-9.4-2.6A6 6 0 0 0 17 24a5 5 0 0 0-5 4z" fill="#28A8EA"/>
</svg>
