<svg xmlns="http://www.w3.org/2000/svg" viewBox="0 0 128 128">
  <path d="M93.809 92.112c.785-6.533.55-7.492 5.416-6.433l1.235.108c3.742.17 8.637-.602 11.513-1.938 6.191-2.873 9.861-7.668 3.758-6.409-13.924 2.873-14.881-1.842-14.881-1.842 14.703-21.815 20.849-49.508 15.543-56.287-14.47-18.489-39.517-9.746-39.936-9.52l-.134.025c-2.751-.571-5.83-.912-9.289-.968-6.301-.104-11.082 1.652-14.709 4.402 0 0-44.683-18.409-42.604 23.151.442 8.841 12.672 66.898 27.26 49.362 5.332-6.412 10.484-11.834 10.484-11.834 2.558 1.699 5.622 2.567 8.834 2.255l.249-.212c-.078.796-.044 1.575.099 2.497-3.757 4.199-2.653 4.936-10.166 6.482-7.602 1.566-3.136 4.355-.221 5.084 3.535.884 11.712 2.136 17.238-5.598l-.22.882c1.474 1.18 1.375 8.477 1.583 13.69.208 5.214.558 10.079 1.621 12.948 1.063 2.868 2.317 10.256 12.191 8.14 8.252-1.764 14.561-4.309 15.136-27.985" fill="#336791"/>
  <path d="M66.509 129.502c-.169-2.431-.311-4.739-.311-5.868 0-14.703.837-18.013 3.047-19.678 2.212-1.665 6.505-2.332 7.327-10.148.468-4.448-2.016-6.448-2.016-6.448s3.798-16.395 3.798-31.193c0-14.798-7.326-23.263-7.326-23.263s15.756-7.326 18.924-7.326c3.169 0 7.326 2.363 7.326 10.956 0 8.592-3.169 30.847-3.169 30.847s2.363 1.712 2.363 4.879c0 3.167-3.169 25.968-3.169 25.968s-7.326 3.169-7.326 10.495c0 3.975.837 7.326.837 7.326M45.607 104.059c-.418-3.921-.418-7.842-.418-7.842 0-7.326 3.169-18.088 3.169-18.088s-3.169-1.665-3.169-8.99c0-7.326 3.169-23.264 3.169-23.264s-7.327 0-10.956-3.629c-3.629-3.629-7.326-11.362-7.326-16.241 0-4.879 3.697-7.326 7.326-7.326 3.629 0 25.968 10.956 25.968 10.956" fill="none" stroke="#fff" stroke-width="4.8" stroke-linecap="round" stroke-linejoin="round"/>
  <path d="M93.809 92.112c.785-6.533.55-7.492 5.416-6.433l1.235.108c3.742.17 8.637-.602 11.513-1.938 6.191-2.873 9.861-7.668 3.758-6.409-13.924 2.873-14.881-1.842-14.881-1.842 14.703-21.815 20.849-49.508 15.543-56.287-14.47-18.489-39.517-9.746-39.936-9.52l-.134.025c-2.751-.571-5.83-.912-9.289-.968-6.301-.104-11.082 1.652-14.709 4.402 0 0-44.683-18.409-42.604 23.151.442 8.841 12.672 66.898 27.26 49.362 5.332-6.412 10.484-11.834 10.484-11.834 2.558 1.699 5.622 2.567 8.834 2.255l.249-.212c-.078.796-.044 1.575.099 2.497-3.757 4.199-2.653 4.936-10.166 6.482-7.602 1.566-3.136 4.355-.221 5.084 3.535.884 11.712 2.136 17.238-5.598l-.22.882c1.474 1.18 1.375 8.477 1.583 13.69.208 5.214.558 10.079 1.621 12.948 1.063 2.868 2.317 10.256 12.191 8.14 8.252-1.764 14.561-4.309 15.136-27.985" fill="none" stroke="#fff" stroke-width="2.4" stroke-linecap="round" stroke-linejoin="round"/>
  <path d="M60.087 89.226c-.157 7.853.256 15.735 1.231 19.469 1.503 5.751 4.696 9.168 13.295 7.36 6.739-1.418 9.246-4.622 10.76-9.553.853-2.781 1.435-16.308 1.595-22.48" fill="none" stroke="#fff" stroke-width="2.4" stroke-linecap="round" stroke-linejoin="round"/>
</svg>
