<svg width="24" height="24" viewBox="0 0 24 24" fill="none" xmlns="http://www.w3.org/2000/svg">
<g id="s3">
<mask id="mask0_826_561478" style="mask-type:luminance" maskUnits="userSpaceOnUse" x="0" y="0" width="24" height="24">
<rect id="&#231;&#159;&#169;&#229;&#189;&#162;" width="24" height="24" fill="white"/>
</mask>
<g mask="url(#mask0_826_561478)">
</g>
<g id="FileAmazon-S3-Logo - Wikimedia Commons 2" clip-path="url(#clip0_826_561478)">
<path id="Vector" fill-rule="evenodd" clip-rule="evenodd" d="M6.63563 6.48047L9.35059 12.0352L6.63563 17.5898L5.52348 16.9219V7.14844L6.63563 6.48047Z" fill="#E25444"/>
<path id="Vector_2" fill-rule="evenodd" clip-rule="evenodd" d="M6.63566 6.48047L12.0656 7.14844L14.8296 12.0352L12.0656 16.9219L6.63566 17.5898V6.48047Z" fill="#7B1D13"/>
<path id="Vector_3" fill-rule="evenodd" clip-rule="evenodd" d="M17.5934 6.48047L18.4766 6.90234V17.168L17.5934 17.5898L12.0653 12.0352L17.5934 6.48047Z" fill="#58150D"/>
<path id="Vector_4" fill-rule="evenodd" clip-rule="evenodd" d="M17.6055 6.46875L12.0582 8.125V16.0937L17.6055 17.5937V6.46875Z" fill="#E25444"/>
<path id="Vector_5" fill-rule="evenodd" clip-rule="evenodd" d="M12.0552 9.00002L14.4106 8.59376L12.0552 5.71875L9.70566 8.59376L12.0552 9.00002Z" fill="#58150D"/>
<path id="Vector_6" fill-rule="evenodd" clip-rule="evenodd" d="M9.70566 8.59376L12.0582 9.00625L14.4106 8.59376V5.71875" fill="#58150D"/>
<path id="Vector_7" fill-rule="evenodd" clip-rule="evenodd" d="M12.0552 15.0312L14.4106 15.5L12.0552 17.9688L9.70566 15.5L12.0552 15.0312Z" fill="#58150D"/>
<path id="Vector_8" fill-rule="evenodd" clip-rule="evenodd" d="M12.0653 3.5625L14.4204 4.89844V8.58984L12.0579 7.87501L12.0653 3.5625Z" fill="#7B1D13"/>
<path id="Vector_9" fill-rule="evenodd" clip-rule="evenodd" d="M12.0582 9.90625L14.4106 10.1813V13.867L12.0582 14.1563V9.90625Z" fill="#7B1D13"/>
<path id="Vector_10" fill-rule="evenodd" clip-rule="evenodd" d="M12.0582 16.1249L14.4106 15.491V19.1143L12.0582 20.4375V16.1249Z" fill="#7B1D13"/>
<path id="Vector_11" fill-rule="evenodd" clip-rule="evenodd" d="M9.70561 15.491L12.0581 16.1251V20.4375L9.70561 19.1143V15.491Z" fill="#E25444"/>
<path id="Vector_12" fill-rule="evenodd" clip-rule="evenodd" d="M12.0581 9.90625L9.70561 10.1813V13.867L12.0581 14.1563V9.90625Z" fill="#E25444"/>
<path id="Vector_13" fill-rule="evenodd" clip-rule="evenodd" d="M12.0654 3.5625L9.71029 4.89844V8.58984L12.0654 7.88672V3.5625Z" fill="#E25444"/>
</g>
</g>
<defs>
<clipPath id="clip0_826_561478">
<rect width="14" height="18" fill="white" transform="matrix(-1 0 0 1 19 3)"/>
</clipPath>
</defs>
</svg>
