<svg xmlns="http://www.w3.org/2000/svg" viewBox="0 0 48 48" width="48" height="48">
  <circle cx="20" cy="14" r="11" fill="#036C70"/>
  <circle cx="31" cy="25" r="10" fill="#1A9BA1"/>
  <circle cx="22.5" cy="36.5" r="8.5" fill="#37C6D0"/>
  <path d="M22 11H10.5A1.5 1.5 0 0 0 9 12.5v18A1.5 1.5 0 0 0 10.5 32H22a1.5 1.5 0 0 0 1.5-1.5v-18A1.5 1.5 0 0 0 22 11z" opacity=".1"/>
  <path d="M21 12H10.5A1.5 1.5 0 0 0 9 13.5v18A1.5 1.5 0 0 0 10.5 33H21a1.5 1.5 0 0 0 1.5-1.5v-18A1.5 1.5 0 0 0 21 12z" opacity=".2"/>
  <rect x="2" y="14" width="22" height="22" rx="1.5" fill="#03787C"/>
  <path d="M10.2 24.6c-.5-.3-.9-.7-1.2-1.1a2.6 2.6 0 0 1-.4-1.5c0-.8.3-1.5.9-2 .6-.5 1.4-.8 2.5-.8 1 0 1.8.1 2.5.4v1.9a4 4 0 0 0-2.3-.6c-.4 0-.8.1-1 .3-.3.1-.4.4-.4.7 0 .2.1.4.3.6.2.2.6.4 1.2.6.9.3 1.6.7 2 1.1.4.4.6 1 .6 1.6 0 .9-.3 1.5-.9 2-.6.5-1.5.7-2.6.7-.5 0-1-.1-1.5-.2a4 4 0 0 1-1.1-.4v-2c.4.3.8.5 1.3.7.5.2.9.2 1.3.2.5 0 .8-.1 1-.3.2-.1.3-.4.3-.7 0-.3-.1-.5-.4-.7-.2-.2-.7-.5-1.4-.8z" fill="#fff"/>
</svg>
