<svg xmlns="http://www.w3.org/2000/svg" width="48" height="48" viewBox="0 0 34 30" fill="none">
  <path fill="#000000" d="M33.6575 13.218C34.296 14.3207 34.296 15.6793 33.6575 16.782L27.0356 28.218C26.3971 29.3207 25.2171 30 23.94 30H10.6963C9.41929 30 8.23925 29.3207 7.60073 28.218L0.97889 16.782C0.340367 15.6793 0.340371 14.3207 0.978895 13.218L7.60073 1.78204C8.23925 0.679309 9.41929 -5.56587e-08 10.6963 0L23.94 5.77212e-07C25.2171 6.3287e-07 26.3971 0.67931 27.0356 1.78204L33.6575 13.218Z" />
  <path fill="#ffffff" d="M9.99264 19.9863C9.74359 19.9863 9.49298 19.9072 9.28129 19.7458C8.77073 19.3531 8.67423 18.6221 9.06804 18.113L13.7269 12.0756C13.9168 11.8289 14.1985 11.669 14.5067 11.6302C14.8211 11.5898 15.1293 11.6768 15.3737 11.8708L19.7633 15.3085L23.6033 10.3684C23.9987 9.85777 24.7303 9.7631 25.2408 10.1604C25.7514 10.5546 25.8448 11.2856 25.4494 11.7932L20.8887 17.6598C20.6988 17.9051 20.4186 18.0649 20.1104 18.1022C19.7991 18.1441 19.4909 18.0541 19.2449 17.8632L14.8585 14.427L10.9188 19.5316C10.6884 19.8296 10.3429 19.9863 9.99264 19.9863Z" />
</svg>
