<svg width="24" height="24" viewBox="0 0 24 24" fill="none" xmlns="http://www.w3.org/2000/svg">
<path d="M21.0001 5C21.0001 6.65685 16.9706 8 12.0001 8C7.0295 8 3.00007 6.65685 3.00007 5M21.0001 5C21.0001 3.34315 16.9706 2 12.0001 2C7.0295 2 3.00007 3.34315 3.00007 5M21.0001 5V8M3.00007 5L3.00007 19C2.9945 19.4809 3.33587 19.9552 3.9954 20.383C4.65493 20.8107 5.61329 21.1793 6.7897 21.4577C7.96611 21.7361 9.32608 21.9162 10.755 21.9827C12.1839 22.0493 13.6398 22.0003 15.0001 21.84M3.00007 12C3.00151 12.4675 3.33075 12.9285 3.96152 13.3461C4.59229 13.7636 5.50712 14.1263 6.63303 14.4051C7.75894 14.6839 9.06475 14.8711 10.4463 14.9519C11.8278 15.0326 13.2468 15.0045 14.5901 14.87" stroke="url(#paint0_linear_510_2111)" stroke-width="1.5" stroke-linecap="round" stroke-linejoin="round"/>
<path d="M21 12L18 17H22L19 22" stroke="#00BEB4" stroke-width="1.5" stroke-linecap="round" stroke-linejoin="round"/>
<defs>
<linearGradient id="paint0_linear_510_2111" x1="12.5" y1="2" x2="12.5" y2="22.0116" gradientUnits="userSpaceOnUse">
<stop stop-color="white"/>
<stop offset="1" stop-color="#666666"/>
</linearGradient>
</defs>
</svg>
