<svg width="24" height="24" viewBox="0 0 24 24" fill="none" xmlns="http://www.w3.org/2000/svg">
<path d="M19.3096 9.16504C19.8021 9.16504 20.2745 9.35961 20.6228 9.70594C20.9711 10.0523 21.1667 10.522 21.1667 11.0118V20.5095C21.1667 20.6392 21.1281 20.7659 21.0556 20.8737C20.9832 20.9815 20.8802 21.0655 20.7597 21.1151C20.6393 21.1648 20.5067 21.1777 20.3789 21.1524C20.251 21.1272 20.1335 21.0647 20.0413 20.9731L17.9966 18.9398C17.6484 18.5935 17.1761 18.3988 16.6836 18.3987H10.0239C9.53135 18.3987 9.05897 18.2041 8.71069 17.8578C8.36241 17.5115 8.16675 17.0418 8.16675 16.552V15.6286" stroke="#00BEB4" stroke-width="1.5" stroke-linecap="round" stroke-linejoin="round"/>
<path d="M18.1667 11.7831C18.1667 12.3546 17.941 12.9026 17.5391 13.3066C17.1373 13.7107 16.5922 13.9377 16.0239 13.9377H8.3396C7.77133 13.9378 7.22637 14.1649 6.8246 14.5689L4.46532 16.9411C4.35893 17.048 4.22339 17.1208 4.07584 17.1503C3.92829 17.1799 3.77535 17.1647 3.63636 17.1068C3.49737 17.0489 3.37857 16.9509 3.29498 16.8252C3.21139 16.6994 3.16677 16.5515 3.16675 16.4003V5.31956C3.16675 4.74815 3.39251 4.20014 3.79438 3.79608C4.19624 3.39203 4.74128 3.16504 5.30961 3.16504H16.0239C16.5922 3.16504 17.1373 3.39203 17.5391 3.79608C17.941 4.20014 18.1667 4.74815 18.1667 5.31956V11.7831Z" stroke="url(#paint0_linear_508_48870)" stroke-width="1.5" stroke-linecap="round" stroke-linejoin="round"/>
<defs>
<linearGradient id="paint0_linear_508_48870" x1="11.0834" y1="3.16504" x2="11.0834" y2="17.165" gradientUnits="userSpaceOnUse">
<stop stop-color="#161618"/>
<stop offset="1" stop-color="#888888"/>
</linearGradient>
</defs>
</svg>
