<svg width="16" height="16" viewBox="0 0 16 16" fill="none" xmlns="http://www.w3.org/2000/svg">
<g clip-path="url(#clip0_2839_15284)">
<path d="M7.33325 9.9987H8.66659C9.02021 9.9987 9.35935 9.85822 9.60939 9.60817C9.85944 9.35813 9.99992 9.01899 9.99992 8.66537C9.99992 8.31174 9.85944 7.9726 9.60939 7.72256C9.35935 7.47251 9.02021 7.33203 8.66659 7.33203H6.66659C6.26659 7.33203 5.93325 7.46537 5.73325 7.73203L1.99992 11.332M4.66659 13.9987L5.73325 13.0654C5.93325 12.7987 6.26659 12.6654 6.66659 12.6654H9.33325C10.0666 12.6654 10.7333 12.3987 11.1999 11.8654L14.2666 8.93203C14.5238 8.68892 14.674 8.35356 14.684 7.99974C14.694 7.64593 14.563 7.30262 14.3199 7.04536C14.0768 6.7881 13.7414 6.63796 13.3876 6.62796C13.0338 6.61795 12.6905 6.74892 12.4333 6.99203L9.63325 9.59203M1.33325 10.6654L5.33325 14.6654M12.1666 4.9987C12.1666 5.9652 11.3831 6.7487 10.4166 6.7487C9.45009 6.7487 8.66659 5.9652 8.66659 4.9987C8.66659 4.0322 9.45009 3.2487 10.4166 3.2487C11.3831 3.2487 12.1666 4.0322 12.1666 4.9987ZM5.99992 2.58203C5.99992 3.6866 5.10449 4.58203 3.99992 4.58203C2.89535 4.58203 1.99992 3.6866 1.99992 2.58203C1.99992 1.47746 2.89535 0.582031 3.99992 0.582031C5.10449 0.582031 5.99992 1.47746 5.99992 2.58203Z" stroke="url(#paint0_linear_2839_15284)" stroke-linecap="round" stroke-linejoin="round"/>
<path d="M8.42495 3.13396L8.51743 2.9219C8.67955 2.54653 8.9763 2.24552 9.3492 2.07817L9.63413 1.95163C9.6687 1.9358 9.698 1.91037 9.71854 1.87837C9.73908 1.84636 9.75 1.80912 9.75 1.77108C9.75 1.73304 9.73908 1.69581 9.71854 1.6638C9.698 1.63179 9.6687 1.60636 9.63413 1.59053L9.3652 1.4705C8.9827 1.29881 8.68067 0.986768 8.52143 0.598757L8.42645 0.369693C8.41238 0.33437 8.38805 0.304082 8.35659 0.282744C8.32513 0.261406 8.288 0.25 8.25 0.25C8.212 0.25 8.17487 0.261406 8.14341 0.282744C8.11195 0.304082 8.08762 0.33437 8.07355 0.369693L7.97857 0.598757C7.81944 0.986956 7.51739 1.29919 7.1348 1.471L6.86587 1.59053C6.8313 1.60636 6.802 1.63179 6.78146 1.6638C6.76092 1.69581 6.75 1.73304 6.75 1.77108C6.75 1.80912 6.76092 1.84636 6.78146 1.87837C6.802 1.91037 6.8313 1.9358 6.86587 1.95163L7.1508 2.07817C7.5207 2.24321 7.81762 2.5438 7.98257 2.9219L8.07505 3.13396C8.08959 3.16836 8.11393 3.19772 8.14505 3.21836C8.17616 3.23899 8.21267 3.25 8.25 3.25C8.28733 3.25 8.32384 3.23899 8.35495 3.21836C8.38607 3.19772 8.41041 3.16836 8.42495 3.13396Z" fill="url(#paint1_linear_2839_15284)"/>
</g>
<defs>
<linearGradient id="paint0_linear_2839_15284" x1="4.5" y1="1.5" x2="15" y2="14.5" gradientUnits="userSpaceOnUse">
<stop stop-color="#00BEB4"/>
<stop offset="1" stop-color="#00BE6F"/>
</linearGradient>
<linearGradient id="paint1_linear_2839_15284" x1="4.83734" y1="0.252133" x2="9.27694" y2="6.13523" gradientUnits="userSpaceOnUse">
<stop stop-color="#01BEB3"/>
<stop offset="1" stop-color="#01C48D"/>
</linearGradient>
<clipPath id="clip0_2839_15284">
<rect width="16" height="16" fill="white"/>
</clipPath>
</defs>
</svg>
