<svg width="32" height="32" viewBox="0 0 32 32" fill="none" xmlns="http://www.w3.org/2000/svg">
<path d="M14.667 20.0004H17.3337C18.0409 20.0004 18.7192 19.7194 19.2193 19.2193C19.7194 18.7192 20.0003 18.0409 20.0003 17.3337C20.0003 16.6265 19.7194 15.9482 19.2193 15.4481C18.7192 14.948 18.0409 14.667 17.3337 14.667H13.3337C12.5337 14.667 11.867 14.9337 11.467 15.467L4.00033 22.667M9.33366 28.0004L11.467 26.1337C11.867 25.6004 12.5337 25.3337 13.3337 25.3337H18.667C20.1337 25.3337 21.467 24.8004 22.4003 23.7337L28.5337 17.867C29.0482 17.3808 29.3485 16.7101 29.3685 16.0025C29.3885 15.2948 29.1266 14.6082 28.6403 14.0937C28.1541 13.5792 27.4834 13.2789 26.7757 13.2589C26.0681 13.2389 25.3815 13.5008 24.867 13.987L19.267 19.187M2.66699 21.3337L10.667 29.3337" stroke="url(#paint0_linear_2839_15297)" stroke-width="1.5" stroke-linecap="round" stroke-linejoin="round"/>
<path d="M12.2916 5.3066L12.4457 4.95317C12.7159 4.32755 13.2105 3.82586 13.832 3.54695L14.3069 3.33605C14.3645 3.30967 14.4133 3.26729 14.4476 3.21394C14.4818 3.1606 14.5 3.09853 14.5 3.03514C14.5 2.97174 14.4818 2.90968 14.4476 2.85633C14.4133 2.80298 14.3645 2.7606 14.3069 2.73422L13.8587 2.53416C13.2212 2.24802 12.7178 1.72795 12.4524 1.08126L12.2941 0.699488C12.2706 0.640617 12.2301 0.590136 12.1777 0.554573C12.1252 0.51901 12.0633 0.5 12 0.5C11.9367 0.5 11.8748 0.51901 11.8223 0.554573C11.7699 0.590136 11.7294 0.640617 11.7059 0.699488L11.5476 1.08126C11.2824 1.72826 10.779 2.24866 10.1413 2.535L9.69312 2.73422C9.63551 2.7606 9.58667 2.80298 9.55244 2.85633C9.5182 2.90968 9.5 2.97174 9.5 3.03514C9.5 3.09853 9.5182 3.1606 9.55244 3.21394C9.58667 3.26729 9.63551 3.30967 9.69312 3.33605L10.168 3.54695C10.7845 3.82202 11.2794 4.32299 11.5543 4.95317L11.7084 5.3066C11.7326 5.36394 11.7732 5.41286 11.8251 5.44726C11.8769 5.48166 11.9378 5.5 12 5.5C12.0622 5.5 12.1231 5.48166 12.1749 5.44726C12.2268 5.41286 12.2674 5.36394 12.2916 5.3066Z" fill="url(#paint1_linear_2839_15297)"/>
<path d="M16 8.968L17.2307 8.45867M17.2307 5.39733L16 4.88667M19.396 3.232L18.8853 2M19.396 10.624L18.8853 11.8547M22.4573 3.232L22.968 2M22.9667 11.856L22.4573 10.624M24.6227 5.39733L25.8547 4.88667M24.6227 8.45867L25.8547 8.96933M24.9267 6.928C24.9267 9.13714 23.1358 10.928 20.9267 10.928C18.7175 10.928 16.9267 9.13714 16.9267 6.928C16.9267 4.71886 18.7175 2.928 20.9267 2.928C23.1358 2.928 24.9267 4.71886 24.9267 6.928Z" stroke="url(#paint2_linear_2839_15297)" stroke-width="1.5" stroke-linecap="round" stroke-linejoin="round"/>
<defs>
<linearGradient id="paint0_linear_2839_15297" x1="9.00049" y1="3.00195" x2="30.0005" y2="29.002" gradientUnits="userSpaceOnUse">
<stop stop-color="#00BEB4"/>
<stop offset="1" stop-color="#00BE6F"/>
</linearGradient>
<linearGradient id="paint1_linear_2839_15297" x1="6.31224" y1="0.503555" x2="13.7116" y2="10.3087" gradientUnits="userSpaceOnUse">
<stop stop-color="#01BEB3"/>
<stop offset="1" stop-color="#01C48D"/>
</linearGradient>
<linearGradient id="paint2_linear_2839_15297" x1="5.91825" y1="3.62484" x2="23.9137" y2="28.7657" gradientUnits="userSpaceOnUse">
<stop stop-color="#00BEB4"/>
<stop offset="1" stop-color="#00BE6F"/>
</linearGradient>
</defs>
</svg>
