<svg width="16" height="16" viewBox="0 0 16 16" fill="none" xmlns="http://www.w3.org/2000/svg">
<g clip-path="url(#clip0_2839_15291)">
<path d="M3.99986 0.570312C4.90917 0.570313 5.78124 0.931536 6.42423 1.57452C7.06721 2.2175 7.42843 3.08957 7.42843 3.99888C7.42843 4.9082 7.06721 5.78027 6.42423 6.42325C5.78124 7.06623 4.90917 7.42746 3.99986 7.42746C3.09055 7.42746 2.21848 7.06623 1.57549 6.42325C0.932512 5.78027 0.571289 4.9082 0.571289 3.99888C0.571289 3.08957 0.932512 2.2175 1.57549 1.57452C2.21848 0.931536 3.09055 0.570313 3.99986 0.570312ZM3.99986 1.71317C3.6997 1.71317 3.40247 1.77229 3.12516 1.88716C2.84784 2.00203 2.59586 2.17039 2.38362 2.38264C2.17137 2.59489 2.003 2.84686 1.88814 3.12418C1.77327 3.40149 1.71415 3.69872 1.71415 3.99888C1.71415 4.29905 1.77327 4.59627 1.88814 4.87359C2.003 5.1509 2.17137 5.40288 2.38362 5.61513C2.59586 5.82738 2.84784 5.99574 3.12516 6.11061C3.40247 6.22548 3.6997 6.2846 3.99986 6.2846C4.60607 6.2846 5.18745 6.04378 5.6161 5.61513C6.04476 5.18647 6.28557 4.60509 6.28557 3.99888C6.28557 3.39267 6.04476 2.81129 5.6161 2.38264C5.18745 1.95399 4.60607 1.71317 3.99986 1.71317ZM3.99986 8.57031C4.90917 8.57031 5.78124 8.93154 6.42423 9.57452C7.06721 10.2175 7.42843 11.0896 7.42843 11.9989C7.42843 12.9082 7.06721 13.7803 6.42423 14.4233C5.78124 15.0662 4.90917 15.4275 3.99986 15.4275C3.09055 15.4275 2.21848 15.0662 1.57549 14.4233C0.932512 13.7803 0.571289 12.9082 0.571289 11.9989C0.571289 11.0896 0.932512 10.2175 1.57549 9.57452C2.21848 8.93154 3.09055 8.57031 3.99986 8.57031ZM3.99986 9.71317C3.6997 9.71317 3.40247 9.77229 3.12516 9.88716C2.84784 10.002 2.59586 10.1704 2.38362 10.3826C2.17137 10.5949 2.003 10.8469 1.88814 11.1242C1.77327 11.4015 1.71415 11.6987 1.71415 11.9989C1.71415 12.299 1.77327 12.5963 1.88814 12.8736C2.003 13.1509 2.17137 13.4029 2.38362 13.6151C2.59586 13.8274 2.84784 13.9957 3.12516 14.1106C3.40247 14.2255 3.6997 14.2846 3.99986 14.2846C4.60607 14.2846 5.18745 14.0438 5.6161 13.6151C6.04476 13.1865 6.28557 12.6051 6.28557 11.9989C6.28557 11.3927 6.04476 10.8113 5.6161 10.3826C5.18745 9.95399 4.60607 9.71317 3.99986 9.71317ZM11.9999 8.57031C12.9092 8.57031 13.7812 8.93154 14.4242 9.57452C15.0672 10.2175 15.4284 11.0896 15.4284 11.9989C15.4284 12.9082 15.0672 13.7803 14.4242 14.4233C13.7812 15.0662 12.9092 15.4275 11.9999 15.4275C11.0905 15.4275 10.2185 15.0662 9.57549 14.4233C8.93251 13.7803 8.57129 12.9082 8.57129 11.9989C8.57129 11.0896 8.93251 10.2175 9.57549 9.57452C10.2185 8.93154 11.0905 8.57031 11.9999 8.57031ZM11.9999 9.71317C11.6997 9.71317 11.4025 9.77229 11.1252 9.88716C10.8478 10.002 10.5959 10.1704 10.3836 10.3826C10.1714 10.5949 10.003 10.8469 9.88814 11.1242C9.77327 11.4015 9.71415 11.6987 9.71415 11.9989C9.71415 12.299 9.77327 12.5963 9.88814 12.8736C10.003 13.1509 10.1714 13.4029 10.3836 13.6151C10.5959 13.8274 10.8478 13.9957 11.1252 14.1106C11.4025 14.2255 11.6997 14.2846 11.9999 14.2846C12.6061 14.2846 13.1875 14.0438 13.6161 13.6151C14.0448 13.1865 14.2856 12.6051 14.2856 11.9989C14.2856 11.3927 14.0448 10.8113 13.6161 10.3826C13.1875 9.95399 12.6061 9.71317 11.9999 9.71317ZM12.1896 7.7326L12.401 7.24803C12.7717 6.39027 13.4501 5.70243 14.3027 5.32003L14.9541 5.03088C15.0332 4.99472 15.1002 4.93661 15.1471 4.86347C15.1941 4.79032 15.2191 4.70523 15.2191 4.61831C15.2191 4.53139 15.1941 4.4463 15.1471 4.37316C15.1002 4.30002 15.0332 4.24191 14.9541 4.20574L14.3393 3.93146C13.4648 3.53914 12.7742 2.82609 12.4101 1.93946L12.193 1.41603C12.1608 1.33531 12.1052 1.2661 12.0333 1.21734C11.9614 1.16858 11.8765 1.14252 11.7896 1.14252C11.7027 1.14252 11.6178 1.16858 11.5459 1.21734C11.474 1.2661 11.4183 1.33531 11.3861 1.41603L11.169 1.93946C10.8052 2.82652 10.1146 3.54001 9.23986 3.9326L8.625 4.20574C8.54596 4.24191 8.47898 4.30002 8.43201 4.37316C8.38505 4.4463 8.36008 4.53139 8.36008 4.61831C8.36008 4.70523 8.38505 4.79032 8.43201 4.86347C8.47898 4.93661 8.54596 4.99472 8.625 5.03088L9.27643 5.32003C10.1221 5.69717 10.801 6.38403 11.1781 7.24803L11.3896 7.7326C11.4228 7.81121 11.4785 7.87829 11.5496 7.92545C11.6208 7.97261 11.7042 7.99776 11.7896 7.99776C11.8749 7.99776 11.9584 7.97261 12.0295 7.92545C12.1007 7.87829 12.1563 7.81121 12.1896 7.7326Z" fill="url(#paint0_linear_2839_15291)"/>
</g>
<defs>
<linearGradient id="paint0_linear_2839_15291" x1="3.98714" y1="1.14745" x2="14.1304" y2="14.5961" gradientUnits="userSpaceOnUse">
<stop stop-color="#01BEB3"/>
<stop offset="1" stop-color="#01C48D"/>
</linearGradient>
<clipPath id="clip0_2839_15291">
<rect width="16" height="16" fill="white"/>
</clipPath>
</defs>
</svg>
