<svg width="40" height="40" viewBox="0 0 40 40" fill="none" xmlns="http://www.w3.org/2000/svg">
<path d="M35.3194 10.6367H20.4258C19.4857 10.6367 18.7236 11.3988 18.7236 12.3388V34.892C18.7236 35.8321 19.4857 36.5942 20.4258 36.5942H35.3194C36.2594 36.5942 37.0215 35.8321 37.0215 34.892V12.3388C37.0215 11.3988 36.2594 10.6367 35.3194 10.6367Z" fill="url(#paint0_linear_488_37636)"/>
<path d="M31.0639 4.25391H5.10642C4.16637 4.25391 3.4043 5.01597 3.4043 5.95603V18.2965C3.4043 19.2365 4.16637 19.9986 5.10642 19.9986H31.0639C32.0039 19.9986 32.766 19.2365 32.766 18.2965V5.95603C32.766 5.01597 32.0039 4.25391 31.0639 4.25391Z" fill="#00BEB4" fill-opacity="0.1"/>
<path d="M31.0639 4.25391C32.0039 4.25391 32.766 5.01597 32.766 5.95603V18.2965C32.766 19.2365 32.0039 19.9986 31.0639 19.9986H5.10642C4.16637 19.9986 3.4043 19.2365 3.4043 18.2965V5.95603C3.4043 5.01597 4.16637 4.25391 5.10642 4.25391H31.0639ZM31.0639 4.67944H5.10642C4.40138 4.67944 3.82983 5.25099 3.82983 5.95603V18.2965C3.82983 19.0015 4.40138 19.5731 5.10642 19.5731H31.0639C31.7689 19.5731 32.3405 19.0015 32.3405 18.2965V5.95603C32.3405 5.25099 31.7689 4.67944 31.0639 4.67944Z" fill="#00BEB4"/>
<path d="M31.0639 22.5547H5.10642C4.16637 22.5547 3.4043 23.3168 3.4043 24.2568V34.8951C3.4043 35.8352 4.16637 36.5972 5.10642 36.5972H31.0639C32.0039 36.5972 32.766 35.8352 32.766 34.8951V24.2568C32.766 23.3168 32.0039 22.5547 31.0639 22.5547Z" fill="#00BEB4" fill-opacity="0.1"/>
<path d="M31.0639 22.5547C32.0039 22.5547 32.766 23.3168 32.766 24.2568V34.8951C32.766 35.8352 32.0039 36.5972 31.0639 36.5972H5.10642C4.16637 36.5972 3.4043 35.8352 3.4043 34.8951V24.2568C3.4043 23.3168 4.16637 22.5547 5.10642 22.5547H31.0639ZM31.0639 22.9802H5.10642C4.40138 22.9802 3.82983 23.5518 3.82983 24.2568V34.8951C3.82983 35.6002 4.40138 36.1717 5.10642 36.1717H31.0639C31.7689 36.1717 32.3405 35.6002 32.3405 34.8951V24.2568C32.3405 23.5518 31.7689 22.9802 31.0639 22.9802Z" fill="#00BEB4"/>
<path d="M10.6384 14.8949C12.2835 14.8949 13.6171 13.5613 13.6171 11.9162C13.6171 10.2711 12.2835 8.9375 10.6384 8.9375C8.99329 8.9375 7.65967 10.2711 7.65967 11.9162C7.65967 13.5613 8.99329 14.8949 10.6384 14.8949Z" fill="#00BEB4"/>
<path d="M10.6384 32.766C12.2835 32.766 13.6171 31.4324 13.6171 29.7873C13.6171 28.1422 12.2835 26.8086 10.6384 26.8086C8.99329 26.8086 7.65967 28.1422 7.65967 29.7873C7.65967 31.4324 8.99329 32.766 10.6384 32.766Z" fill="#00BEB4"/>
<defs>
<linearGradient id="paint0_linear_488_37636" x1="933.617" y1="10.6367" x2="933.617" y2="2606.38" gradientUnits="userSpaceOnUse">
<stop stop-color="#C9F1EF"/>
<stop offset="1" stop-color="#00BEB4"/>
</linearGradient>
</defs>
</svg>
