<?xml version="1.0" encoding="UTF-8"?>
<svg version="1.1" xmlns="http://www.w3.org/2000/svg" viewBox="0 0 1061 180" preserveAspectRatio="xMidYMid meet">
<path d="M0 0 C1.30945119 0.683835 2.62331497 1.35931801 3.94238281 2.02441406 C12.56327922 6.37793362 20.62987902 11.39934966 28.59423828 16.85009766 C29.35519806 17.37033005 30.11615784 17.89056244 30.900177 18.42655945 C34.78375324 21.08835444 38.65193609 23.76997066 42.50390625 26.47729492 C43.94794917 27.47805257 45.39211704 28.47862993 46.83642578 29.47900391 C47.5023877 29.95556427 48.16834961 30.43212463 48.85449219 30.92312622 C52.13478358 33.38737021 52.13478358 33.38737021 56.02897644 33.8031311 C59.44520241 32.5372954 62.34226424 30.38668692 65.34033203 28.35400391 C66.81407955 27.37024877 68.28796175 26.38669539 69.76196289 25.40332031 C70.53071747 24.88763489 71.29947205 24.37194946 72.09152222 23.84063721 C115.20342432 -5.02679099 164.36869573 -31.16397614 218.09082031 -20.73925781 C243.7880212 -15.17663513 266.71158478 -2.76870963 281.84765625 19.21533203 C294.24351361 38.53753443 298.77215791 64.24485124 293.90454102 86.67553711 C288.30908742 108.57162551 275.71622067 129.15451214 256.18701172 141.19873047 C246.27602987 147.03921661 236.21695048 151.37367898 225.03173828 154.06103516 C224.3669043 154.2232959 223.70207031 154.38555664 223.01708984 154.55273438 C203.34445492 159.11539192 181.63651725 158.79189329 162.03173828 154.06103516 C160.81574951 153.77099609 160.81574951 153.77099609 159.57519531 153.47509766 C121.60744115 144.12918894 87.32182858 122.89089724 56.03173828 100.06103516 C51.63032221 102.47471494 47.54087297 105.0547556 43.4921875 108.01806641 C2.45453209 138.05093419 -49.45514704 163.98956823 -101.70263672 156.33837891 C-106.52471872 155.48910183 -111.25044781 154.36550964 -115.96826172 153.06103516 C-116.65694336 152.87379883 -117.345625 152.6865625 -118.05517578 152.49365234 C-140.83051967 146.10154177 -161.18820634 131.85820962 -172.90722656 111.10302734 C-183.90291785 89.94150825 -187.07845393 64.83976723 -180.22216797 41.77587891 C-172.00009452 17.4170258 -157.04150047 -0.51547416 -134.08544922 -11.90771484 C-90.44554302 -32.56540448 -41.00057128 -21.503254 0 0 Z M-86.28076172 24.87353516 C-87.01278809 25.28224854 -87.74481445 25.69096191 -88.49902344 26.11206055 C-102.04354644 33.91298247 -112.75646303 43.71361156 -117.31201172 59.04931641 C-119.80573922 70.49374438 -117.0371146 80.86357658 -110.81591797 90.61572266 C-103.20589614 100.68733717 -89.53911805 110.53572281 -76.96826172 113.06103516 C-70.40231219 113.01403132 -64.72568474 111.18007192 -58.71826172 108.68603516 C-57.85982666 108.33444336 -57.0013916 107.98285156 -56.11694336 107.62060547 C-39.11599085 100.48406051 -23.29408702 91.25792458 -7.96826172 81.06103516 C-7.15115723 80.5220459 -6.33405273 79.98305664 -5.4921875 79.42773438 C-3.07546612 77.82369897 -0.67551215 76.19764979 1.71923828 74.56103516 C2.4569043 74.06869385 3.19457031 73.57635254 3.95458984 73.0690918 C4.62329102 72.60237061 5.29199219 72.13564941 5.98095703 71.65478516 C6.86787231 71.04666992 6.86787231 71.04666992 7.77270508 70.42626953 C9.48369565 68.88048062 9.48369565 68.88048062 9.03173828 65.06103516 C6.73735614 62.95709037 6.73735614 62.95709037 3.65283203 61.04931641 C3.09405365 60.6796022 2.53527527 60.309888 1.95956421 59.92897034 C0.13835175 58.72955895 -1.69538619 57.55113692 -3.53076172 56.37353516 C-4.78494734 55.55614123 -6.03860927 54.73794323 -7.29174805 53.91894531 C-10.83644627 51.61041498 -14.39924663 49.3317932 -17.96826172 47.06103516 C-18.79100586 46.53654785 -19.61375 46.01206055 -20.46142578 45.47167969 C-32.86665092 37.63020099 -45.84608955 31.20012173 -59.40576172 25.62353516 C-60.22197998 25.2812085 -61.03819824 24.93888184 -61.87915039 24.58618164 C-71.06492516 20.91318118 -77.52202201 19.79486063 -86.28076172 24.87353516 Z M101.03173828 66.06103516 C102.54961973 70.09169781 104.9321484 71.6588493 108.46533203 74.00244141 C109.01020767 74.36664185 109.55508331 74.73084229 110.11647034 75.1060791 C111.89402427 76.28907195 113.68076949 77.45712047 115.46923828 78.62353516 C116.7055792 79.43723642 117.94190724 80.25095725 119.17822266 81.06469727 C151.7955209 104.32396358 151.7955209 104.32396358 188.98999023 112.57763672 C192.58708967 111.66750131 195.76067247 110.0961299 199.03173828 108.37353516 C199.73161865 108.01267822 200.43149902 107.65182129 201.15258789 107.2800293 C206.16503146 104.64260854 210.78141701 101.83132014 215.03173828 98.06103516 C215.93085938 97.31660156 215.93085938 97.31660156 216.84814453 96.55712891 C223.83758839 90.29229261 228.59691864 81.11999739 229.27001953 71.74072266 C229.42651359 63.71834277 228.98630606 57.21633123 225.03173828 50.06103516 C224.61923828 49.30435547 224.20673828 48.54767578 223.78173828 47.76806641 C216.93214834 36.4623512 206.4394817 30.03523254 195.03173828 24.06103516 C194.00564453 23.49126953 192.97955078 22.92150391 191.92236328 22.33447266 C168.39613944 11.97021729 118.01449718 53.77462578 101.03173828 66.06103516 Z " fill="#7BB16F" transform="translate(182.96826171875,22.93896484375)"/>
<path d="M0 0 C101.97539543 0 101.97539543 0 120 16 C131.16771468 27.32043556 134.88599498 41.13783785 135.3125 56.6875 C135.07617647 70.89842142 132.47405199 84.34817851 124 96 C123.42765625 96.79277344 122.8553125 97.58554688 122.265625 98.40234375 C119.6925268 101.35253393 117.04005675 103.2025723 113.75 105.3125 C112.67234375 106.00988281 111.5946875 106.70726563 110.484375 107.42578125 C109.66453125 107.94527344 108.8446875 108.46476562 108 109 C108.64512424 110.16705892 109.29119081 111.33359688 109.9375 112.5 C110.63359375 113.76070312 110.63359375 113.76070312 111.34375 115.046875 C112.48959703 117.08994188 113.65783629 119.12055165 114.84375 121.140625 C122.06331517 133.5194999 128.10241163 146.46249545 134.25488281 159.39160156 C135.47023418 161.92432221 136.71787603 164.43828875 137.98730469 166.94433594 C138.47443436 167.90658585 138.47443436 167.90658585 138.97140503 168.88827515 C139.88051071 170.67669543 140.79531879 172.46221366 141.71044922 174.24755859 C143 177 143 177 143 179 C125.84 179 108.68 179 91 179 C82.35291649 160.45565224 74.05688658 141.80623445 66 123 C65.01 120.69 64.02 118.38 63 116 C57.72 115.67 52.44 115.34 47 115 C47 136.12 47 157.24 47 179 C31.49 179 15.98 179 0 179 C0 119.93 0 60.86 0 0 Z M47 38 C47 52.52 47 67.04 47 82 C65.83786383 83.11007285 65.83786383 83.11007285 82.4375 76.6875 C87.27132936 71.61787409 88.71566326 66.62529342 89.25 59.8125 C88.82722314 53.36515292 87.74934032 47.95759512 83.375 43.0625 C75.2667437 38.10745448 67.79561503 37.59424056 58.4375 37.8125 C54.663125 37.874375 50.88875 37.93625 47 38 Z " fill="#0095D8" transform="translate(740,1)"/>
<path d="M0 0 C19.14 0 38.28 0 58 0 C61.31512853 7.95630847 64.40114209 15.76229981 67.1171875 23.91015625 C67.49100555 25.01912766 67.86482361 26.12809906 68.24996948 27.27067566 C69.04807981 29.63912927 69.8443944 32.00818866 70.63903809 34.37780762 C72.75241239 40.67827214 74.88020864 46.97386154 77.0078125 53.26953125 C77.22126312 53.90156841 77.43471375 54.53360558 77.65463257 55.18479538 C81.61177782 66.89968901 85.65633621 78.58222394 89.75 90.25 C94.87652768 104.87428558 99.93884531 119.51898366 104.9375 134.1875 C105.23724731 135.06627808 105.53699463 135.94505615 105.8458252 136.85046387 C110.62889047 150.87915524 115.31283217 164.93849652 120 179 C102.84 179 85.68 179 68 179 C66.35 173.76125 64.7 168.5225 63 163.125 C62.47792969 161.47258301 61.95585938 159.82016602 61.41796875 158.11767578 C61.0075864 156.81029231 60.59741558 155.5028424 60.1875 154.1953125 C59.97158203 153.51460693 59.75566406 152.83390137 59.53320312 152.13256836 C58 147.2281436 58 147.2281436 58 145 C29.29 145.495 29.29 145.495 0 146 C-3.3 156.89 -6.6 167.78 -10 179 C-27.16 179 -44.32 179 -62 179 C-55.4227108 159.1057302 -48.73882369 139.26589235 -41.8053894 119.4937439 C-36.79065571 105.18900872 -31.86840619 90.85516168 -27 76.5 C-21.96161118 61.65254422 -16.88818482 46.81807312 -11.73291016 32.01074219 C-11.08662703 30.15440386 -10.44109722 28.29780306 -9.79638672 26.44091797 C-8.90323989 23.86988052 -8.00685233 21.29999729 -7.109375 18.73046875 C-6.72443878 17.62103157 -6.72443878 17.62103157 -6.33172607 16.48918152 C-4.37657197 10.91190002 -2.20115766 5.50289414 0 0 Z M29 44 C26.22390965 51.02296063 24.09797417 58.18609073 21.98828125 65.43359375 C21.61165013 66.72020454 21.23478973 68.00674824 20.85771179 69.29322815 C20.07344379 71.97123072 19.2911733 74.64980535 18.51049805 77.32885742 C17.50808083 80.76865895 16.50177118 84.20730645 15.49413776 87.64558315 C14.53229455 90.92863198 13.57280108 94.21236509 12.61328125 97.49609375 C12.06961662 99.35372597 12.06961662 99.35372597 11.51496887 101.24888611 C11.18429916 102.38419266 10.85362946 103.51949921 10.51293945 104.68920898 C10.21998489 105.6932225 9.92703033 106.69723602 9.62519836 107.73167419 C8.95571449 109.76852407 8.95571449 109.76852407 9 111 C22.2 111 35.4 111 49 111 C47.164375 104.77125 45.32875 98.5425 43.4375 92.125 C38.74224295 76.13720765 34.19989772 60.12606517 30 44 C29.67 44 29.34 44 29 44 Z " fill="#0095D8" transform="translate(589,1)"/>
<path d="M0 0 C104.42887931 0 104.42887931 0 120.484375 15.28515625 C134.38925361 31.01773797 136.11554195 48.79882538 135 69 C133.67082084 83.98223486 126.6809335 96.6450555 116 107 C115.43667969 107.57234375 114.87335938 108.1446875 114.29296875 108.734375 C100.58140846 121.6786217 81.38569848 123.66297179 63.5 123.25 C55.8275 123.12625 55.8275 123.12625 48 123 C48 141.48 48 159.96 48 179 C32.16 179 16.32 179 0 179 C0 119.93 0 60.86 0 0 Z M48 39 C48 54.18 48 69.36 48 85 C67.65060043 86.5170518 67.65060043 86.5170518 83.9375 78.25 C89.23774149 69.89810431 90.51131137 61.59740309 88.56640625 51.8203125 C86.8579335 47.0450781 83.20932787 43.64002505 79 41 C74.83328436 39.38226423 71.40491932 38.75871217 66.9453125 38.8046875 C65.94516113 38.80968262 64.94500977 38.81467773 63.91455078 38.81982422 C62.03872314 38.84713623 62.03872314 38.84713623 60.125 38.875 C54.123125 38.936875 54.123125 38.936875 48 39 Z " fill="#0095D8" transform="translate(926,1)"/>
<path d="M0 0 C4.8489292 1.60380444 8.59269505 4.35335623 12.6875 7.3125 C13.4206543 7.83650391 14.15380859 8.36050781 14.90917969 8.90039062 C17.27661275 10.5949954 19.63837054 12.29731904 22 14 C23.64695789 15.18123715 25.29409351 16.36222652 26.94140625 17.54296875 C28.54462228 18.69482349 30.14749648 19.84715419 31.75 21 C32.49983154 21.53923096 33.24966309 22.07846191 34.0222168 22.6340332 C42.28202845 28.60304871 42.28202845 28.60304871 45 31 C45 31.66 45 32.32 45 33 C43.23779297 34.48950195 43.23779297 34.48950195 40.7421875 36.23828125 C39.35580078 37.2113623 39.35580078 37.2113623 37.94140625 38.20410156 C36.92949219 38.89987305 35.91757813 39.59564453 34.875 40.3125 C33.83472656 41.03018555 32.79445312 41.74787109 31.72265625 42.48730469 C21.43464495 49.50666427 10.87778885 55.94041936 0 62 C-0.93312012 62.52078125 -1.86624023 63.0415625 -2.82763672 63.578125 C-40.61443875 84.45809494 -82.96428851 97.89936452 -126 86 C-126.68868164 85.81276367 -127.37736328 85.62552734 -128.08691406 85.43261719 C-150.86225795 79.04050661 -171.21994462 64.79717446 -182.93896484 44.04199219 C-188.382678 33.56541215 -193.61461612 20.98501426 -193 9 C-190.5625 9.8125 -190.5625 9.8125 -188 11 C-187.67 11.99 -187.34 12.98 -187 14 C-183.90927286 17.34828774 -180.59653986 20.21268161 -177 23 C-176.175 23.680625 -175.35 24.36125 -174.5 25.0625 C-172.09061395 26.92977419 -169.61621138 28.44441486 -167 30 C-166.34 30.66 -165.68 31.32 -165 32 C-161.19305523 34.42260122 -157.21872061 36.56148139 -153.265625 38.734375 C-151.2748257 39.84647668 -149.32689534 41.00932894 -147.375 42.1875 C-143.86302001 44.07356333 -140.84769834 45.05770653 -137 46 C-137 46.66 -137 47.32 -137 48 C-136.4225 47.814375 -135.845 47.62875 -135.25 47.4375 C-132.79307475 46.95976454 -131.35602466 47.24270636 -129 48 C-129 48.66 -129 49.32 -129 50 C-128.21625 49.814375 -127.4325 49.62875 -126.625 49.4375 C-124 49 -124 49 -122 50 C-76.67776973 52.28459799 -36.17070526 26.70166923 -1 1 C-0.67 0.67 -0.34 0.34 0 0 Z " fill="#50A793" transform="translate(193,90)"/>
<path d="M0 0 C12.97271825 12.3615231 24.67414936 31.01189488 25.203125 49.44140625 C25.17089844 50.29863281 25.13867188 51.15585938 25.10546875 52.0390625 C19.87866041 49.20165226 16.21895185 45.4605933 12.54296875 40.8515625 C10.26952003 38.22835244 9.15408773 37.37283331 6.10546875 36.0390625 C4.43463056 34.71096035 2.76817162 33.37733554 1.10546875 32.0390625 C-3.07559168 29.37770034 -7.46233175 27.18039602 -11.89453125 24.9765625 C-12.59320313 24.62529297 -13.291875 24.27402344 -14.01171875 23.91210938 C-17.58862632 22.12703003 -21.14916456 20.45089018 -24.89453125 19.0390625 C-24.89453125 18.3790625 -24.89453125 17.7190625 -24.89453125 17.0390625 C-25.88453125 17.3690625 -26.87453125 17.6990625 -27.89453125 18.0390625 C-29.56119792 17.37239583 -31.22786458 16.70572917 -32.89453125 16.0390625 C-35.55855964 15.58350374 -38.20281289 15.31279657 -40.89453125 15.0390625 C-40.89453125 14.3790625 -40.89453125 13.7190625 -40.89453125 13.0390625 C-41.82265625 13.2246875 -42.75078125 13.4103125 -43.70703125 13.6015625 C-46.89453125 14.0390625 -46.89453125 14.0390625 -49.89453125 13.0390625 C-89.57975249 12.56448015 -123.86058302 32.99620893 -155.62890625 54.4375 C-156.99499023 55.35934082 -156.99499023 55.35934082 -158.38867188 56.29980469 C-160.59729285 57.83275635 -162.71936259 59.43723547 -164.84765625 61.078125 C-167.89453125 63.0390625 -167.89453125 63.0390625 -169.92944336 62.76660156 C-172.76860044 61.71545383 -174.81960107 60.01985193 -177.20703125 58.1640625 C-178.27807597 57.34300609 -179.3497185 56.52272908 -180.421875 55.703125 C-180.98632324 55.2690332 -181.55077148 54.83494141 -182.13232422 54.38769531 C-192.08059297 46.7741962 -202.26721013 39.67090388 -212.89453125 33.0390625 C-211.38895065 28.46474464 -207.62372445 26.51879794 -203.78125 24.0390625 C-203.06395721 23.56638947 -202.34666443 23.09371643 -201.6076355 22.60671997 C-199.27262194 21.07337251 -196.92821912 19.5552478 -194.58203125 18.0390625 C-193.78554169 17.52083923 -192.98905212 17.00261597 -192.16842651 16.46868896 C-136.803902 -19.5466256 -57.19270969 -51.83775146 0 0 Z " fill="#48A59A" transform="translate(451.89453125,26.9609375)"/>
</svg>
