<?xml version="1.0" encoding="UTF-8"?>
<svg width="36" height="36" id="_图层_2" data-name="图层 2" xmlns="http://www.w3.org/2000/svg" viewBox="0 0 256 256">
  <defs>
    <style>
      .cls-1 {
        fill: #4d6bfe;
      }
    </style>
  </defs>
  <g id="_图层_1-2" data-name="图层 1">
    <g>
      <path class="cls-1" d="m128.01,254.28C58.5,255.53,1.33,197.05,1.43,128.1,1.54,58.49,58.62,1.18,128.04,1.7c36.46.28,67.34,13.52,92.19,39.87,24.42,25.89,35.62,57.14,34.21,92.76-2.53,63.68-56.61,121.01-126.44,119.94Zm-16.7-132.69h0c0,20.45,0,40.9,0,61.34,0,3.54-.49,4.02-3.95,4.02-5.11.01-10.22,0-15.34,0-14.67,0-29.34,0-44.01,0-3.34,0-3.4.07-3.42,3.31-.01,2.74,0,5.48,0,8.22q0,3.63,3.74,3.64c17.41,0,34.82,0,52.23,0,22,0,44.01.02,66.01.03,2.87,0,3.04-.17,3.05-3,0-3.11-.07-6.23.02-9.33.06-2.08-.72-2.93-2.86-2.88-5.04.1-10.07.03-15.11.02-3.65,0-3.91-.26-3.91-3.92,0-17.04,0-34.08,0-51.12,0-3.19.04-6.37,0-9.56-.02-1.76.72-2.57,2.52-2.56,5.7.04,11.41.03,17.11,0,1.74,0,2.53.82,2.71,2.52.4,3.83.89,7.64,1.33,11.47,1.45,12.72,2.88,25.45,4.33,38.17,1.05,9.19,2.17,18.38,3.12,27.58.21,2.03,1,2.67,2.92,2.65,8.22-.06,16.45-.01,24.67-.04,2.52,0,2.81-.42,2.52-2.9-.7-5.96-1.4-11.91-2.06-17.87-1.18-10.67-2.33-21.34-3.5-32-.97-8.83-1.96-17.66-2.92-26.49-.25-2.28.36-2.99,2.61-3.08,1.18-.04,2.37-.05,3.56-.02,1.73.04,2.6-.68,2.57-2.51-.06-3.48-.06-6.96-.02-10.45.02-1.84-.88-2.5-2.6-2.47-2,.03-4.02.13-5.99-.12-.78-.1-1.98-1.02-2.07-1.69-1.16-9.1-2.17-18.23-3.19-27.35-.22-1.94.62-2.94,2.64-2.92,2.67.03,5.34-.07,8,0,1.89.05,2.73-.75,2.71-2.62-.03-3.11.02-6.22,0-9.33-.01-3.04-.19-3.23-3.34-3.23-30.23,0-60.45,0-90.68,0-3.39,0-3.4.03-3.4,3.54,0,20.3,0,40.6,0,60.9Zm-10.01-67.76c-1.33-.11-1.97-.22-2.62-.22-9.11-.01-18.23.04-27.34-.06-2.23-.02-3.53.88-4.64,2.71-5.38,8.86-10.77,17.72-16.29,26.5-5.74,9.11-5.8,9.07-5.67,19.81,0,.15,0,.3,0,.44.07,2.7.4,3.06,3.14,3.07,5.85.02,11.71.01,17.56,0,5.1-.01,5.32.42,2.9,5.01-7.42,14.09-14.82,28.19-22.16,42.32-.73,1.41-1.27,3.04-1.38,4.61-.21,3.1-.02,6.22-.08,9.33-.03,1.87.76,2.68,2.65,2.68,18.15-.02,36.31-.02,54.46.01,1.85,0,2.5-.8,2.47-2.55-.06-3.33,0-6.67-.03-10-.02-2.66-.26-2.91-2.95-2.92-6.59-.02-13.19.02-19.78-.03-3.05-.02-3.36-.53-1.92-3.21,8.29-15.39,16.57-30.78,24.95-46.12,1.38-2.53,1.84-5.11,1.73-7.89-.04-.89-.19-1.77-.16-2.66.14-3.72.16-3.73-3.54-3.73-6.37,0-12.75.06-19.12-.03-3.48-.05-3.92-.9-2.17-3.78,5.78-9.49,11.6-18.95,17.38-28.43.86-1.42,1.57-2.93,2.6-4.87Z"/>
      <path class="cls-1" d="m147.76,86.59c0-4.3-.02-8.59,0-12.89.02-2.54.48-3.02,2.97-3.05,3.7-.04,7.41.03,11.11-.02,1.86-.03,2.66.83,2.87,2.61.99,8.68,2.03,17.35,3.02,26.03.33,2.92-.15,3.43-3.04,3.44-4.67.02-9.33.02-14-.01-2.6-.02-2.91-.35-2.93-3-.02-4.37,0-8.74,0-13.11h0Z"/>
      <path class="cls-1" d="m128,256C57.42,256,0,198.58,0,128S57.42,0,128,0s128,57.42,128,128-57.42,128-128,128Zm0-254.09C58.47,1.91,1.91,58.47,1.91,128s56.56,126.09,126.09,126.09,126.09-56.56,126.09-126.09S197.52,1.91,128,1.91Z"/>
    </g>
  </g>
</svg>