<svg width="46" height="45" xmlns="http://www.w3.org/2000/svg" xmlns:xlink="http://www.w3.org/1999/xlink" overflow="hidden"><defs><clipPath id="clip0"><rect x="1199" y="35" width="46" height="45"/></clipPath></defs><g clip-path="url(#clip0)" transform="translate(-1199 -35)"><path d="M24.8463 27.0453 31.738 27.0453 31.738 45 24.8463 45 24.8463 27.0453 24.8463 27.0453Z" fill="#EE0000" fill-rule="evenodd" transform="matrix(1.02222 0 0 1 1199 35)"/><path d="M35.4899 0 9.51385 0C4.25819 0 0 4.2563 0 9.51385L0 35.4861C0 40.738 4.25819 45 9.51385 45L19.0107 45 19.0107 27.0491 16.7059 27.0491 16.7059 22.4736 19.0183 22.4736 19.0183 19.0542C19.0183 14.3067 21.8445 12.017 26.2141 12.017 27.4421 12.017 28.4471 12.1077 29.3917 12.2324L29.3917 16.5699C28.8608 16.5113 28.3829 16.466 27.8256 16.466 25.8325 16.466 24.8142 17.3123 24.8142 19.7739L24.8142 22.4698 37.5151 22.4698 37.5151 44.7809C41.796 43.8495 45 40.0428 45 35.488L45 9.51385C45.0038 4.25819 40.7475 0 35.4899 0ZM9.34761 3.80856C10.0938 3.80856 10.6908 4.40932 10.6908 5.15554 10.6908 5.90176 10.0919 6.50252 9.34761 6.50252 8.60327 6.50252 7.99307 5.90176 7.99307 5.15554 7.99307 4.40932 8.60139 3.80856 9.34761 3.80856ZM13.398 9.20025 7.1864 9.20025 7.1864 10.0088 13.398 10.0088 13.398 12.9824C13.398 13.7286 12.7972 14.3275 12.0529 14.3275L6.65176 14.3275C5.90554 14.3275 5.30667 13.7286 5.30667 12.9824L5.30667 12.444 11.5013 12.444 11.5013 11.6354 5.30479 11.6354 5.30479 8.66373C5.30479 7.91751 5.90554 7.31675 6.64987 7.31675L12.051 7.31675C12.7972 7.31675 13.3961 7.91751 13.3961 8.66373L13.3961 9.20025ZM34.7399 19.0164C32.8054 19.0164 31.2393 17.4503 31.2393 15.5157 31.2393 13.5812 32.8054 12.0151 34.7399 12.0151 36.6744 12.0151 38.2406 13.5812 38.2406 15.5157 38.2406 17.4503 36.6744 19.0164 34.7399 19.0164Z" fill="#EE0000" fill-rule="evenodd" transform="matrix(1.02222 0 0 1 1199 35)"/></g></svg>