<svg width="36" height="35" viewBox="0 0 36 35" fill="none" xmlns="http://www.w3.org/2000/svg">
<path d="M2.90918 17.9191C2.90918 9.58473 9.66554 2.82837 17.9999 2.82837H18.4191C26.522 2.82837 33.0907 9.39706 33.0907 17.4999V17.4999C33.0907 25.6028 26.522 32.1715 18.4191 32.1715H2.90918V17.9191Z" fill="#2064F7"/>
<path d="M9.1499 14.8617C9.1499 12.1003 11.3885 9.86169 14.1499 9.86169H21.8497C24.6111 9.86169 26.8497 12.1003 26.8497 14.8617V21.5112C26.8497 22.1584 26.5365 22.7656 26.0091 23.1408L18.8739 28.2175C18.3536 28.5877 17.6559 28.5879 17.1354 28.218L9.99131 23.1408C9.46345 22.7656 9.1499 22.1581 9.1499 21.5105V14.8617Z" fill="white"/>
<path d="M11.052 15.2439C11.052 13.587 12.3951 12.2439 14.052 12.2439H21.9475C23.6044 12.2439 24.9475 13.587 24.9475 15.2439V20.4748C24.9475 21.1356 24.6211 21.7538 24.0754 22.1264L18.8491 25.6953C18.3392 26.0435 17.6681 26.0436 17.158 25.6957L11.925 22.1264C11.3788 21.7538 11.052 21.1353 11.052 20.4741L11.052 15.2439Z" fill="#2064F7"/>
<ellipse cx="14.9476" cy="18.322" rx="1.5064" ry="1.46456" fill="white"/>
<ellipse cx="21.2029" cy="18.322" rx="1.5064" ry="1.46456" fill="white"/>
<ellipse cx="18.0466" cy="15.8393" rx="1.04731" ry="1.01822" fill="white"/>
<ellipse cx="18.1041" cy="6.9538" rx="1.46784" ry="1.42706" fill="white"/>
</svg>
