<svg width="93" height="33" viewBox="0 0 93 33" fill="none" xmlns="http://www.w3.org/2000/svg">
    <path d="M81.8817 15.5437L91.9094 0H80.3874L75.2773 9.11532L70.0698 0H57.3716C62.9498 1.39774 65.9653 5.23355 67.5122 8.75535L59.1237 12.6409C58.304 10.1467 55.7978 7.98819 52.6642 7.98819C48.2289 7.98819 45.0966 11.5381 45.0966 15.9994C45.0966 20.4606 48.2301 24.0118 52.6642 24.0118C55.7978 24.0118 58.3079 21.8533 59.1237 19.3578L67.5122 23.1961C66.0038 26.6235 62.9395 30.5729 57.3036 32.0038H69.5016L75.2735 22.2171L81.1544 32.0038H92.6277L81.8817 15.5437ZM47.9223 0H24.7307L19.0871 12.0614L13.4434 0H0V32H9.73787V11.8023L16.4461 24.4394H21.7358L28.444 11.8023V32L47.8517 31.9783C40.4534 30.1644 35.2113 24.1573 35.2113 15.9994C35.2113 7.7763 40.4868 1.78324 47.9236 0" fill="#FF0014"></path>
</svg>
