<svg width="47" height="36" viewBox="0 0 47 36" fill="none" xmlns="http://www.w3.org/2000/svg">
<g clip-path="url(#clip0_8_559)">
<rect width="46.2295" height="36" fill="white"/>
<path d="M25.244 0.786865C34.9534 0.786865 40.917 8.35169 40.917 16.5243C40.917 22.7101 35.8824 28.8051 29.1674 30.5292L28.8693 30.5981L28.8738 30.618C28.8867 30.6708 29.1777 31.7969 29.8009 33.2493C30.2176 34.2203 30.6905 35.1662 31.2173 36.0821H18.2927C18.2528 35.8549 18.2021 35.6298 18.1408 35.4074C17.3811 32.9313 16.2596 31.1234 14.7884 29.9556C14.2206 29.5049 13.5169 29.2306 12.5106 29.0368L11.9994 28.9486L11.0286 28.8147C8.61555 28.4986 7.59961 28.169 6.75363 26.9889C5.81431 25.6787 5.9553 24.0292 6.79548 21.8898C6.95193 21.4907 7.12705 21.0864 7.34594 20.6132L8.2872 18.6238C8.37798 18.4216 8.45202 18.2484 8.51382 18.0913C8.65417 17.7353 8.42176 17.4089 7.56033 16.8874L6.52057 16.2919L6.40533 16.221C5.61086 15.7099 5.16534 15.0989 5.83362 14.2458C6.20961 13.7662 7.58737 12.9312 10.2586 11.5315L12.0612 10.5993L12.1662 10.1299C13.5755 4.10766 17.8337 0.951038 24.6968 0.793947L25.244 0.787509V0.786865Z" fill="#1B69D4"/>
<path d="M30.1112 10.4628L30.1132 10.5465C30.1132 8.95497 28.1444 8.22231 25.7797 8.15921L25.2015 8.14891C25.1191 8.14248 25.0811 8.12702 25.0425 8.09548L24.8558 7.91714C24.23 7.33706 23.487 7.21152 22.1736 7.46647C20.2467 7.83988 18.972 8.76569 18.5251 10.2542C17.8897 12.7174 18.0899 14.5549 19.272 15.7176L19.5263 15.9494C20.4115 16.7001 21.6644 17.2138 23.2836 17.5171L23.2649 17.8171C23.1374 20.299 24.1083 21.7302 26.2606 21.5087L26.6308 21.4611C27.9577 21.2563 28.9633 20.7091 29.5724 19.8284L29.687 19.6429L29.8454 19.6732C32.3543 20.0814 33.9883 19.1157 34.249 16.7786C34.5793 13.828 33.0496 10.4847 31.3757 10.4847C31.068 10.4847 30.7634 10.4654 30.502 10.4216L30.2561 10.3701C30.1074 10.3308 30.1074 10.3437 30.1112 10.4628Z" fill="white"/>
<path d="M23.4549 9.3928L23.5843 9.51963C23.9963 9.91687 24.4534 10.1325 25.1333 10.1802L25.4391 10.1905C26.8375 10.1905 28.0775 10.6064 28.0775 10.5472C28.0775 11.5322 28.7696 12.0833 29.7385 12.3383C30.1355 12.4377 30.5418 12.4953 30.9508 12.5102L31.3757 12.5198C31.207 12.5198 31.1729 12.5198 31.1929 12.5501L31.2167 12.579C31.3879 12.7722 31.5753 13.0709 31.7401 13.4302C32.1554 14.3379 32.3517 15.4402 32.2268 16.5527C32.0942 17.7405 31.3822 18.0495 29.3709 17.4843C29.138 17.4187 28.8894 17.4382 28.6696 17.5393C28.4498 17.6404 28.2732 17.8165 28.1714 18.036L28.1148 18.1918C27.9094 18.9322 27.2984 19.3552 26.052 19.484C25.3033 19.5612 25.0483 18.9992 25.4249 16.8405C25.4487 16.7048 25.4446 16.5657 25.413 16.4316C25.3813 16.2976 25.3228 16.1713 25.241 16.0605C25.1591 15.9498 25.0556 15.8568 24.9367 15.7872C24.8178 15.7177 24.686 15.673 24.5493 15.6558C22.6597 15.4189 21.3798 14.9354 20.6993 14.2665C20.1456 13.7218 20.0227 12.5964 20.4856 10.8008C20.6762 10.1686 21.3122 9.70634 22.5612 9.46427L22.9636 9.39151C23.339 9.331 23.4091 9.35031 23.4549 9.3928Z" fill="#FDDD44"/>
<path d="M29.1777 17.895C29.407 17.7527 29.6835 17.7073 29.9463 17.7688C30.2091 17.8303 30.4367 17.9937 30.579 18.223C30.7213 18.4523 30.7667 18.7288 30.7052 18.9916C30.6437 19.2544 30.4803 19.482 30.2509 19.6243C29.3071 20.2102 25.5337 24.4304 24.4244 26.4198C24.2929 26.6556 24.0732 26.8295 23.8135 26.9032C23.5538 26.977 23.2754 26.9446 23.0396 26.8131C22.8038 26.6816 22.6298 26.4619 22.5561 26.2022C22.4823 25.9425 22.5147 25.6641 22.6462 25.4283C23.9145 23.1543 27.919 18.6759 29.1777 17.895Z" fill="white"/>
</g>
<defs>
<clipPath id="clip0_8_559">
<rect width="46.2295" height="36" fill="white"/>
</clipPath>
</defs>
</svg>
