<?xml version="1.0" encoding="UTF-8" standalone="no"?>
<svg xmlns:dc="http://purl.org/dc/elements/1.1/"
	xmlns:cc="http://creativecommons.org/ns#"
	xmlns:rdf="http://www.w3.org/1999/02/22-rdf-syntax-ns#"
	xmlns:svg="http://www.w3.org/2000/svg"
	xmlns="http://www.w3.org/2000/svg" xml:space="preserve" enable-background="new 0 0 340.158 340.158" viewBox="0 0 316.23902 207.767" height="207.767" width="316.23901" y="0px" x="0px" id="Layer_1" version="1.1">
	<metadata id="metadata41">
		<rdf:RDF>
			<cc:Work rdf:about="">
				<dc:format>image/svg+xml</dc:format>
				<dc:type rdf:resource="http://purl.org/dc/dcmitype/StillImage" />
				<dc:title></dc:title>
			</cc:Work>
		</rdf:RDF>
	</metadata>
	<defs id="defs39" />
	<path style="fill:#004785" id="path3" d="M 260.036,36.091 C 248.77,32.778 242.102,32.04 242.102,25.779 c 0,-4.296 4.025,-7.488 10.98,-7.488 8.273,0 22.786,6.451 22.786,6.451 l 7.383,-17.084 c 0,0 -13.047,-7.658 -29.334,-7.658 -21.83,0 -35.877,11.908 -35.877,27.621 0,13.626 8.9,19.764 27.947,24.797 10.711,2.824 17.248,5.033 17.248,12.031 0,5.156 -4.869,8.961 -11.127,8.961 -14.064,0 -29.184,-8.55 -29.184,-8.55 l -7.895,16.743 c 0,0 13.059,10.344 33.878,10.344 23.646,0 38.389,-12.398 38.389,-29.34 0.002,-13.134 -8.899,-21.114 -27.26,-26.516 z" />
	<g transform="translate(-9.322,-77.993)" id="g5">
		<path style="fill:#004785" id="path7" d="m 65.401,79.661 c -10.628,0.007 -21.484,0 -21.484,0 l 0,87.689 22.296,0 -0.109,-52.092 c 0,0 17.421,30.105 32.923,52.092 15.055,0.031 18.587,0 18.587,0 l 0,-87.67 -21.873,0 0.02,45.687 c 0,0 -12.235,-21.331 -30.36,-45.706 z" />
	</g>
	<path style="fill:#004785" id="path9" d="m 180.102,89.196 0,-37.773 -33.105,0 0,37.773 -22.296,0 0,-87.499 22.296,0 0,33.273 33.105,0 0,-33.273 22.248,0 0,87.499 -22.248,0 z" />
	<g transform="translate(-9.322,-77.993)" id="g11">
		<g id="g13">
			<path style="fill:#004785" id="path15" d="m 59.01,256.025 c -1.563,-1.057 -3.629,-2.016 -5.7,-2.016 -2.979,0 -4.597,1.664 -4.597,3.73 0,2.318 2.476,4.082 6.618,7.357 4.737,3.779 7.257,6.752 7.257,11.086 0,4.436 -4.233,9.576 -12.208,9.576 -3.683,0 -7.765,-1.109 -10.386,-3.527 l 2.57,-4.033 c 1.865,1.361 4.032,2.822 7.21,2.822 2.93,0 5.506,-1.563 5.506,-4.889 0,-3.879 -4.749,-6.449 -7.575,-8.668 -3.427,-2.771 -6.3,-4.938 -6.3,-9.625 0,-4.736 4.788,-8.568 11.197,-8.568 4.038,0 7.264,1.463 8.928,3.074 l -2.52,3.681 z" />
			<path style="fill:#004785" id="path17" d="m 94.296,256.287 c -1.714,-0.906 -4.587,-1.965 -7.309,-1.965 -7.257,0 -12.499,5.086 -12.499,13.094 0,8.357 5.796,13.293 12.701,13.293 2.722,0 5.241,-0.756 7.106,-1.762 l 1.966,4.389 c -2.168,1.262 -5.947,2.424 -9.375,2.424 -12.247,0 -19.958,-8.072 -19.958,-18.445 0,-9.617 7.661,-18.043 20.059,-18.043 3.68,0 7.106,1.314 9.526,2.729 l -2.217,4.286 z" />
			<path style="fill:#004785" id="path19" d="m 116.495,280.709 c -7.41,0 -10.032,-6.949 -10.032,-13.697 0,-6.496 2.975,-12.689 10.032,-12.689 7.059,0 10.033,6.193 10.033,12.689 0,6.748 -2.622,13.697 -10.033,13.697 z m 0,5.051 c 10.839,0 17.593,-8.223 17.593,-18.748 0,-9.869 -7.459,-17.74 -17.593,-17.74 -10.133,0 -17.592,7.871 -17.592,17.74 0,10.525 6.753,18.748 17.592,18.748 z" />
			<path style="fill:#004785" id="path21" d="m 145.989,285.141 0,-30.506 -10.887,0 0,-4.738 28.887,0 0,4.738 -10.887,0 0,30.506 -7.113,0 z" />
			<path style="fill:#004785" id="path23" d="m 168.094,249.891 7.113,0 0,30.506 14.01,0 0,4.738 -21.123,0 0,-35.244 z" />
			<path style="fill:#004785" id="path25" d="m 202.918,271.203 c 1.662,-4.635 3.324,-8.918 4.785,-14.359 l 0.102,0 c 1.662,5.441 3.174,9.725 4.686,14.359 l -9.573,0 z m 2.721,-21.312 -14.357,35.25 6.146,0 3.627,-9.625 12.492,0 3.275,9.625 7.959,0 -13.248,-35.25 -5.894,0 z" />
			<path style="fill:#004785" id="path27" d="m 259.622,285.141 -5.135,0 c -6.75,-8.107 -13.498,-16.164 -20.145,-25.279 l -0.1,0 0,25.279 -5.688,0 0,-35.25 5.184,0 c 6.748,8.059 13.443,16.064 20.094,25.129 l 0.102,0 0,-25.129 5.688,0 0,35.25 z" />
			<path style="fill:#004785" id="path29" d="m 272.89,254.635 5.135,0 c 7.453,0 11.684,4.529 11.684,11.824 0,9.813 -4.381,13.938 -12.488,13.938 l -4.33,0 0,-25.762 z m -7.114,-4.739 0,35.238 11.545,0 c 12.488,0 19.947,-7.002 19.947,-18.625 0,-8.504 -4.939,-16.613 -19.293,-16.613 l -12.199,0 z" />
		</g>
	</g>
	<g transform="translate(-9.322,-77.993)" id="g31">
		<path style="fill:#00a2e5" id="path33" d="m 167.752,220.754 c -7.25,-13 -31.973,-34.514 -75.879,-27.447 -16.673,1.451 -23.6,2.492 -32.44,1.813 -34.957,-2.684 -41.047,-21.982 -41.377,-23.033 l -8.734,0 c 0,0 4.804,37.533 43.043,43.875 9.37,1.555 28.886,-0.289 41.502,-2.355 30.99,-5.074 54.703,-5.887 73.929,20.693 0,0 0.251,0.293 0.465,0.293 0.396,0 0.491,-0.293 0.491,-0.293 0,0 2.5,-5.091 -1,-13.546 z" />
		<path style="fill:#00a2e5" id="path35" d="m 316.829,172.086 c -0.332,1.051 -6.799,20.264 -41.758,22.947 -8.84,0.678 -15.766,-0.363 -32.444,-1.813 -43.531,-7.008 -61.959,14.449 -67.291,26.117 -3.5,7.832 -1.584,14.961 -1.584,14.961 0,0 0.123,0.293 0.444,0.293 0.214,0 0.456,-0.293 0.456,-0.293 19.225,-26.58 34.992,-25.855 65.98,-20.779 12.622,2.064 32.138,3.908 41.507,2.355 38.24,-6.344 43.422,-43.789 43.422,-43.789 l -8.732,0 z" />
	</g>
</svg>
