<svg width="222" height="40" viewBox="0 0 222 40" fill="none" xmlns="http://www.w3.org/2000/svg">
<path d="M2.90918 20.4191C2.90918 12.0847 9.66554 5.32837 17.9999 5.32837H18.4191C26.522 5.32837 33.0907 11.8971 33.0907 19.9999V19.9999C33.0907 28.1028 26.522 34.6715 18.4191 34.6715H2.90918V20.4191Z" fill="#2064F7"/>
<path d="M9.1499 17.3617C9.1499 14.6003 11.3885 12.3617 14.1499 12.3617H21.8497C24.6111 12.3617 26.8497 14.6003 26.8497 17.3617V24.0112C26.8497 24.6584 26.5365 25.2656 26.0091 25.6408L18.8739 30.7175C18.3536 31.0877 17.6559 31.0879 17.1354 30.718L9.99131 25.6408C9.46345 25.2656 9.1499 24.6581 9.1499 24.0105V17.3617Z" fill="white"/>
<path d="M11.052 17.7439C11.052 16.087 12.3951 14.7439 14.052 14.7439H21.9475C23.6044 14.7439 24.9475 16.087 24.9475 17.7439V22.9748C24.9475 23.6356 24.6211 24.2538 24.0754 24.6264L18.8491 28.1953C18.3392 28.5435 17.6681 28.5436 17.158 28.1957L11.925 24.6264C11.3788 24.2538 11.052 23.6353 11.052 22.9741L11.052 17.7439Z" fill="#2064F7"/>
<ellipse cx="14.9476" cy="20.822" rx="1.5064" ry="1.46456" fill="white"/>
<ellipse cx="21.2029" cy="20.822" rx="1.5064" ry="1.46456" fill="white"/>
<ellipse cx="18.0466" cy="18.3393" rx="1.04731" ry="1.01822" fill="white"/>
<ellipse cx="18.1041" cy="9.4538" rx="1.46784" ry="1.42706" fill="white"/>
<path d="M74.75 6.4231L81.7041 17.9792L89.1371 6.4231H104.49L96.0931 33.3911C95.759 33.7917 90.8693 33.5529 90.008 33.4835C89.9211 33.4315 89.6218 32.9597 89.6218 32.9057V17.9792L81.9899 29.7413L81.2329 29.3311L73.9814 17.9792V33.2909L73.6918 33.5798H67.6086V6.4231H74.7539H74.75Z" fill="#2064F7"/>
<path d="M198.44 6.4231H214.855C215.098 6.4231 216.915 7.27824 217.273 7.47855C221.819 10.0459 222.832 15.8182 219.843 20.0015C222.74 24.1 221.892 29.7066 217.522 32.3857C217.024 32.69 215.137 33.5798 214.664 33.5798H198.442L198.152 33.2909V6.712L198.442 6.4231H198.44ZM213.117 12.7789C210.655 12.4168 207.37 13.0486 204.813 12.7789L204.523 13.0678V16.5347L204.813 16.8236H213.117C213.318 16.8236 214.31 16.3671 214.5 16.1803C215.747 14.9418 214.774 13.0235 213.117 12.7789ZM213.117 23.1794C210.629 22.8308 207.387 23.4375 204.813 23.1794L204.523 23.4683V27.0314H213.889C214.03 27.0314 214.65 26.4074 214.764 26.182C215.508 24.7318 214.677 23.399 213.117 23.1794Z" fill="#2064F7"/>
<path d="M129.981 27.9944H123.415V33.2909L123.125 33.5798H117.042V6.4231H131.622C131.972 6.4231 133.975 7.25706 134.428 7.47662C141.662 10.9935 142.446 20.9645 136.174 25.8026C136.083 26.3246 140.5 32.1739 140.419 33.0964C140.409 33.2062 140.394 33.3083 140.326 33.4007C140.023 33.811 134.355 33.4874 133.391 33.549L129.979 27.9963L129.981 27.9944ZM129.691 12.7789C127.82 12.5728 125.617 12.9311 123.705 12.7789L123.415 13.0678V21.446H130.271C131.574 21.446 133.54 19.4853 133.799 18.2238C134.378 15.4041 132.462 13.0832 129.691 12.7789Z" fill="#2064F7"/>
<path d="M63.3562 15.4753H57.1765C57.0027 13.8787 56.4658 12.96 54.7626 12.7789C53.4301 12.6364 49.7068 12.6133 48.4361 12.8251C45.887 13.2527 45.9005 16.3517 48.4361 16.7773C53.0168 17.5458 57.0896 15.2885 61.0485 19.2214C66.1274 24.2676 62.8425 33.0945 55.7378 33.5875C53.5228 33.7416 47.9437 33.8379 45.9739 33.2929C43.5909 32.6342 41.2735 30.2998 40.4779 27.9886C40.2249 27.2529 39.5239 24.855 40.5126 24.5661C40.9201 24.4467 45.6321 24.4467 46.0357 24.5661C46.8429 24.8049 46.223 26.4343 47.7467 26.9043C48.5134 27.1393 54.836 27.1797 55.6876 26.991C57.47 26.5942 57.667 23.4355 54.5772 23.1736C50.3383 22.8154 46.617 24.2907 42.9884 21.2495C38.0234 17.0855 39.5953 8.85178 45.6784 6.80058C47.4377 6.20736 54.4594 6.19773 56.4794 6.44426C60.388 6.92192 64.2484 11.5347 63.3562 15.4753Z" fill="#2064F7"/>
<path d="M177.101 22.0238L186.838 6.60034C187.004 6.4347 187.21 6.4424 187.423 6.41351C188.089 6.32299 193.643 6.32684 193.911 6.50789C194.056 6.60419 194.091 6.74094 194.105 6.90657C194.201 8.03907 186.928 18.0254 186.249 20.0015L193.942 32.4782C194.087 32.7402 194.195 33.1465 194.012 33.4008C193.745 33.7706 187.879 33.5664 186.95 33.4836L182.411 26.263L177.582 33.5818H170.726V6.42314H176.809L177.099 6.71205V22.0238H177.101Z" fill="#2064F7"/>
<path d="M166.479 6.4231C166.787 6.61762 166.767 11.997 166.479 12.7789H158.176V33.0983C158.176 33.133 157.727 33.5798 157.693 33.5798H151.899L151.61 33.2909V12.7789H143.402L143.113 12.49V6.712L143.402 6.4231H166.479Z" fill="#2064F7"/>
<path d="M100.724 33.5799C100.633 33.551 100.49 33.368 100.457 33.2602C100.322 32.8345 101.43 29.0692 101.782 28.8573H111.443C111.812 29.0403 113.066 32.8191 112.896 33.1889C112.857 33.2717 112.531 33.5799 112.502 33.5799H100.722H100.724Z" fill="#2064F7"/>
<path d="M103.621 24.9128C103.567 24.8974 103.263 24.5989 103.227 24.5219C103.07 24.1829 104.044 21.3632 104.244 20.7218C104.843 18.7997 105.529 16.864 106.218 14.9881L106.905 14.8802L107.247 15.1364C107.858 17.7827 109.146 20.3848 109.796 22.9888C109.874 23.2988 110.393 24.9128 109.796 24.9128H103.617H103.621Z" fill="#2064F7"/>
</svg>
