<svg width="42" height="52" viewBox="0 0 42 52" fill="none" xmlns="http://www.w3.org/2000/svg">
<path d="M11.175 16.22L6 30V42C6 43.0609 6.31607 44.0783 6.87868 44.8284C7.44129 45.5786 8.20435 46 9 46H33C33.7956 46 34.5587 45.5786 35.1213 44.8284C35.6839 44.0783 36 43.0609 36 42V30L30.825 16.22C30.5766 15.5536 30.1938 14.9927 29.7194 14.6006C29.2451 14.2084 28.6981 14.0004 28.14 14H13.86C13.3019 14.0004 12.7549 14.2084 12.2806 14.6006C11.8062 14.9927 11.4234 15.5536 11.175 16.22Z" stroke="url(#paint0_linear_486_6708)" stroke-opacity="0.2" stroke-width="0.5" stroke-linecap="round" stroke-linejoin="round"/>
<path d="M11.175 8.22L6 22V34C6 35.0609 6.31607 36.0783 6.87868 36.8284C7.44129 37.5786 8.20435 38 9 38H33C33.7957 38 34.5587 37.5786 35.1213 36.8284C35.6839 36.0783 36 35.0609 36 34V22L30.825 8.22C30.5766 7.55357 30.1938 6.99274 29.7194 6.60056C29.2451 6.20838 28.6981 6.00039 28.14 6H13.86C13.3019 6.00039 12.7549 6.20838 12.2806 6.60056C11.8062 6.99274 11.4234 7.55357 11.175 8.22Z" fill="#222224" stroke="url(#paint1_linear_486_6708)" stroke-opacity="0.8" stroke-width="0.5" stroke-linecap="round" stroke-linejoin="round"/>
<path d="M11.175 12.22L6 26V38C6 39.0609 6.31607 40.0783 6.87868 40.8284C7.44129 41.5786 8.20435 42 9 42H33C33.7957 42 34.5587 41.5786 35.1213 40.8284C35.6839 40.0783 36 39.0609 36 38V26L30.825 12.22C30.5766 11.5536 30.1938 10.9927 29.7194 10.6006C29.2451 10.2084 28.6981 10.0004 28.14 10H13.86C13.3019 10.0004 12.7549 10.2084 12.2806 10.6006C11.8062 10.9927 11.4234 11.5536 11.175 12.22Z" fill="#222224" stroke="url(#paint2_linear_486_6708)" stroke-opacity="0.5" stroke-width="0.5" stroke-linecap="round" stroke-linejoin="round"/>
<path d="M36 22.1641H27L24 28.1641H18L15 22.1641H6M36 22.1641V34.1641C36 35.2249 35.6839 36.2423 35.1213 36.9925C34.5587 37.7426 33.7956 38.1641 33 38.1641H9C8.20435 38.1641 7.44129 37.7426 6.87868 36.9925C6.31607 36.2423 6 35.2249 6 34.1641V22.1641M36 22.1641L30.825 8.38406C30.5766 7.71764 30.1938 7.1568 29.7194 6.76462C29.2451 6.37244 28.6981 6.16446 28.14 6.16406H13.86C13.3019 6.16446 12.7549 6.37244 12.2806 6.76462C11.8062 7.1568 11.4234 7.71764 11.175 8.38406L6 22.1641" stroke="url(#paint3_linear_486_6708)" stroke-width="0.5" stroke-linecap="round" stroke-linejoin="round"/>
<defs>
<linearGradient id="paint0_linear_486_6708" x1="21" y1="14" x2="9.71922" y2="50.3541" gradientUnits="userSpaceOnUse">
<stop offset="0.195167" stop-color="white" stop-opacity="0"/>
<stop offset="1" stop-color="#C2C2C2"/>
</linearGradient>
<linearGradient id="paint1_linear_486_6708" x1="21" y1="6" x2="9.71922" y2="42.3541" gradientUnits="userSpaceOnUse">
<stop offset="0.195167" stop-color="white" stop-opacity="0"/>
<stop offset="1" stop-color="#C2C2C2"/>
</linearGradient>
<linearGradient id="paint2_linear_486_6708" x1="21" y1="10" x2="9.71922" y2="46.3541" gradientUnits="userSpaceOnUse">
<stop offset="0.195167" stop-color="white" stop-opacity="0"/>
<stop offset="1" stop-color="#C2C2C2"/>
</linearGradient>
<linearGradient id="paint3_linear_486_6708" x1="21" y1="6.16406" x2="21" y2="38.1641" gradientUnits="userSpaceOnUse">
<stop stop-color="white"/>
<stop offset="1" stop-color="#7B7B7C"/>
</linearGradient>
</defs>
</svg>
