<svg t="1721786983645" class="icon" viewBox="0 0 1024 1024" version="1.1" xmlns="http://www.w3.org/2000/svg" p-id="4276"
    width="200" height="200">
    <path
        d="M0 750.933333V273.066667a273.066667 273.066667 0 0 1 273.066667-273.066667h477.866666a273.066667 273.066667 0 0 1 273.066667 273.066667v477.866666a273.066667 273.066667 0 0 1-273.066667 273.066667H273.066667a273.066667 273.066667 0 0 1-273.066667-273.066667z"
        fill="#FFFFFF" p-id="4277"></path>
    <path
        d="M0 750.933333V273.066667a273.066667 273.066667 0 0 1 273.066667-273.066667h477.866666a273.066667 273.066667 0 0 1 273.066667 273.066667v477.866666a273.066667 273.066667 0 0 1-273.066667 273.066667H273.066667a273.066667 273.066667 0 0 1-273.066667-273.066667z m34.133333 0q0 98.986667 69.973334 168.96Q174.08 989.866667 273.066667 989.866667h477.866666q98.986667 0 168.96-69.973334Q989.866667 849.92 989.866667 750.933333V273.066667q0-98.986667-69.973334-168.96Q849.92 34.133333 750.933333 34.133333H273.066667Q174.08 34.133333 104.106667 104.106667 34.133333 174.08 34.133333 273.066667v477.866666z"
        fill="#F0F0F0" p-id="4278"></path>
    <path
        d="M433.425067 417.621333l77.346133 93.457067 227.805867-267.605333c12.049067-16.042667 17.749333-24.4736 12.049066-38.126934a41.5744 41.5744 0 0 0-36.215466-25.531733 32.529067 32.529067 0 0 0-24.302934 8.942933l-256.682666 228.864z"
        fill="#BDB9B4" p-id="4279"></path>
    <path
        d="M637.405867 462.301867L275.387733 115.029333a48.2304 48.2304 0 0 0-28.4672-17.066666 37.205333 37.205333 0 0 0-35.054933 22.528c-5.700267 13.653333-1.604267 23.2448 10.888533 41.1648l288.085334 349.5936-214.4256 263.3728c-11.3664 11.741867-15.5648 28.672-11.025067 44.373333 5.905067 14.370133 19.968 23.688533 35.498667 23.552a33.860267 33.860267 0 0 0 25.531733-12.458667l290.781867-270.336c28.910933-26.0096 29.013333-71.338667 0.2048-97.450666z"
        fill="#B31B1B" p-id="4280"></path>
    <path
        d="M801.0752 861.218133l-290.986667-350.72-77.312-93.422933-47.445333 42.8032a70.417067 70.417067 0 0 0 0 101.205333l369.083733 355.669334c6.5536 6.826667 15.872 10.3424 25.326934 9.591466 14.472533-0.238933 27.3408-9.216 32.529066-22.766933a43.008 43.008 0 0 0-11.195733-42.325333z"
        fill="#BDB9B4" p-id="4281"></path>
</svg>