<?xml version="1.0" encoding="UTF-8"?>
<svg viewBox="0 0 160 160" version="1.1" xmlns="http://www.w3.org/2000/svg" xmlns:xlink="http://www.w3.org/1999/xlink">
    <title>arxiv</title>
    <defs>
        <rect id="path-1" x="0" y="0" width="160" height="160"></rect>
    </defs>
    <g id="RAGFlow" stroke="none" stroke-width="1" fill="none" fill-rule="evenodd">
        <g id="tool-logo" transform="translate(-1040, -81)">
            <g id="arxiv" transform="translate(1040, 81)">
                <mask id="mask-2" fill="white">
                    <use xlink:href="#path-1"></use>
                </mask>
                <use id="矩形" fill-opacity="0" fill="#D8D8D8" xlink:href="#path-1"></use>
                <g id="RAGFlow" mask="url(#mask-2)" fill-rule="nonzero">
                    <g transform="translate(17, 17)">
                        <path
                            d="M0,92.399959 L0,33.600041 C0,15.0432508 15.0432508,0 33.600041,0 L92.399959,0 C110.956749,0 126,15.0432508 126,33.600041 L126,92.399959 C126,110.956749 110.956749,126 92.399959,126 L33.600041,126 C15.0432508,126 0,110.956749 0,92.399959 Z"
                            id="路径" fill="#FFFFFF"></path>
                        <path
                            d="M0,92.399959 L0,33.600041 C0,15.0432508 15.0432508,0 33.600041,0 L92.399959,0 C110.956749,0 126,15.0432508 126,33.600041 L126,92.399959 C126,110.956749 110.956749,126 92.399959,126 L33.600041,126 C15.0432508,126 0,110.956749 0,92.399959 Z M4.19995898,92.399959 C4.19995898,100.519986 7.06998633,107.449986 12.810041,113.189959 C18.5500137,118.930014 25.4800137,121.800041 33.600041,121.800041 L92.399959,121.800041 C100.519986,121.800041 107.449986,118.930014 113.189959,113.189959 C118.930014,107.449986 121.800041,100.519986 121.800041,92.399959 L121.800041,33.600041 C121.800041,25.4800137 118.930014,18.5500137 113.189959,12.810041 C107.449986,7.06998633 100.519986,4.19995898 92.399959,4.19995898 L33.600041,4.19995898 C25.4800137,4.19995898 18.5500137,7.06998633 12.810041,12.810041 C7.06998633,18.5500137 4.19995898,25.4800137 4.19995898,33.600041 L4.19995898,92.399959 Z"
                            id="形状" fill="#F0F0F0"></path>
                        <path
                            d="M53.3315918,51.386959 L62.8487754,62.8865508 L90.8795918,29.9585918 C92.3623066,27.9845508 93.0636738,26.9471426 92.3623066,25.2671836 C91.6052412,23.4496606 89.87227,22.2279294 87.906041,22.1255508 C86.7999035,22.0626843 85.7171853,22.4611021 84.9156328,23.225959 L53.3315918,51.386959 Z"
                            id="路径" fill="#BDB9B4"></path>
                        <path
                            d="M78.4308164,56.8848164 L33.8856328,14.153959 C33.0032481,13.0616248 31.7621153,12.3175642 30.3828574,12.054041 C28.5139412,12.0106773 26.8064134,13.1080154 26.0694492,14.826041 C25.368082,16.506 25.871959,17.6861426 27.4091836,19.8911426 L62.8572656,62.9077148 L36.4728164,95.3148164 C35.0741426,96.7596328 34.5575918,98.8428164 35.1162246,100.774775 C35.8428164,102.542959 37.5732246,103.689633 39.4841426,103.672959 C40.7054392,103.64707 41.853926,103.086681 42.6257754,102.139857 L78.4055918,68.8758574 C81.963,65.6754082 81.9755508,60.0976934 78.4308164,56.8848164 L78.4308164,56.8848164 Z"
                            id="路径" fill="#B31B1B"></path>
                        <path
                            d="M98.5697754,105.970184 L62.7649805,62.8151836 L53.2519805,51.3197754 L47.4138984,56.5865508 C45.7270675,58.2188882 44.7746977,60.465769 44.7746977,62.8130918 C44.7746977,65.1604146 45.7270675,67.4072954 47.4138984,69.0396328 L92.8285313,112.803715 C93.6349805,113.643633 94.7815313,114.076143 95.9449395,113.983734 C97.7262667,113.955776 99.3112505,112.846497 99.9475313,111.182449 C100.472427,109.325094 99.944496,107.329272 98.5698984,105.974367 L98.5697754,105.970184 Z"
                            id="路径" fill="#BDB9B4"></path>
                    </g>
                </g>
            </g>
        </g>
    </g>
</svg>