<svg t="1733228660507" class="icon" viewBox="0 0 1024 1024" version="1.1" xmlns="http://www.w3.org/2000/svg" p-id="16129" width="48" height="48"><path d="M3.754667 444.092632a52.744982 52.744982 0 0 1 105.507929 0v158.252912a52.744982 52.744982 0 0 1-105.507929 0v-158.270877zM900.509193 444.092632a52.744982 52.744982 0 1 1 105.50793 0v158.252912a52.744982 52.744982 0 0 1-105.50793 0v-158.270877z" fill="#3ECEB6" opacity=".3" p-id="16130"></path><path d="M349.561263 150.635789a63.577825 63.577825 0 0 1 63.59579-63.595789h155.396491a63.577825 63.577825 0 0 1 63.182596 70.656h125.107649a143.719298 143.719298 0 0 1 143.719299 143.719298v461.338948a143.719298 143.719298 0 0 1-143.719299 143.719298h-503.73614a143.719298 143.719298 0 0 1-143.719298-143.719298v-461.338948a143.719298 143.719298 0 0 1 143.719298-143.719298h96.848842a64.134737 64.134737 0 0 1-0.395228-7.060211zM674.582456 420.019649c-21.198596 0-38.373053 17.174456-38.373052 38.355088v76.72814a38.373053 38.373053 0 0 0 76.72814 0v-76.710175c0-21.198596-17.174456-38.373053-38.373053-38.373053z m-339.141614 0c-21.198596 0-38.355088 17.174456-38.355088 38.355088v76.72814a38.373053 38.373053 0 0 0 76.710176 0v-76.710175c0-21.198596-17.156491-38.373053-38.355088-38.373053z" fill="#3ECEB6" p-id="16131"></path></svg>