<svg t="1720166509449" class="icon" viewBox="0 0 1024 1024" version="1.1" xmlns="http://www.w3.org/2000/svg" p-id="5479"
    width="200" height="200">
    <path
        d="M184.682 538.759c111.177-23.874 96.03-156.737 92.702-185.776-5.445-44.768-58.102-123.02-129.606-116.831-89.98 8.074-103.126 138.052-103.126 138.052-12.17 60.08 29.132 188.452 140.03 164.555zM302.746 769.86c-3.257 9.331-10.517 33.228-4.234 54.03 12.402 46.677 52.912 48.77 52.912 48.77h58.218v-142.31h-62.336c-28.016 8.354-41.535 30.157-44.56 39.51z m88.281-453.898c61.406 0 111.037-70.667 111.037-158.04C502.064 70.643 452.433 0 391.027 0c-61.312 0-111.06 70.643-111.06 157.923 0 87.373 49.77 158.04 111.06 158.04z m264.47 10.447c82.068 10.657 134.84-76.925 145.335-143.31 10.703-66.292-42.256-143.288-100.357-156.527-58.218-13.356-130.909 79.904-137.54 140.704-7.912 74.32 10.633 148.593 92.562 159.133z m201.086 390.213s-126.976-98.24-201.11-204.414C555 355.66 412.272 419.37 364.525 498.993 316.987 578.594 242.9 628.947 232.382 642.28c-10.68 13.124-153.385 90.166-121.694 230.87 31.669 140.612 142.939 137.936 142.939 137.936s81.998 8.074 177.12-13.217c95.168-21.104 177.096 5.26 177.096 5.26s222.284 74.435 283.108-68.852c60.754-143.334-34.368-217.654-34.368-217.654zM476.26 929.88H331.739c-62.406-12.449-87.257-55.03-90.398-62.29-3.072-7.376-20.802-41.604-11.425-99.845 26.968-87.257 103.87-93.516 103.87-93.516h76.926v-94.563l65.524 1V929.88z m269.146-1h-166.3c-64.453-16.614-67.455-62.407-67.455-62.407v-183.89l67.455-1.094v165.276c4.119 17.637 26.015 20.825 26.015 20.825h68.525V682.581h71.76v246.297z m235.408-490.99c0-31.76-26.387-127.394-124.23-127.394-98.008 0-111.108 90.258-111.108 154.06 0 60.894 5.142 145.894 126.883 143.195 121.788-2.7 108.455-137.936 108.455-169.86z m0 0"
        fill="#3245DF" p-id="5480"></path>
</svg>