<svg t="1729651878356" class="icon" viewBox="0 0 1024 1024" version="1.1" xmlns="http://www.w3.org/2000/svg" p-id="6162"
    width="200" height="200">
    <path
        d="M512 62C263.5 62 62 263.5 62 512s201.5 450 450 450 450-201.5 450-450S760.5 62 512 62z m272.8 722.9c-35.5 35.5-76.7 63.3-122.6 82.7-47.5 20.1-98 30.3-150.2 30.3-52.1 0-102.7-10.1-150.2-30.3-45.9-19.4-87.2-47.2-122.6-82.7-35.5-35.5-63.3-76.7-82.7-122.6-20.1-47.5-30.3-98-30.3-150.2 0-52.1 10.1-102.7 30.3-150.2 19.4-45.9 47.2-87.2 82.7-122.6 35.5-35.5 76.7-63.3 122.6-82.7 47.5-20.2 98-30.3 150.2-30.3 52.1 0 102.7 10.1 150.2 30.3 45.9 19.4 87.2 47.2 122.6 82.7 35.5 35.5 63.3 76.7 82.7 122.6 20.1 47.5 30.3 98 30.3 150.2 0 52.1-10.1 102.7-30.3 150.2-19.4 45.9-47.2 87.2-82.7 122.6z"
        p-id="6163" fill="#4f51d6"></path>
    <path
        d="M738.1 492.5l-322.2-186c-15-8.7-33.8 2.2-33.8 19.5v372c0 17.3 18.7 28.1 33.8 19.5l322.2-186c15-8.7 15-30.3 0-39z m-111.7 29.2l-163.1 94.1c-7.5 4.3-16.9-1.1-16.9-9.7V417.9c0-8.7 9.4-14.1 16.9-9.7l163.1 94.1c7.5 4.3 7.5 15.1 0 19.4z"
        p-id="6164" fill="#4f51d6"></path>
</svg>