<?xml version="1.0" encoding="UTF-8"?>
<svg width="160px" height="160px" viewBox="0 0 160 160" version="1.1" xmlns="http://www.w3.org/2000/svg" xmlns:xlink="http://www.w3.org/1999/xlink">
    <title>bing</title>
    <defs>
        <rect id="path-1" x="0" y="0" width="160" height="160"></rect>
        <radialGradient cx="93.7005219%" cy="77.8140739%" fx="93.7005219%" fy="77.8140739%" r="143.692329%" gradientTransform="translate(0.937, 0.7781), scale(1, 0.7146), rotate(-130.7115), translate(-0.937, -0.7781)" id="radialGradient-3">
            <stop stop-color="#00CACC" offset="0%"></stop>
            <stop stop-color="#048FCE" offset="100%"></stop>
        </radialGradient>
        <radialGradient cx="13.8947451%" cy="71.4294255%" fx="13.8947451%" fy="71.4294255%" r="149.207177%" gradientTransform="translate(0.1389, 0.7143), scale(0.6042, 1), rotate(-23.3405), translate(-0.1389, -0.7143)" id="radialGradient-4">
            <stop stop-color="#00BBEC" offset="0%"></stop>
            <stop stop-color="#2756A9" offset="100%"></stop>
        </radialGradient>
        <linearGradient x1="50%" y1="0%" x2="50%" y2="100%" id="linearGradient-5">
            <stop stop-color="#00BBEC" offset="0%"></stop>
            <stop stop-color="#2756A9" offset="100%"></stop>
        </linearGradient>
    </defs>
    <g id="RAGFlow" stroke="none" stroke-width="1" fill="none" fill-rule="evenodd">
        <g id="tool-logo" transform="translate(-248, -81)">
            <g id="bing" transform="translate(248, 81)">
                <mask id="mask-2" fill="white">
                    <use xlink:href="#path-1"></use>
                </mask>
                <use id="矩形" fill-opacity="0" fill="#D8D8D8" xlink:href="#path-1"></use>
                <path d="M80.8487934,57.8466507 C78.639864,58.121614 76.9447814,59.9388267 76.8239153,62.16152 C76.7589172,63.1364905 76.7739168,63.2064884 78.9738502,68.8963161 C83.9736988,81.845924 85.1836622,84.9658295 85.3886559,85.4058162 C85.883641,86.4707839 86.5736201,87.4707537 87.4385939,88.3657266 C88.1085736,89.0557057 88.5485603,89.4256945 89.2885379,89.9206795 C90.5884985,90.8006528 91.2384788,91.0406456 96.3133252,92.5555997 C101.258175,94.030555 103.958094,95.0055255 106.283023,96.1704902 C109.297932,97.6804445 111.402868,99.3903927 112.732828,101.425331 C113.687799,102.885287 114.532773,105.500208 114.902762,108.135128 C115.047758,109.165097 115.047758,111.440028 114.902762,112.37 C114.663512,114.198012 114.021417,115.950112 113.022819,117.499844 C112.522834,118.254822 112.697829,118.129825 113.427807,117.209853 C115.502744,114.609932 117.61768,110.170066 118.697647,106.145188 C120.00421,101.228485 120.178579,96.0794739 119.207632,91.0856442 C117.338871,81.4754452 111.315168,73.1839304 102.75313,68.43633 C100.55824,67.2572351 98.354917,66.093907 96.1433303,64.9464357 L94.8733688,64.2814558 C92.2467879,62.9063286 89.6218655,61.528036 86.9986072,60.146581 C84.2586902,58.6966249 83.0987253,58.1166425 82.7687353,58.0166455 C82.2948191,57.8901742 81.8087365,57.8147476 81.3187792,57.7916523 L80.8537933,57.8416508 L80.8487934,57.8466507 Z" id="路径" fill="url(#radialGradient-3)" fill-rule="nonzero" mask="url(#mask-2)"></path>
                <path d="M86.8186126,106.200187 C86.4763741,106.399355 86.1395941,106.607758 85.8086432,106.825168 C82.8132315,108.677263 79.821649,110.535544 76.833915,112.399999 C75.1892889,113.429181 73.540995,114.452489 71.8890647,115.469906 L69.5741348,116.909862 C67.0849382,118.500481 64.5815808,120.068829 62.0643622,121.61472 C60.4344115,122.61469 58.5444688,123.284669 56.6145272,123.549661 C55.7145545,123.669658 54.0146059,123.669658 53.1146332,123.549661 C50.7233832,123.234177 48.4537954,122.307745 46.5248327,120.859743 C45.5267693,120.049198 44.6167845,119.135862 43.8099149,118.134825 C42.5535613,116.444606 41.68934,114.495839 41.2799915,112.429998 C41.2247913,112.123864 41.1563964,111.820257 41.0749977,111.520025 C41.0349989,111.480027 41.1049968,112.210005 41.2349929,113.169976 C41.3699888,114.164945 41.65998,115.604902 41.9699706,116.834865 C44.3798977,126.369576 51.2196906,134.119341 60.4944097,137.809229 C63.1514981,138.868503 65.9403024,139.561499 68.7841587,139.869167 C69.8841254,139.994163 73.0040309,140.044162 74.1539961,139.954165 C79.4238366,139.554177 84.0136976,137.989224 88.7185551,134.994315 C90.2784778,133.998347 91.8400995,133.005042 93.4034133,132.014405 L95.3233551,130.794442 L98.7432516,128.619508 L99.9132162,127.87453 L99.9582148,127.849531 L100.083211,127.764534 L100.148209,127.729535 L101.008183,127.179551 L103.993093,125.279609 C107.792978,122.874682 108.927943,122.029707 110.69289,120.28976 C111.432867,119.559782 112.542834,118.31982 112.597832,118.164824 C112.607832,118.129825 112.807826,117.824835 113.037819,117.484845 C114.029207,115.938364 114.666081,114.191657 114.902762,112.37 C115.046117,110.962015 115.046117,109.543112 114.902762,108.135128 C114.634447,106.176557 114.099505,104.263889 113.31281,102.4503 C112.192844,100.090372 109.812916,97.9504363 106.39802,96.2254886 C105.744913,95.8735804 105.06637,95.571077 104.368081,95.320516 C104.318083,95.320516 101.138179,97.2804566 97.3032952,99.6703843 C94.5398089,101.388285 91.7765592,103.106566 89.0135462,104.825228 L86.8186126,106.195187 L86.8186126,106.200187 Z" id="路径" fill="url(#radialGradient-4)" fill-rule="nonzero" mask="url(#mask-2)"></path>
                <path d="M41.0149995,94.7305338 L41.0349989,111.38003 L41.2449926,112.345 C41.9149723,115.364909 43.0749372,117.544843 45.094876,119.569782 C47.663278,122.200393 51.1931854,123.670135 54.86958,123.640123 C57.5494989,123.640123 59.8694286,122.964679 62.2643561,121.489724 L65.7792497,119.314789 L68.5591655,117.584842 L68.5591655,60.016585 C68.5591655,48.4869341 68.5391661,41.6421413 68.4991673,41.1071575 C68.2920811,37.7779088 66.8748054,34.6392743 64.514288,32.2824247 C63.78931,31.5624465 63.1743286,31.0824611 61.3293844,29.8024998 C57.4874038,27.1422717 53.6475189,24.4790182 49.8097332,21.8127417 C48.0297871,20.5777791 47.8997911,20.4927817 47.3548076,20.2977876 C46.0625303,19.8153396 44.6237933,19.9230027 43.4177111,20.5924072 C42.2116288,21.2618117 41.359183,22.4258098 41.0849974,23.7776822 C41.0149995,24.0926727 41,28.2975454 41,51.1168544 L41,78.0860378 L41,78.0860378 L41.0149995,94.7305338 Z" id="路径" fill="url(#linearGradient-5)" fill-rule="nonzero" mask="url(#mask-2)"></path>
            </g>
        </g>
    </g>
</svg>