<svg width="15" height="15" viewBox="0 0 15 15" fill="none" xmlns="http://www.w3.org/2000/svg">
    <g clip-path="url(#clip0_1190_5382)">
        <path
            d="M3.08282 12.894V10.0795M3.08282 4.45031V1.63574M1.67554 3.04303H4.49011M1.67554 11.4867H4.49011M7.86759 2.19866L6.8914 4.73676C6.73265 5.1495 6.65328 5.35588 6.52984 5.52947C6.42045 5.68332 6.28603 5.81774 6.13218 5.92713C5.95858 6.05057 5.75221 6.12994 5.33947 6.28869L2.80137 7.26488L5.33947 8.24107C5.75221 8.39982 5.95859 8.4792 6.13218 8.60263C6.28603 8.71203 6.42045 8.84645 6.52984 9.0003C6.65328 9.17389 6.73265 9.38026 6.8914 9.79301L7.86759 12.3311L8.84378 9.79301C9.00253 9.38026 9.08191 9.17389 9.20534 9.0003C9.31474 8.84645 9.44916 8.71203 9.60301 8.60263C9.7766 8.4792 9.98297 8.39982 10.3957 8.24107L12.9338 7.26488L10.3957 6.28869C9.98297 6.12994 9.7766 6.05057 9.60301 5.92713C9.44916 5.81774 9.31474 5.68332 9.20534 5.52947C9.08191 5.35588 9.00253 5.1495 8.84378 4.73676L7.86759 2.19866Z"
            stroke="currentColor" stroke-width="1.68874" stroke-linecap="round" stroke-linejoin="round" />
    </g>
    <defs>
        <clipPath id="clip0_1190_5382">
            <rect width="13.5099" height="13.5099" fill="white" transform="translate(0.549805 0.509888)" />
        </clipPath>
    </defs>
</svg>