<svg width="15" height="14" viewBox="0 0 15 14" fill="none" xmlns="http://www.w3.org/2000/svg">
    <path
        d="M6.1875 12.1045L7.04673 12.5819C7.21217 12.6738 7.29489 12.7197 7.38249 12.7377C7.46002 12.7537 7.53998 12.7537 7.61751 12.7377C7.70511 12.7197 7.78783 12.6738 7.95327 12.5819L8.8125 12.1045M3.5625 10.6462L2.73007 10.1837C2.55535 10.0866 2.46798 10.0381 2.40437 9.96907C2.34809 9.908 2.3055 9.83562 2.27945 9.75677C2.25 9.66764 2.25 9.5677 2.25 9.36782V8.45867M2.25 5.542V4.63284C2.25 4.43297 2.25 4.33303 2.27945 4.2439C2.3055 4.16505 2.34809 4.09267 2.40437 4.0316C2.46798 3.96257 2.55535 3.91403 2.73007 3.81696L3.5625 3.3545M6.1875 1.89617L7.04673 1.41882C7.21217 1.32691 7.29489 1.28095 7.38249 1.26294C7.46002 1.24699 7.53998 1.24699 7.61751 1.26294C7.70511 1.28095 7.78783 1.32691 7.95327 1.41882L8.8125 1.89617M11.4375 3.3545L12.2699 3.81696C12.4447 3.91403 12.532 3.96257 12.5956 4.0316C12.6519 4.09266 12.6945 4.16505 12.7206 4.2439C12.75 4.33303 12.75 4.43297 12.75 4.63284V5.542M12.75 8.45867V9.36782C12.75 9.5677 12.75 9.66764 12.7206 9.75677C12.6945 9.83562 12.6519 9.908 12.5956 9.96907C12.532 10.0381 12.4447 10.0866 12.2699 10.1837L11.4375 10.6462M6.1875 6.27117L7.5 7.00033M7.5 7.00033L8.8125 6.27117M7.5 7.00033V8.45867M2.25 4.08367L3.5625 4.81283M11.4375 4.81283L12.75 4.08367M7.5 11.3753V12.8337"
        stroke="#A5A3A9" stroke-width="1.5" stroke-linecap="round" stroke-linejoin="round" />
</svg>