<?xml version="1.0" standalone="no"?><!DOCTYPE svg PUBLIC "-//W3C//DTD SVG 1.1//EN" "http://www.w3.org/Graphics/SVG/1.1/DTD/svg11.dtd"><svg t="1733296014574" class="icon" viewBox="0 0 1024 1024" version="1.1" xmlns="http://www.w3.org/2000/svg" p-id="7650" width="48" height="48" xmlns:xlink="http://www.w3.org/1999/xlink"><path d="M938.322 256.2V149.626c0-23.576-19.11-42.654-42.652-42.654H43.024C19.48 106.972 0.4 126.05 0.4 149.626V256.2h937.922z" fill="#E6E9ED" p-id="7651"></path><path d="M792.126 831.75H0.4V192.25h937.922v446.306z" fill="#656D78" p-id="7652"></path><path d="M85.646 149.626c0 11.772-9.556 21.296-21.296 21.296-11.804 0-21.328-9.524-21.328-21.296S52.546 128.3 64.35 128.3c11.74 0 21.296 9.556 21.296 21.326z" fill="#ED5564" p-id="7653"></path><path d="M149.596 149.626c0 11.772-9.556 21.296-21.296 21.296-11.804 0-21.328-9.524-21.328-21.296S116.498 128.3 128.3 128.3c11.742 0 21.296 9.556 21.296 21.326z" fill="#FFCE54" p-id="7654"></path><path d="M213.546 149.626c0 11.772-9.524 21.296-21.326 21.296-11.772 0-21.296-9.524-21.296-21.296S180.448 128.3 192.22 128.3c11.802 0 21.326 9.556 21.326 21.326z" fill="#A0D468" p-id="7655"></path><path d="M746.474 277.496H106.974c-11.772 0-21.328 9.554-21.328 21.326s9.554 21.328 21.328 21.328h639.5c11.77 0 21.292-9.556 21.292-21.328 0.002-11.772-9.522-21.326-21.292-21.326z" fill="#FC6E51" p-id="7656"></path><path d="M106.974 405.396H448.02c11.772 0 21.328-9.524 21.328-21.296s-9.554-21.326-21.328-21.326H106.974c-11.772 0-21.328 9.554-21.328 21.326s9.556 21.296 21.328 21.296z" fill="#AC92EB" p-id="7657"></path><path d="M575.92 448.05H106.974c-11.772 0-21.328 9.524-21.328 21.296 0 11.802 9.554 21.328 21.328 21.328H575.92c11.77 0 21.328-9.524 21.328-21.328 0-11.772-9.558-21.296-21.328-21.296z" fill="#48CFAD" p-id="7658"></path><path d="M106.974 575.952h298.422c11.772 0 21.328-9.556 21.328-21.328s-9.554-21.328-21.328-21.328H106.974c-11.772 0-21.328 9.556-21.328 21.328s9.556 21.328 21.328 21.328z" fill="#5D9CEC" p-id="7659"></path><path d="M448.02 618.572H106.974c-11.772 0-21.328 9.554-21.328 21.328 0 11.772 9.554 21.294 21.328 21.294H448.02c11.772 0 21.328-9.524 21.328-21.294-0.002-11.774-9.556-21.328-21.328-21.328z" fill="#FFCE54" p-id="7660"></path><path d="M277.496 703.85H106.974c-11.772 0-21.328 9.524-21.328 21.296s9.554 21.326 21.328 21.326h170.522c11.772 0 21.328-9.554 21.328-21.326s-9.556-21.296-21.328-21.296z" fill="#ED5564" p-id="7661"></path><path d="M938.322 533.294H597.248l-85.31 127.964 255.83 255.77 255.8-255.832z" fill="#3BAED9" p-id="7662"></path><path d="M639.87 661.196l127.898 255.832 127.902-255.832z" fill="#4FC0E8" p-id="7663"></path><path d="M597.248 533.294l-85.31 127.964 127.932-0.062z" fill="#4BBDE0" p-id="7664"></path><path d="M639.838 661.258l127.96-127.964-170.582 0.032z" fill="#56CEEF" p-id="7665"></path><path d="M895.638 661.258l42.654-127.964-170.556 0.032z" fill="#56CEEF" p-id="7666"></path><path d="M938.322 533.294l-42.684 127.964 127.962-0.062z" fill="#4BBDE0" p-id="7667"></path><path d="M767.768 533.326l-127.898 127.87h255.8z" fill="#5CDAF7" p-id="7668"></path></svg>