<?xml version="1.0" standalone="no"?><!DOCTYPE svg PUBLIC "-//W3C//DTD SVG 1.1//EN" "http://www.w3.org/Graphics/SVG/1.1/DTD/svg11.dtd"><svg t="1741053188941" class="icon" viewBox="0 0 1024 1024" version="1.1" xmlns="http://www.w3.org/2000/svg" p-id="1485" xmlns:xlink="http://www.w3.org/1999/xlink" width="200" height="200"><path d="M874.144 32H149.856A117.952 117.952 0 0 0 32 149.856V874.24C32 939.2 84.8 992 149.856 992h724.288C939.104 992 992 939.2 992 874.24V149.76A118.016 118.016 0 0 0 874.144 32zM85.856 267.616h852.288v606.208c0 35.52-28.48 64.416-63.36 64.416H149.216c-34.976 0-63.36-28.896-63.36-64.416V267.616z m63.36-181.76h725.44c35.008 0 63.36 26.24 63.36 58.368v69.44H85.888v-69.44c0-32.128 28.48-58.368 63.36-58.368zM440.928 844.8a15.328 15.328 0 0 1-9.6-9.056 26.112 26.112 0 0 1 1.792-21.44l0.224-0.32 128.736-432.544 0.832-0.64c2.144-1.376 20.8-13.44 30.304-8a22.272 22.272 0 0 1 8.416 30.72l-0.192 0.32-128.864 433.28-0.192 0.32a18.976 18.976 0 0 1-17.504 9.696c-4.032 0-8.64-0.736-13.952-2.336z m254.368-101.76c0-5.984 2.24-11.744 6.272-15.68l136.736-111.584-136.096-111.04a22.304 22.304 0 0 1-0.192-32.192 24.128 24.128 0 0 1 33.056 0.32l153.92 125.632c4.576 4.48 6.816 10.56 6.496 17.184a22.304 22.304 0 0 1-6.08 17.056l-154.56 126.08a23.232 23.232 0 0 1-16.512 6.848 23.264 23.264 0 0 1-16.32-6.624 22.08 22.08 0 0 1-6.72-16z m-406.368 15.584l-153.92-125.568a22.048 22.048 0 0 1-6.496-17.152 22.304 22.304 0 0 1 6.08-17.088l154.88-126.496a23.04 23.04 0 0 1 16.096-6.4c6.176 0 11.936 2.336 16.32 6.624a22.208 22.208 0 0 1 0.416 31.68l-136.64 111.552 136.128 110.944a22.72 22.72 0 0 1 6.912 16.224 23.04 23.04 0 0 1-22.944 22.72 23.936 23.936 0 0 1-16.832-7.04z" fill="#000000" p-id="1486"></path></svg>