<svg t="1727330687293" class="icon" viewBox="0 0 1024 1024" version="1.1" xmlns="http://www.w3.org/2000/svg" p-id="4353"
    width="200" height="200">
    <path d="M254.350222 268.970667v108.259555h185.571556V268.970667H254.350222z" p-id="4354" fill="#32d2a3"></path>
    <path
        d="M187.904 106.666667a85.333333 85.333333 0 0 0-85.333333 85.333333v411.192889a85.333333 85.333333 0 0 0 85.333333 85.333333h43.434667v95.317334a69.006222 69.006222 0 1 0 49.123555 0v-95.288889h121.6v95.288889a69.006222 69.006222 0 1 0 49.152 0v-95.288889h121.6v95.288889a69.006222 69.006222 0 1 0 49.123556 0v-95.288889h121.628444v95.288889a69.006222 69.006222 0 1 0 49.123556 0v-95.288889h43.406222a85.333333 85.333333 0 0 0 85.333333-85.333334V192a85.333333 85.333333 0 0 0-85.333333-85.333333H187.904z m25.884444 430.222222h596.394667a40.533333 40.533333 0 0 1 0 81.066667H213.816889a40.533333 40.533333 0 0 1 0-81.066667z m0-348.984889h266.666667c22.385778 0 40.533333 18.147556 40.533333 40.533333v189.326223c0 22.385778-18.147556 40.533333-40.533333 40.533333H213.816889a40.533333 40.533333 0 0 1-40.533333-40.533333V228.437333c0-22.385778 18.147556-40.533333 40.533333-40.533333z m439.381334 0c22.385778 0 40.533333 18.147556 40.533333 40.533333v189.326223a40.533333 40.533333 0 0 1-81.066667 0V228.437333c0-22.385778 18.119111-40.533333 40.533334-40.533333z m116.48 40.533333a40.533333 40.533333 0 0 1 81.066666 0v189.326223a40.533333 40.533333 0 0 1-81.066666 0V228.437333z"
        p-id="4355" fill="#32d2a3"></path>
</svg>