<?xml version="1.0" standalone="no"?><!DOCTYPE svg PUBLIC "-//W3C//DTD SVG 1.1//EN" "http://www.w3.org/Graphics/SVG/1.1/DTD/svg11.dtd"><svg class="icon" width="200px" height="200.00px" viewBox="0 0 1024 1024" version="1.1" xmlns="http://www.w3.org/2000/svg"><path d="M 777.121 313.158 a 265.121 265.121 0 0 0 -530.243 0 Z m 165.7 265.121 H 843.402 V 425.836 l 84.176 -84.176 a 33.1402 33.1402 0 1 0 -47.0591 -47.0591 l -66.2803 66.2803 h -596.524 l -66.2803 -66.2803 a 33.1402 33.1402 0 1 0 -47.0591 47.0591 L 180.598 425.836 V 578.281 H 81.177 a 33.1402 33.1402 0 0 0 0 66.2803 H 180.598 v 33.1402 a 294.285 294.285 0 0 0 39.7682 145.817 l -96.1069 95.4441 a 33.1402 33.1402 0 0 0 47.0591 47.0591 l 88.8157 -88.1529 A 296.937 296.937 0 0 0 478.859 975.959 h 3.97682 V 401.974 h 66.2803 V 975.959 a 296.937 296.937 0 0 0 215.411 -98.0944 l 88.8157 88.8157 a 33.1402 33.1402 0 0 0 47.0591 -47.0591 l -93.4554 -93.4554 a 293.621 293.621 0 0 0 36.4542 -149.131 V 644.561 h 99.4209 a 33.1402 33.1402 0 0 0 0 -66.2803 Z" fill="#1B69FD" /></svg>