<svg t="1729483089197" class="icon" viewBox="0 0 1024 1024" version="1.1" xmlns="http://www.w3.org/2000/svg" p-id="5510"
    width="200" height="200">
    <path
        d="M907.829782 451.691308c-5.151034 0-10.494032 0.383928-16.092983 1.215772a81.104793 81.104793 0 0 0-53.845904 33.881647c-10.622008 15.581079-14.333313 33.721677-10.430044 51.062426 7.134662 31.930013 32.601887 45.49547 49.430732 54.485784 4.703118 2.495532 9.470224 4.863088 13.373492 7.902518 16.732863 13.021558 22.075861 38.968693 12.477661 60.37268-10.87796 24.315441-40.888333 36.249203-64.179967 37.049054l-3.295382 0.063988c-31.642067 0-65.747672-15.581079-96.077985-43.863776-22.939699-21.371993-42.200087-48.05499-59.316878-74.162095C754.578517 519.9985 799.850028 423.344623 799.850028 319.940011c0-176.414922-129.159783-319.940011-287.94601-319.940011S223.958008 143.525089 223.958008 319.940011c0 103.404612 45.271512 200.058489 119.977504 259.791289-17.116791 26.075111-36.409173 52.758108-59.348872 74.162095-30.298319 28.250703-64.403924 43.831782-96.045991 43.831782l-3.295382-0.063988c-23.291633-0.79985-53.302006-12.733612-64.243955-37.049054-9.5982-21.403987-4.15922-47.351122 12.477661-60.37268 3.967256-3.03943 8.734362-5.406986 13.43748-7.902518 16.828845-8.990314 42.296069-22.555771 49.430732-54.421796a64.883834 64.883834 0 0 0-10.430044-51.126414 81.104793 81.104793 0 0 0-53.845904-33.881647 107.563832 107.563832 0 0 0-16.092983-1.215772c-59.316878 0-102.796726 52.342186-113.450728 136.646379-9.91814 78.705243 9.5982 154.850965 52.182216 203.705805 33.593701 38.584765 79.921015 59.284884 136.582391 59.956758 14.973193 0 30.170343-1.471724 45.559457-4.415172a241.586702 241.586702 0 0 1-64.339936 40.408423l-5.055052 2.07961c-10.973942 4.543148-23.483597 9.662188-35.193401 19.196401-20.156221 16.412923-29.754421 40.728363-25.275261 63.380116 4.383178 22.395801 21.851903 40.664375 45.591451 47.703056 14.301319 4.31919 31.322127 3.967256 47.73505 1.503718 99.213397-14.525277 192.187965-68.723114 255.056177-148.676123 22.875711-29.114541 41.976129-63.028182 56.5334-99.757296a400.820846 400.820846 0 0 0 56.5334 99.725302c62.868212 79.985003 155.810785 134.182841 255.056177 148.708117 7.51859 1.11979 15.165157 1.951634 22.747735 1.951634 9.054302 0 17.212773-1.11979 24.955321-3.423358 23.771543-7.03868 41.240267-25.339249 45.591451-47.639068 4.543148-22.747735-5.11904-47.063176-25.275261-63.540086-11.67781-9.470224-24.187465-14.589265-35.193401-19.132413l-5.023058-2.07961a241.842655 241.842655 0 0 1-64.627882-40.632381 258.703493 258.703493 0 0 0 48.406923 4.607136h0.063988c54.037868-0.63988 100.365182-21.339999 133.958883-59.924764 42.584015-48.85484 62.068362-124.968568 52.150222-203.705805-10.622008-84.304193-54.069862-136.646379-113.418734-136.646379zM69.49097 577.363744c5.534962-24.123477 18.652503-61.684434 46.487284-61.684434 2.047616 0 4.223208 0.15997 6.462788 0.511904 5.726926 0.863838 11.005936 6.046866 11.485847 7.67856-0.767856 3.263388-9.43823 7.902518-17.148785 11.997751-7.03868 3.775292-15.037181 8.030494-22.555771 13.885396-9.950134 7.742548-18.236581 17.148785-24.731363 27.610823z m851.36037 172.63963c-21.595951 24.795351-50.678498 37.560957-88.303443 38.008874-37.081047 0-76.913579-12.47766-121.737174-38.072862a31.994001 31.994001 0 1 0-44.85559 41.304256c32.409923 69.522964 90.862963 126.280322 160.417922 155.682809l5.59895 2.303568c7.614572 3.167406 14.813223 6.07886 19.164407 9.598201l0.543898 0.511904c-4.735112 0.95982-12.381678 0.15997-18.876461-0.767856-83.184403-12.189714-161.217772-57.749172-214.071861-124.968569-42.871962-54.485784-70.866712-133.095045-74.865963-210.200587a31.994001 31.994001 0 0 0-63.924014 0c-3.99925 77.105543-31.994001 155.714803-74.865963 210.200587-52.85409 67.187402-130.855465 112.778854-214.071861 124.968569-6.174842 0.895832-11.83778 2.527526-18.684497 0.607886l0.31994-0.287946c4.383178-3.551334 11.581828-6.494782 19.196401-9.662189l5.59895-2.303568c69.554958-29.402487 127.976004-86.159845 160.449916-155.682809a31.994001 31.994001 0 0 0-44.887584-41.304256c-44.823596 25.595201-84.624133 38.072861-123.496844 38.072862H189.404487c-35.833281-0.447916-64.883834-13.213522-86.479785-38.008874a140.229707 140.229707 0 0 1-21.819909-34.553521c24.027495 27.450853 61.140536 44.791602 101.932887 46.167344l5.438981 0.095982c47.927014 0 97.517715-21.691933 139.717803-61.044554 36.537149-34.073611 63.988002-77.393489 86.095857-112.170968a31.994001 31.994001 0 0 0-9.982129-44.247704C332.545648 499.138412 287.94601 413.170531 287.94601 319.940011c0-141.125539 100.461164-255.952009 223.958008-255.952009s223.958008 114.82647 223.958008 255.952009c0 93.230519-44.599638 179.166406-116.394176 224.309942a32.057989 32.057989 0 0 0-9.982129 44.247704c22.075861 34.777479 49.558708 78.097357 86.063863 112.138974 42.232081 39.384615 91.822783 61.108542 139.717803 61.108542l5.470975-0.127976c40.792351-1.375742 77.937387-18.716491 101.932887-46.167344-5.854902 12.989564-13.149534 24.635381-21.819909 34.553521z m8.702369-200.282447c-7.486596-5.822908-15.485097-10.07811-22.523777-13.853402-7.67856-4.095232-16.380929-8.734362-17.116791-11.389865 0.447916-2.23958 5.75892-7.422608 11.453853-8.31844 2.23958-0.31994 4.415172-0.47991 6.462788-0.47991 27.866775 0 40.952321 37.592951 46.519278 61.684434a105.996126 105.996126 0 0 0-24.795351-27.642817z"
        fill="#5465CF" p-id="5511"></path>
    <path
        d="M607.886021 447.916016m-31.994001 0a31.994001 31.994001 0 1 0 63.988002 0 31.994001 31.994001 0 1 0-63.988002 0Z"
        fill="#5465CF" p-id="5512"></path>
    <path
        d="M415.922015 447.916016m-31.994002 0a31.994001 31.994001 0 1 0 63.988003 0 31.994001 31.994001 0 1 0-63.988003 0Z"
        fill="#5465CF" p-id="5513"></path>
</svg>