<svg t="1723087653045" class="icon" viewBox="0 0 1024 1024" version="1.1" xmlns="http://www.w3.org/2000/svg" p-id="4633"
    width="200" height="200">
    <path
        d="M128 286.165333v376.661334c0 19.669333 9.813333 37.973333 26.709333 47.786666l324.693334 186.88c16.810667 9.898667 37.888 9.898667 53.333333 0l324.693333-188.288c16.853333-9.813333 26.709333-28.117333 26.709334-47.786666V286.165333c0-19.669333-9.813333-37.973333-26.709334-47.786666l-324.693333-188.330667c-16.853333-9.813333-37.930667-9.813333-53.333333 0l-324.693334 188.330667C137.813333 248.192 128 266.496 128 286.165333z"
        fill="#0F2B46" p-id="4634"></path>
    <path d="M649.728 981.333333v-179.712l-189.738667 70.101334" fill="#0F2B46" p-id="4635"></path>
    <path
        d="M382.037333 295.68a55.125333 55.125333 0 0 1 77.312 0c23.893333 22.442667 23.893333 59.008 0 81.493333a55.125333 55.125333 0 0 1-77.312 0 57.685333 57.685333 0 0 1 0-81.493333zM620.245333 437.930667a55.125333 55.125333 0 0 1 77.312 0c23.893333 22.485333 23.893333 59.050667 0 81.493333a55.125333 55.125333 0 0 1-77.312 0 55.296 55.296 0 0 1 0-81.493333zM382.037333 580.266667a55.125333 55.125333 0 0 1 77.312 0c23.893333 22.485333 23.893333 59.008 0 81.493333a55.125333 55.125333 0 0 1-77.312 0c-22.485333-21.077333-22.485333-59.008 0-81.493333z"
        fill="#FFFFFF" p-id="4636"></path>
    <path
        d="M459.989333 390.186667l161.621334 94.165333 26.709333-15.488-161.621333-94.165333-26.709334 15.488zM632.874667 532.48l-146.176 84.309333-26.709334-15.445333 146.176-84.352 26.709334 15.488z"
        fill="#FFFFFF" p-id="4637"></path>
</svg>