<svg t="1712735718884" class="icon" viewBox="0 0 1024 1024" version="1.1" xmlns="http://www.w3.org/2000/svg" p-id="8042"
    id="mx_n_1712735718887" width="22" height="22">
    <path
        d="M222.634667 272.298667A382.4 382.4 0 0 0 138.666667 512c0 212.117333 171.904 384 384 384 90.666667 0 174.016-31.424 239.701333-83.968l-539.733333-539.733333z m60.330666-60.330667l539.733334 539.733333A382.4 382.4 0 0 0 906.666667 512c0-212.117333-171.904-384-384-384-90.666667 0-174.016 31.424-239.701334 83.968zM53.333333 512c0-259.221333 210.090667-469.333333 469.333334-469.333333 259.221333 0 469.333333 210.090667 469.333333 469.333333 0 259.221333-210.090667 469.333333-469.333333 469.333333-259.221333 0-469.333333-210.090667-469.333334-469.333333z"
        fill="#F04438" p-id="8043"></path>
</svg>