<svg t="1720166976017" class="icon" viewBox="0 0 1024 1024" version="1.1" xmlns="http://www.w3.org/2000/svg" p-id="6815"
    width="200" height="200">
    <path d="M514.56 509.44m-486.4 0a486.4 486.4 0 1 0 972.8 0 486.4 486.4 0 1 0-972.8 0Z" fill="#CC6633" p-id="6816">
    </path>
    <path d="M512 512m-448 0a448 448 0 1 0 896 0 448 448 0 1 0-896 0Z" fill="#FFFFFF" p-id="6817"></path>
    <path
        d="M934.912 516.096c0 199.68-138.24 367.616-324.096 412.672-11.264-21.504-22.016-42.496-31.232-59.904 31.744 28.16 70.144 38.912 91.648 25.6 27.648-16.896 37.376-78.848-5.632-135.168-13.312 0.512-30.72 2.56-50.176 8.192-27.648 8.192-48.128 20.992-61.44 30.72-11.776-17.92-28.16-48.64-36.352-89.6-6.656-33.28-5.12-61.952-2.56-81.408 14.848 10.24 113.664 43.52 162.816 42.496 49.152-1.024 129.536-30.72 120.832-54.784s-88.576 20.992-172.544 13.312c-61.952-5.632-72.704-33.28-58.88-53.76 17.408-25.6 48.64 4.608 100.352-10.752s124.416-43.008 151.04-58.368c61.952-34.816-26.112-49.152-46.592-39.424-19.968 9.216-88.064 26.624-120.32 34.304 17.92-62.976-25.088-172.544-73.216-220.672-15.872-15.872-39.424-25.6-66.56-30.72-10.24-14.336-27.136-28.16-51.2-40.448-46.08-24.064-98.304-32.768-149.504-24.064h-2.56c-6.144 1.024-9.728 3.584-14.848 4.096 6.144 0.512 29.184 11.264 44.032 17.408-7.168 3.072-16.896 4.608-24.576 7.68-3.072 0.512-5.632 1.024-8.704 2.56-7.168 3.072-12.8 15.36-12.288 21.504 34.816-3.584 86.528-1.024 124.416 10.24-26.624 3.584-51.2 10.752-69.12 19.968-0.512 0.512-1.024 0.512-2.048 1.024-2.048 1.024-4.608 1.536-6.144 2.56-56.832 29.696-81.92 99.84-67.072 183.808 13.312 75.776 69.12 336.384 95.232 460.288-164.352-56.32-282.624-214.016-282.624-399.36 0-235.008 190.464-424.96 424.96-424.96s424.96 190.464 424.96 424.96z"
        fill="#DE5833" p-id="6818"></path>
    <path d="M389.12 446.976m-31.744 0a31.744 31.744 0 1 0 63.488 0 31.744 31.744 0 1 0-63.488 0Z" fill="#336699"
        p-id="6819"></path>
    <path
        d="M599.552 401.408c-14.848-0.512-27.648 11.264-28.16 26.112s11.264 27.648 26.112 28.16h2.048c14.848 0 27.136-12.288 27.136-27.136s-12.288-27.136-27.136-27.136zM397.824 355.84s-23.552-10.752-46.592 3.584c-23.04 14.848-22.016 29.696-22.016 29.696s-12.288-27.136 20.48-40.448c32.256-13.824 48.64 7.168 48.128 7.168zM615.936 353.792s-16.896-9.728-30.208-9.728c-27.136 0.512-34.816 12.288-34.816 12.288s4.608-28.672 39.424-23.04c11.264 2.56 20.992 9.728 25.6 20.48z"
        fill="#336699" p-id="6820"></path>
    <path
        d="M549.376 522.24c24.576-9.728 35.328-9.728 74.24-17.408 24.576-5.12 56.832-11.776 94.72-23.552 30.208-9.216 36.864-13.824 56.32-15.36 26.112-2.048 62.464 1.024 66.56 15.36 2.048 6.656-4.608 13.824-10.24 20.48-14.336 16.384-32.256 22.016-61.44 30.72-36.352 11.264-38.912 11.264-51.2 15.36-58.368 18.432-55.296 23.552-76.8 25.6-38.912 3.584-60.928-12.8-71.68 0-6.656 8.192-4.608 22.016 0 30.72 6.656 11.776 19.968 15.36 40.96 20.48 25.6 6.144 46.08 5.632 51.2 5.12 18.432-1.024 31.744-4.608 51.2-10.24 40.96-11.776 52.736-21.504 71.68-15.36 3.584 1.024 19.456 6.144 20.48 15.36 2.048 18.432-53.76 43.52-102.4 51.2-47.104 7.168-86.528-2.56-97.28-5.12-7.168-2.048-19.968-6.144-46.08-15.36-29.696-10.24-37.376-13.824-46.08-20.48-9.216-7.168-23.04-17.92-25.6-35.84-2.56-18.432 9.216-33.28 15.36-40.96 9.216-11.264 21.504-20.992 46.08-30.72z"
        fill="#FDD20A" p-id="6821"></path>
    <path
        d="M523.776 798.72c4.096-3.584 9.216-7.168 15.36-10.24 11.776-6.144 22.528-9.216 30.72-10.24-1.536 3.584-3.584 6.656-5.12 10.24 14.336-7.168 29.696-13.824 46.08-20.48 25.088-10.24 49.152-18.432 71.68-25.6 7.68 12.288 22.016 36.864 25.6 71.68 3.584 35.328-5.12 63.488-10.24 76.8-6.144 3.584-32.768 17.408-66.56 10.24s-51.712-30.208-56.32-35.84c-1.536 5.12-3.584 10.24-5.12 15.36-5.632 1.024-14.848 2.048-25.6 0-11.776-2.048-20.48-7.168-25.6-10.24-24.064 11.776-47.616 24.064-71.68 35.84-3.584 4.608-9.728 6.656-15.36 5.12-7.68-2.048-10.24-9.728-10.24-10.24-5.632-16.896-11.264-37.888-15.36-61.44-4.096-25.088-5.12-47.616-5.12-66.56-2.048-6.144 0.512-12.8 5.12-15.36s9.728-0.512 10.24 0c18.944 2.56 44.544 7.68 71.68 20.48 13.824 6.656 26.112 13.824 35.84 20.48z"
        fill="#66CC33" p-id="6822"></path>
</svg>