<?xml version="1.0" encoding="UTF-8"?>
<svg viewBox="0 0 160 160" version="1.1" xmlns="http://www.w3.org/2000/svg" xmlns:xlink="http://www.w3.org/1999/xlink">
    <title>duckgo</title>
    <defs>
        <rect id="path-1" x="0" y="0" width="160" height="160"></rect>
    </defs>
    <g id="RAGFlow" stroke="none" stroke-width="1" fill="none" fill-rule="evenodd">
        <g id="tool-logo" transform="translate(-632, -81)">
            <g id="duckgo" transform="translate(632, 81)">
                <mask id="mask-2" fill="white">
                    <use xlink:href="#path-1"></use>
                </mask>
                <use id="矩形" fill-opacity="0" fill="#D8D8D8" xlink:href="#path-1"></use>
                <g id="RAGFlow" mask="url(#mask-2)" fill-rule="nonzero">
                    <g transform="translate(17, 17)">
                        <path
                            d="M0,63 C0,85.507732 12.0077316,106.305734 31.5,117.5596 C50.9922676,128.813467 75.0077324,128.813467 94.5,117.5596 C113.992268,106.305734 126,85.507732 126,63 C126,40.492268 113.992268,19.6942657 94.5,8.4403996 C75.0077324,-2.81346653 50.9922676,-2.81346653 31.5,8.4403996 C12.0077316,19.6942657 0,40.492268 0,63 L0,63 Z"
                            id="路径" fill="#CC6633"></path>
                        <path
                            d="M4.64210526,63.3315789 C4.64210526,95.3786276 30.6213718,121.357894 62.6684211,121.357894 C94.7154704,121.357894 120.694737,95.3786276 120.694737,63.3315789 C120.694737,31.2845303 94.7154704,5.30526437 62.6684211,5.30526437 C30.6213718,5.30526437 4.64210526,31.2845303 4.64210526,63.3315789 Z"
                            id="路径" fill="#FFFFFF"></path>
                        <path
                            d="M117.445263,63.8621052 C117.445263,89.7252626 99.54,111.476841 75.4673684,117.31263 C74.0084211,114.527367 72.6157895,111.80842 71.4221053,109.553683 C75.5336842,113.201052 80.5073684,114.593683 83.2926316,112.869473 C86.8736842,110.681052 88.1336842,102.656841 82.5631579,95.3621046 C80.8389474,95.4284204 78.5842105,95.6936835 76.0642105,96.4231572 C72.4831579,97.4842098 69.8305263,99.1421045 68.1063158,100.402104 C66.5810526,98.0810519 64.4589474,94.1021046 63.3978947,88.7968416 C62.5357895,84.4863153 62.7347368,80.7726312 63.0663158,78.2526313 C64.9894737,79.578947 77.7884211,83.8894732 84.1547368,83.7568417 C90.5210526,83.6242101 100.932632,79.7778944 99.8052632,76.6610523 C98.6778947,73.5442103 88.3326316,79.3799997 77.4568421,78.3852628 C69.4326316,77.6557892 68.04,74.0747366 69.8305263,71.4221051 C72.0852632,68.1063157 76.1305263,72.0189472 82.8284211,70.0294735 C89.5263158,68.0399999 98.9431579,64.4589473 102.391579,62.4694737 C110.415789,57.9600001 99.0094737,56.103158 96.3568421,57.363158 C93.7705263,58.5568422 84.9505263,60.811579 80.7726316,61.8063158 C83.0936842,53.6494739 77.5231579,39.4578952 71.2894737,33.2242112 C69.2336842,31.1684217 66.1831579,29.9084217 62.6684211,29.2452639 C61.3421053,27.3884218 59.1536842,25.5978955 56.0368421,24.0063166 C50.0684211,20.8894746 43.3042105,19.7621062 36.6726316,20.8894746 L36.3410526,20.8894746 C35.5452632,21.0221061 35.0810526,21.3536851 34.4178947,21.4200009 C35.2136842,21.4863167 38.1978947,22.8789482 40.1210526,23.6747377 C39.1926316,24.0726324 37.9326316,24.2715798 36.9378947,24.6694745 C36.54,24.7357903 36.2084211,24.8021061 35.8105263,25.0010534 C34.8821053,25.3989482 34.1526316,26.9905271 34.2189474,27.7863165 C38.7284211,27.322106 45.4263158,27.653685 50.3336842,29.1126323 C46.8852632,29.5768428 43.7021053,30.5052638 41.3810526,31.698948 C41.3147368,31.7652638 41.2484211,31.7652638 41.1157895,31.8315796 C40.8505263,31.9642112 40.5189474,32.030527 40.32,32.1631585 C32.9589474,36.0094743 29.7094737,45.0947372 31.6326316,55.9705265 C33.3568421,65.7852631 40.5852632,99.5399992 43.9673684,115.58842 C22.68,108.293683 7.36105263,87.8684205 7.36105263,63.8621052 C7.36105263,33.4231585 32.0305263,8.82000114 62.4031579,8.82000114 C92.7757895,8.82000114 117.445263,33.4894743 117.445263,63.8621052 Z"
                            id="路径" fill="#DE5833"></path>
                        <path
                            d="M42.6410526,54.9094739 C42.6410526,57.1802362 44.4818692,59.0210527 46.7526316,59.0210527 C49.0233939,59.0210527 50.8642105,57.1802362 50.8642105,54.9094739 C50.8642105,52.6387116 49.0233939,50.797895 46.7526316,50.797895 C44.4818692,50.797895 42.6410526,52.6387116 42.6410526,54.9094739 Z M74.0084211,49.0073687 C72.0852632,48.9410529 70.4273684,50.4663161 70.3610526,52.3894739 C70.2947368,54.3126318 71.82,55.9705265 73.7431579,56.0368423 L74.0084211,56.0368423 C75.9315789,56.0368423 77.5231579,54.4452633 77.5231579,52.5221055 C77.5231579,50.5989476 75.9315789,49.0073687 74.0084211,49.0073687 Z M47.88,43.1052636 C47.88,43.1052636 44.8294737,41.712632 41.8452632,43.5694741 C38.8610526,45.4926319 38.9936842,47.4157898 38.9936842,47.4157898 C38.9936842,47.4157898 37.4021053,43.901053 41.6463158,42.1768425 C45.8242105,40.3863163 47.9463158,43.1052636 47.88,43.1052636 L47.88,43.1052636 Z M76.1305263,42.8400004 C76.1305263,42.8400004 73.9421053,41.5800005 72.2178947,41.5800005 C68.7031579,41.6463162 67.7084211,43.1715794 67.7084211,43.1715794 C67.7084211,43.1715794 68.3052632,39.4578952 72.8147368,40.1873689 C74.2736842,40.5189478 75.5336842,41.4473689 76.1305263,42.8400004 Z"
                            id="形状" fill="#336699"></path>
                        <path
                            d="M67.5094737,64.6578947 C70.6926316,63.3978947 72.0852632,63.3978947 77.1252632,62.4031579 C80.3084211,61.74 84.4863158,60.8778948 89.3936842,59.3526317 C93.3063158,58.1589475 94.1684211,57.5621054 96.6884211,57.363158 C100.070526,57.0978949 104.778947,57.4957896 105.309474,59.3526317 C105.574737,60.2147369 104.712632,61.1431579 103.983158,62.0052632 C102.126316,64.1273684 99.8052632,64.8568421 96.0252632,65.9842105 C91.3168421,67.4431578 90.9852632,67.4431578 89.3936842,67.9736841 C81.8336842,70.3610525 82.2315789,71.0242104 79.4463158,71.2894735 C74.4063158,71.753684 71.5547368,69.6315788 70.1621053,71.2894735 C69.3,72.3505261 69.5652632,74.1410524 70.1621053,75.2684208 C71.0242105,76.7936839 72.7484211,77.2578944 75.4673684,77.9210523 C78.7831579,78.7168418 81.4357895,78.650526 82.0989474,78.5842102 C84.4863158,78.4515786 86.2105263,77.9873681 88.7305263,77.2578944 C94.0357895,75.7326313 95.5610526,74.4726313 98.0147368,75.2684208 C98.4789474,75.4010524 100.534737,76.0642103 100.667368,77.2578944 C100.932632,79.6452628 93.7042105,82.8947364 87.4042105,83.8894732 C81.3031579,84.8178943 76.1968421,83.5578943 74.8042105,83.2263154 C73.8757895,82.9610522 72.2178947,82.4305259 68.8357895,81.2368417 C64.9894737,79.910526 63.9947368,79.4463154 62.8673684,78.5842102 C61.6736842,77.6557892 59.8831579,76.2631576 59.5515789,73.942105 C59.22,71.5547367 60.7452632,69.6315788 61.5410526,68.636842 C62.7347368,67.1778946 64.3263158,65.9178947 67.5094737,64.6578947 L67.5094737,64.6578947 Z"
                            id="路径" fill="#FDD20A"></path>
                        <path
                            d="M64.1936842,100.46842 C64.7242105,100.00421 65.3873684,99.5399992 66.1831579,99.1421045 C67.7084211,98.346315 69.1010526,97.9484203 70.1621053,97.8157887 C69.9631579,98.2799993 69.6978947,98.677894 69.4989474,99.1421045 C71.3557895,98.2136835 73.3452632,97.3515782 75.4673684,96.489473 C78.7168421,95.1631572 81.8336842,94.1021046 84.7515789,93.1736836 C85.7463158,94.7652625 87.6031579,97.9484203 88.0673684,102.457894 C88.5315789,107.033683 87.4042105,110.681052 86.7410526,112.405262 C85.9452632,112.869473 82.4968421,114.659999 78.12,113.731578 C73.7431579,112.803157 71.4221053,109.818946 70.8252632,109.089473 C70.6263158,109.752631 70.3610526,110.415788 70.1621053,111.078946 C69.4326316,111.211578 68.2389474,111.34421 66.8463158,111.078946 C65.3210526,110.813683 64.1936842,110.150525 63.5305263,109.752631 C60.4136842,111.277894 57.3631579,112.869473 54.2463158,114.394736 C53.7821053,114.991578 52.9863158,115.256841 52.2568421,115.057894 C51.2621053,114.79263 50.9305263,113.797894 50.9305263,113.731578 C50.2010526,111.543157 49.4715789,108.82421 48.9410526,105.773683 C48.4105263,102.52421 48.2778947,99.606315 48.2778947,97.1526309 C48.0126316,96.3568414 48.3442105,95.4947362 48.9410526,95.1631572 C49.5378947,94.8315783 50.2010526,95.0968414 50.2673684,95.1631572 C52.7210526,95.4947362 56.0368421,96.157894 59.5515789,97.8157887 C61.3421053,98.677894 62.9336842,99.606315 64.1936842,100.46842 L64.1936842,100.46842 Z"
                            id="路径" fill="#66CC33"></path>
                    </g>
                </g>
            </g>
        </g>
    </g>
</svg>