<svg t="1716195941333" class="icon" viewBox="0 0 1024 1024" version="1.1" xmlns="http://www.w3.org/2000/svg" p-id="7780"
    width="200" height="200">
    <path
        d="M1024 534.4c0-85.76-53.12-160.96-133.44-190.08 3.52-17.92 5.44-36.16 5.44-55.04C896 129.92 766.4 0 606.72 0c-93.12 0-179.84 44.8-234.24 120A153.632 153.632 0 0 0 278.4 87.68a153.632 153.632 0 0 0-144 207.04c-79.68 28.8-134.4 105.6-134.4 190.72 0 86.4 53.44 161.6 133.76 190.72-3.52 17.92-5.12 36.48-5.12 55.04 0 159.04 129.6 288.64 288.64 288.64 93.44 0 180.16-44.8 234.24-120.64a152 152 0 0 0 94.08 32.64 153.632 153.632 0 0 0 144-207.04c79.68-28.48 134.4-105.28 134.4-190.4"
        fill="#FFFFFF" p-id="7781"></path>
    <path
        d="M402.56 439.36l224 102.08 225.92-198.08c3.2-16.32 4.8-32.64 4.8-49.6 0-139.52-113.28-252.8-252.8-252.8-83.52 0-161.28 40.96-208.32 109.76l-37.76 195.2 44.16 93.44z"
        fill="#FFD00A" p-id="7782"></path>
    <path
        d="M170.56 676.48c-3.2 16.32-4.8 33.28-4.8 50.56 0 139.84 113.6 253.44 253.44 253.44 84.16 0 162.24-41.28 209.28-111.04l37.44-194.56-49.92-95.04-224.96-102.4-220.48 199.04z"
        fill="#20B9AF" p-id="7783"></path>
    <path
        d="M169.28 288.96l153.6 36.16 33.6-174.72c-21.12-16-47.04-24.96-73.6-24.96-66.88 0-120.96 54.4-120.96 120.96 0 15.04 2.56 29.12 7.36 42.56"
        fill="#EE5096" p-id="7784"></path>
    <path
        d="M155.84 325.44c-68.48 22.72-116.16 88.64-116.16 160.96 0 70.4 43.52 133.44 108.8 158.08l215.36-194.88-39.68-84.48-168.32-39.68z"
        fill="#12A5DF" p-id="7785"></path>
    <path
        d="M667.84 869.44c21.12 16.32 46.72 24.96 73.28 24.96 66.88 0 120.96-54.4 120.96-120.96 0-14.72-2.56-28.8-7.36-42.24l-153.28-35.84-33.6 174.08z"
        fill="#90C640" p-id="7786"></path>
    <path
        d="M699.2 655.36l168.96 39.36c68.48-22.72 116.48-88.32 116.48-160.96 0-70.4-43.52-133.12-109.12-158.08l-220.8 193.6 44.48 86.08z"
        fill="#05799F" p-id="7787"></path>
</svg>