<?xml version="1.0" standalone="no"?><!DOCTYPE svg PUBLIC "-//W3C//DTD SVG 1.1//EN" "http://www.w3.org/Graphics/SVG/1.1/DTD/svg11.dtd"><svg t="1741163990435" class="icon" viewBox="0 0 1024 1024" version="1.1" xmlns="http://www.w3.org/2000/svg" p-id="3522" xmlns:xlink="http://www.w3.org/1999/xlink" width="200" height="200"><path d="M630.153846 653.784615c-15.753846 0-27.569231 3.938462-35.446154 11.815385-7.876923 7.876923-15.753846 23.630769-15.753846 39.384615h110.276923c-7.876923-35.446154-23.630769-51.2-59.076923-51.2z" fill="#3186F2" p-id="3523"></path><path d="M689.230769 78.769231H196.923077c-43.323077 0-78.769231 35.446154-78.769231 78.769231v708.923076c0 43.323077 35.446154 78.769231 78.769231 78.769231h630.153846c43.323077 0 78.769231-35.446154 78.769231-78.769231V295.384615L689.230769 78.769231z m-275.692307 748.307692H370.215385v-169.353846H287.507692V827.076923h-39.384615v-169.353846H196.923077v-35.446154h47.261538v-23.630769c0-15.753846 3.938462-31.507692 15.753847-39.384616 7.876923-11.815385 23.630769-15.753846 39.384615-15.753846h43.323077v35.446154h-35.446154c-7.876923 0-11.815385 0-15.753846 3.938462-3.938462 3.938462-3.938462 7.876923-3.938462 15.753846v19.692308h126.03077V827.076923z m86.646153 0h-43.323077v-287.507692h43.323077V827.076923z m90.584616-43.323077c7.876923 11.815385 23.630769 15.753846 39.384615 15.753846s27.569231-3.938462 35.446154-11.815384c7.876923-3.938462 11.815385-15.753846 19.692308-27.569231h43.323077c-3.938462 19.692308-11.815385 35.446154-27.569231 47.261538-19.692308 15.753846-39.384615 23.630769-66.953846 23.63077-31.507692 0-55.138462-7.876923-70.892308-27.569231-19.692308-19.692308-27.569231-47.261538-27.569231-78.769231s7.876923-55.138462 27.569231-74.830769c15.753846-19.692308 39.384615-31.507692 70.892308-31.507692s59.076923 11.815385 74.830769 35.446153c15.753846 19.692308 23.630769 47.261538 23.630769 86.646154h-153.6c0 15.753846 3.938462 31.507692 11.815385 43.323077zM708.923077 315.076923c-23.630769 0-39.384615-15.753846-39.384615-39.384615V118.153846l196.923076 196.923077h-157.538461z" fill="#3186F2" p-id="3524"></path></svg>