<svg width="15" height="15" viewBox="0 0 15 15" fill="none" xmlns="http://www.w3.org/2000/svg">
    <g clip-path="url(#clip0_1190_5387)">
        <path
            d="M7.90739 4.45039L7.27943 3.19448C7.09871 2.83302 7.00834 2.65229 6.87352 2.52025C6.7543 2.40348 6.61061 2.31468 6.45286 2.26026C6.27446 2.19873 6.0724 2.19873 5.66828 2.19873H3.51666C2.88613 2.19873 2.57087 2.19873 2.33004 2.32144C2.11821 2.42938 1.94598 2.60161 1.83804 2.81344C1.71533 3.05427 1.71533 3.36953 1.71533 4.00005V4.45039M1.71533 4.45039H10.2716C11.2174 4.45039 11.6903 4.45039 12.0515 4.63445C12.3693 4.79635 12.6276 5.0547 12.7895 5.37246C12.9736 5.7337 12.9736 6.20659 12.9736 7.15237V9.62919C12.9736 10.575 12.9736 11.0479 12.7895 11.4091C12.6276 11.7269 12.3693 11.9852 12.0515 12.1471C11.6903 12.3312 11.2174 12.3312 10.2716 12.3312H4.41732C3.47153 12.3312 2.99864 12.3312 2.6374 12.1471C2.31964 11.9852 2.0613 11.7269 1.89939 11.4091C1.71533 11.0479 1.71533 10.575 1.71533 9.62919V4.45039Z"
            stroke="currentColor" stroke-width="1.68874" stroke-linecap="round" stroke-linejoin="round" />
    </g>
    <defs>
        <clipPath id="clip0_1190_5387">
            <rect width="13.5099" height="13.5099" fill="white" transform="translate(0.589355 0.509888)" />
        </clipPath>
    </defs>
</svg>