<?xml version="1.0" encoding="UTF-8"?>
<svg viewBox="0 0 160 160" version="1.1" xmlns="http://www.w3.org/2000/svg" xmlns:xlink="http://www.w3.org/1999/xlink">
    <title>GitHub</title>
    <defs>
        <rect id="path-1" x="0" y="0" width="160" height="160"></rect>
    </defs>
    <g id="RAGFlow" stroke="none" stroke-width="1" fill="none" fill-rule="evenodd">
        <g id="tool-logo" transform="translate(-1244, -355)">
            <g id="GitHub" transform="translate(1244, 355)">
                <mask id="mask-2" fill="white">
                    <use xlink:href="#path-1"></use>
                </mask>
                <use id="矩形" fill-opacity="0" fill="#D8D8D8" xlink:href="#path-1"></use>
                <g id="GitHub-·-Build-and-ship-software-on-a-single,-collaborative-platform" mask="url(#mask-2)"
                    fill="currentColor" fill-rule="nonzero">
                    <g transform="translate(17, 19)" id="路径">
                        <path
                            d="M63,0 C28.1925,0 0,28.1925 0,63 C0,90.8775 18.03375,114.42375 43.07625,122.77125 C46.22625,123.3225 47.4075,121.4325 47.4075,119.77875 C47.4075,118.2825 47.32875,113.32125 47.32875,108.045 C31.5,110.95875 27.405,104.18625 26.145,100.6425 C25.43625,98.83125 22.365,93.24 19.6875,91.74375 C17.4825,90.5625 14.3325,87.64875 19.60875,87.57 C24.57,87.49125 28.11375,92.1375 29.295,94.0275 C34.965,103.55625 44.02125,100.87875 47.64375,99.225 C48.195,95.13 49.84875,92.37375 51.66,90.79875 C37.6425,89.22375 22.995,83.79 22.995,59.6925 C22.995,52.84125 25.43625,47.17125 29.4525,42.76125 C28.8225,41.18625 26.6175,34.72875 30.0825,26.06625 C30.0825,26.06625 35.35875,24.4125 47.4075,32.52375 C52.4475,31.10625 57.8025,30.3975 63.1575,30.3975 C68.5125,30.3975 73.8675,31.10625 78.9075,32.52375 C90.95625,24.33375 96.2325,26.06625 96.2325,26.06625 C99.6975,34.72875 97.4925,41.18625 96.8625,42.76125 C100.87875,47.17125 103.32,52.7625 103.32,59.6925 C103.32,83.86875 88.59375,89.22375 74.57625,90.79875 C76.86,92.7675 78.82875,96.5475 78.82875,102.45375 C78.82875,110.88 78.75,117.6525 78.75,119.77875 C78.75,121.4325 79.93125,123.40125 83.08125,122.77125 C108.725764,114.113918 125.99308,90.0664077 126,63 C126,28.1925 97.8075,0 63,0 L63,0 Z">
                        </path>
                    </g>
                </g>
            </g>
        </g>
    </g>
</svg>