<svg t="1723100125495" class="icon" viewBox="0 0 1024 1024" version="1.1" xmlns="http://www.w3.org/2000/svg" p-id="5615"
    width="200" height="200">
    <path
        d="M938.666667 512a426.666667 426.666667 0 0 1-291.84 404.48 22.186667 22.186667 0 0 1-19.2-2.986667 21.76 21.76 0 0 1-8.96-17.493333v-113.92a170.666667 170.666667 0 0 0-21.333334-87.893333 10.666667 10.666667 0 0 1 0-11.52 11.52 11.52 0 0 1 8.533334-5.973334c104.106667-10.666667 162.133333-52.053333 162.133333-164.693333a200.96 200.96 0 0 0-50.773333-143.36 183.466667 183.466667 0 0 0 8.106666-51.2 184.746667 184.746667 0 0 0-6.4-46.08 20.906667 20.906667 0 0 0-22.613333-15.36 189.866667 189.866667 0 0 0-104.106667 50.346667 422.826667 422.826667 0 0 0-160.426666 0A189.866667 189.866667 0 0 0 327.68 256a20.906667 20.906667 0 0 0-22.613333 15.36A184.746667 184.746667 0 0 0 298.666667 317.44a183.466667 183.466667 0 0 0 8.106666 51.2A200.96 200.96 0 0 0 256 512c0 118.613333 64.426667 158.293333 182.613333 168.106667a158.293333 158.293333 0 0 0-29.44 65.28v5.12a29.013333 29.013333 0 0 0 0 5.973333 25.173333 25.173333 0 0 1-27.306666 21.76 42.666667 42.666667 0 0 1-18.346667-5.12 227.84 227.84 0 0 1-60.586667-53.76 430.506667 430.506667 0 0 0-34.133333-34.56 116.906667 116.906667 0 0 0-25.173333-16.64 20.906667 20.906667 0 0 0-20.48 0 21.333333 21.333333 0 0 0-9.813334 17.92v2.56a21.333333 21.333333 0 0 0 9.813334 17.92 193.706667 193.706667 0 0 1 39.253333 44.8 282.026667 282.026667 0 0 0 67.84 73.386667 105.813333 105.813333 0 0 0 59.733333 17.92h15.36V896a21.76 21.76 0 0 1-8.96 17.493333 22.186667 22.186667 0 0 1-19.2 2.986667A426.666667 426.666667 0 1 1 938.666667 512z"
        p-id="5616"></path>
</svg>