<svg t="1720080399921" class="icon" viewBox="0 0 1024 1024" version="1.1" xmlns="http://www.w3.org/2000/svg"
    p-id="12958" width="200" height="200">
    <path
        d="M403.687027 669.563507L313.471495 695.58119a156.733031 156.733031 0 1 1-24.157785-80.038335l96.046001-27.689502a156.816622 156.816622 0 0 1 114.728579-143.358478v-136.671203a156.733031 156.733031 0 1 1 83.590949 0v136.671203a156.440462 156.440462 0 0 1 63.006679 34.523062l63.466428-38.24286a156.733031 156.733031 0 1 1 42.129839 72.201683L691.720542 549.46421c4.472116 14.586621 6.896253 30.071844 6.896253 46.121306a156.00161 156.00161 0 0 1-23.656239 82.838631l57.050823 54.940152a156.733031 156.733031 0 1 1-57.218005 60.937802l-61.439348-59.182392a156.064303 156.064303 0 0 1-71.470262 17.198838 156.712133 156.712133 0 0 1-138.217635-82.75504z m394.653771-232.320147l0.083591 0.146284a73.142081 73.142081 0 1 0-0.083591-0.146284zM541.883764 668.727597a73.142081 73.142081 0 1 0 0-146.284162 73.142081 73.142081 0 0 0 0 146.284162z m0-438.852485a73.142081 73.142081 0 1 0 0-146.284162 73.142081 73.142081 0 0 0 0 146.284162z m219.948687 585.65909a73.142081 73.142081 0 1 0 103.4438 103.443801 73.142081 73.142081 0 0 0-103.4438-103.443801z m-534.459635-135.208361a73.142081 73.142081 0 1 0-141.3105 37.824905 73.142081 73.142081 0 0 0 141.3105-37.824905z"
        fill="currentColor" p-id="12959"></path>
</svg>