<svg width="16" height="16" viewBox="0 0 16 16" fill="none" xmlns="http://www.w3.org/2000/svg">
<path d="M8 5.91455C11.4557 5.91455 14.2571 4.98075 14.2571 3.82886C14.2571 2.67696 11.4557 1.74316 8 1.74316C4.54431 1.74316 1.74292 2.67696 1.74292 3.82886C1.74292 4.98075 4.54431 5.91455 8 5.91455Z" stroke="#333333" stroke-width="1.33333" stroke-linecap="round" stroke-linejoin="round"/>
<path d="M3.86122 5.36084C2.56222 5.71611 1.74292 6.23594 1.74292 6.81503C1.74292 7.88586 4.54431 8.75395 8 8.75395C11.4557 8.75395 14.2571 7.88586 14.2571 6.81503C14.2571 6.23594 13.4378 5.71611 12.1388 5.36084C11.0358 5.6625 9.58685 5.84557 8 5.84557C6.41314 5.84557 4.96422 5.6625 3.86122 5.36084Z" stroke="#333333" stroke-width="1.33333" stroke-linecap="round" stroke-linejoin="round"/>
<path d="M3.86134 8.24463C2.56234 8.54659 1.74304 8.9884 1.74304 9.48059C1.74304 10.3907 4.54443 11.1285 8.00012 11.1285C11.4558 11.1285 14.2572 10.3907 14.2572 9.48059C14.2572 8.9884 13.4379 8.54659 12.1389 8.24463C11.0359 8.50102 9.58698 8.65662 8.00012 8.65662C6.41326 8.65662 4.96434 8.50102 3.86134 8.24463Z" stroke="#333333" stroke-width="1.33333" stroke-linecap="round" stroke-linejoin="round"/>
<circle cx="5.19336" cy="10.3887" r="4" fill="#74A0FF"/>
<path d="M3.86122 11.1284C2.56222 11.456 1.74292 11.9353 1.74292 12.4692C1.74292 13.4566 4.54431 14.257 8 14.257C11.4557 14.257 14.2571 13.4566 14.2571 12.4692C14.2571 11.9353 13.4378 11.456 12.1388 11.1284C11.0358 11.4066 9.58685 11.5754 8 11.5754C6.41314 11.5754 4.96422 11.4066 3.86122 11.1284Z" stroke="#333333" stroke-width="1.33333" stroke-linecap="round" stroke-linejoin="round"/>
</svg>
