<svg width="16" height="16" viewBox="0 0 16 16" fill="none" xmlns="http://www.w3.org/2000/svg">
<path d="M13.9555 10.7744L12.3823 9.08934H10.4512M14.9532 7.29976V2.93134C14.9532 2.37905 14.5055 1.93134 13.9532 1.93134H6.40918C5.85689 1.93134 5.40918 2.37905 5.40918 2.93134V4.86801" stroke="#333333" stroke-width="1.2" stroke-linecap="round" stroke-linejoin="round"/>
<circle cx="6.92578" cy="8.50708" r="4" fill="#74A0FF"/>
<path d="M3.74684 13.9497L5.32003 12.2646H9.50781C10.0601 12.2646 10.5078 11.8169 10.5078 11.2646V6.10657C10.5078 5.55428 10.0601 5.10657 9.50781 5.10657H1.96381C1.41152 5.10657 0.963807 5.55428 0.963807 6.10657V11.2646C0.963807 11.8169 1.41152 12.2646 1.96381 12.2646H2.54487" stroke="#333333" stroke-width="1.2" stroke-linecap="round" stroke-linejoin="round"/>
<path d="M2.43175 9.07399C2.49664 9.13889 2.57368 9.19036 2.65847 9.22548C2.74326 9.2606 2.83413 9.27867 2.92591 9.27867C3.01768 9.27867 3.10856 9.26059 3.19334 9.22547C3.27813 9.19035 3.35517 9.13887 3.42006 9.07398C3.48496 9.00908 3.53643 8.93204 3.57155 8.84725C3.60667 8.76246 3.62474 8.67159 3.62474 8.57982C3.62474 8.48804 3.60666 8.39717 3.57154 8.31238C3.53642 8.22759 3.48494 8.15055 3.42005 8.08566C3.35515 8.02077 3.27811 7.96929 3.19332 7.93417C3.10853 7.89905 3.01766 7.88098 2.92588 7.88098C2.83411 7.88098 2.74324 7.89906 2.65845 7.93418C2.57366 7.9693 2.49662 8.02078 2.43173 8.08568C2.36684 8.15057 2.31536 8.22761 2.28024 8.3124C2.24512 8.39719 2.22705 8.48807 2.22705 8.57984C2.22705 8.67161 2.24513 8.76249 2.28025 8.84727C2.31537 8.93206 2.36685 9.0091 2.43175 9.07399Z" fill="#333333"/>
<path d="M5.05583 8.74014C5.07691 8.82947 5.11539 8.91377 5.16905 8.98823C5.22271 9.06269 5.29052 9.12585 5.36859 9.1741C5.44666 9.22235 5.53348 9.25475 5.62407 9.26945C5.71467 9.28415 5.80727 9.28086 5.8966 9.25976C5.98592 9.23867 6.07022 9.20019 6.14467 9.14652C6.21912 9.09285 6.28227 9.02504 6.33051 8.94696C6.37875 8.86888 6.41114 8.78206 6.42583 8.69146C6.44052 8.60086 6.43722 8.50826 6.41612 8.41894C6.39503 8.32961 6.35656 8.24531 6.3029 8.17086C6.24924 8.0964 6.18143 8.03324 6.10336 7.98499C6.02529 7.93674 5.93847 7.90433 5.84788 7.88964C5.75728 7.87494 5.66468 7.87823 5.57535 7.89932C5.48603 7.92041 5.40173 7.95889 5.32728 8.01256C5.25283 8.06624 5.18968 8.13405 5.14144 8.21213C5.09319 8.29021 5.0608 8.37702 5.04612 8.46762C5.03143 8.55822 5.03473 8.65082 5.05583 8.74014Z" fill="#333333"/>
<path d="M8.05139 9.07431C8.11628 9.13921 8.19333 9.19069 8.27811 9.22581C8.3629 9.26093 8.45378 9.27901 8.54556 9.27901C8.63733 9.27901 8.72821 9.26093 8.813 9.22581C8.89779 9.19068 8.97483 9.13921 9.03972 9.07431C9.10461 9.00941 9.15609 8.93237 9.19121 8.84758C9.22633 8.76279 9.2444 8.67191 9.2444 8.58014C9.2444 8.48836 9.22632 8.39749 9.19119 8.3127C9.15607 8.22791 9.10459 8.15087 9.03969 8.08598C8.9748 8.02108 8.89775 7.96961 8.81296 7.93448C8.72818 7.89936 8.6373 7.88129 8.54552 7.88129C8.45375 7.88129 8.36287 7.89936 8.27808 7.93449C8.19329 7.96961 8.11625 8.02109 8.05136 8.08598C7.98646 8.15088 7.93499 8.22792 7.89987 8.31271C7.86475 8.3975 7.84668 8.48838 7.84668 8.58015C7.84668 8.67193 7.86476 8.76281 7.89989 8.84759C7.93501 8.93238 7.98649 9.00942 8.05139 9.07431Z" fill="#333333"/>
</svg>
