<svg t="1720167308319" class="icon" viewBox="0 0 1024 1024" version="1.1" xmlns="http://www.w3.org/2000/svg"
    p-id="11640" width="200" height="200">
    <path
        d="M419.999992 631.999988v-136.699998c74.443999-50.009999 119.999998-134.033997 119.999997-223.299995C539.999989 123.113998 418.885992 0 269.999995 0S0 123.113998 0 271.999995c0 89.267998 45.555999 173.291997 119.999998 223.299995V871.999983c0 7.968 3.164 15.586 8.789999 21.21l119.999998 121.999997A29.903999 29.903999 0 0 0 269.999995 1023.99998a29.899999 29.899999 0 0 0 21.209999-8.79l119.999998-121.999997c11.718-11.718 11.718-30.703999 0-42.422L372.421993 811.999984l38.789999-38.789999c11.718-11.718 11.718-30.703999 0-42.421999L372.421993 691.999986l38.789999-38.789999A29.979999 29.979999 0 0 0 419.999992 631.999988z m-149.999997-329.999994c-49.627999 0-89.999998-40.371999-89.999999-89.999998s40.371999-89.999998 89.999999-89.999998 89.999998 40.371999 89.999998 89.999998-40.371999 89.999998-89.999998 89.999998z"
        p-id="11641" fill="#0f0e0f"></path>
    <path
        d="M933.999982 361.999993c-39.059999 0-72.047999 25.156-84.473999 59.999999H753.999985a30.011999 30.011999 0 0 0-26.835999 16.581999L675.455987 541.999989H509.99999c-16.582 0-29.999999 13.418-29.999999 30s13.418 29.999999 29.999999 29.999999h183.999996a30.011999 30.011999 0 0 0 26.836-16.581999L772.543985 481.999991h76.981998c12.426 34.843999 45.413999 59.999999 84.473999 59.999998 49.627999 0 89.999998-40.371999 89.999998-89.999998s-40.371999-89.999998-89.999998-89.999998zM933.999982 601.999988c-39.059999 0-72.047999 25.156-84.473999 59.999999H509.99999c-16.582 0-29.999999 13.418-29.999999 29.999999s13.418 29.999999 29.999999 30h339.525993c12.426 34.843999 45.413999 59.999999 84.473999 59.999999 49.627999 0 89.999998-40.371999 89.999998-89.999999s-40.371999-89.999998-89.999998-89.999998zM933.999982 841.999984c-39.059999 0-72.047999 25.156-84.473999 59.999998h-76.981998l-51.707999-103.417998A30.011999 30.011999 0 0 0 693.999986 781.999985h-183.999996c-16.582 0-29.999999 13.418-29.999999 29.999999s13.418 29.999999 29.999999 30h165.455997l51.707999 103.417998C732.261986 955.583981 742.631985 963.999981 753.999985 963.999981h95.525998c12.426 34.843999 45.413999 59.999999 84.473999 59.999999 49.627999 0 89.999998-42.371999 89.999998-91.999998s-40.371999-89.999998-89.999998-89.999998zM933.999982 121.999998c-39.059999 0-72.047999 25.156-84.473999 59.999998H753.999985c-10.02 0-19.394 5.01-24.959999 13.36L617.945988 361.999993H569.999989c-16.582 0-29.999999 13.418-30 29.999999s13.418 29.999999 30 30h63.999999c10.02 0 19.394-5.01 24.959999-13.36L770.053985 241.999995h79.471998c12.426 34.843999 45.413999 59.999999 84.473999 59.999999 49.627999 0 89.999998-40.371999 89.999998-89.999998s-40.371999-89.999998-89.999998-89.999998z"
        p-id="11642" fill="#0f0e0f"></path>
</svg>