<svg width="15" height="16" viewBox="0 0 15 16" fill="none" xmlns="http://www.w3.org/2000/svg">
    <path
        d="M0 5V0.5H1V5C1 5.82843 1.67157 6.5 2.5 6.5C3.32843 6.5 4 5.82843 4 5V2C4 1.72386 3.77614 1.5 3.5 1.5C3.22386 1.5 3 1.72386 3 2V5.5H2V2C2 1.17157 2.67157 0.5 3.5 0.5C4.32843 0.5 5 1.17157 5 2V5C5 6.38071 3.88071 7.5 2.5 7.5C1.11929 7.5 0 6.38071 0 5Z"
        fill="#3363FF" />
    <path fill-rule="evenodd" clip-rule="evenodd"
        d="M12.5 0.5H6V5C6 6.933 4.433 8.5 2.5 8.5H1V14C1 14.8284 1.67157 15.5 2.5 15.5H12.5C13.3284 15.5 14 14.8284 14 14V2C14 1.17157 13.3284 0.5 12.5 0.5ZM11 4.5H7V5.5H11V4.5ZM11 7.5H7V8.5H11V7.5ZM4 10.5H11V11.5H4V10.5Z"
        fill="#3363FF" />
</svg>