<svg t="1716195854453" class="icon" viewBox="0 0 1024 1024" version="1.1" xmlns="http://www.w3.org/2000/svg" p-id="5857"
    width="200" height="200">
    <path
        d="M638.855218 56.525807s99.268136 159.838523 132.357514 216.623262a2.523766 2.523766 0 0 1 0 2.944394 2.383557 2.383557 0 0 1-3.50523 0L596.231612 97.326693l42.623606-40.800886z"
        fill="#dd113c" p-id="5858"></path>
    <path
        d="M346.518971 639.655999a588.878771 588.878771 0 0 1 116.654081-165.446893 597.291325 597.291325 0 0 1 58.32704-51.176369v126.188308L346.518971 639.655999zM245.568325 756.590498l275.931767-140.209231v321.079139l62.112689 80.760517v-434.648616l37.716283-19.489084a187.179324 187.179324 0 0 0 51.456788-296.121896L530.753901 119.479752a31.547077 31.547077 0 0 1 1.542302-44.446327 31.687286 31.687286 0 0 1 44.586535 1.542302l19.909711 20.750966 42.062769-40.941095c-50.335114-65.337502-112.167385-57.065157-147.64032-24.396407a90.575163 90.575163 0 0 0-3.925859 127.870819l143.574253 149.60325a128.151237 128.151237 0 0 1-28.041846 197.414597l-19.489083 10.095065V314.090164A649.589368 649.589368 0 0 0 245.568325 755.889452v0.701046z"
        fill="#dd113c" p-id="5859"></path>
    <path d="M583.612781 583.432097v65.617921l-62.112689 31.547077v-65.197293z" fill="#dd113c" p-id="5860"></path>
</svg>