<svg width="24" height="24" viewBox="0 0 24 24" fill="none" xmlns="http://www.w3.org/2000/svg">
    <path
        d="M9.75 20.7496L11.223 21.5679C11.5066 21.7255 11.6484 21.8043 11.7986 21.8351C11.9315 21.8625 12.0685 21.8625 12.2015 21.8351C12.3516 21.8043 12.4934 21.7255 12.777 21.5679L14.25 20.7496M5.25 18.2496L3.82297 17.4568C3.52346 17.2904 3.37368 17.2072 3.26463 17.0889C3.16816 16.9842 3.09515 16.8601 3.05048 16.7249C3 16.5721 3 16.4008 3 16.0582V14.4996M3 9.4996V7.94104C3 7.5984 3 7.42708 3.05048 7.27428C3.09515 7.1391 3.16816 7.01502 3.26463 6.91033C3.37368 6.792 3.52345 6.70879 3.82297 6.54239L5.25 5.7496M9.75 3.2496L11.223 2.43128C11.5066 2.27372 11.6484 2.19494 11.7986 2.16406C11.9315 2.13672 12.0685 2.13672 12.2015 2.16406C12.3516 2.19494 12.4934 2.27372 12.777 2.43128L14.25 3.2496M18.75 5.7496L20.177 6.54239C20.4766 6.70879 20.6263 6.79199 20.7354 6.91033C20.8318 7.01502 20.9049 7.1391 20.9495 7.27428C21 7.42708 21 7.5984 21 7.94104V9.4996M21 14.4996V16.0582C21 16.4008 21 16.5721 20.9495 16.7249C20.9049 16.8601 20.8318 16.9842 20.7354 17.0889C20.6263 17.2072 20.4766 17.2904 20.177 17.4568L18.75 18.2496M9.75 10.7496L12 11.9996M12 11.9996L14.25 10.7496M12 11.9996V14.4996M3 6.9996L5.25 8.2496M18.75 8.2496L21 6.9996M12 19.4996V21.9996"
        stroke="#667085" stroke-width="2" stroke-linecap="round" stroke-linejoin="round" />
</svg>