<svg width="20" height="20" viewBox="0 0 20 20" fill="none" xmlns="http://www.w3.org/2000/svg">
    <path
        d="M17.6667 18.3337C17.9 18.3337 18.0167 18.3337 18.1059 18.2882C18.1843 18.2483 18.248 18.1846 18.2879 18.1062C18.3334 18.017 18.3334 17.9003 18.3334 17.667V9.00033C18.3334 8.76697 18.3334 8.65029 18.2879 8.56116C18.248 8.48276 18.1843 8.41902 18.1059 8.37907C18.0167 8.33366 17.9 8.33366 17.6667 8.33366L15.6667 8.33366C15.4333 8.33366 15.3167 8.33366 15.2275 8.37907C15.1491 8.41902 15.0854 8.48276 15.0454 8.56116C15 8.65029 15 8.76697 15 9.00033V11.0003C15 11.2337 15 11.3504 14.9546 11.4395C14.9147 11.5179 14.8509 11.5816 14.7725 11.6216C14.6834 11.667 14.5667 11.667 14.3334 11.667H12.3334C12.1 11.667 11.9833 11.667 11.8942 11.7124C11.8158 11.7524 11.752 11.8161 11.7121 11.8945C11.6667 11.9836 11.6667 12.1003 11.6667 12.3337V14.3337C11.6667 14.567 11.6667 14.6837 11.6213 14.7728C11.5813 14.8512 11.5176 14.915 11.4392 14.9549C11.3501 15.0003 11.2334 15.0003 11 15.0003H9.00002C8.76667 15.0003 8.64999 15.0003 8.56086 15.0457C8.48246 15.0857 8.41872 15.1494 8.37877 15.2278C8.33335 15.317 8.33335 15.4336 8.33335 15.667V17.667C8.33335 17.9003 8.33335 18.017 8.37877 18.1062C8.41872 18.1846 8.48246 18.2483 8.56086 18.2882C8.64999 18.3337 8.76667 18.3337 9.00002 18.3337L17.6667 18.3337Z"
        stroke="#98A2B3" stroke-width="1.2" stroke-linecap="round" stroke-linejoin="round" />
    <path
        d="M8.33335 5.66699C8.33335 5.43364 8.33335 5.31696 8.37877 5.22783C8.41872 5.14943 8.48246 5.08569 8.56086 5.04574C8.64999 5.00033 8.76667 5.00033 9.00002 5.00033H11C11.2334 5.00033 11.3501 5.00033 11.4392 5.04574C11.5176 5.08569 11.5813 5.14943 11.6213 5.22783C11.6667 5.31696 11.6667 5.43364 11.6667 5.66699V7.66699C11.6667 7.90035 11.6667 8.01703 11.6213 8.10616C11.5813 8.18456 11.5176 8.2483 11.4392 8.28825C11.3501 8.33366 11.2334 8.33366 11 8.33366H9.00002C8.76667 8.33366 8.64999 8.33366 8.56086 8.28825C8.48246 8.2483 8.41872 8.18456 8.37877 8.10616C8.33335 8.01703 8.33335 7.90035 8.33335 7.66699V5.66699Z"
        stroke="#98A2B3" stroke-width="1.2" stroke-linecap="round" stroke-linejoin="round" />
    <path
        d="M2.50002 10.667C2.50002 10.4336 2.50002 10.317 2.54543 10.2278C2.58538 10.1494 2.64912 10.0857 2.72752 10.0457C2.81665 10.0003 2.93333 10.0003 3.16669 10.0003H5.16669C5.40004 10.0003 5.51672 10.0003 5.60585 10.0457C5.68425 10.0857 5.74799 10.1494 5.78794 10.2278C5.83335 10.317 5.83335 10.4336 5.83335 10.667V12.667C5.83335 12.9003 5.83335 13.017 5.78794 13.1062C5.74799 13.1846 5.68425 13.2483 5.60585 13.2882C5.51672 13.3337 5.40004 13.3337 5.16669 13.3337H3.16669C2.93333 13.3337 2.81665 13.3337 2.72752 13.2882C2.64912 13.2483 2.58538 13.1846 2.54543 13.1062C2.50002 13.017 2.50002 12.9003 2.50002 12.667V10.667Z"
        stroke="#98A2B3" stroke-width="1.2" stroke-linecap="round" stroke-linejoin="round" />
    <path
        d="M1.66669 2.33366C1.66669 2.1003 1.66669 1.98363 1.7121 1.8945C1.75205 1.8161 1.81579 1.75235 1.89419 1.71241C1.98332 1.66699 2.1 1.66699 2.33335 1.66699H4.33335C4.56671 1.66699 4.68339 1.66699 4.77252 1.71241C4.85092 1.75235 4.91466 1.8161 4.95461 1.8945C5.00002 1.98363 5.00002 2.1003 5.00002 2.33366V4.33366C5.00002 4.56701 5.00002 4.68369 4.95461 4.77282C4.91466 4.85122 4.85092 4.91496 4.77252 4.95491C4.68339 5.00033 4.56671 5.00033 4.33335 5.00033H2.33335C2.1 5.00033 1.98332 5.00033 1.89419 4.95491C1.81579 4.91496 1.75205 4.85122 1.7121 4.77282C1.66669 4.68369 1.66669 4.56701 1.66669 4.33366V2.33366Z"
        stroke="#98A2B3" stroke-width="1.2" stroke-linecap="round" stroke-linejoin="round" />
</svg>