<?xml version="1.0" standalone="no"?><!DOCTYPE svg PUBLIC "-//W3C//DTD SVG 1.1//EN" "http://www.w3.org/Graphics/SVG/1.1/DTD/svg11.dtd"><svg t="1741244994858" class="icon" viewBox="0 0 1024 1024" version="1.1" xmlns="http://www.w3.org/2000/svg" p-id="2645" xmlns:xlink="http://www.w3.org/1999/xlink" width="200" height="200"><path d="M810.410667 0.917333c33.536-3.776 64.533333 18.538667 72.064 51.84l44.672 16.384-0.064 0.213334C981.653333 89.258667 1024 153.813333 1024 216.234667v598.997333c0 62.570667-42.624 126.826667-97.514667 146.304l-45.888 16.426667A66.410667 66.410667 0 0 1 817.813333 1024c-23.765333 0-45.738667-12.8-57.642666-33.664a68.117333 68.117333 0 0 1-0.021334-67.370667 66.368 66.368 0 0 1 57.6-33.706666c18.688 0.021333 36.48 8.106667 48.96 22.186666l37.802667-13.525333c28.522667-10.154667 53.034667-48.789333 53.034667-82.816V216.128c0-34.090667-24.533333-73.130667-52.970667-83.541333l-41.941333-15.488a65.6 65.6 0 0 1-44.757334 17.792c-36.736 0-66.517333-30.186667-66.517333-67.392 0.106667-34.154667 25.514667-62.805333 59.050667-66.581334zM219.349333 0a66.688 66.688 0 0 1 64.213334 50.453333 67.712 67.712 0 0 1-31.914667 75.712 65.92 65.92 0 0 1-80.384-12.053333l-51.242667 18.602667c-28.117333 10.218667-53.546667 45.802667-53.546666 76.096v613.397333c0 30.186667 25.429333 65.344 53.546666 75.370667l47.893334 16.704a65.877333 65.877333 0 0 1 51.498666-25.173334v-0.213333c17.642667 0 34.538667 7.125333 46.997334 19.754667 12.458667 12.650667 19.413333 29.781333 19.413333 47.637333-0.234667 32.085333-22.698667 59.584-53.781333 65.813333a66.56 66.56 0 0 1-74.474667-40.106666l-59.52-20.970667C43.541333 941.610667 0 880.597333 0 822.08V208.682667c0-58.368 43.221333-119.68 97.450667-139.413334l58.517333-21.12A66.304 66.304 0 0 1 219.306667 0z m344.661334 213.333333L832 810.666667l-120.106667-0.426667h0.042667l-55.253333-123.84H383.488l-51.797333 122.837333L213.333333 810.666667l251.712-596.309334 98.986667-1.024z m-47.850667 158.058667l-87.04 206.506667h179.157333l-92.117333-206.506667z" fill="#d4237a" p-id="2646"></path></svg>