<svg t="1723702162999" class="icon" viewBox="0 0 1024 1024" version="1.1" xmlns="http://www.w3.org/2000/svg" p-id="8508"
    width="200" height="200">
    <path
        d="M780.8 166.4V742.4c0 92.928-56.32 268.8-268.8 268.8S243.2 835.328 243.2 742.4V204.8a230.4 230.4 0 0 1 23.296-93.952A179.2 179.2 0 0 1 435.2 12.8a179.2 179.2 0 0 1 168.704 98.048A228.608 228.608 0 0 1 627.2 204.8v499.2A111.872 111.872 0 0 1 512 819.2a111.872 111.872 0 0 1-115.2-115.2V358.4a38.4 38.4 0 0 1 76.8 0v345.6A35.072 35.072 0 0 0 512 742.4a35.328 35.328 0 0 0 38.4-38.912V204.8A109.568 109.568 0 0 0 435.2 89.6a102.4 102.4 0 0 0-100.096 55.552A158.976 158.976 0 0 0 320 204.8v537.6c0 19.456 6.912 192 192 192 189.952 0 192-184.064 192-192V166.4a38.4 38.4 0 0 1 76.8 0"
        fill="#030000" p-id="8509"></path>
</svg>