<svg t="1744975409856" class="icon" viewBox="0 0 1024 1024" version="1.1" xmlns="http://www.w3.org/2000/svg" p-id="2633" width="200" height="200"><path d="M392.32 403.84a48 48 0 0 1-48 48h-96a48 48 0 0 1-48-48V236.16h192z" fill="#EA5E5A" p-id="2634"></path><path d="M259.84 176h24.32v24.32h-24.32zM307.84 176h24.32v24.32h-24.32z" fill="#34303D" p-id="2635"></path><path d="M380.16 236.16h-24.32V152.32H236.16v83.84h-24.32V128h168.32v108.16z" fill="#34303D" p-id="2636"></path><path d="M344.32 464h-96a60.16 60.16 0 0 1-60.16-60.16V224h215.68v179.84a60.16 60.16 0 0 1-60.16 60.16zM211.84 248.32v155.52a35.84 35.84 0 0 0 35.84 35.84h96a35.84 35.84 0 0 0 35.84-35.84V248.32z" fill="#34303D" p-id="2637"></path><path d="M236.16 272h120.32v24.32H236.16zM236.16 320h120.32v24.32H236.16zM320 512h-48a24.32 24.32 0 0 1-23.68-23.68v-36.48h24.32v35.84H320v-35.84h24.32v35.84A24.32 24.32 0 0 1 320 512z" fill="#34303D" p-id="2638"></path><path d="M632.32 620.16a48 48 0 0 1 48-48h96a48 48 0 0 1 48 48v168.32h-192z" fill="#EA5E5A" p-id="2639"></path><path d="M739.84 824.32h24.32v24.32h-24.32zM691.84 824.32h24.32v24.32h-24.32z" fill="#34303D" p-id="2640"></path><path d="M812.16 896h-168.32v-108.16h24.32v84.48h119.68v-84.48h24.32V896z" fill="#34303D" p-id="2641"></path><path d="M835.84 800H620.16V620.16a60.16 60.16 0 0 1 60.16-60.16h96a60.16 60.16 0 0 1 60.16 60.16z m-192-23.68h168.32V620.16a35.84 35.84 0 0 0-35.84-35.84h-96a35.84 35.84 0 0 0-35.84 35.84z" fill="#34303D" p-id="2642"></path><path d="M668.16 680.32h120.32v24.32h-120.32zM668.16 728.32h120.32v24.32h-120.32zM776.32 572.16h-23.68v-35.84H704v35.84h-23.68v-35.84A24.32 24.32 0 0 1 704 512h48a24.32 24.32 0 0 1 24.32 24.32z" fill="#34303D" p-id="2643"></path><path d="M403.84 848a120.32 120.32 0 0 1-119.68-119.68V499.84h24.32v227.84a96 96 0 0 0 192 0V296.32a120.32 120.32 0 0 1 240 0v227.84h-23.68V296.32a96 96 0 0 0-192 0v432a120.32 120.32 0 0 1-119.68 120.32z" fill="#34303D" p-id="2644"></path><path d="M608 284.16h24.32v24.32H608zM608 332.16h24.32v24.32H608zM608 380.16h24.32v24.32H608zM392.32 620.16h24.32v24.32h-24.32zM392.32 668.16h24.32v24.32h-24.32zM392.32 716.16h24.32v24.32h-24.32z" fill="#34303D" p-id="2645"></path><path d="M691.84 296.32h-23.68a48 48 0 0 0-96 0h-24.32a72.32 72.32 0 0 1 144 0zM403.84 800a72.32 72.32 0 0 1-71.68-71.68h24.32a48 48 0 0 0 96 0h24.32a72.32 72.32 0 0 1-72.96 71.68z" fill="#34303D" p-id="2646"></path></svg>