<?xml version="1.0" encoding="UTF-8"?>
<svg viewBox="0 0 160 160" version="1.1" xmlns="http://www.w3.org/2000/svg" xmlns:xlink="http://www.w3.org/1999/xlink">
    <title>pubmed</title>
    <defs>
        <rect id="path-1" x="0" y="0" width="160" height="160"></rect>
    </defs>
    <g id="RAGFlow" stroke="none" stroke-width="1" fill="none" fill-rule="evenodd">
        <g id="tool-logo" transform="translate(-1448, -81)">
            <g id="pubmed" transform="translate(1448, 81)">
                <mask id="mask-2" fill="white">
                    <use xlink:href="#path-1"></use>
                </mask>
                <use id="矩形" fill-opacity="0" fill="#D8D8D8" xlink:href="#path-1"></use>
                <g id="Download-PubMed-Logo-in-SVG-Vector-or-PNG-File-Format---Logo-..." mask="url(#mask-2)"
                    fill-rule="nonzero">
                    <g transform="translate(10, 55)">
                        <path
                            d="M57.4181966,2.32006499 L57.4181966,35.3400487 C57.4181966,35.3400487 70.1125914,33.8627132 70.1125914,46.2625508 L70.1125914,15.0133225 C70.1125914,3.20487409 57.4181966,2.32006499 57.4181966,2.32006499"
                            id="路径" fill="#231F1F"></path>
                        <path
                            d="M63.3639318,0 L63.3639318,29.0542648 C63.3639318,29.0542648 70.3718928,30.4064988 70.3718928,42.805199 C70.3718928,55.2050366 70.4071487,19.7376117 70.4071487,13.0947197 C70.4082859,1.28740861 63.3639318,0 63.3639318,0"
                            id="路径" fill="#AAAAAA"></path>
                        <path
                            d="M70.5993501,14.7176279 L70.5993501,44.7670187 C70.5993501,44.7670187 76.6940699,27.6963444 102.314866,49.6891958 C102.314866,41.7190902 102.363769,21.6175467 102.363769,14.9735175 C77.0386677,-3.47668562 70.5993501,14.7176279 70.5993501,14.7176279 M0,37.2097482 L5.68643379,37.2097482 L5.68643379,29.9322502 L8.92542648,29.9322502 C13.9158408,29.9322502 16.7181154,27.6622258 16.7181154,22.4830219 C16.7181154,17.4482535 13.4552396,15.2623883 8.73663688,15.2623883 L0,15.2623883 L0,37.2097482 Z M5.68643379,19.8103981 L6.6565394,19.8103981 C8.89130788,19.8103981 10.8030869,19.8411048 10.8030869,22.6570268 C10.8030869,25.3819659 8.74459789,25.3819659 6.6565394,25.3819659 L5.68643379,25.3819659 L5.68643379,19.8103981 Z M18.9915516,22.3124289 L18.9915516,31.264013 C18.9915516,36.1588952 22.4864338,37.6658002 27.0094232,37.6658002 C31.5324127,37.6658002 35.0284322,36.1600325 35.0284322,31.264013 L35.0284322,22.3124289 L29.6831844,22.3124289 L29.6831844,30.2438668 C29.6831844,32.1249391 29.2123477,33.4567019 27.0094232,33.4567019 C24.8064988,33.4567019 24.3367994,32.1249391 24.3367994,30.2438668 L24.3367994,22.3124289 L18.9915516,22.3124289 Z M38.2128351,37.2097482 L43.5580829,37.2097482 L43.5580829,35.5504468 L43.6160845,35.5504468 C44.5725426,37.0084484 46.3683184,37.6646629 48.1072299,37.6646629 C52.5403737,37.6646629 55.6133225,33.9969131 55.6133225,29.6888708 C55.6133225,25.4081235 52.5688058,21.741511 48.1652315,21.741511 C46.4558895,21.741511 44.6885459,22.3943136 43.5592201,23.7283509 L43.5592201,13.0981316 L38.2139724,13.0981316 L38.2128351,37.2097482 Z M46.7424858,26.2917953 C48.8999188,26.2917953 50.1543461,27.8589764 50.1543461,29.7195776 C50.1543461,31.6393176 48.9010561,33.1155158 46.7424858,33.1155158 C44.5850528,33.1155158 43.3306255,31.6393176 43.3306255,29.7195776 C43.3306255,27.8589764 44.5839155,26.2917953 46.7424858,26.2917953 Z"
                            id="形状" fill="#3978AD"></path>
                        <polygon id="路径" fill="#FFFFFF"
                            points="80.525589 24.573355 80.5835906 24.573355 85.6217709 37.2097482 87.8940699 37.2097482 93.1642567 24.573355 93.2222583 24.573355 94.8235581 37.2097482 100.535012 37.2097482 97.2118603 15.261251 91.5345248 15.261251 86.815922 26.9912266 82.3600325 15.261251 76.7406986 15.261251 73.0138099 37.2097482 78.6911454 37.2097482">
                        </polygon>
                        <path
                            d="M109.97563,27.5428107 C110.295207,25.9801787 111.576929,25.1545085 113.11909,25.1545085 C114.545248,25.1545085 115.855402,26.0984565 116.12039,27.5428107 L109.97563,27.5428107 Z M121.036881,30.0596263 C121.036881,24.9532088 118.023071,21.7426483 112.817709,21.7426483 C107.935337,21.7426483 104.516653,24.7405361 104.516653,29.7184403 C104.516653,34.8703493 108.228757,37.6646629 113.202112,37.6646629 C116.623071,37.6646629 119.986028,36.0656377 120.834444,32.5468725 L115.725751,32.5468725 C115.143461,33.5351747 114.326889,33.9127539 113.189602,33.9127539 C111.001462,33.9127539 109.861901,32.7538587 109.861901,30.613485 L121.036881,30.613485 L121.036881,30.0596263 Z M134.653615,37.2097482 L140,37.2097482 L140,13.0992689 L134.653615,13.0992689 L134.653615,23.7294882 C133.551584,22.3954509 131.754671,21.7426483 130.046466,21.7426483 C125.641755,21.7426483 122.598375,25.4103981 122.598375,29.6888708 C122.598375,33.9673436 125.699756,37.6635256 130.104468,37.6635256 C131.841105,37.6635256 133.667587,37.0061738 134.593339,35.5493095 L134.653615,35.5493095 L134.653615,37.2097482 Z M131.470349,26.2917953 C133.626645,26.2917953 134.88221,27.8589764 134.88221,29.7195776 C134.88221,31.6393176 133.62892,33.1155158 131.470349,33.1155158 C129.314054,33.1155158 128.058489,31.6393176 128.058489,29.7195776 C128.058489,27.8589764 129.311779,26.2917953 131.470349,26.2917953 Z"
                            id="形状" fill="#3978AD"></path>
                    </g>
                </g>
            </g>
        </g>
    </g>
</svg>