<svg t="1723173310218" class="icon" viewBox="0 0 1024 1024" version="1.1" xmlns="http://www.w3.org/2000/svg" p-id="8139"
    width="200" height="200">
    <path
        d="M953.6 736c-57.6 51.2-89.6 89.6-166.4 102.4 166.4-160 185.6-422.4 44.8-608-64-89.6-166.4-147.2-275.2-172.8-108.8-19.2-224 0-326.4 57.6-96 57.6-172.8 147.2-204.8 256-32 108.8-32 224 19.2 326.4 44.8 102.4 128 185.6 230.4 236.8 102.4 44.8 217.6 57.6 326.4 25.6 96 6.4 192-12.8 275.2-57.6 70.4-38.4 102.4-96 147.2-160l-70.4-6.4z m-537.6 172.8c-83.2-12.8-166.4-51.2-224-108.8-121.6-128-140.8-326.4-32-467.2 51.2-70.4 128-121.6 211.2-140.8 76.8-19.2 166.4-12.8 243.2 25.6 76.8 38.4 140.8 102.4 172.8 185.6 32 76.8 38.4 166.4 12.8 249.6-25.6 83.2-83.2 153.6-153.6 198.4-25.6 0-44.8-6.4-70.4-6.4-83.2-19.2-153.6-70.4-204.8-134.4-25.6-32-44.8-76.8-44.8-121.6 0-38.4 12.8-70.4 32-96 32-38.4 76.8-57.6 121.6-57.6 12.8 0 25.6 0 38.4 6.4 6.4 0 12.8 0 12.8 6.4 25.6 0 44.8 19.2 57.6 38.4 25.6 44.8 12.8 96-25.6 128-32 12.8-64 19.2-89.6 6.4h-12.8c0 6.4-6.4 6.4 0 12.8 19.2 32 51.2 51.2 89.6 51.2 25.6 0 51.2-6.4 76.8-19.2 57.6-32 96-89.6 96-153.6 0-38.4-12.8-70.4-32-102.4 0 0 0-6.4-6.4-6.4 0 0 0-6.4-6.4-6.4-51.2-64-128-102.4-217.6-102.4-83.2 0-153.6 32-211.2 89.6-83.2 83.2-102.4 211.2-44.8 320 51.2 89.6 128 160 217.6 204.8h-6.4z"
        p-id="8140"></path>
</svg>