<svg t="1716195575286" class="icon" viewBox="0 0 1024 1024" version="1.1" xmlns="http://www.w3.org/2000/svg" p-id="3818"
    width="200" height="200">
    <path
        d="M959.744 602.16l0.256 0.064v101.952c0 10.24-10.752 21.44-35.072 35.84-22.976 13.696-91.968 47.616-163.328 82.624l-35.712 17.536c-65.088 32-126.016 62.208-149.184 76.032-52.8 31.36-82.048 31.104-123.712 8.32-41.6-22.72-305.28-144.256-352.704-170.176-23.744-12.992-36.224-23.936-36.224-34.24v-103.424c0.384 10.368 12.48 21.248 36.224 34.24C147.776 676.8 411.328 798.4 452.992 821.12c41.664 22.784 70.912 23.04 123.712-8.32 52.672-31.36 300.416-147.712 348.224-176.128 23.232-13.824 34.56-24.768 34.88-34.56l-0.064 0.064z m0-168.576h0.192v101.952c0 10.24-10.752 21.44-35.072 35.968-47.808 28.416-295.552 144.768-348.224 176.128-52.8 31.36-82.048 31.04-123.712 8.32-41.6-22.72-305.28-144.32-352.704-170.24C76.48 572.8 64 561.92 64 551.536v-103.424c0.384 10.24 12.48 21.248 36.224 34.176 47.488 25.92 311.04 147.52 352.704 170.24 41.664 22.72 70.912 23.04 123.712-8.32 52.672-31.36 300.416-147.712 348.224-176.192 23.168-13.824 34.56-24.704 34.88-34.432zM462.656 81.84c55.36-22.72 74.56-23.488 121.664-3.776 47.168 19.776 293.376 131.648 339.968 151.104 24 10.048 35.84 19.2 35.456 29.632H960v101.952c0 10.176-10.816 21.44-35.072 35.904C877.056 425.072 629.376 541.44 576.64 572.8c-52.736 31.36-81.984 31.104-123.648 8.32-41.664-22.656-305.28-144.32-352.768-170.24C76.544 397.936 64 387.056 64 376.688V273.28c-0.32-10.304 11.072-19.968 34.368-30.464 46.656-20.8 308.8-138.24 364.288-160.896v-0.064z m129.792 238.4l-207.552 36.352 144.832 68.608 62.72-104.96z m128.704-113.6l-135.936 61.44 122.688 55.36 13.376-5.952 122.752-55.424-122.88-55.424z m-392.32 13.44c-61.248 0-110.912 22.016-110.912 49.152 0 27.072 49.664 49.088 110.976 49.088s110.912-21.952 110.912-49.088-49.6-49.088-110.912-49.088l-0.064-0.064z m134.656-101.888l20.096 42.304-66.88 27.52 89.6 9.216 28.032 53.248 17.408-47.744 77.632-9.216-60.16-25.728 16-43.712-59.136 22.08-62.592-27.968z"
        fill="#D82A1F" p-id="3819"></path>
</svg>