<?xml version="1.0" standalone="no"?><!DOCTYPE svg PUBLIC "-//W3C//DTD SVG 1.1//EN" "http://www.w3.org/Graphics/SVG/1.1/DTD/svg11.dtd"><svg t="1757483419289" class="icon" viewBox="0 0 1024 1024" version="1.1" xmlns="http://www.w3.org/2000/svg" p-id="22299" xmlns:xlink="http://www.w3.org/1999/xlink" width="200" height="200"><path d="M998.765714 523.629714c13.824 0 25.014857 11.190857 25.014857 25.014857a475.282286 475.282286 0 0 1-875.593142 256.219429l-27.574858 55.149714a25.014857 25.014857 0 1 1-44.763428-22.454857l44.178286-88.283428a24.868571 24.868571 0 0 1 26.550857-25.526858 25.014857 25.014857 0 0 1 8.265143 0.804572l99.474285 24.868571a25.014857 25.014857 0 0 1-12.068571 48.566857l-46.372572-11.556571A425.252571 425.252571 0 0 0 973.750857 548.571429c0-13.897143 11.190857-25.014857 25.014857-25.014858zM430.957714 365.714286l6.729143 0.658285c2.633143 0.438857 285.549714 160.109714 285.549714 160.109715 20.114286 17.846857 7.314286 34.523429-6.582857 45.933714-1.828571 1.462857-194.779429 113.078857-249.929143 144.969143l-10.678857 6.217143-3.876571 2.194285c-16.676571 8.923429-39.497143 8.923429-47.250286-11.995428-0.877714-2.194286-2.267429-250.221714-2.56-303.396572L402.285714 400.457143l0.731429-0.512c0.731429-18.651429 8.265143-38.034286 34.669714-33.645714z m-15.945143-273.408a475.282286 475.282286 0 0 1 533.869715 200.045714l27.501714-55.149714a25.014857 25.014857 0 1 1 44.690286 22.454857l-44.105143 88.283428a24.868571 24.868571 0 0 1-26.624 25.526858 24.868571 24.868571 0 0 1-8.192-0.804572l-99.547429-24.868571a25.014857 25.014857 0 0 1 12.068572-48.566857l46.445714 11.629714A425.252571 425.252571 0 0 0 123.245714 548.571429a25.014857 25.014857 0 0 1-50.029714 0 475.282286 475.282286 0 0 1 341.796571-456.265143z" fill="#3BA05C" p-id="22300"></path></svg>