<svg width="22" height="22" viewBox="0 0 22 22" fill="none" xmlns="http://www.w3.org/2000/svg">
    <path
        d="M11 21.5C5.20101 21.5 0.5 16.799 0.5 11C0.5 5.20101 5.20101 0.5 11 0.5C16.799 0.5 21.5 5.20101 21.5 11C21.5 16.799 16.799 21.5 11 21.5Z"
        fill="#ECFDF3" />
    <path
        d="M11 21.5C5.20101 21.5 0.5 16.799 0.5 11C0.5 5.20101 5.20101 0.5 11 0.5C16.799 0.5 21.5 5.20101 21.5 11C21.5 16.799 16.799 21.5 11 21.5Z"
        stroke="#ABEFC6" />
    <path
        d="M7.5 7.49482C7.5 7.00924 7.5 6.76644 7.60125 6.63261C7.68945 6.51601 7.82426 6.44386 7.9702 6.43515C8.13772 6.42515 8.33973 6.55982 8.74376 6.82918L14.0015 10.3344C14.3354 10.5569 14.5023 10.6682 14.5605 10.8085C14.6113 10.9311 14.6113 11.0689 14.5605 11.1915C14.5023 11.3318 14.3354 11.4431 14.0015 11.6656L8.74376 15.1708C8.33973 15.4402 8.13772 15.5749 7.9702 15.5649C7.82426 15.5561 7.68945 15.484 7.60125 15.3674C7.5 15.2336 7.5 14.9908 7.5 14.5052V7.49482Z"
        stroke="#17B26A" stroke-width="1.5" stroke-linecap="round" stroke-linejoin="round" />
</svg>