<svg width="20" height="20" viewBox="0 0 20 20" fill="none" xmlns="http://www.w3.org/2000/svg">
    <g clip-path="url(#clip0_490_5128)">
        <path
            d="M10.0001 18.3334C14.6025 18.3334 18.3334 14.6025 18.3334 10.0001C18.3334 5.39771 14.6025 1.66675 10.0001 1.66675C5.39771 1.66675 1.66675 5.39771 1.66675 10.0001C1.66675 14.6025 5.39771 18.3334 10.0001 18.3334Z"
            stroke="#17B26A" stroke-width="1.66667" stroke-linecap="round" stroke-linejoin="round" />
        <path
            d="M7.91675 7.47119C7.91675 7.07345 7.91675 6.87459 7.99987 6.76356C8.0723 6.66681 8.18318 6.60628 8.30373 6.59767C8.44207 6.58779 8.60935 6.69533 8.94392 6.91041L12.8777 9.4393C13.1681 9.62593 13.3132 9.71925 13.3634 9.83791C13.4072 9.94159 13.4072 10.0586 13.3634 10.1623C13.3132 10.2809 13.1681 10.3742 12.8777 10.5609L8.94392 13.0898C8.60935 13.3048 8.44207 13.4124 8.30373 13.4025C8.18318 13.3939 8.0723 13.3334 7.99987 13.2366C7.91675 13.1256 7.91675 12.9267 7.91675 12.529V7.47119Z"
            stroke="#17B26A" stroke-width="1.66667" stroke-linecap="round" stroke-linejoin="round" />
    </g>
    <defs>
        <clipPath id="clip0_490_5128">
            <rect width="20" height="20" fill="white" />
        </clipPath>
    </defs>
</svg>