<svg width="13" height="14" viewBox="0 0 13 14" fill="none" xmlns="http://www.w3.org/2000/svg">
<path d="M12.492 6.12513L1.99198 0.13201C1.81487 0.0323058 1.61158 -0.0110633 1.4092 0.00768013C1.20682 0.0264236 1.01496 0.10639 0.859172 0.236925C0.703385 0.36746 0.591072 0.542367 0.537196 0.738342C0.483321 0.934318 0.49044 1.14206 0.557606 1.33388L2.47198 7.00013L0.557606 12.667C0.504329 12.8178 0.487997 12.9792 0.50998 13.1376C0.531964 13.296 0.59162 13.4468 0.683945 13.5774C0.77627 13.708 0.89857 13.8145 1.04058 13.8881C1.18259 13.9617 1.34018 14.0001 1.50011 14.0001C1.67386 13.9998 1.84457 13.9546 1.99573 13.8689L12.4907 7.86576C12.6455 7.77904 12.7745 7.6527 12.8643 7.4997C12.9542 7.3467 13.0017 7.17254 13.002 6.99511C13.0023 6.81768 12.9554 6.64335 12.8661 6.49003C12.7768 6.33671 12.6483 6.2099 12.4939 6.12263L12.492 6.12513ZM1.50011 13.0001C1.50037 12.9976 1.50037 12.9951 1.50011 12.9926L3.35886 7.50013H7.00011C7.13271 7.50013 7.25989 7.44746 7.35366 7.35369C7.44743 7.25992 7.50011 7.13274 7.50011 7.00013C7.50011 6.86753 7.44743 6.74035 7.35366 6.64658C7.25989 6.55281 7.13271 6.50013 7.00011 6.50013H3.35886L1.50386 1.01013C1.50324 1.0066 1.50197 1.0032 1.50011 1.00013L12.0001 6.98951L1.50011 13.0001Z" fill="#494949"/>
</svg>
