<?xml version="1.0" standalone="no"?>
<!DOCTYPE svg PUBLIC "-//W3C//DTD SVG 1.1//EN" "http://www.w3.org/Graphics/SVG/1.1/DTD/svg11.dtd">
<svg t="1746329730618" class="icon" viewBox="0 0 1024 1024" version="1.1" xmlns="http://www.w3.org/2000/svg" p-id="3652" width="16" height="16" xmlns:xlink="http://www.w3.org/1999/xlink">
<path d="M434.286835 669.519808L284.185447 511.738503a31.249664 31.249664 0 0 1 1.023989-44.231525 31.249664 31.249664 0 0 1 44.231525 1.023989l106.791853 112.319793a31.341663 31.341663 0 0 0 44.231525 1.125988L696.095022 376.585955a31.249664 31.249664 0 0 1 44.231525 1.125988 31.249664 31.249664 0 0 1-1.023989 44.231524L478.52036 670.543797c-12.593865 11.876872-32.355652 11.466877-44.232525-1.023989" fill="#74BEFF" p-id="3653"></path>
<path d="M510.567015 1023.989l-6.859926-1.535983a645.171069 645.171069 0 0 1-356.416171-219.930638 314.506622 314.506622 0 0 1-68.292267-199.657855V164.538232c0-15.051838 10.647886-27.9527 25.391728-30.819668A1615.736643 1615.736643 0 0 0 492.751207 6.142934l6.44993-3.070967a31.495662 31.495662 0 0 1 27.133709 0 1531.566548 1531.566548 0 0 0 391.123798 129.930604l2.149977 0.306997a31.228665 31.228665 0 0 1 26.723713 31.024667v433.103347a316.246603 316.246603 0 0 1-65.938291 196.48389 645.509066 645.509066 0 0 1-363.172099 228.327547l-6.654929 1.739981zM166.438712 184.812015c-14.334846 3.173966-24.573736 15.767831-24.675735 30.409673v387.540837a252.664286 252.664286 0 0 0 54.265417 160.033281c78.839153 96.039968 186.347998 164.436234 306.756705 194.947906a31.227665 31.227665 0 0 0 15.665832 0 582.458743 582.458743 0 0 0 312.899638-202.524825c34.606628-45.153515 53.139429-100.648919 52.422437-157.576307V215.732683A31.320664 31.320664 0 0 0 858.996273 185.323009 1596.402851 1596.402851 0 0 1 525.514855 72.286223a31.410663 31.410663 0 0 0-26.10872 0c-106.790853 49.146472-218.394654 86.826067-332.967423 112.525792" fill="#333333" p-id="3654"></path>
</svg>