<svg t="1724229849879" class="icon" viewBox="0 0 1024 1024" version="1.1" xmlns="http://www.w3.org/2000/svg" p-id="4299"
    width="200" height="200">
    <path
        d="M128 522.666667c17.066667 0 32-14.933333 32-32v-170.666667c0-6.4 4.266667-10.666667 10.666667-10.666667h652.8l-83.2 83.2c-12.8 12.8-12.8 34.133333 0 46.933334 6.4 6.4 14.933333 10.666667 23.466666 10.666666s17.066667-4.266667 23.466667-10.666666l145.066667-145.066667c12.8-12.8 12.8-34.133333 0-46.933333l-145.066667-145.066667c-12.8-12.8-34.133333-12.8-46.933333 0-12.8 12.8-12.8 34.133333 0 46.933333l93.866666 93.866667H170.666667c-40.533333 0-74.666667 34.133333-74.666667 74.666667v170.666666c0 19.2 14.933333 34.133333 32 34.133334zM906.666667 501.333333c-17.066667 0-32 14.933333-32 32v170.666667c0 6.4-4.266667 10.666667-10.666667 10.666667H211.2l83.2-83.2c12.8-12.8 12.8-34.133333 0-46.933334-12.8-12.8-34.133333-12.8-46.933333 0l-145.066667 145.066667c-12.8 12.8-12.8 34.133333 0 46.933333l145.066667 145.066667c6.4 6.4 14.933333 10.666667 23.466666 10.666667s17.066667-4.266667 23.466667-10.666667c12.8-12.8 12.8-34.133333 0-46.933333l-93.866667-93.866667h663.466667c40.533333 0 74.666667-34.133333 74.666667-74.666667v-170.666666c0-19.2-12.8-34.133333-32-34.133334z"
        fill="#b548f8" p-id="4300"></path>
</svg>