<?xml version="1.0" encoding="UTF-8"?>
<svg viewBox="0 0 160 160" version="1.1" xmlns="http://www.w3.org/2000/svg" xmlns:xlink="http://www.w3.org/1999/xlink">
    <title>tavily</title>
    <defs>
        <rect id="path-1" x="0" y="0" width="160" height="160"></rect>
    </defs>
    <g id="RAGFlow" stroke="none" stroke-width="1" fill="none" fill-rule="evenodd">
        <g id="tool-logo" transform="translate(-44, -75)">
            <g id="tavily" transform="translate(44, 75)">
                <mask id="mask-2" fill="white">
                    <use xlink:href="#path-1"></use>
                </mask>
                <use id="矩形" fill-opacity="0" fill="#D8D8D8" xlink:href="#path-1"></use>
                <path
                    d="M65.59265,18.682923 L80.673,42.556618 C83.095,46.390668 80.34,51.389668 75.805,51.389668 L69.6395,51.389668 L69.6395,87.142418 L60.7246,87.142418 L60.7246,16 C62.5938,16 64.463,16.894313 65.59265,18.682923 Z"
                    id="路径" fill="#8FBCFA" fill-rule="nonzero" mask="url(#mask-2)"></path>
                <path
                    d="M40.7741,42.556618 L55.8549,18.682923 C56.98455,16.894313 58.85375,16 60.72295,16 L60.72295,87.142918 C57.52935,86.993918 54.43775,87.917918 51.808,89.775418 L51.808,51.389668 L45.64245,51.389668 C41.10745,51.389668 38.35235,46.390668 40.7741,42.556618 Z"
                    id="路径" fill="#468BFF" fill-rule="nonzero" mask="url(#mask-2)"></path>
                <path
                    d="M108.0015,110.725918 L70.67,110.725918 C72.824,108.314418 74.1005,105.243918 74.238,101.810918 L143.391,101.810918 C143.391,103.679918 142.4965,105.549418 140.708,106.678918 L116.8345,121.759418 C113.0005,124.181418 108.0015,121.426418 108.0015,116.891418 L108.0015,110.725918 Z"
                    id="路径" fill="#FDBB11" fill-rule="nonzero" mask="url(#mask-2)"></path>
                <path
                    d="M116.834,81.862418 L140.7075,96.942918 C142.4965,98.072418 143.3905,99.941918 143.3905,101.810918 L74.2355,101.810918 C74.36,98.609418 73.3665,95.452418 71.4785,92.895918 L108.001,92.895918 L108.001,86.730418 C108.001,82.195418 113,79.440418 116.834,81.862418 Z"
                    id="路径" fill="#F6D785" fill-rule="nonzero" mask="url(#mask-2)"></path>
                <path
                    d="M40.47045,120.901918 L18.689455,142.682918 C20.01113,144.004918 21.965175,144.693918 24.0288,144.228418 L51.5736,138.010418 C55.9972,137.011918 57.5839,131.528918 54.37725,128.322418 L50.0175,123.962418 L66.3958,107.530918 C69.8855,104.040918 69.731,98.452918 66.3379,95.059918 L40.47045,120.901918 Z"
                    id="路径" fill="#FF9A9D" fill-rule="nonzero" mask="url(#mask-2)"></path>
                <path
                    d="M37.41105,111.357418 L53.8449,94.984918 C57.3347,91.494918 62.94655,91.667418 66.3395,95.059918 L40.4718,120.904418 L18.690655,142.685418 C17.368977,141.363918 16.679669,139.409418 17.1455,137.345918 L23.36325,109.801418 C24.3618,105.377418 29.84475,103.790918 33.0514,106.997418 L37.41105,111.357418 Z"
                    id="路径" fill="#FE363B" fill-rule="nonzero" mask="url(#mask-2)"></path>
            </g>
        </g>
    </g>
</svg>