<svg t="1732179100820" class="icon" viewBox="0 0 1024 1024" version="1.1" xmlns="http://www.w3.org/2000/svg" p-id="7049"
    width="200" height="200">
    <path
        d="M511.978 992c-264.277 0-479.292-215.037-479.292-479.314s215.016-479.314 479.292-479.314c76.843 0 153.272 18.628 221.05 53.901 40.872 21.308 78.499 48.368 111.745 80.459 94.491 91.135 146.54 213.665 146.54 344.953 0 264.277-215.037 479.314-479.335 479.314zM511.978 75.051c-241.313 0-437.614 196.323-437.614 437.635 0 241.291 196.323 437.635 437.614 437.635 241.312 0 437.657-196.344 437.657-437.635 0-119.872-47.539-231.727-133.816-314.975-30.393-29.325-64.729-54.032-102.072-73.488-62.681-32.637-130.569-49.173-201.77-49.173zM509.189 883.959c-204.928 0-371.643-166.714-371.643-371.664s166.714-371.643 371.643-371.643c68.825 0 136.059 18.977 194.406 54.838 9.804 6.035 12.877 18.867 6.819 28.672-6.013 9.804-18.89 12.832-28.65 6.841-51.766-31.831-111.462-48.672-172.575-48.672-181.943 0-329.964 148.021-329.964 329.986 0 181.943 148.021 329.986 329.964 329.986 181.965 0 329.986-148.042 329.986-329.986 0-11.503 9.324-20.85 20.828-20.85 11.526 0 20.85 9.324 20.85 20.85 0.022 204.928-166.736 371.643-371.664 371.643zM509.211 390.462c-42.136 0-76.407-34.271-76.407-76.407s34.271-76.429 76.407-76.429 76.429 34.293 76.429 76.429-34.293 76.407-76.429 76.407zM509.211 279.304c-19.15 0-34.75 15.599-34.75 34.75s15.599 34.729 34.75 34.729c19.15 0 34.75-15.577 34.75-34.729s-15.599-34.75-34.75-34.75z"
        fill="#c2b909" p-id="7050"></path>
</svg>