<svg width="14" height="14" viewBox="0 0 14 14" fill="none" xmlns="http://www.w3.org/2000/svg">
    <path fill-rule="evenodd" clip-rule="evenodd"
        d="M9.04159 2.62494L5.78647 2.62494L5.53026 1.34387L4.38625 1.57267L4.5967 2.62494L1.45825 2.62494V3.79161L2.76942 3.79161C2.84706 4.03671 2.96215 4.36714 3.11903 4.73626C3.38908 5.37167 3.79813 6.15836 4.37992 6.81783C3.85387 7.21613 3.26794 7.57787 2.75378 7.86768C2.3987 8.06782 2.0853 8.22953 1.86122 8.34094C1.74929 8.39658 1.65994 8.43953 1.59918 8.46829C1.56881 8.48267 1.54561 8.49349 1.53032 8.50057L1.51342 8.50836L1.50889 8.51043C1.50889 8.51043 1.50898 8.51039 1.74999 9.04161C1.99099 9.57283 1.9919 9.57241 1.9919 9.57241L1.99362 9.57163L1.99947 9.56896L2.02056 9.55924C2.0387 9.55084 2.06488 9.53862 2.09834 9.52278C2.16525 9.49111 2.26137 9.44489 2.38059 9.38562C2.61882 9.26718 2.95054 9.09601 3.32664 8.88401C3.90897 8.55578 4.61632 8.1194 5.24995 7.61982C5.88359 8.1194 6.59094 8.55578 7.17326 8.88401C7.54937 9.09601 7.88109 9.26718 8.11931 9.38562C8.14919 9.40047 8.17762 9.4145 8.20449 9.42769L7.97218 9.98334L7.04118 12.3263L8.12539 12.7571L8.67457 11.375H11.1585L11.7079 12.7572L12.792 12.3262L11.8647 9.99287L10.4915 6.70837H9.34144L8.6554 8.34923C8.64989 8.3465 8.64432 8.34373 8.63869 8.34094C8.41461 8.22953 8.10121 8.06782 7.74613 7.86768C7.23197 7.57787 6.64604 7.21613 6.11999 6.81783C6.70177 6.15836 7.11083 5.37167 7.38088 4.73626C7.53776 4.36714 7.65285 4.03671 7.73048 3.79161L9.04159 3.79161V2.62494ZM6.30717 4.27993C6.05882 4.86426 5.70861 5.51908 5.24995 6.04061C4.7913 5.51908 4.44109 4.86426 4.19274 4.27993C4.11858 4.10542 4.05485 3.94047 4.00109 3.79161L6.49881 3.79161C6.44505 3.94047 6.38133 4.10542 6.30717 4.27993ZM10.6902 10.2084H9.14272L9.91649 8.35755L10.6902 10.2084Z"
        fill="#4E5969" />
</svg>