<svg width="10" height="15" viewBox="0 0 10 15" fill="none" xmlns="http://www.w3.org/2000/svg">
<path d="M5 10C5.7954 9.99917 6.55798 9.68284 7.12041 9.12041C7.68284 8.55798 7.99917 7.7954 8 7V3C8 2.20435 7.68393 1.44129 7.12132 0.87868C6.55871 0.31607 5.79565 0 5 0C4.20435 0 3.44129 0.31607 2.87868 0.87868C2.31607 1.44129 2 2.20435 2 3V7C2.00083 7.7954 2.31716 8.55798 2.87959 9.12041C3.44202 9.68284 4.2046 9.99917 5 10ZM3 3C3 2.46957 3.21071 1.96086 3.58579 1.58579C3.96086 1.21071 4.46957 1 5 1C5.53043 1 6.03914 1.21071 6.41421 1.58579C6.78929 1.96086 7 2.46957 7 3V7C7 7.53043 6.78929 8.03914 6.41421 8.41421C6.03914 8.78929 5.53043 9 5 9C4.46957 9 3.96086 8.78929 3.58579 8.41421C3.21071 8.03914 3 7.53043 3 7V3ZM5.5 11.975V14C5.5 14.1326 5.44732 14.2598 5.35355 14.3536C5.25979 14.4473 5.13261 14.5 5 14.5C4.86739 14.5 4.74021 14.4473 4.64645 14.3536C4.55268 14.2598 4.5 14.1326 4.5 14V11.975C3.26728 11.8496 2.12485 11.2715 1.29365 10.3525C0.462451 9.4336 0.00152257 8.23909 0 7C0 6.86739 0.0526785 6.74021 0.146447 6.64645C0.240215 6.55268 0.367392 6.5 0.5 6.5C0.632608 6.5 0.759785 6.55268 0.853553 6.64645C0.947321 6.74021 1 6.86739 1 7C1 8.06087 1.42143 9.07828 2.17157 9.82843C2.92172 10.5786 3.93913 11 5 11C6.06087 11 7.07828 10.5786 7.82843 9.82843C8.57857 9.07828 9 8.06087 9 7C9 6.86739 9.05268 6.74021 9.14645 6.64645C9.24021 6.55268 9.36739 6.5 9.5 6.5C9.63261 6.5 9.75979 6.55268 9.85355 6.64645C9.94732 6.74021 10 6.86739 10 7C9.99848 8.23909 9.53755 9.4336 8.70635 10.3525C7.87515 11.2715 6.73272 11.8496 5.5 11.975Z" fill="#2F78E5"/>
</svg>
