<?xml version="1.0" encoding="UTF-8"?>
<svg viewBox="0 0 160 160" version="1.1" xmlns="http://www.w3.org/2000/svg" xmlns:xlink="http://www.w3.org/1999/xlink">
    <title>wikipedia</title>
    <defs>
        <rect id="path-1" x="0" y="0" width="160" height="160"></rect>
    </defs>
    <g id="RAGFlow" stroke="none" stroke-width="1" fill="none" fill-rule="evenodd">
        <g id="tool-logo" transform="translate(-836, -81)">
            <g id="wikipedia" transform="translate(836, 81)">
                <mask id="mask-2" fill="white">
                    <use xlink:href="#path-1"></use>
                </mask>
                <use id="矩形" fill-opacity="0" fill="#D8D8D8" xlink:href="#path-1"></use>
                <g id="RAGFlow" mask="url(#mask-2)" fill="currentColor" fill-rule="nonzero">
                    <g transform="translate(15, 39)" id="路径">
                        <path
                            d="M65.4875,47.2959259 C60.4175,57.7609259 53.47875,71.9309259 50.03375,78.3225927 C46.6970833,84.1400927 43.9291667,83.3655094 41.7354167,78.4796759 C34.1195834,60.4909259 18.4816667,28.9496759 11.1258333,11.2642592 C9.76625,8.00884253 8.73708329,5.91800924 7.77291671,5.09467595 C6.7925,4.28217595 4.77208342,3.79467595 1.69541671,3.62675924 C0.557916709,3.49675924 0,3.22050924 0,2.76550924 L0,0.300925949 L0.281666709,0.0571759494 C5.28666671,0.0300926584 29.5370834,0.0571759494 29.5370833,0.0571759494 L29.8133333,0.300925949 L29.8133333,2.65175924 C29.8133333,3.29634253 29.4070833,3.60509253 28.5945833,3.60509266 L25.5395833,3.77300924 C22.9125,3.93009253 21.6016666,4.66134253 21.6016667,6.13467595 C21.6016667,6.86592595 21.88875,7.92217595 22.5008333,9.39009266 C28.3616666,23.7225927 48.5983333,66.3788427 48.5983333,66.3788427 L49.335,66.6280092 L62.3945833,40.5738427 L59.78375,34.7942592 L50.8029167,17.1142592 C50.8029167,17.1142592 49.0804167,13.5717592 48.4845833,12.3909259 C44.54125,4.57467595 44.6279166,4.16842595 40.6466667,3.63217595 C39.5254167,3.50759266 38.95125,3.36134266 38.95125,2.82509266 L38.95125,0.290092658 L39.27625,0.0463426584 L62.5245833,0.0463426584 L63.1366667,0.24675924 L63.1366667,2.68967595 C63.1366667,3.25842595 62.725,3.50217595 61.9070833,3.50217595 L60.23875,3.75675924 C55.94875,4.08717595 56.6583333,5.82050924 59.5020833,11.4592592 L68.07125,29.0742592 L77.59375,10.0942592 C79.1808333,6.62759253 78.8558333,5.75550924 78.195,4.96467595 C77.8158333,4.50967595 76.5429167,3.77300924 73.7966667,3.66467595 L72.7079167,3.55092595 C72.422028,3.55252736 72.1444389,3.45489257 71.9225,3.27467595 C71.6892127,3.11984869 71.5520791,2.85581546 71.5595833,2.57592595 L71.5595833,0.26300924 L71.89,0.0192592405 C78.6445833,-0.0240740506 93.7895833,0.0192592405 93.7895833,0.0192592405 L94.1091667,0.26300924 L94.1091667,2.62467595 C94.1091667,3.28009266 93.7895834,3.58884266 93.06375,3.58884266 C89.5645833,3.75134266 88.8279167,4.10342595 87.5225,5.96675924 C86.8725,6.97425924 85.49125,9.15717595 84.0233333,11.5946759 L71.5595833,34.7400927 L71.2075,35.4713427 L86.3308333,66.4113427 L87.2516667,66.6713427 L111.063333,10.1321759 C111.8975,7.84634266 111.762083,6.22134266 110.716667,5.28425924 C109.649583,4.35259253 108.8425,3.80550924 106.074583,3.68634266 L103.799583,3.59967595 C103.506213,3.60796017 103.217829,3.52258339 102.97625,3.35592595 C102.743333,3.19884266 102.58625,2.94967595 102.58625,2.71134266 L102.58625,0.349675949 L102.905833,0.105925949 L129.777917,0.105925949 L130,0.349675949 L130,2.71675924 C130,3.36134253 129.599167,3.69175924 128.867917,3.69175924 C125.357917,3.85425924 122.763333,4.66675924 121.051667,5.97217595 C119.350833,7.35342595 118.034583,9.30884266 117.065,11.7517592 C117.065,11.7517592 95.1654167,61.8992592 87.6741667,78.5880092 C84.8304167,84.0425925 81.9704167,83.5550925 79.5329167,78.4200927 C76.44,72.0771759 69.9291667,57.9125927 65.2004167,47.4909259 L65.4875,47.2959259 L65.4875,47.2959259 Z">
                        </path>
                    </g>
                </g>
            </g>
        </g>
    </g>
</svg>