<svg t="1721036025186" class="icon" viewBox="0 0 1024 1024" version="1.1" xmlns="http://www.w3.org/2000/svg" p-id="4241"
    width="200" height="200">
    <path
        d="M515.84 559.744c-39.936 82.432-94.592 194.048-121.728 244.394667-26.282667 45.824-48.085333 39.722667-65.365333 1.237333-59.989333-141.696-183.168-390.144-241.109334-529.450667-10.709333-25.642667-18.816-42.112-26.410666-48.597333-7.722667-6.4-23.637333-10.24-47.872-11.562667C4.394667 214.741333 0 212.565333 0 208.981333v-19.413333l2.218667-1.92c39.424-0.213333 230.442667 0 230.442666 0l2.176 1.92v18.517333c0 5.077333-3.2 7.509333-9.6 7.509334l-24.064 1.322666c-20.693333 1.237333-31.018667 6.997333-31.018666 18.602667 0 5.76 2.261333 14.08 7.082666 25.642667 46.165333 112.896 205.568 448.896 205.568 448.896l5.802667 1.962666 102.869333-205.226666-20.565333-45.525334-70.741333-139.264s-13.568-27.904-18.261334-37.205333c-31.061333-61.568-30.378667-64.768-61.738666-68.992-8.832-0.981333-13.354667-2.133333-13.354667-6.357333v-19.968l2.56-1.92h183.125333l4.821334 1.578666v19.242667c0 4.48-3.242667 6.4-9.685334 6.4l-13.141333 2.005333c-33.792 2.602667-28.202667 16.256-5.802667 60.672l67.498667 138.752 75.008-149.504c12.501333-27.306667 9.941333-34.176 4.736-40.405333-2.986667-3.584-13.013333-9.386667-34.645333-10.24l-8.576-0.896a9.728 9.728 0 0 1-6.186667-2.176 6.4 6.4 0 0 1-2.858667-5.504v-18.218667l2.602667-1.92c53.205333-0.341333 172.501333 0 172.501333 0l2.517334 1.92v18.602667c0 5.162667-2.517333 7.594667-8.234667 7.594667-27.562667 1.28-33.365333 4.053333-43.648 18.730666-5.12 7.936-16 25.130667-27.562667 44.330667l-98.176 182.314667-2.773333 5.76 119.125333 243.712 7.253334 2.048 187.562666-445.354667c6.570667-18.005333 5.504-30.805333-2.730666-38.186667-8.405333-7.338667-14.762667-11.648-36.565334-12.586666l-17.92-0.682667a10.88 10.88 0 0 1-6.485333-1.92c-1.834667-1.237333-3.072-3.2-3.072-5.077333v-18.602667l2.517333-1.92h211.669334l1.749333 1.92v18.645333c0 5.077333-3.157333 7.68-8.917333 7.68-27.648 1.28-48.085333 7.68-61.568 17.962667-13.397333 10.88-23.765333 26.282667-31.402667 45.525333 0 0-172.501333 395.008-231.509333 526.464-22.4 42.965333-44.928 39.125333-64.128-1.322666-24.362667-49.962667-75.648-161.536-112.896-243.626667l2.261333-1.536z"
        fill="" p-id="4242"></path>
</svg>