<?xml version="1.0" encoding="utf-8"?><svg version="1.1" id="Layer_1" xmlns="http://www.w3.org/2000/svg" xmlns:xlink="http://www.w3.org/1999/xlink" x="0px" y="0px" viewBox="0 0 122.88 55.57" style="enable-background:new 0 0 122.88 55.57" xml:space="preserve"><style type="text/css"><![CDATA[
	.st0{fill:#F48120;}
	.st1{fill:#FAAD3F;}
	.st2{fill:#FFFFFF;}
]]></style><g><polygon class="st2" points="112.65,33.03 97.2,24.17 94.54,23.01 31.33,23.45 31.33,55.53 112.65,55.53 112.65,33.03"/><path class="st0" d="M84.52,52.58c0.76-2.59,0.47-4.97-0.79-6.73c-1.15-1.62-3.1-2.56-5.44-2.67L33.96,42.6 c-0.29,0-0.54-0.14-0.68-0.36c-0.14-0.21-0.18-0.5-0.11-0.79c0.14-0.43,0.58-0.76,1.04-0.79l44.73-0.58 c5.29-0.25,11.06-4.54,13.07-9.8l2.56-6.66c0.11-0.29,0.14-0.58,0.07-0.86C91.76,9.72,80.13,0,66.23,0 c-12.82,0-23.7,8.28-27.59,19.77c-2.52-1.87-5.73-2.88-9.18-2.56c-6.16,0.61-11.09,5.55-11.7,11.7c-0.14,1.58-0.04,3.13,0.32,4.57 C8.03,33.78,0,41.99,0,52.11c0,0.9,0.07,1.8,0.18,2.7c0.07,0.43,0.43,0.76,0.86,0.76h81.82c0.47,0,0.9-0.32,1.04-0.79L84.52,52.58 L84.52,52.58z"/><path class="st1" d="M98.64,24.09c-0.4,0-0.83,0-1.22,0.04c-0.29,0-0.54,0.22-0.65,0.5l-1.73,6.01c-0.76,2.59-0.47,4.97,0.79,6.73 c1.15,1.62,3.1,2.56,5.44,2.67l9.44,0.58c0.29,0,0.54,0.14,0.68,0.36c0.14,0.22,0.18,0.54,0.11,0.79 c-0.14,0.43-0.58,0.76-1.04,0.79l-9.83,0.58c-5.33,0.25-11.06,4.54-13.07,9.79l-0.72,1.84c-0.14,0.36,0.11,0.72,0.5,0.72h33.78 c0.4,0,0.76-0.25,0.86-0.65c0.58-2.09,0.9-4.29,0.9-6.55C122.88,34.97,112,24.09,98.64,24.09L98.64,24.09z"/></g></svg>