<svg width="17" height="17" viewBox="0 0 17 17" fill="none" xmlns="http://www.w3.org/2000/svg">
<g clip-path="url(#clip0_660_5)">
<path fill-rule="evenodd" clip-rule="evenodd" d="M8.50662 0.453613C4.07917 0.453613 0.5 4.05917 0.5 8.51972C0.5 12.0853 2.79329 15.1035 5.9747 16.1717C6.37246 16.252 6.51816 15.9981 6.51816 15.7846C6.51816 15.5976 6.50505 14.9566 6.50505 14.2888C4.2778 14.7696 3.81399 13.3272 3.81399 13.3272C3.45606 12.3924 2.92572 12.1522 2.92572 12.1522C2.19674 11.658 2.97882 11.658 2.97882 11.658C3.78744 11.7115 4.21175 12.486 4.21175 12.486C4.92745 13.7145 6.08074 13.3674 6.54471 13.1537C6.61092 12.6328 6.82315 12.2723 7.0485 12.072C5.27211 11.885 3.40312 11.1906 3.40312 8.0923C3.40312 7.21091 3.72107 6.4898 4.22486 5.92897C4.14538 5.7287 3.86693 4.90057 4.30451 3.79219C4.30451 3.79219 4.98055 3.57848 6.50488 4.62016C7.1575 4.44359 7.83054 4.35377 8.50662 4.35302C9.18266 4.35302 9.87181 4.4466 10.5082 4.62016C12.0327 3.57848 12.7087 3.79219 12.7087 3.79219C13.1463 4.90057 12.8677 5.7287 12.7882 5.92897C13.3053 6.4898 13.6101 7.21091 13.6101 8.0923C13.6101 11.1906 11.7411 11.8716 9.95146 12.072C10.2432 12.3257 10.4949 12.8064 10.4949 13.5677C10.4949 14.6493 10.4818 15.5174 10.4818 15.7844C10.4818 15.9981 10.6277 16.252 11.0253 16.1719C14.2067 15.1033 16.5 12.0853 16.5 8.51972C16.5131 4.05917 12.9208 0.453613 8.50662 0.453613Z" fill="#24292F"/>
</g>
<defs>
<clipPath id="clip0_660_5">
<rect width="16" height="16" fill="white" transform="translate(0.5 0.453613)"/>
</clipPath>
</defs>
</svg>
