<svg t="1710744531966" class="icon" viewBox="0 0 1024 1024" version="1.1" xmlns="http://www.w3.org/2000/svg" p-id="1220"
    id="mx_n_1710744531966" width="200" height="200">
    <path
        d="M950.676002 419.057175a255.346807 255.346807 0 0 0-22.014863-209.48251 257.949339 257.949339 0 0 0-277.74565-123.72694A258.759964 258.759964 0 0 0 212.538139 178.386943a255.346807 255.346807 0 0 0-170.572521 123.726941 257.949339 257.949339 0 0 0 31.699696 302.789689 255.133485 255.133485 0 0 0 21.758876 209.525175 258.162662 258.162662 0 0 0 277.958972 123.726941A255.346807 255.346807 0 0 0 565.757223 1023.996587a258.375984 258.375984 0 0 0 246.259276-179.446729 255.560129 255.560129 0 0 0 170.529856-123.726941 258.375984 258.375984 0 0 0-31.870353-301.765742zM565.757223 957.013381a190.966133 190.966133 0 0 1-122.702994-44.371041l6.015689-3.455821 203.893466-117.668587a33.918248 33.918248 0 0 0 16.724469-29.054499v-287.430483l86.182214 49.832092a3.029177 3.029177 0 0 1 1.621249 2.218552v238.195693a192.160738 192.160738 0 0 1-191.734093 191.734094zM153.618516 780.979809a190.710147 190.710147 0 0 1-22.825487-128.590689l6.058354 3.626479 204.064123 117.711252a32.8943 32.8943 0 0 0 33.278281 0l249.288453-143.736574v99.493526a3.413157 3.413157 0 0 1-1.407927 2.645197L415.578315 851.205514a191.990081 191.990081 0 0 1-261.959799-70.225705zM99.861294 336.928085a191.350114 191.350114 0 0 1 100.944118-84.176984V494.957254a32.680978 32.680978 0 0 0 16.553811 28.841176l248.093849 143.139272-86.182214 49.832092a3.242499 3.242499 0 0 1-3.029177 0l-206.069353-118.863193A192.160738 192.160738 0 0 1 99.861294 335.904138z m708.102081 164.471503l-248.861809-144.504534L645.070458 307.23362a3.242499 3.242499 0 0 1 3.029177 0l206.069353 119.076514a191.734094 191.734094 0 0 1-28.841177 345.795467v-242.248817a33.704925 33.704925 0 0 0-17.364436-28.457196z m85.75557-128.97467l-6.01569-3.626479-203.680143-118.692534a33.107623 33.107623 0 0 0-33.491603 0L401.456378 393.842478V294.306288a2.815855 2.815855 0 0 1 1.194605-2.602533l206.069353-118.905856a191.990081 191.990081 0 0 1 284.998609 198.816394z m-539.278804 176.417552l-86.182214-49.661434a3.413157 3.413157 0 0 1-1.62125-2.431875V259.236099a191.990081 191.990081 0 0 1 314.65041-147.320388l-6.058354 3.413157-203.850801 117.668587a33.918248 33.918248 0 0 0-16.767134 29.054499z m46.802915-100.901454l111.012931-63.996693 111.226253 63.996693v127.950723l-110.799609 63.996693-111.226253-63.996693z"
        p-id="1221"></path>
</svg>