<?xml version="1.0" encoding="UTF-8"?>
<svg width="1500px" height="500px" viewBox="0 0 1500 500" version="1.1" xmlns="http://www.w3.org/2000/svg" xmlns:xlink="http://www.w3.org/1999/xlink">
    <title>RAG- logos</title>
    <defs>
        <rect id="path-1" x="0" y="0" width="480.282452" height="480"></rect>
        <linearGradient x1="-19.6945332%" y1="78.7580689%" x2="78.6511106%" y2="-14.5268659%" id="linearGradient-3">
            <stop stop-color="#43CDE9" offset="0%"></stop>
            <stop stop-color="#4E40EC" offset="100%"></stop>
        </linearGradient>
        <linearGradient x1="-19.8760293%" y1="78.7580689%" x2="78.7257229%" y2="-14.5268659%" id="linearGradient-4">
            <stop stop-color="#43CDE9" offset="0%"></stop>
            <stop stop-color="#4E40EC" offset="100%"></stop>
        </linearGradient>
        <linearGradient x1="-20.3066254%" y1="78.7580689%" x2="78.902739%" y2="-14.5268659%" id="linearGradient-5">
            <stop stop-color="#43CDE9" offset="0%"></stop>
            <stop stop-color="#4E40EC" offset="100%"></stop>
        </linearGradient>
    </defs>
    <g id="logos" stroke="none" stroke-width="1" fill="none" fill-rule="evenodd">
        <g id="GitHub-bg" transform="translate(-67, -129)">
            <g id="RAG--logos" transform="translate(67, 129)">
                <rect id="矩形" fill-opacity="0" fill="#D8D8D8" x="0" y="0" width="1500" height="500"></rect>
                <g id="rag-logo" transform="translate(22, 10)">
                    <mask id="mask-2" fill="white">
                        <use xlink:href="#path-1"></use>
                    </mask>
                    <use id="矩形" fill-opacity="0" fill="#D8D8D8" xlink:href="#path-1"></use>
                    <path d="M91.6742598,285.524755 C100.185587,294.225017 100.18547,308.330398 91.673908,317.029482 L91.2380792,317.474803 C82.7265175,326.175066 68.9266032,326.175066 60.4152408,317.474803 C51.9038397,308.774541 51.903971,294.670338 60.415534,285.970076 L60.8514331,285.524755 C69.3630183,276.824493 83.1628154,276.825671 91.6742598,285.524755 Z" id="路径" fill="#53F3FD" mask="url(#mask-2)"></path>
                    <path d="M195.695835,291.612434 C204.281754,300.406974 204.256864,314.640147 195.638943,323.402589 L134.628661,385.444627 C126.011688,394.207069 112.065969,394.182105 103.48005,385.387566 C94.8941307,376.593026 94.9193764,362.359853 103.536349,353.597411 L164.546987,291.555373 C173.164315,282.792931 187.109915,282.817895 195.695835,291.612434 Z" id="路径" fill="#43CDE9" mask="url(#mask-2)"></path>
                    <path d="M278.834919,398.04199 C285.530372,387.681543 299.098865,384.881873 309.142632,391.789235 L310.453967,392.690662 C320.496557,399.598024 323.210961,413.596372 316.515509,423.95801 C309.820057,434.318457 296.250387,437.118127 286.207797,430.210765 L284.896462,429.309338 C274.852695,422.401976 272.139467,408.403628 278.834919,398.04199 Z" id="路径" fill="#53F3FD" mask="url(#mask-2)"></path>
                    <path d="M423.798774,283.537264 C432.404449,292.254797 432.404449,306.388179 423.798774,315.104532 L393.828923,345.46185 C385.223249,354.179383 371.269415,354.179383 362.663741,345.46185 C354.058067,336.745498 354.058067,322.612116 362.663741,313.894583 L392.633592,283.537264 C401.239266,274.820912 415.1931,274.820912 423.798774,283.537264 Z" id="路径" fill="#43CDE9" mask="url(#mask-2)"></path>
                    <path d="M423.808132,170.562223 C432.401329,179.313039 432.401329,193.500381 423.808132,202.250012 L202.660892,427.436888 C194.067695,436.187704 180.135277,436.187704 171.54208,427.436888 C162.948764,418.687257 162.948764,404.499915 171.54208,395.749099 L392.689319,170.562223 C401.282517,161.812592 415.214935,161.812592 423.808132,170.562223 Z" id="路径" fill="url(#linearGradient-3)" mask="url(#mask-2)"></path>
                    <path d="M382.786724,101.550556 C391.376297,110.284631 391.376297,124.445361 382.786724,133.179436 L255.670977,262.449089 C247.082587,271.183637 233.157963,271.183637 224.569573,262.449089 C215.981183,253.714541 215.981183,239.554757 224.569573,230.820209 L351.68532,101.550556 C360.27371,92.8164813 374.198334,92.8164813 382.786724,101.550556 Z" id="路径" fill="url(#linearGradient-4)" mask="url(#mask-2)"></path>
                    <path d="M315.714683,58.5360848 C324.339423,67.2590474 324.348924,81.4113439 315.736061,90.1460086 L151.753781,256.442347 C143.14068,265.177603 129.166512,265.187059 120.541773,256.463624 C111.917034,247.740189 111.907651,233.588838 120.52087,224.853582 L284.501963,58.5572433 C293.116014,49.8225431 307.089944,49.8130277 315.714683,58.5360848 Z" id="路径" fill="url(#linearGradient-5)" mask="url(#mask-2)"></path>
                    <path d="M152.674088,111.602489 C161.254247,120.384434 161.230323,134.598332 152.620437,143.350004 L88.574692,208.451766 C79.9649246,217.203675 66.0297171,217.179931 57.4494992,208.397155 C48.8693051,199.615567 48.8932882,185.401431 57.5030675,176.649522 L121.548836,111.547879 C130.158604,102.796089 144.093811,102.820545 152.674088,111.602489 Z" id="路径" fill="#43CDE9" mask="url(#mask-2)"></path>
                    <path d="M192.112981,46 C204.270268,46 214.125927,56.0203121 214.125927,68.380962 L214.125927,70.6190025 C214.125927,82.9796524 204.270268,93 192.112981,93 C179.955694,93 170.100035,82.9796524 170.100035,70.6190025 L170.100035,68.380962 C170.100035,56.0203121 179.955694,46 192.112981,46 Z" id="路径" fill="#53F3FD" mask="url(#mask-2)"></path>
                </g>
                <g id="RAG-Flow" transform="translate(558, 174)" fill="#66686A" fill-rule="nonzero">
                    <path d="M60.4847896,91.2109375 L29.4118282,91.2109375 L29.4118282,147.65625 L0,147.65625 L0,3.7109375 L70.647016,3.7109375 C80.7440998,3.90625 88.5123402,5.14322917 93.951737,7.421875 C99.3911338,9.70052083 103.999964,13.0533854 107.778228,17.4804688 C110.905067,21.1263021 113.380481,25.1627604 115.20447,29.5898438 C117.028459,34.0169271 117.940454,39.0625 117.940454,44.7265625 C117.940454,51.5625 116.214178,58.2845052 112.761627,64.8925781 C109.309076,71.500651 103.609109,76.171875 95.661727,78.90625 C102.30626,81.5755208 107.012804,85.3678385 109.781359,90.2832031 C112.549914,95.1985677 113.934192,102.701823 113.934192,112.792969 L113.934192,122.460938 C113.934192,129.036458 114.194762,133.496094 114.715901,135.839844 C115.497611,139.550781 117.3216,142.285156 120.187869,144.042969 L120.187869,147.65625 L87.0629201,147.65625 C86.1509254,144.466146 85.4995006,141.894531 85.1086458,139.941406 C84.3269361,135.904948 83.90351,131.770833 83.8383675,127.539063 L83.64294,114.160156 C83.5126551,104.980469 81.8352363,98.8606771 78.6106837,95.8007812 C75.3861311,92.7408854 69.3441664,91.2109375 60.4847896,91.2109375 Z M78.7572543,65.0390625 C84.7503622,62.3046875 87.7469161,56.9010417 87.7469161,48.828125 C87.7469161,40.1041667 84.8480759,34.2447917 79.0503954,31.25 C75.7932716,29.5572917 70.9075859,28.7109375 64.3933382,28.7109375 L29.4118282,28.7109375 L29.4118282,67.3828125 L63.5139148,67.3828125 C70.2887323,67.3828125 75.3698455,66.6015625 78.7572543,65.0390625 Z" id="形状"></path>
                    <path d="M228.161525,118.066406 L175.102977,118.066406 L165.136178,147.65625 L133.672362,147.65625 L185.069776,3.7109375 L219.074149,3.7109375 L270.080708,147.65625 L237.444327,147.65625 L228.161525,118.066406 Z M219.758145,93.2617188 L201.778821,36.6210938 L183.213216,93.2617188 L219.758145,93.2617188 Z" id="形状"></path>
                    <path d="M376.686371,144.140625 C368.738989,149.023437 358.967618,151.464844 347.372257,151.464844 C328.285511,151.464844 312.651317,144.856771 300.469674,131.640625 C287.766891,118.359375 281.415499,100.195313 281.415499,77.1484375 C281.415499,53.8411458 287.832033,35.15625 300.665101,21.09375 C313.498169,7.03125 330.467784,0 351.573947,0 C369.878983,0 384.584897,4.63867188 395.691689,13.9160156 C406.798481,23.1933594 413.166158,34.765625 414.79472,48.6328125 L385.187465,48.6328125 C382.907478,38.8020833 377.337796,31.9335937 368.478419,28.0273438 C363.527591,25.8789062 358.023052,24.8046875 351.964801,24.8046875 C340.369441,24.8046875 330.842353,29.1829427 323.38354,37.9394531 C315.924726,46.6959635 312.195319,59.8632813 312.195319,77.4414063 C312.195319,95.1497396 316.234153,107.682292 324.31182,115.039063 C332.389487,122.395833 341.574576,126.074219 351.867088,126.074219 C361.964172,126.074219 370.237266,123.160807 376.686371,117.333984 C383.135477,111.507161 387.109168,103.873698 388.607445,94.4335938 L355.287068,94.4335938 L355.287068,70.4101563 L415.283289,70.4101563 L415.283289,147.65625 L395.349691,147.65625 L392.320566,129.6875 C386.522885,136.523438 381.311487,141.341146 376.686371,144.140625 Z" id="路径"></path>
                    <polygon id="路径" points="550.729209 29.1992188 478.518773 29.1992188 478.518773 62.3046875 541.739547 62.3046875 541.739547 87.3046875 478.518773 87.3046875 478.518773 147.65625 448.618377 147.65625 448.618377 3.90625 550.729209 3.90625"></polygon>
                    <polygon id="路径" points="569.197101 3.7109375 597.04551 3.7109375 597.04551 147.65625 569.197101 147.65625"></polygon>
                    <path d="M713.031689,54.6875 C722.021351,65.9505208 726.516182,79.2643229 726.516182,94.6289063 C726.516182,110.253906 722.021351,123.616536 713.031689,134.716797 C704.042028,145.817057 690.394679,151.367188 672.089643,151.367188 C653.784607,151.367188 640.137258,145.817057 631.147596,134.716797 C622.157935,123.616536 617.663104,110.253906 617.663104,94.6289063 C617.663104,79.2643229 622.157935,65.9505208 631.147596,54.6875 C640.137258,43.4244792 653.784607,37.7929688 672.089643,37.7929688 C690.394679,37.7929688 704.042028,43.4244792 713.031689,54.6875 Z M671.991929,61.328125 C663.84912,61.328125 657.579156,64.2089844 653.182039,69.9707031 C648.784922,75.7324219 646.586363,83.9518229 646.586363,94.6289062 C646.586363,105.30599 648.784922,113.541667 653.182039,119.335938 C657.579156,125.130208 663.84912,128.027344 671.991929,128.027344 C680.134739,128.027344 686.388417,125.130208 690.752962,119.335938 C695.117508,113.541667 697.299781,105.30599 697.299781,94.6289062 C697.299781,83.9518229 695.117508,75.7324219 690.752962,69.9707031 C686.388417,64.2089844 680.134739,61.328125 671.991929,61.328125 Z" id="形状"></path>
                    <polygon id="路径" points="827.259022 147.65625 810.549977 70.1171875 793.645504 147.65625 764.722245 147.65625 734.821848 41.2109375 764.722245 41.2109375 781.333576 117.578125 796.67463 41.2109375 824.913893 41.2109375 841.13437 117.871094 857.745701 41.2109375 886.766675 41.2109375 855.889141 147.65625"></polygon>
                </g>
            </g>
        </g>
    </g>
</svg>