<svg width="352" height="256" viewBox="0 0 352 256" fill="none" xmlns="http://www.w3.org/2000/svg">
    <g clip-path="url(#clip0_873_69157)">
        <path
            d="M324.208 123.616H39.8561C36.0447 123.616 32.9438 120.159 32.9438 115.91V7.70526C32.9438 3.45656 36.0447 0 39.8561 0H324.208C328.02 0 331.12 3.45656 331.12 7.70526V115.91C331.12 120.159 328.02 123.616 324.208 123.616ZM39.8561 0.918638C36.4992 0.918638 33.7679 3.9632 33.7679 7.70526V115.91C33.7679 119.653 36.4992 122.697 39.8561 122.697H324.208C327.565 122.697 330.296 119.653 330.296 115.91V7.70526C330.296 3.9632 327.565 0.918638 324.208 0.918638H39.8561Z"
            fill="#3F3D56" />
        <path d="M351.333 252.881H0.666504V253.654H351.333V252.881Z" fill="#E6E6E6" />
        <path d="M351.333 213.38H0.666504V214.153H351.333V213.38Z" fill="#E6E6E6" />
        <path
            d="M160.475 127.595C160.727 131.123 162.563 133.837 164.577 133.658C166.591 133.479 168.019 130.475 167.767 126.946C167.683 125.535 167.298 124.167 166.643 122.955L165.407 108.024L159.133 108.82L161.018 123.455C160.543 124.767 160.357 126.187 160.475 127.595Z"
            fill="#FFB6B6" />
        <path
            d="M152.981 57.9354C152.981 57.9354 158.845 54.4749 161.819 59.6461C164.792 64.8174 166.845 120.745 166.845 120.745L158.603 121.726L157.04 82.3153L152.981 57.9354Z"
            fill="#E6E6E6" />
        <path d="M140.81 210.462L145.584 210.461L147.855 189.932L140.809 189.933L140.81 210.462Z" fill="#FFB6B6" />
        <path
            d="M157.168 210.341C157.316 210.62 157.395 211.521 157.395 211.846C157.395 212.843 156.669 213.652 155.774 213.652H140.988C140.378 213.652 139.883 213.1 139.883 212.42V211.733C139.883 211.733 139.151 209.671 140.657 207.129C140.657 207.129 142.529 209.119 145.326 206.002L146.15 204.336L152.12 209.203L155.43 209.657C156.153 209.757 156.795 209.642 157.168 210.341Z"
            fill="#2F2E41" />
        <path d="M168.439 209.581L173.065 208.263L170.708 187.746L163.88 189.691L168.439 209.581Z" fill="#FFB6B6" />
        <path
            d="M184.262 204.95C184.468 205.18 184.744 206.031 184.816 206.345C185.037 207.312 184.514 208.296 183.647 208.543L169.321 212.622C168.729 212.791 168.127 212.393 167.976 211.733L167.823 211.068C167.823 211.068 166.657 209.272 167.551 206.393C167.551 206.393 169.807 207.806 171.824 204.013L172.254 202.172L179.119 205.241L182.426 204.768C183.149 204.664 183.746 204.376 184.262 204.95Z"
            fill="#2F2E41" />
        <path d="M136.859 53.5221L136.633 51.6908L139.323 44.3656L146.716 43.45L148.312 53.9369L136.859 53.5221Z"
            fill="#FFB6B6" />
        <path opacity="0.1"
            d="M136.859 53.5221L136.633 51.6908L139.323 44.3656L146.716 43.45L148.312 53.9369L136.859 53.5221Z"
            fill="black" />
        <path
            d="M128.234 105.256L124.949 115.329L127.413 120.822L139.734 200.484H147.926L146.306 129.979L165.198 200.484H173.306L166.786 152.87L161.912 108.919L158.956 106.883L144.663 97.9312L128.234 105.256Z"
            fill="#2F2E41" />
        <path d="M149.18 112.124L144.252 113.039L137.681 95.6421H152.466L149.18 112.124Z" fill="#E6E6E6" />
        <path
            d="M159.038 107.546L149.181 112.124L145.895 103.883L144.252 113.04L127.002 106.85L129.467 95.6422L127.002 59.0161L135.701 52.5516L136.859 51.6909L147.538 52.6066L148.474 53.1743L154.931 57.1848L156.573 87.4013L159.038 107.546Z"
            fill="#2F2E41" />
        <path d="M148.474 53.1743L143.841 75.04L135.701 52.5516L136.859 51.6909L147.538 52.6066L148.474 53.1743Z"
            fill="#E6E6E6" />
        <path
            d="M140.556 51.6909L138.913 54.8448L140.556 55.8961L139.735 75.0969L143.02 80.0761L146.306 72.717L143.842 55.8961L144.663 51.6909H140.556Z"
            fill="#2F2E41" />
        <path
            d="M143.02 49.8595C147.33 49.8595 150.824 45.965 150.824 41.1608C150.824 36.3567 147.33 32.4622 143.02 32.4622C138.711 32.4622 135.217 36.3567 135.217 41.1608C135.217 45.965 138.711 49.8595 143.02 49.8595Z"
            fill="#FFB6B6" />
        <path
            d="M138.033 41.9239L139.719 42.7442L140.455 37.8225C140.455 37.8225 143.398 36.182 145.606 37.0023C147.813 37.8225 151.493 37.0023 151.493 37.0023C151.493 37.0023 151.493 28.7996 146.342 28.7996C141.191 28.7996 136.04 29.6198 136.04 32.0806C136.04 34.5415 133.832 37.0023 133.832 37.0023C133.832 37.0023 130.889 41.9239 133.832 45.205C136.776 48.486 138.247 48.486 138.247 48.486L138.033 41.9239Z"
            fill="#2F2E41" />
        <path
            d="M122.892 127.338C122.806 130.875 124.374 133.792 126.394 133.852C128.413 133.913 130.119 131.094 130.204 127.555C130.256 126.142 130.003 124.736 129.467 123.454L129.659 108.461L123.346 108.51L123.826 123.286C123.229 124.534 122.908 125.923 122.892 127.338Z"
            fill="#FFB6B6" />
        <path
            d="M130.703 57.1675C130.703 57.1675 125.364 55.3362 122.899 60.8301C120.435 66.324 123.721 122.179 123.721 122.179H132.009L129.81 82.8057L130.703 57.1675Z"
            fill="#E6E6E6" />
        <path
            d="M335.52 161.225L315.609 154.43C315.169 154.28 314.707 154.225 314.248 154.269L213.336 163.842C211.898 163.979 211.536 166.142 212.834 166.847L216.067 168.602H215.98V252.635H219.026V170.21L229.157 175.711C229.932 176.132 230.797 176.304 231.655 176.207L232.733 176.086V252.635H235.778V175.743L313.828 166.955V252.635H316.874V166.612L329.819 165.154V252.635H332.865V164.811L335.227 164.545C336.884 164.359 337.113 161.768 335.52 161.225Z"
            fill="#3F3D56" />
        <path
            d="M242.632 163.509C244.535 163.509 272.71 159.69 272.71 159.69L276.898 166.056L247.581 172.422L242.632 163.509Z"
            fill="white" />
        <path d="M273.553 249.372L268.658 249.362L266.362 228.311L273.586 228.325L273.553 249.372Z" fill="#A0616A" />
        <path
            d="M256.783 249.216C256.63 249.502 256.548 250.425 256.547 250.758C256.546 251.781 257.288 252.611 258.206 252.613L273.365 252.642C273.991 252.643 274.499 252.078 274.5 251.381L274.501 250.677C274.501 250.677 275.254 248.564 273.714 245.955C273.714 245.955 271.792 247.992 268.93 244.79L268.087 243.081L261.959 248.059L258.566 248.518C257.823 248.619 257.165 248.5 256.783 249.216Z"
            fill="#2F2E41" />
        <path d="M299.824 239.583L295.962 242.83L282.888 227.77L288.588 222.978L299.824 239.583Z" fill="#A0616A" />
        <path
            d="M286.527 250.611C286.56 250.938 286.989 251.72 287.167 251.983C287.713 252.79 288.743 252.95 289.466 252.342L301.426 242.285C301.92 241.869 302.018 241.086 301.646 240.536L301.27 239.981C301.27 239.981 300.733 237.815 298.123 236.783C298.123 236.783 297.699 239.666 293.73 239.047L292.151 238.261L289.987 246.258L287.559 248.876C287.028 249.449 286.446 249.793 286.527 250.611Z"
            fill="#2F2E41" />
        <path
            d="M289.594 130.786C289.594 135.818 285.935 139.897 281.421 139.897C276.907 139.897 273.248 135.818 273.248 130.786C273.248 125.755 276.907 121.676 281.421 121.676C285.935 121.676 289.594 125.755 289.594 130.786Z"
            fill="#A0616A" />
        <path
            d="M288.824 183.317C288.824 183.317 258.732 181.418 257.028 185.216C255.325 189.014 266.237 241.176 266.237 241.176L275.972 238.902L271.223 202.305C271.223 202.305 296.334 209.718 299.741 200.857C303.148 191.997 302.167 188.697 302.167 188.697L288.824 183.317Z"
            fill="#2F2E41" />
        <path
            d="M296.535 176.943C296.535 176.943 267.063 183.986 266.322 188.15C265.58 192.315 288.482 239.401 288.482 239.401L297.331 234.337L284.066 200.444C284.066 200.444 310.042 200.189 311.225 190.639C312.408 181.089 310.679 178.196 310.679 178.196L296.535 176.943Z"
            fill="#2F2E41" />
        <path
            d="M299.896 141.228H285.738L276.049 158.95C276.049 158.95 273.778 170.402 276.049 171.638C278.321 172.874 278.321 186.165 278.321 186.165L302.168 188.697C302.168 188.697 305.574 148.823 304.439 145.025C303.303 141.228 299.896 141.228 299.896 141.228Z"
            fill="#6C63FF" />
        <path
            d="M277.469 152.937L276.049 171.638L260.083 164.085L256.273 161.948C255.526 160.864 254.558 159.994 253.448 159.412C250.689 157.913 247.759 158.284 246.903 160.241C246.047 162.198 247.59 164.999 250.349 166.498C251.444 167.113 252.656 167.428 253.883 167.414L265.032 174.473L265.045 174.446L265.095 174.544L282.579 182.684L286.601 158.134L277.469 152.937Z"
            fill="#A0616A" />
        <path
            d="M275.765 132.05C275.765 132.05 267.249 133.316 270.655 125.088C270.655 125.088 270.136 120.628 272.667 120.326C275.198 120.025 278.604 114.962 278.604 114.962C278.604 114.962 286.415 110.531 290.459 114.962C294.502 119.392 306.426 145.342 306.426 145.342L298.477 154.836C298.477 154.836 293.698 140.832 288.138 142.454C282.579 144.076 277.469 148.913 277.469 148.913C277.469 148.913 271.827 145.765 274.364 143.022C276.901 140.278 275.765 132.05 275.765 132.05Z"
            fill="#2F2E41" />
        <path
            d="M287.121 145.975C287.121 145.975 283.146 140.278 280.307 144.709C277.468 149.139 275.197 154.836 275.197 154.836L286.553 159.266L287.121 145.975Z"
            fill="#6C63FF" />
        <path
            d="M330.237 251.376L317.044 204.631L317.046 204.63H317.076L317.023 204.554L317.022 204.552L316.082 201.223L316.082 201.222C317.514 199.847 318.489 197.882 318.683 195.62L312.652 158.646C313.067 153.79 309.728 149.546 305.353 149.372L291.746 149.334C287.878 149.181 284.527 152.296 283.964 156.566L283.663 158.832L279.494 190.447C279.342 191.584 279.403 192.704 279.643 193.753L276.642 194.19L275.732 194.326L272.135 194.848L272.123 194.852L271.674 194.916H271.187V208.497H271.217V251.905C271.217 252.186 271.423 252.415 271.674 252.415C271.929 252.415 272.135 252.186 272.135 251.905V208.497H277.472L282.799 251.854C282.833 252.109 283.027 252.296 283.256 252.296C283.275 252.296 283.298 252.296 283.317 252.292C283.568 252.253 283.743 251.995 283.709 251.714L278.401 208.497H304.013C306.556 208.497 308.913 207.597 310.832 206.057L320.986 251.775C321.039 252.006 321.226 252.16 321.43 252.16C321.468 252.16 321.506 252.155 321.544 252.144C321.789 252.075 321.938 251.796 321.875 251.523L311.622 205.363C311.759 205.236 311.895 205.101 312.024 204.961L316.1 204.694L329.362 251.683C329.424 251.901 329.605 252.04 329.8 252.04C329.845 252.04 329.891 252.033 329.937 252.017C330.179 251.932 330.313 251.645 330.237 251.376ZM315.21 201.948C315.245 201.927 315.275 201.901 315.306 201.88L315.404 202.227L315.21 201.948Z"
            fill="#E6E6E6" />
        <path d="M71.3594 172.141L80.2386 165.847L83.8485 168.274L71.3594 184.271V172.141Z" fill="#FFB6B6" />
        <path
            d="M59.2174 147.778C59.2174 147.778 53.3198 149.325 56.0952 158.219C58.8705 167.114 67.8904 185.676 70.6658 184.516C73.4411 183.356 73.788 171.754 73.788 171.754C73.788 171.754 73.4411 172.141 72.0535 170.594C70.6658 169.047 70.6658 169.754 70.6658 168.047C70.6658 166.34 69.5308 165.075 69.5308 165.075L68.2373 162.086C68.2373 162.086 68.2373 148.165 63.0335 147.391C57.8298 146.618 59.2174 147.778 59.2174 147.778Z"
            fill="#E6E6E6" />
        <path
            d="M86.7714 167.858C89.0746 165.291 89.7885 161.924 88.366 160.338C86.9434 158.752 83.9231 159.548 81.62 162.115C79.3168 164.683 78.6029 168.05 80.0255 169.635C81.448 171.221 84.4683 170.425 86.7714 167.858Z"
            fill="#FFB6B6" />
        <path d="M36.2461 199.018L42.3049 210.197L77.6129 207.868L68.2114 194.361L36.2461 199.018Z" fill="#E6E6E6" />
        <path
            d="M46.7961 251.303C46.5905 251.303 46.4113 251.133 46.3827 250.9L35.832 165.004C35.8007 164.749 35.9607 164.514 36.1893 164.479C36.4178 164.443 36.6286 164.623 36.66 164.878L47.2106 250.774C47.2419 251.028 47.082 251.263 46.8534 251.298C46.8341 251.301 46.815 251.303 46.7961 251.303Z"
            fill="#E6E6E6" />
        <path
            d="M36.246 251.412C36.0152 251.412 35.8281 251.203 35.8281 250.946V164.957C35.8281 164.7 36.0152 164.492 36.246 164.492C36.4767 164.492 36.6638 164.7 36.6638 164.957V250.946C36.6638 251.203 36.4767 251.412 36.246 251.412Z"
            fill="#E6E6E6" />
        <path
            d="M89.2079 251.07C89.0303 251.07 88.8656 250.943 88.8095 250.744L63.8431 162.286C63.7738 162.041 63.8962 161.779 64.1163 161.702C64.3363 161.625 64.5711 161.761 64.6402 162.006L89.6066 250.464C89.6759 250.71 89.5536 250.971 89.3334 251.048C89.2917 251.063 89.2494 251.07 89.2079 251.07Z"
            fill="#E6E6E6" />
        <path
            d="M81.582 251.179C81.3955 251.179 81.2255 251.039 81.1773 250.828L63.8367 172.758C63.7799 172.509 63.915 172.255 64.1387 172.192C64.363 172.129 64.5898 172.279 64.6467 172.528L81.9873 250.598C82.0442 250.848 81.909 251.101 81.6854 251.165C81.6508 251.174 81.6161 251.179 81.582 251.179Z"
            fill="#E6E6E6" />
        <path d="M36.2461 166.327L65.182 165.831L70.5096 199.717H36.6639L36.2461 166.327Z" fill="#E6E6E6" />
        <path d="M80.7128 216.154L73.4204 230.466L81.8875 232.544L85.4174 222.365L80.7128 216.154Z" fill="#FFB6B6" />
        <path
            d="M76.0398 227.764C76.0398 227.764 75.7564 225.43 74.0905 226.171C72.4246 226.911 67.6167 229.664 67.6167 229.664C67.6167 229.664 80.1568 252.377 82.5367 251.319C84.9165 250.261 82.0677 243.841 82.0677 243.841L82.6964 232.492L76.0398 227.764Z"
            fill="#2F2E41" />
        <path
            d="M48.4625 188.384C48.4625 188.384 45.8607 201.725 53.8398 206.366C61.8189 211.007 89.0521 199.598 89.0521 199.598L76.563 220.458L85.236 224.348C85.236 224.348 105.01 195.344 103.623 190.704C102.235 186.063 92.8682 185.677 92.8682 185.677L71.7062 186.837L66.1554 184.903L48.4625 188.384Z"
            fill="#2F2E41" />
        <path d="M69.9252 222.506L58.4609 232.878L65.6692 238.248L72.28 230.199L69.9252 222.506Z" fill="#FFB6B6" />
        <path
            d="M61.7822 231.424C61.7822 231.424 62.2801 229.135 60.4867 229.149C58.6932 229.164 53.3164 229.777 53.3164 229.777C53.3164 229.777 57.5823 256.02 60.1444 256C62.7065 255.98 62.1488 248.844 62.1488 248.844L66.4392 238.528L61.7822 231.424Z"
            fill="#2F2E41" />
        <path
            d="M48.9507 183.557C48.9507 183.557 42.172 194.929 48.0893 202.488C54.0066 210.047 83.0968 210.468 83.0968 210.468L64.6545 224.832L71.4631 231.973C71.4631 231.973 99.3497 212.979 99.572 208.093C99.7943 203.208 91.1959 199.048 91.1959 199.048L71.1058 191.545L66.5668 187.492L48.9507 183.557Z"
            fill="#2F2E41" />
        <path
            d="M66.3648 157.218C66.3648 157.218 59.7734 154.511 56.6511 154.511C56.3527 154.511 56.0578 154.549 55.763 154.619C53.7647 155.091 51.926 157.005 51.0449 158.049C50.7014 158.459 50.5037 158.734 50.5037 158.734C50.5037 158.734 50.5245 158.467 50.5661 157.999C50.7708 155.539 51.5271 147.469 52.8835 142.302C53.3692 140.457 53.9278 138.984 54.5696 138.269C56.0648 136.598 56.7552 134.595 57.0743 133.102C57.3449 131.822 57.3449 130.921 57.3449 130.921L54.8159 129.707L54.3475 126.296C54.2643 126.698 53.8792 127.483 52.5852 128.987C52.4742 129.115 52.3527 129.223 52.2244 129.316C50.358 130.623 46.5523 128.349 44.502 126.918C45.3554 123.612 46.9026 120.588 49.7127 120.093C56.3042 118.933 56.3042 114.679 60.4672 119.319C60.8106 119.702 61.1576 120.07 61.5045 120.425C62.8367 123.264 63.3223 127.069 63.4958 129.714C63.6207 131.567 63.5895 132.854 63.5895 132.854C63.5895 132.854 65.3241 144.456 68.0994 146.776C70.8748 149.097 66.3648 157.218 66.3648 157.218Z"
            fill="#2F2E41" />
        <path d="M53.5288 138.655L48.8413 146.32L59.4265 149.483V138.655H53.5288Z" fill="#FFB6B6" />
        <path opacity="0.1" d="M53.5288 138.655L48.8413 146.32L59.4265 149.483V138.655H53.5288Z" fill="black" />
        <path
            d="M60.0844 146.038L50.0237 141.397C50.0237 141.397 36.4939 147.971 37.5346 160.733C38.5754 173.495 48.2892 195.538 48.2892 195.538L67.7166 186.256L65.6351 161.506L60.0844 146.038Z"
            fill="#E6E6E6" />
        <path
            d="M55.771 142.077C60.673 142.077 64.6469 137.647 64.6469 132.183C64.6469 126.719 60.673 122.289 55.771 122.289C50.8689 122.289 46.895 126.719 46.895 132.183C46.895 137.647 50.8689 142.077 55.771 142.077Z"
            fill="#FFB6B6" />
        <path
            d="M67.7522 128.601C66.0176 130.534 64.6299 132.468 64.6299 132.468L63.9361 129.374C63.9361 129.374 63.7765 129.505 63.4955 129.714C62.3958 130.55 59.4435 132.649 57.074 133.102C56.0194 133.303 55.0827 133.175 54.4721 132.468C53.1781 130.963 52.793 130.178 52.7098 129.776L52.2414 133.187L49.7124 134.401C49.7124 134.401 49.7124 138.648 52.4877 141.749C52.6231 141.9 52.7549 142.085 52.8832 142.302C54.2085 144.53 55.159 149.982 55.7627 154.619C56.2969 158.741 56.5536 162.214 56.5536 162.214C56.5536 162.214 53.9275 158.548 51.0446 158.049C50.885 158.022 50.7254 158.003 50.5658 157.999C50.5138 157.991 50.4583 157.991 50.4062 157.991C47.284 157.991 40.6925 160.698 40.6925 160.698C40.6925 160.698 36.1825 152.577 38.9579 150.257C41.7332 147.937 43.4678 136.335 43.4678 136.335C43.4678 136.335 43.3534 131.369 44.5017 126.918C45.3551 123.612 46.9024 120.588 49.7124 120.093C56.3039 118.933 56.3039 114.679 60.4669 119.319C60.8103 119.702 61.1573 120.07 61.5042 120.425C65.3827 124.401 69.3446 126.826 67.7522 128.601Z"
            fill="#2F2E41" />
        <path d="M28.8232 180.512H25.5269V253.085H28.8232V180.512Z" fill="#3F3D56" />
        <path d="M108.76 180.512H105.464V253.085H108.76V180.512Z" fill="#3F3D56" />
        <path d="M87.7462 149.738H65.9077V174.082H87.7462V149.738Z" fill="#6C63FF" />
        <path d="M53.3193 175.622L62.1986 169.327L65.8084 171.754L53.3193 187.752V175.622Z" fill="#FFB6B6" />
        <path
            d="M41.1774 151.258C41.1774 151.258 35.2798 152.805 38.0551 161.7C40.8305 170.594 49.8504 189.157 52.6257 187.997C55.4011 186.836 55.748 175.235 55.748 175.235C55.748 175.235 55.4011 175.622 54.0134 174.075C52.6257 172.528 52.6257 173.234 52.6257 171.528C52.6257 169.821 51.4907 168.556 51.4907 168.556L50.1973 165.567C50.1973 165.567 50.1973 151.645 44.9935 150.872C39.7897 150.098 41.1774 151.258 41.1774 151.258Z"
            fill="#E6E6E6" />
        <path
            d="M68.7314 171.338C71.0346 168.771 71.7485 165.404 70.3259 163.819C68.9034 162.233 65.8831 163.029 63.5799 165.596C61.2768 168.163 60.5629 171.53 61.9854 173.116C63.408 174.702 66.4282 173.906 68.7314 171.338Z"
            fill="#FFB6B6" />
        <path d="M115.353 177.757H15.6377V186.024H115.353V177.757Z" fill="#3F3D56" />
        <path
            d="M216.664 111.615H201.937C200.77 111.615 199.823 112.669 199.823 113.971V120.741C199.823 122.043 200.77 123.097 201.937 123.097H216.664C217.831 123.097 218.777 122.043 218.777 120.741V113.971C218.777 112.669 217.831 111.615 216.664 111.615Z"
            fill="#3F3D56" />
        <path
            d="M247.567 118.385H232.84C231.673 118.385 230.727 119.44 230.727 120.741V120.741C230.727 122.043 231.673 123.098 232.84 123.098H247.567C248.734 123.098 249.681 122.043 249.681 120.741C249.681 119.44 248.734 118.385 247.567 118.385Z"
            fill="#6C63FF" />
    </g>
    <defs>
        <clipPath id="clip0_873_69157">
            <rect width="350.667" height="256" fill="white" transform="translate(0.666504)" />
        </clipPath>
    </defs>
</svg>