<svg width="40" height="40" viewBox="0 0 40 40" fill="none" xmlns="http://www.w3.org/2000/svg">
<path d="M35.3194 10.6387H20.4258C19.4857 10.6387 18.7236 11.4007 18.7236 12.3408V34.894C18.7236 35.834 19.4857 36.5961 20.4258 36.5961H35.3194C36.2594 36.5961 37.0215 35.834 37.0215 34.894V12.3408C37.0215 11.4007 36.2594 10.6387 35.3194 10.6387Z" fill="url(#paint0_linear_491_41413)"/>
<path d="M31.0639 4.25586H5.10642C4.16637 4.25586 3.4043 5.01793 3.4043 5.95799V18.2984C3.4043 19.2385 4.16637 20.0005 5.10642 20.0005H31.0639C32.0039 20.0005 32.766 19.2385 32.766 18.2984V5.95799C32.766 5.01793 32.0039 4.25586 31.0639 4.25586Z" fill="#00BEB4" fill-opacity="0.2"/>
<path d="M31.0639 4.25586C32.0039 4.25586 32.766 5.01793 32.766 5.95799V18.2984C32.766 19.2385 32.0039 20.0005 31.0639 20.0005H5.10642C4.16637 20.0005 3.4043 19.2385 3.4043 18.2984V5.95799C3.4043 5.01793 4.16637 4.25586 5.10642 4.25586H31.0639ZM31.0639 4.68139H5.10642C4.40138 4.68139 3.82983 5.25294 3.82983 5.95799V18.2984C3.82983 19.0035 4.40138 19.575 5.10642 19.575H31.0639C31.7689 19.575 32.3405 19.0035 32.3405 18.2984V5.95799C32.3405 5.25294 31.7689 4.68139 31.0639 4.68139Z" fill="#226365"/>
<path d="M31.0639 22.5527H5.10642C4.16637 22.5527 3.4043 23.3148 3.4043 24.2549V34.8932C3.4043 35.8332 4.16637 36.5953 5.10642 36.5953H31.0639C32.0039 36.5953 32.766 35.8332 32.766 34.8932V24.2549C32.766 23.3148 32.0039 22.5527 31.0639 22.5527Z" fill="#3A9093" fill-opacity="0.2"/>
<path d="M31.0639 22.5527C32.0039 22.5527 32.766 23.3148 32.766 24.2549V34.8932C32.766 35.8332 32.0039 36.5953 31.0639 36.5953H5.10642C4.16637 36.5953 3.4043 35.8332 3.4043 34.8932V24.2549C3.4043 23.3148 4.16637 22.5527 5.10642 22.5527H31.0639ZM31.0639 22.9783H5.10642C4.40138 22.9783 3.82983 23.5498 3.82983 24.2549V34.8932C3.82983 35.5982 4.40138 36.1698 5.10642 36.1698H31.0639C31.7689 36.1698 32.3405 35.5982 32.3405 34.8932V24.2549C32.3405 23.5498 31.7689 22.9783 31.0639 22.9783Z" fill="#226365"/>
<path d="M10.6384 14.893C12.2835 14.893 13.6171 13.5594 13.6171 11.9143C13.6171 10.2692 12.2835 8.93555 10.6384 8.93555C8.99329 8.93555 7.65967 10.2692 7.65967 11.9143C7.65967 13.5594 8.99329 14.893 10.6384 14.893Z" fill="#3A9093"/>
<path d="M10.6384 32.766C12.2835 32.766 13.6171 31.4324 13.6171 29.7873C13.6171 28.1422 12.2835 26.8086 10.6384 26.8086C8.99329 26.8086 7.65967 28.1422 7.65967 29.7873C7.65967 31.4324 8.99329 32.766 10.6384 32.766Z" fill="#3A9093"/>
<defs>
<linearGradient id="paint0_linear_491_41413" x1="933.617" y1="10.6387" x2="933.617" y2="2606.38" gradientUnits="userSpaceOnUse">
<stop stop-color="#1B3C3D"/>
<stop offset="1" stop-color="#164142"/>
</linearGradient>
</defs>
</svg>
