<?xml version="1.0" standalone="no"?><!DOCTYPE svg PUBLIC "-//W3C//DTD SVG 1.1//EN" "http://www.w3.org/Graphics/SVG/1.1/DTD/svg11.dtd"><svg t="1756884949583" class="icon" viewBox="0 0 1024 1024" version="1.1" xmlns="http://www.w3.org/2000/svg" p-id="11332" xmlns:xlink="http://www.w3.org/1999/xlink" width="200" height="200"><path d="M190.464 489.472h327.68v40.96h-327.68z" fill="#C7DCFE" p-id="11333"></path><path d="M482.34496 516.5056l111.26784-308.20352 38.54336 13.9264L520.86784 530.432z" fill="#C7DCFE" p-id="11334"></path><path d="M620.544 196.608m-122.88 0a122.88 122.88 0 1 0 245.76 0 122.88 122.88 0 1 0-245.76 0Z" fill="#8FB8FC" p-id="11335"></path><path d="M182.272 509.952m-122.88 0a122.88 122.88 0 1 0 245.76 0 122.88 122.88 0 1 0-245.76 0Z" fill="#C7DCFE" p-id="11336"></path><path d="M558.65344 520.9088l283.77088 163.84-20.48 35.47136-283.77088-163.84z" fill="#C7DCFE" p-id="11337"></path><path d="M841.728 686.08m-122.88 0a122.88 122.88 0 1 0 245.76 0 122.88 122.88 0 1 0-245.76 0Z" fill="#B3CEFE" p-id="11338"></path><path d="M448.67584 803.77856l49.60256-323.91168 40.48896 6.20544-49.60256 323.91168z" fill="#C7DCFE" p-id="11339"></path><path d="M512 530.432m-143.36 0a143.36 143.36 0 1 0 286.72 0 143.36 143.36 0 1 0-286.72 0Z" fill="#4185FF" p-id="11340"></path><path d="M462.848 843.776m-102.4 0a102.4 102.4 0 1 0 204.8 0 102.4 102.4 0 1 0-204.8 0Z" fill="#8FB8FC" p-id="11341"></path></svg>