<svg width="40" height="40" viewBox="0 0 40 40" fill="none" xmlns="http://www.w3.org/2000/svg">
<path fill-rule="evenodd" clip-rule="evenodd" d="M21.8074 21.9264L30.4051 33.9014C30.9531 34.665 30.7785 35.7287 30.0148 36.2767C29.7258 36.4846 29.3785 36.5963 29.0223 36.5963H11.8273C10.8871 36.5963 10.125 35.8342 10.125 34.8943C10.125 34.5381 10.2367 34.1908 10.4445 33.9014L19.0422 21.9264C19.5902 21.1627 20.6539 20.9881 21.4176 21.5365C21.5676 21.6443 21.6996 21.776 21.8074 21.9264Z" fill="#1C3C3D"/>
<path fill-rule="evenodd" clip-rule="evenodd" d="M5.94336 3.39844H34.0285C35.9086 3.39844 37.4328 4.92266 37.4328 6.80273V27.2281C37.4328 29.1082 35.9086 30.6324 34.0285 30.6324H5.94336C4.06328 30.6324 2.53906 29.1082 2.53906 27.2281V6.80273C2.53906 4.92266 4.06328 3.39844 5.94336 3.39844Z" fill="#00BEB4" fill-opacity="0.2"/>
<path d="M34.0422 3.4043C35.9223 3.4043 37.4465 4.92852 37.4465 6.80859V27.234C37.4465 29.1141 35.9223 30.6383 34.0422 30.6383H5.95703C4.07695 30.6383 2.55273 29.1141 2.55273 27.234V6.80859C2.55273 4.92852 4.07695 3.4043 5.95703 3.4043H34.0422ZM34.0422 3.82969H5.95703C4.31211 3.82969 2.97852 5.16328 2.97852 6.80859V27.234C2.97852 28.8793 4.31211 30.2129 5.95703 30.2129H34.0422C35.6871 30.2129 37.0207 28.8793 37.0207 27.234V6.80859C37.0207 5.16328 35.6871 3.82969 34.0422 3.82969Z" fill="#1B3B3C"/>
<path fill-rule="evenodd" clip-rule="evenodd" d="M19.9785 11.6797C20.6836 11.6797 21.2551 12.2512 21.2551 12.9562V21.0414C21.2551 21.7465 20.6836 22.318 19.9785 22.318C19.2734 22.318 18.702 21.7465 18.702 21.0414V12.9562C18.702 12.2512 19.2734 11.6797 19.9785 11.6797ZM11.0422 11.6797C11.7473 11.6797 12.3187 12.2512 12.3187 12.9562V21.0414C12.3187 21.7465 11.7473 22.318 11.0422 22.318C10.3371 22.318 9.76562 21.7465 9.76562 21.0414V12.9562C9.76562 12.2512 10.3371 11.6797 11.0422 11.6797ZM28.9145 11.6797C29.6195 11.6797 30.191 12.2512 30.191 12.9562V21.0414C30.191 21.7465 29.6195 22.318 28.9145 22.318C28.2094 22.318 27.6379 21.7465 27.6379 21.0414V12.9562C27.6379 12.2512 28.2094 11.6797 28.9145 11.6797Z" fill="#00BEB4"/>
</svg>
