<?xml version="1.0" standalone="no"?><!DOCTYPE svg PUBLIC "-//W3C//DTD SVG 1.1//EN" "http://www.w3.org/Graphics/SVG/1.1/DTD/svg11.dtd"><svg t="1756884908677" class="icon" viewBox="0 0 1039 1024" version="1.1" xmlns="http://www.w3.org/2000/svg" p-id="11186" xmlns:xlink="http://www.w3.org/1999/xlink" width="202.9296875" height="200"><path d="M653.90935344 53.93964406c1.26171656 0.69905906 2.86687313 2.30421562 3.56593219 3.56593219 0.69905906 1.26171656 1.28607375 1.73425125 1.30556062 1.04980688 0.04384313-1.61246438-4.30883531-5.96514281-5.92129969-5.92129875-0.68444437 0.01948594-0.21190969 0.60650063 1.04980688 1.30555968m-209.72749781 23.39290688c-1.49311219 0.99622031-3.5001675 5.02494469-2.50638282 5.02494469 0.95724844 0 5.0005875-4.12615406 5.0005875-5.10288844 0-0.85251094-1.15697906-0.81597469-2.49420468 0.07794375m-30.74642438 76.49217656c-1.12044375 0.78431062-2.26524375 2.30178-2.54535562 3.37350844-0.6454725 2.46741094-0.55047844 2.45036063 2.60381343-0.47009906 3.03250406-2.81085094 2.98866094-5.03712375-0.05845781-2.90340938m29.83789125 122.86878469c-1.40786156 1.40786156-2.28472969 2.8327725-1.94859656 3.16890562 0.33613313 0.33613313 1.76348062-0.54073594 3.17134125-1.94859656 1.40786156-1.40786156 2.28472969-2.83520906 1.9485975-3.16890562-0.33613313-0.33613313-1.76348062 0.54073594-3.17134219 1.94859656m181.00030594 42.51838687c0.02679281 1.32261 1.40299031 2.82059437 3.69989812 4.03116 1.88039625 0.99134906 2.14832812 0.97429875 1.53452063-0.09499406-2.01436219-3.51965344-5.27582625-5.97244969-5.23441875-3.93616594m-174.16560188 79.07650313c-1.01570625 0.98647687-1.39324687 1.79514469-0.83789625 1.79514469 1.10826469 0 3.66823406-2.72316469 3.0617325-3.25902844-0.20703844-0.18268125-1.20813 0.47497031-2.22383625 1.46388375m264.44653781 19.57852875c-0.11935125 1.80975938 2.90097375 5.25390469 4.54753782 5.18813906 1.2812025-0.05115094 1.18864406-0.27523969-0.43112719-1.05954937-1.13262187-0.54804281-2.50881844-1.92423938-3.05686125-3.05442563-0.54804281-1.13262187-1.02544875-1.6149-1.05954937-1.07416406m129.50132156 9.36787969c1.31043187 0.66252281 2.92289531 2.27498719 3.58541906 3.58541906 0.88661156 1.75130156 1.20813 1.93641844 1.22030906 0.69905906 0.01705031-2.16537844-3.33940781-5.52183656-5.50722281-5.50478719-1.23492375 0.00974344-1.04980688 0.33126187 0.70149469 1.22030907m-529.46060344 15.81773625c-1.49311219 0.99622031-3.5001675 5.02494469-2.50638281 5.02494468 0.95724844 0 5.0005875-4.12371844 5.0005875-5.10045281 0-0.85251094-1.15697906-0.81597469-2.49420469 0.07550813m-207.76672125 92.45849343c-1.52477719 2.84738719-0.75021 3.03006844 1.28850937 0.30446813 0.947505-1.26902344 1.28850937-2.30665219 0.75264563-2.30665219-0.53342813 0-1.45170469 0.90122625-2.041155 2.00218406m213.38355281 27.99646688c-3.28338563 2.29447313-3.94590937 3.59759719-1.83168187 3.59759812 1.24466625 0 3.43683844-2.05576969 4.85931375-4.55971781 0.94263375-1.6563075 0.52855688-1.52234156-3.02763188 0.96211969m101.26615125 13.87401094a13.676715 13.676715 0 0 0 4.32101344 0c1.18864406-0.22896 0.21678187-0.41407688-2.16050719-0.41407688-2.3748525 0-3.34671562 0.18511687-2.16050625 0.41407688m286.65323625 32.20056562c-4.5110025 5.14673156-4.90072125 6.07718719-1.55887781 3.73399969 3.13724156-2.19947906 5.81899781-5.89450594 4.27717031-5.89450594-0.45304875 0-1.67822906 0.97186312-2.7182925 2.16050625m288.73579875 0.06089438c-3.49286063 3.71694844-1.85603906 5.22711188 1.75130156 1.61733562 1.97782594-1.97539031 2.52586875-3.83873625 1.12775063-3.83873625-0.43599844 0-1.73181562 1.00109156-2.87905219 2.22140063m-532.60271625 38.333775c-3.3223575 3.69259125-3.66823406 4.92020719-0.86956125 3.08365406 2.65496344-1.73668687 5.08827375-5.24172562 3.64144031-5.24172563-0.45548437 0-1.70258625 0.97186312-2.77187906 2.15807157m388.45038 14.52191906c0 1.47119062 1.51259813 2.86200187 4.12858969 3.79732781 1.8536025 0.66252281 1.54669875-0.23383125-1.16185031-3.39786562-1.761045-2.05576969-2.96673937-2.218965-2.96673938-0.39946219m-198.49383562 54.40969969c0.90366188 0.52612125 2.30908781 1.90475344 3.12019125 3.06416906 0.81110344 1.15697906 1.47362625 1.57592812 1.47362625 0.93045562 0-1.54669875-3.51234656-5.02007344-5.03955844-4.98353718-0.68200875 0.01705031-0.489585 0.44330625 0.44574094 0.9889125m36.27069843 22.77909937c0 0.97429875 4.13346188 5.0005875 5.1345525 5.0005875 0.37997625 0 0.23383125-0.85494656-0.32395406-1.89744656-1.10095687-2.05820531-4.81059844-4.45010812-4.81059844-3.10314094m17.96606438 16.38039375c3.05199 2.94238125 3.74861344 3.04711875 2.29934437 0.34100438-0.55291406-1.03519219-1.89988219-2.11666313-2.98866093-2.40164532-1.70745844-0.44574188-1.61002875-0.15832313 0.68931656 2.06064094m-403.8467325 20.11195688c0 1.29825281 2.29447313 3.719385 4.13102531 4.35998625 1.20325875 0.41894813 1.52477719 0.24113906 1.0522425-0.58701469-1.97295469-3.47093812-5.18326781-5.80681875-5.18326781-3.77297156m-213.99248906 15.08944875c-0.11935125 1.80488812 2.72560031 5.00545875 4.94456531 5.56567968 2.11179188 0.5309925 2.12153531 0.50176406 0.32638969-0.84033187-1.02544875-0.76482469-2.1458925-1.39324687-2.49176813-1.39324688-0.34831125 0-1.09852125-0.97186312-1.67335781-2.15807156-0.5724-1.18864406-1.06929281-1.71720094-1.10582906-1.17402937m373.336575 136.54549968c0 1.53208406 3.03737531 5.01276563 4.3746 5.01276657 1.97782594 0 1.72938-0.73072406-1.15454344-3.40517344-2.72560031-2.52586875-3.22005656-2.77187906-3.22005656-1.60759313m213.26420062 47.55063938c-3.49042406 3.71694844-1.85603906 5.22711188 1.75373719 1.61733562 1.97782594-1.97782594 2.52343312-3.83873625 1.12775062-3.83873625-0.43599844 0-1.73181562 0.99865594-2.88148781 2.22140063" fill="#bfbfbf" p-id="11187"></path><path d="M508.11045312 34.32214344c0 1.67822906-0.78918188 1.90718906-7.43876906 2.15807156l-7.43876906 0.28011094-0.29959688 3.60003281-0.29716125 3.60003281h-6.46934249c-7.15865812 0-8.77355812 0.91827656-8.77355813 4.99084406 0 2.49664031-0.27280313 2.68906406-3.83873625 2.68906407-3.07878375 0-3.84117187 0.34831125-3.84117187 1.75130156 0 2.59163437-3.81437906 5.677725-7.96489032 6.44498437-4.18461187 0.77213156-6.43280625 2.6354775-6.43280531 5.33428407 0 1.32017437-0.86225438 2.04846281-2.91315281 2.45766843-3.19082719 0.63816563-4.17974062 1.97051906-5.23929 7.04904938-0.80379656 3.86309344-2.905845 6.58138688-6.00655031 7.76515969-1.67335781 0.64060125-2.15807156 1.58567062-2.15807157 4.20896906 0 3.20300625-0.17293781 3.38325188-3.2395425 3.38325187-3.45145219 0-4.44036563 1.93641844-4.44036562 8.69074219 0 2.47228219-2.92289531 5.88232687-5.88719813 6.87124031-0.54560719 0.18268125-1.2812025 3.55375406-1.63195031 7.49479125-0.62842219 7.03199906-0.69418781 7.17570844-3.51965344 7.65798657-3.30774375 0.56752875-3.96539531 4.27960594-4.20166218 23.72904l-0.11935125 9.80631468-3.35889469 3.35889469-3.35889375 3.36132938 0.09499406 9.86964375c0.11691562 11.94733594 0.69662344 14.31975281 3.88014375 15.8542725 2.43574594 1.17402937 2.45766844 1.29094594 2.99109656 15.89811656 0.5724 15.67646344 1.87308844 21.12035625 5.31479813 22.21156969 1.58567062 0.50419969 2.00949094 1.81706719 2.58919875 8.01117 0.71367375 7.65555094 1.37376094 8.81009438 5.04686625 8.83445156 1.70989406 0.01217906 2.16294281 0.56509312 2.17512094 2.65496344 0.02679281 4.79354906 2.49907594 10.25692781 5.06148093 11.1873825 1.77809438 0.6454725 2.6038125 1.87796063 3.21762094 4.79842031 0.74046656 3.5318325 1.14480094 3.96295875 3.94590844 4.23332719l3.11775562 0.29959687v5.53157906c0 5.71182469-1.65874312 8.48126812-5.99924343 10.01335313-1.16915813 0.41164125-1.67822906 1.61977125-1.67822907 3.98244562 0 3.23223562-0.1558875 3.39055875-3.34915125 3.39055875-3.1567275 0-3.38325188 0.21678187-3.95321625 3.78514969-0.54317156 3.38812312-0.92558344 3.81925031-3.61221093 4.07987438-2.71585688 0.26549625-3.03250406 0.63816563-3.3028725 3.88014375-0.25818937 3.11288344-0.69418781 3.69015563-3.29312907 4.36242187-3.24684938 0.84276844-3.99218812 2.32613812-5.03225156 10.04988938-0.59675813 4.43549438-0.70149469 4.55728125-3.91424437 4.55728125-3.20300625 0-3.30043594 0.11448-3.30043594 3.78271406 0 3.67797656-0.09986531 3.79002094-3.60003281 4.07987437-3.40517344 0.28254656-3.6146475 0.49202062-3.89719407 3.89719407-0.2703675 3.26389969-0.55778625 3.60003281-3.08609062 3.60003375-3.26877187 0-4.77649875 2.19947906-4.77649875 6.96867 0 3.30287156-2.47228219 6.49126406-5.99924344 7.73593031-1.15454344 0.40677-1.67822906 1.6149-1.67822906 3.86065781 0 3.06173344-0.23870344 3.30530813-3.78271406 3.87040031-3.54888187 0.56752875-3.79976437 0.82571813-4.07987438 4.20409782-0.26549625 3.20057063-0.61380844 3.63169781-3.17377781 3.92398781-3.33210094 0.37754063-4.28691375 1.52721281-4.30883532 5.17352531-0.00974344 2.01923344-0.58945031 2.76700781-2.51612531 3.249285-2.90828063 0.73072406-5.17596094 5.26851938-5.17596094 10.35922875 0 3.1567275-0.18998813 3.34915125-3.60003281 3.62926219-3.40517344 0.28254656-3.61708313 0.49445625-3.89719406 3.89962969-0.2703675 3.26389969-0.55778625 3.59759719-3.08609063 3.59759718-2.95699594 0-4.77649875 2.16050719-4.77649875 5.67041719 0 1.40299031-0.88174031 2.17999313-3.12019125 2.75482969-3.03493969 0.77700281-3.14211281 0.98404125-3.99705937 7.65798562l-0.87686813 6.85906219-3.44170968 0.28741781c-3.22492781 0.2703675-3.46119563 0.51637781-3.74130657 3.88745063-0.28011094 3.40273781-0.47740594 3.60003281-3.58785375 3.60003375-3.09583312 0-3.32479406 0.22652438-3.90450187 3.84117187-0.489585 3.07147594-1.0205775 3.84117187-2.65009219 3.85335-3.25172156 0.02435719-4.10179688 1.12044375-4.77649781 6.16974563-0.62598656 4.67906812-3.53913937 9.17302031-5.94322125 9.17302031-0.63329437 0-1.4273475 1.72938-1.76591625 3.84117188-0.57970781 3.62682656-0.79648875 3.83873625-3.96052312 3.83873625-3.25902844 0-3.34915125 0.10230094-3.34915125 3.78271406 0 3.67554094-0.09986531 3.79002094-3.60003282 4.07987531-3.38081625 0.27767531-3.61708313 0.50907094-3.88988718 3.78758531-0.25088156 3.00571125-0.68444437 3.56836875-3.13724063 4.05795282-3.33940781 0.66739406-4.73021906 3.52939594-4.73022 9.73324218 0 4.16025469-0.03410062 4.20166219-3.60003281 4.49882344-3.40517344 0.28011094-3.61708313 0.49202062-3.89719406 3.89719406-0.25331719 3.05686125-0.64060125 3.60003281-2.562405 3.60003282-4.11641156 0-5.30018344 0.99134906-5.30018344 4.44523687 0 2.88635906-0.35074781 3.35158687-2.91315281 3.86309344-3.40273781 0.68200875-4.76675531 2.76944344-4.76675532 7.29749625 0 3.52696031-3.18352031 7.43146219-6.06013687 7.43146219-1.24466625 0-1.61733562 0.8744325-1.61733563 3.7802775 0 3.67797656-0.09986531 3.79002094-3.60003281 4.07987531-3.40517344 0.28254656-3.61708313 0.49445625-3.89719406 3.89719406-0.27280313 3.29069344-0.54560719 3.60003281-3.16647 3.60003281-2.31883031 0-3.12749812 0.59919375-4.22358469 3.12019125-1.15210781 2.64765656-1.36158187 2.78892937-1.39324594 0.93532688-0.05358656-3.06660469-3.3540225-4.05551719-13.54031437-4.05551813-8.2498725 0-8.57626219-0.082815-8.59087688-2.16050625-0.03410062-5.22467531 1.61246438-5.03955938-44.437755-5.03955937-45.82856625 0-45.77741531-0.00487125-45.77741531 4.91777156 0 2.21409375-0.23383125 2.28229406-7.67990812 2.28229406h-7.67990813l-3.83873625 3.83873625c-3.09583312 3.09583312-4.53779531 3.84604312-7.43876906 3.86552907-3.14211281 0.02435719-3.89475844 0.50663531-5.92617 3.79732875-2.20678594 3.57811125-2.59894125 3.78514969-7.6774725 4.05308156l-5.35377094 0.28498312-0.29959594 3.59759719c-0.28985344 3.5001675-0.40189781 3.60003281-4.07987531 3.60003281-3.770535 0-3.78027844 0.00974344-3.78027844 3.84117188v3.83873625h-7.67990812v7.67990812h-3.83873625c-3.82899281 0-3.84117187 0.00974344-3.84117188 3.7802775 0 3.67797656-0.09742969 3.79002094-3.59759718 4.07987532-3.40517344 0.28254656-3.61708313 0.49445625-3.89719407 3.89719406-0.24601031 2.96673937-0.66739406 3.60246844-2.40164531 3.6146475-3.85578656 0.02679281-4.7911125 1.47119062-5.37812812 8.29858781-0.55047844 6.43280625-0.62111531 6.57164344-3.43927407 6.89316188-3.82412156 0.43356281-4.291785 1.40786156-4.30883437 9.03174656-0.01217906 5.8336125-0.20460281 6.479085-1.93398281 6.47908594-1.89501094 0-1.91936813 0.64060125-1.91936813 52.31495812s0.02435719 52.31495812 1.91936813 52.31495813c1.74399469 0 1.91936813 0.63816563 1.91936812 7.00520625 0 7.72618687 0.85251094 9.31185844 4.99327969 9.31185843 2.57945531 0 2.68662844 0.18998813 2.68662844 4.73752594 0 6.70317375 1.20569437 9.27775781 4.66445343 9.96951 2.53317656 0.50663531 2.93263875 1.03275656 3.19569938 4.21627688 0.28254656 3.43196625 0.49445625 3.65118375 3.8436075 3.92885906 3.33210094 0.27767531 3.56349656 0.50907094 3.84117187 3.83873531 0.27523969 3.33210094 0.50663531 3.56349656 3.83873625 3.84117188 3.32966531 0.27767531 3.56349656 0.50907094 3.83873625 3.83873625 0.27767531 3.34184344 0.50176406 3.56349656 3.89475844 3.8436075 3.38081625 0.28011094 3.60003281 0.49202062 3.60003281 3.49773187 0 3.37837969 1.21056562 4.36242187 5.35864219 4.36242188 1.9997475 0 2.32126594 0.45304875 2.32126594 3.2712075 0 3.19082719 0.11204438 3.28338563 4.76188406 3.92398687 3.29800031 0.45304875 4.92264281 1.16915813 5.29044094 2.32613719 0.61137188 1.92180375 7.9064325 5.83848375 10.87804312 5.83848469 1.22030906 0 2.4893325 1.00352719 3.25415625 2.57701875 1.45657594 3.00083906 3.8119425 3.77297063 14.30513813 4.68881156 6.93944156 0.604065 7.58491406 0.83789625 7.58491406 2.74508625 0 4.39408594-0.08037937 4.38677906 45.68485688 4.38677906 46.7297925 0 44.54492812 0.23383125 44.54492812-4.74726937 0-1.48824094 1.3956825-1.82193844 10.76843438-2.562405l10.76843437-0.85007532 0.86712563-3.03737531c0.81841031-2.87661656 1.17890156-3.07634719 6.7494525-3.70720594 6.72996656-0.76482469 8.28397312-1.68066469 8.28397312-4.89097875 0-1.80975938 0.50907094-2.28229406 2.46253969-2.28229406 3.999495 0 6.17461687-1.68310031 6.17461687-4.77406312 0-2.52830438 0.33613313-2.81815875 3.59272594-3.08609063 2.58432656-0.21434531 3.68528437-0.79405313 3.9264225-2.06551219 0.39946219-2.10935625 3.51478219-5.40492094 5.20031813-5.50235156 2.2603725-0.13153031 6.9589275-3.40517344 7.9064325-5.50722187 1.22761594-2.72316469 3.15429187-2.69637094 3.54644718 0.04871437 0.4165125 2.92776656 4.78624125 4.864185 12.08373657 5.35133531 5.13698906 0.34344 6.29640375 0.77456719 7.90886812 2.93020219 1.04006344 1.38837562 2.3431875 3.06660469 2.89853813 3.72669188 0.61624406 0.73072406 3.427095 1.1983875 7.20980906 1.1983875 5.78733281 0 6.20140969 0.146145 6.21602437 2.16050718 0.02679281 4.07013187 1.43465438 4.94943656 8.56895532 5.35377 6.70560938 0.37754063 6.77381063 0.40920562 6.77381062 3.09826875 0 3.48555281 0.57970781 3.78514969 8.58844125 4.45741594 6.62279438 0.55534969 6.67150875 0.57970781 6.96136313 3.54401063 0.20947406 2.16781406 0.81597469 3.03493969 2.20922156 3.17134218 13.19930906 1.28850937 12.82663969 1.16185125 13.14328687 4.43549344l0.29472563 3.05686219 7.3851825 0.28011094 7.38274687 0.27767437 0.29472563 3.56106094 0.29716125 3.56106187 7.43876906 0.28011c7.41197625 0.28011094 7.43876906 0.28985344 7.43876906 2.9277675 0 4.03846688 1.62951469 4.95187219 8.83201594 4.95187219 6.26961094 0 6.52780031 0.09012281 6.52780031 2.33100938 0 3.97270219 2.36023781 5.34646312 9.187635 5.34646312 5.75323313 0 6.16974563 0.146145 6.18435938 2.16050625 0.02679281 3.96295875 1.45901156 4.92020719 7.99655531 5.33672063l6.22333125 0.39459093 0.32151844 24.70577438c0.34587562 26.47656187 0.60893625 27.87711656 5.23929094 27.87711562 2.20191469 0 2.28229406 0.25575375 2.28229406 7.229295 0 8.52267656 1.761045 13.511085 5.23198312 14.83125938 2.0630775 0.78431062 2.447925 1.53451969 2.447925 4.79354906 0 2.60868469 0.42138375 3.86309344 1.29825282 3.86309344 2.93507437 0 6.37921969 4.59625312 6.37921875 8.51293312 0 5.69964656 0.73072406 6.8444475 4.3648575 6.84444657 3.00327563 0 3.21762094 0.2192175 3.49773187 3.60003375 0.28254656 3.40273781 0.49202062 3.6146475 3.89719406 3.89719406 3.5001675 0.28985344 3.60003281 0.40189781 3.60003282 4.07987437 0 3.77297063 0.00974344 3.78027844 3.83873625 3.78027844h3.84117187v3.84117188c0 3.82899281 0.00974344 3.83873625 3.78027844 3.83873625 3.67797656 0 3.79002094 0.09986531 4.07987437 3.60003281 0.28254656 3.40760906 0.49932844 3.62439 4.09936125 4.07987531 3.07878375 0.38971969 3.90693656 0.93532688 4.35755063 2.87905219 0.63816563 2.740215 5.00545875 4.65958219 10.80009844 4.74483375 3.07147594 0.04627875 3.60003281 0.37023375 3.61221187 2.21409281 0.031665 4.48664438 1.21787344 5.02007344 11.94977156 5.36838469 9.19981406 0.29716125 10.11321844 0.49202062 10.11321844 2.15807156 0 1.78053094 1.4273475 1.83411656 49.43590594 1.83411656 47.61396844 0 49.43590594-0.06576469 49.43590687-1.79270906 0-1.59784969 1.03275656-1.84142437 9.56030344-2.25062906 9.9792525-0.48227813 12.19090969-1.33478906 12.69754594-4.90559344 0.23870344-1.66361437 1.04493469-2.15319938 3.94590844-2.39190281 2.70611437-0.22165313 3.85335094-0.84276844 4.44767343-2.39920969 1.38350344-3.6146475 4.16269031-5.31967031 9.19007063-5.6363175 4.65958219-0.29472562 4.81790625-0.40189781 5.68259531-3.90206531 0.79648875-3.2298 1.20569437-3.60003281 3.97513875-3.60003281 3.26146406 0 4.25524875-1.2495375 4.25524875-5.35864219 0-1.99731188 0.45061313-2.32126594 3.25659281-2.32126594 3.43927406 0 4.42087969-1.18864406 4.42087875-5.35620562 0-2.01192656 0.4481775-2.32126594 3.34915125-2.32126688 3.16403437 0 3.38081625-0.21190969 3.96295969-3.84117187 0.50419969-3.15916313 0.99622031-3.83873625 2.77187906-3.83873625 3.15429187 0 4.04577469-1.64412844 4.81303407-8.87829469l0.68444531-6.479085h3.249285c2.93263875 0 3.24684938-0.26549625 3.24685031-2.74752188 0-8.64446344 1.07172844-11.58440906 4.4476725-12.22013906l3.23223563-0.604065v-21.61968375l3.83873625-0.61380844 3.84117187-0.61380843v-35.2915275c0-38.3751825-0.15832313-39.55895531-5.30262-39.55895532-2.2920375 0-2.31639469-0.10230094-2.58676219-10.79766281l-0.27036843-10.80009937-3.05442563-0.89879063c-3.3223575-0.97917-4.10179688-2.61842719-4.14564-8.70048562-0.03410062-4.72291219-0.74046656-5.906685-4.01898187-6.72996657-2.0630775-0.51637781-2.68419281-1.37132531-3.19326282-4.39408593-0.5943225-3.50747437-0.85007531-3.75348469-3.90937312-3.75348563-3.08121937 0-3.27607875-0.19242375-3.27607875-3.24441375 0-2.48202562-0.896355-4.16756156-3.81681469-7.17814406-2.10204937-2.16294281-4.44280125-5.4268425-5.20518937-7.25365313-1.11557156-2.66957813-2.20191469-3.55375406-5.5413225-4.50613031-4.78380562-1.36645406-7.3851825-3.30287156-8.56164844-6.3743475-0.64060125-1.67579344-1.58567062-2.16050719-4.20896906-2.16050719-3.06416906 0-3.38325188-0.25331719-3.38325188-2.68662843 0-3.48311719-1.59054187-4.99327969-5.2612125-4.99327969-2.35536656 0-3.16159875-0.54560719-3.96783-2.67932063-1.09852125-2.90828063-6.05770125-4.99815094-11.86208437-4.99815187-2.12884219 0-3.67554094-0.718545-4.90072219-2.27985844-3.23710687-4.11153937-7.52889188-5.40004969-18.00747188-5.40004969h-9.63337687l-0.29959594-3.12019031c-0.38971969-4.01898094-2.72316469-4.33562813-33.03846281-4.46472281-25.77263156-0.10960875-33.89828062 0.50176406-34.70938406 2.61842719-1.49311219 3.89475844-3.91424438 4.96648688-11.2190475 4.96648593-11.0412375 0-16.80908531 1.53208406-17.93683594 4.76431969-0.82815375 2.37241688-1.50529125 2.71098563-6.47421375 3.23223563-7.50209812 0.78431062-8.75894344 1.39081125-9.38980125 4.55241-0.46035562 2.29690875-1.06929281 2.7499575-4.03116094 2.99840343-3.27851437 0.27280313-3.50747437 0.50907094-3.78758531 3.88988719-0.27767531 3.34428-0.51637781 3.60003281-3.36132938 3.60490406-6.25743187 0.01217906-10.28372063 1.79758031-10.89022218 4.82764969-0.45304875 2.26524375-1.19107969 2.92045969-3.83142844 3.41735156-3.40030219 0.63816563-5.13698906 2.69393531-5.13698906 6.08692969 0 1.44683344-0.61624406 1.98269719-2.28229407 1.98269813-2.93020313 0-4.10179688 1.47606187-4.94943656 6.23794593-1.09608562 6.14295188-3.60734062 8.15974969-10.15706156 8.15974969h-5.53401563l-0.29716125-3.60003281-0.29716125-3.60003281-7.3851825-0.27767532-7.38274687-0.28011093-0.29472563-3.56106094-0.29716125-3.55862531-7.43876906-0.28254657-7.43876906-0.28011093v-3.21518532c0-3.90206531-1.010835-4.38190781-9.1973775-4.38190687h-6.16243781v-3.24928594c0-3.8022-1.3128675-4.39652156-9.77708625-4.41844312-5.43902156-0.01217906-5.4585075-0.02192156-5.76054-3.09339844-0.34587562-3.55862531-2.12640656-4.35024281-10.13757563-4.50125906-4.91533594-0.09499406-5.03955938-0.16563094-5.03955937-2.92045969 0-3.58054688-0.28498219-3.7291275-8.52024-4.49638781-6.24768938-0.57970781-6.83957531-0.82084687-6.83957532-2.77918594 0-3.15916313-1.76835188-4.13102531-8.82470906-4.8544425-5.94322125-0.60893625-6.37678406-0.81597469-6.87124031-3.29069344-0.56996437-2.85713062-1.54426313-3.28338563-10.05476063-4.39408594-4.09692562-0.53342813-5.27826188-1.09852125-5.94078468-2.83764468-0.91584094-2.41138875-4.48177313-3.80707125-12.22257563-4.78380563l-5.03955844-0.63573v-3.63900469c0-2.83033688 0.42625594-3.74861344 1.91936813-4.13833312 1.77322312-0.46522781 1.91936813-1.31043187 1.91936812-11.03393063v-10.53216656l20.58205594-0.39702656c21.99966-0.42625594 24.53283656-1.0205775 24.53283656-5.74592531 0-1.65874312 1.19107969-1.77322312 18.9574125-1.82680969 24.48168563-0.07063688 26.5423275-0.4165125 26.93935407-4.51343813l0.29959687-3.11044781h43.21501031l3.44658094-3.83873625 3.44658094-3.83873625 19.76121-0.05602219c25.07113594-0.07063688 27.1463925-0.39946219 28.35939375-4.50856687l0.91827656-3.11531906h21.32008688c21.67327031 0 24.35746312-0.25818937 24.35746312-2.33588063 0-4.55971688 3.49042406-5.3440275 23.79967594-5.3440275 21.5319975 0 26.56181344-0.97917 27.6676425-5.385435l0.57483562-2.2920375h21.90466688c23.77288406 0 24.92255625-0.24844594 24.92255531-5.34889875v-2.33100844h43.83369l3.08609063-3.84117187 3.08609062-3.83873625h21.49058906c23.75096156 0 25.92364781-0.38241188 26.88089625-4.74239813l0.6454725-2.93751h22.88383688v2.32126594c0 4.16999719 0.98160562 5.35864219 4.42331531 5.35864219h3.25659281v6.17218031c0 6.79816781 1.37376094 9.187635 5.29044 9.187635 1.93398281 0 2.31639469 0.53586375 2.56971282 3.59759719 0.28254656 3.39299437 0.50176406 3.61708313 3.8436075 3.89475844 3.33210094 0.27767531 3.56349656 0.50907094 3.83873625 3.84117187 0.27767531 3.33940781 0.50176406 3.56106094 3.89475843 3.84117188 3.38081625 0.28011094 3.60003281 0.49445625 3.60003282 3.49773187 0 3.37837969 1.21056562 4.3648575 5.35864218 4.3648575 1.76348062 0 2.32370156 0.51881437 2.33588063 2.15807156 0.02435719 3.80463562 1.34940375 4.6254825 8.41550344 5.21736844 6.77381063 0.56752875 6.82739719 0.59675813 7.11725062 3.51965344 0.35074781 3.56349656 2.16781406 4.23089156 11.91567 4.36729219 7.07097187 0.09742969 7.572735 0.36779812 10.93650094 5.85553406 0.75264562 1.22274469 5.60952375 1.47849844 32.35645406 1.70258719 35.01628875 0.29229 39.11321344-0.18998813 41.3638425-4.86174938 1.14236531-2.3748525 1.72938-2.60137688 6.72022406-2.61355594 8.47152562-0.02192156 9.78682875-0.61380844 9.78682875-4.41844406v-3.249285h5.82143344c7.29749625 0 9.53594625-1.12044375 9.53594719-4.77406312 0-2.52830438 0.3336975-2.81572312 3.60003281-3.08609063 3.39299437-0.28011094 3.61708313-0.50176406 3.89475844-3.8436075 0.27523969-3.32966531 0.50907094-3.56106094 3.83873625-3.83873625 3.33210094-0.27767531 3.56349656-0.50907094 3.83873531-3.83873625 0.27767531-3.33210094 0.50907094-3.56349656 3.84117188-3.84117187 3.32966531-0.27523969 3.56106094-0.50907094 3.83873625-3.83873625 0.27767531-3.33210094 0.50907094-3.56349656 3.84117187-3.84117188l3.54401156-0.29472469 0.29716032-5.26608375c0.31421156-5.55593719 1.89257531-8.24013 5.70208218-9.69670593 1.97539031-0.75508125 2.16050719-1.44439781 2.16050719-8.05014094 0-6.5838225 0.16806656-7.22198813 1.91936813-7.22198813 1.89257531 0 1.91936813-0.64060125 1.91936812-45.1148925 0-44.47672688-0.02679281-45.11732813-1.91936812-45.11732812-1.66361437 0-1.93398281-0.66983062-2.01679782-5.03955938-0.15101625-8.01116906-0.94019812-9.7917-4.50125906-10.14001125-2.87905219-0.28011094-3.08121937-0.54073594-3.08121937-3.97513781 0-3.88745062-1.05467812-4.84226344-5.35864219-4.84226437-1.99244062 0-2.32126594-0.45304875-2.32126594-3.21518438 0-5.37812812-1.76591625-9.02200406-4.9055925-10.11565406a6.14051625 6.14051625 0 0 1-3.83873625-3.84117188c-1.125315-3.22492781-4.75457719-4.90559344-10.59549656-4.90559343-3.67310531 0-3.6974625-0.02435719-3.6974625-3.83873625v-3.84117188h-3.83873625c-3.427095 0-3.84117187-0.25088156-3.84117188-2.33100937 0-3.95078062-2.36511-5.34646312-9.06584812-5.34646313-5.96270719 0-6.06013688-0.04384313-6.63010125-2.89610156-0.94019812-4.698555-2.22383625-4.8227775-48.84889125-4.76431969-23.76314062 0.031665-43.26129-0.06820125-43.32461906-0.22165312-1.03519219-2.44061812-2.58189094-4.29422063-4.20653344-5.03468813-1.18133719-0.54073594-2.24819344-2.18242875-2.58676313-3.98244469-0.63085875-3.36863719-1.92180375-4.78867688-4.84469906-5.32454156-1.18620844-0.2192175-2.04602719-1.26658781-2.25063-2.74508625-0.45061313-3.23710687-1.6879725-4.55241-4.95917906-5.270955-2.23845094-0.49202062-2.81085094-1.17890156-3.05199-3.66092625-0.24601031-2.54291906-0.85981875-3.23710687-3.656055-4.1358975-2.66470687-0.85494656-3.427095-1.64900062-3.68528438-3.83629969-0.36536156-3.07634719-1.56374906-4.16756156-4.60599656-4.18948406-1.57105594-0.00974344-2.19704344-0.781875-2.66714156-3.28095-0.61380844-3.27851437-2.01192656-4.41113625-5.43902156-4.41113625-1.37619656 0-1.84142437-0.67957313-1.84142438-2.68906406 0-3.41004469-1.58079938-4.99084406-4.99084406-4.99084406-2.30421562 0-2.68662844-0.3848475-2.68662844-2.68662844 0-3.41248031-1.58079938-4.99327969-4.99327969-4.99327969-2.41382438 0-2.68662844-0.32882531-2.6866275-3.25659281 0-3.43927406-1.18864406-4.42087969-5.35864218-4.42087969-1.99731188 0-2.32126594-0.45304875-2.32126594-3.25902844 0-3.43927406-1.18864406-4.42087969-5.35620656-4.42087968-2.01192656 0-2.32126594-0.4481775-2.32126594-3.34915125 0-3.16403437-0.21190969-3.38081625-3.84117188-3.96052313-3.51965344-0.56509312-3.84117187-0.86469-3.86552906-3.61221187-0.01948594-2.42113219-0.72341625-3.427095-3.66092719-5.23685438-2.83764469-1.74886594-3.89232281-3.19326375-4.79598468-6.57164344-0.91827656-3.43927406-1.75130156-4.55241-4.04577375-5.41953562-1.95834-0.74046656-3.1250625-1.9997475-3.61951969-3.90937219-0.71367375-2.75239313-1.78783781-3.74130656-5.21006063-4.79842031-1.00352719-0.30933937-1.67822906-1.468755-1.67822906-2.87905219a5.3123625 5.3123625 0 0 0-5.34889969-5.37812812c-1.91206125 0-2.33100937-0.48227813-2.33100843-2.68906407 0-3.39299437-1.57836375-4.99084406-4.93238625-4.99084406-2.34805969 0-2.66227031-0.38728406-2.9277675-3.60003281-0.28254656-3.39299437-0.50176406-3.61708313-3.8436075-3.89475844-3.33210094-0.27523969-3.56349656-0.50907094-3.83873625-3.83873625-0.26549625-3.18108469-0.59919375-3.57567563-3.25902844-3.83386406-2.53074-0.24601031-3.08852625-0.80623219-3.83873625-3.83873625-0.76238812-3.08609063-1.28607375-3.59029031-3.99705938-3.85335094-2.55022594-0.24601031-3.12019125-0.71123813-3.12019125-2.55996937 0-4.1042325-0.99378469-5.29774781-4.42087875-5.29774782-2.80597969 0-3.25659281-0.32151844-3.25659281-2.32126593 0-4.14807562-0.98647687-5.35864219-4.3648575-5.35864219-3.00327563 0-3.21762094-0.2192175-3.49773187-3.59759719-0.26306062-3.19326375-0.62355094-3.64387687-3.17621344-3.98000906-2.82790125-0.375105-2.83520906-0.39215531-0.48227719-0.99378469 2.16781406-0.55534969 2.48689688-1.28850937 3.28338563-7.53863437 0.85981875-6.73240313 0.95968406-6.9272625 3.56593218-6.9272625 3.51721781 0 4.67176125-2.30665219 4.67176219-9.33621563 0-5.51452969 0.05845781-5.64118875 3.11288344-6.542415 3.833865-1.13018625 4.43062219-3.69502687 4.51100156-19.42020469 0.05358656-10.65882563 0.09012281-10.83663562 2.47228313-11.74273312 3.33940781-1.26902344 4.12858969-3.98488125 4.7911125-16.50218063 0.95237719-18.03913688-0.24357469-25.89928969-4.08961782-26.89551093l-3.12019125-0.80623125v-13.33083938c0-15.61800469-0.13153031-16.12707562-4.41113625-16.93087219l-3.26633531-0.61380843-0.00243656-6.85175438c-0.00243562-7.96976156-2.14102125-13.39904063-5.46581438-13.87157531-1.72938-0.24601031-2.16050719-1.0205775-2.39920968-4.31857781-0.28254656-3.86552906-0.42625594-4.03116-3.77540719-4.31127094-3.41735156-0.28498219-3.49042406-0.37754063-3.93373031-4.98597281-0.51637781-5.39030625-2.88392344-9.60171187-5.3951775-9.60171188-1.1983875 0-1.9997475-1.10095687-2.61842719-3.60003281-0.71123813-2.88392344-1.49067656-3.77784281-3.91911563-4.49151563-2.21652937-0.65521594-3.25415719-1.68553687-3.86309437-3.84117187-0.69418781-2.45523187-1.50529125-3.09583312-4.88123531-3.84847969-2.59407-0.57727219-4.25524875-1.54913437-4.62061032-2.69880656-0.31177594-0.98647687-1.61246438-2.27011594-2.88636-2.84982375-1.27389562-0.58214344-2.31639469-1.41760406-2.31639468-1.86090938 0-0.44330625-1.70015063-0.80623219-3.7802775-0.80623218-3.67797656 0-3.79002094-0.09986531-4.07987532-3.60003282l-0.29716125-3.60003375-7.3851825-0.28011-7.38274687-0.27767531-0.29716125-3.56106094-0.29472469-3.56106093-7.43877-0.28011094c-6.64958719-0.25088156-7.43876906-0.47984156-7.43876906-2.15807156 0-1.84386-1.01814187-1.88039625-52.79479969-1.88039625s-52.79480063 0.03653625-52.79480062 1.88039625m15.74466375 278.86371937c1.16915813 4.64983969 2.53804781 4.82521312 37.52997843 4.82521313 35.19653344 0 36.95514281-0.22896 36.95514282-4.83252v-2.36511h23.9994075v3.38325187c0 2.70611437 0.47009906 3.56106094 2.34805968 4.27717031 2.82303 1.07172844 5.0834025 4.29909188 5.91155625 8.44473282 0.66495844 3.32722969 1.81463062 4.62061031 4.57433157 5.14916718 1.05711375 0.20216719 2.24088656 1.72207219 2.87905218 3.70233469 0.82571813 2.55753375 1.82924531 3.57811125 4.20409782 4.27717031 2.51125406 0.74046656 3.12019125 1.42003969 3.12019125 3.48311719 0 2.96430281 1.41273281 4.39895813 4.79842031 4.86662063 1.92180375 0.26549625 2.49420375 0.99865594 2.87905125 3.69259125 0.41894813 2.92533094 0.86225438 3.39543 3.44414531 3.64874812 2.53074 0.24601031 3.08852625 0.80379656 3.83873625 3.83873625 0.76238812 3.083655 1.28607375 3.59029031 3.99706031 3.85091438 2.55022594 0.24601031 3.12019125 0.71367375 3.12019032 2.56240593 0 4.08474656 0.99865594 5.29531219 4.36242187 5.29531219 3.00571125 0 3.21762094 0.22165313 3.49773188 3.60003281 0.28011094 3.39299437 0.50176406 3.61708313 3.8436075 3.89475844 3.32966531 0.27767531 3.56349656 0.50907094 3.83873625 3.83873625 0.27767531 3.33210094 0.50907094 3.56349656 3.84117187 3.84117188 3.32966531 0.27523969 3.56106094 0.50907094 3.83873625 3.83873625 0.27767531 3.32966531 0.50907094 3.56349656 3.83873531 3.83873531 3.33210094 0.27767531 3.56349656 0.50907094 3.84117188 3.84117187 0.27767531 3.34184344 0.49932844 3.56106094 3.89232281 3.84117188 3.5001675 0.28985344 3.60003281 0.40433344 3.60003281 4.07987531 0 2.90828063 0.375105 3.78271406 1.61977125 3.78271406 2.20191469 0 6.06013688 3.77297063 6.06013688 5.92617094 0 0.96455531 0.40189781 1.75373719 0.89391937 1.75373719 0.49445625 0 1.16428687 0.84033281 1.49067657 1.87065281 0.32638969 1.02788531 1.46631937 2.1458925 2.53561125 2.48689688 1.06929281 0.33856875 2.73290719 2.46010406 3.70233468 4.72047656 1.17159375 2.73290719 2.52343312 4.29909188 4.04090344 4.67906906 1.51990594 0.38241188 2.58676219 1.62220688 3.2078775 3.72669094 0.69905906 2.37972375 1.69040813 3.37837969 4.04577469 4.07256844 2.30421562 0.6771375 3.12019125 1.47362625 3.12019125 3.03981093 0 3.94347281 1.03032094 5.15891062 4.36485656 5.15891063 3.00327563 0 3.21762094 0.22165313 3.49773188 3.60003281 0.27280313 3.30774375 0.56996437 3.63900469 3.656055 4.07987531 2.98622531 0.42625594 3.41248031 0.85251094 3.84117187 3.83873625 0.41894813 2.94968906 0.85007531 3.39543 3.52452563 3.656055 2.72316469 0.26306062 3.11044781 0.69175219 3.68284781 4.07987532 0.59919375 3.541575 0.85007531 3.78271406 3.91424437 3.78271406 2.82546563 0 3.27607875 0.32151844 3.27607875 2.32126594 0 4.14807562 0.98404125 5.35864219 4.3648575 5.35864125 3.00327563 0 3.21518531 0.2192175 3.49529532 3.60003375 0.28011094 3.3856875 0.50907094 3.61708313 3.8022 3.89232187 4.09448906 0.34100438 4.406265 1.57592812 3.86309437 15.30622969-0.29229 7.38761812-0.45304875 7.91861156-2.39921062 7.93322625-3.99462375 0.02922938-4.87879969 1.46631937-5.2806975 8.56895531l-0.38241282 6.77380969-18.37039781 0.05602219c-20.41398937 0.05845781-24.66193125 0.84763969-25.5729 4.74483375l-0.56022187 2.39921062-22.51603875 0.54317156c-12.38333438 0.29716125-22.603725 0.62111531-22.71089813 0.718545-0.10960875 0.09742969-0.48227813 1.69040813-0.82815375 3.53913938l-0.63085875 3.35889375-21.7292925 0.00487125c-24.65462344 0.00730688-28.28145 0.59188594-29.75507625 4.81547062l-0.99622031 2.85956625H609.02829219c-23.92390031 0-23.85569906-0.01217906-24.68385282 4.39408594l-0.60893625 3.24928594-22.21400625 0.25818937-22.21400625 0.25575282-0.29472468 3.541575-0.29472563 3.541575-24.75692531 0.29716125c-26.52284156 0.32151844-27.92826656 0.58214344-27.92826656 5.20031812v2.26280906l-22.78884188 0.25818844-22.78884187 0.25818938-0.49445719 2.87905218c-0.59919375 3.5001675-4.22114813 4.00923844-29.85737719 4.19922657-17.47404375 0.13153031-21.67570594 0.97673437-22.56962531 4.53535968-0.57483656 2.28960187-0.66495844 2.30421562-14.15412188 2.41138875-7.46556187 0.05845781-17.67621094 0.38241188-22.69384781 0.72098063l-9.11699812 0.61137281-0.3020325 3.12019031-0.29959688 3.12019125h-18.10003031c-9.95489531 0-18.78203906 0.260625-19.61750063 0.58214344-1.2495375 0.47984156-1.51747031-0.20216719-1.51747031-3.83873625v-4.42331531h7.67990813v-3.83873625c0-3.56593219 0.18998813-3.84117187 2.68662843-3.84117188 3.78027844 0 4.99084406-1.62951469 4.99084407-6.7177875 0-4.11153937 0.26306062-4.57676719 3.81437812-6.76650375 3.12993375-1.93154719 3.81925031-2.89853812 3.83873625-5.38787062 0.02435719-2.78892937 0.34100438-3.08852625 3.86552906-3.68528438 3.59759719-0.60650063 3.84117187-0.85251094 3.84117188-3.90450093 0-2.77431469 0.39215531-3.34428 2.63791406-3.83630063 4.78867688-1.04980688 5.03955938-1.28363812 5.03955844-4.7082975 0-2.25306563 0.4481775-3.38812312 1.33478906-3.38812312 3.20300625 0 5.47312219-3.31992187 6.04065094-8.82958032l0.5626575-5.46825 3.47093812-0.28985437c3.25659281-0.27280313 3.48798844-0.51394219 3.76809938-3.88988625 0.26549625-3.21274969 0.58214344-3.60003281 2.9277675-3.60003281 3.34671562 0 4.93482187-1.59541406 4.93482187-4.96405125 0-2.19460781 0.54317156-2.80110844 3.10557657-3.46606688 2.80841531-0.72828844 3.18352031-1.25928094 3.90206531-5.53888687 0.84763969-5.06148094 2.7182925-7.82848875 6.18923156-9.15597 1.67579344-0.64060125 2.16050719-1.58567062 2.16050625-4.20897 0-3.22492781 0.15832313-3.38325188 3.34915125-3.38325188 3.1567275 0 3.38325188-0.21678187 3.95321625-3.78758531 0.54073594-3.3856875 0.92314781-3.81925031 3.60977625-4.07987438 2.72072812-0.26306062 3.03493969-0.63573 3.30530813-3.89719406 0.23383125-2.8327725 0.87930469-3.90693656 3.020325-5.01276656 2.66957813-1.38106781 5.79951188-7.96245469 5.79951187-12.19090969 0-1.35914625 0.75021-1.74886594 3.35889375-1.74886594 3.2712075 0 3.36133031-0.09986531 3.36133031-3.78271406 0-3.67554094 0.09986531-3.79002094 3.60003282-4.07743875 3.38081625-0.28011094 3.61708313-0.50907094 3.88988718-3.79002187 0.25088156-3.00571125 0.68444437-3.56836875 3.134805-4.05795282 3.35158687-0.66983062 4.73265469-3.52939594 4.73265469-9.7917 0-3.86309344 0.21434531-4.25768438 2.32126688-4.25768437 4.12615406 0 5.35864219-0.98891344 5.35864125-4.29909281 0-2.91315281 0.26793187-3.17621344 3.83873625-3.74861344 3.60977625-0.57727219 3.84117187-0.81110344 3.84117187-3.885015 0-2.91315281 0.34100438-3.34671562 3.11775563-3.948345 3.70720594-0.80623219 4.52561625-1.84873125 4.54510218-5.79464063 0.01217906-2.15807156 0.66008719-3.30043594 2.39921063-4.23332625 1.31043187-0.70149469 2.6354775-2.07038438 2.94481687-3.03981187 0.30690375-0.97186312 0.96211969-1.76835188 1.45414032-1.76835188 0.49445625 0 0.896355-1.70015063 0.896355-3.7802775 0-3.67797656 0.09986531-3.79002094 3.60003281-4.07987531 3.40273781-0.28254656 3.6146475-0.49445625 3.89719406-3.89719406 0.2703675-3.26633531 0.55778625-3.60003281 3.08609063-3.60003281 3.06173344 0 4.77406313-2.17268531 4.77406218-6.05526563 0-1.82680969 0.62598656-2.46984656 2.82546563-2.90828062 3.05442562-0.61137188 4.83739219-4.61817469 4.84957125-10.89752907 0.00487125-2.84251594 0.260625-3.08121937 3.60490406-3.35889468 3.40517344-0.28254656 3.6146475-0.49202062 3.89719406-3.89719407 0.28254656-3.40273781 0.47984156-3.60003281 3.58785469-3.60003281 3.09826969 0 3.32722969-0.22652438 3.90450094-3.83873625 0.51150656-3.19569937 0.98647687-3.84117187 2.83520906-3.84117187 2.76457219 0 3.52208906-1.15210781 4.73265469-7.18545094 0.76482469-3.81681469 1.583235-5.18083219 4.02385312-6.72022406 1.87065281-1.17890156 3.31992187-3.05199 3.719385-4.81059938 0.75021-3.28825781 1.90231781-4.28447812 4.97622938-4.30639875 1.82437406-0.01217906 2.16050719-0.53342813 2.16050719-3.37350844 0-4.47690188 7.93078969-5.3440275 9.02443968-0.98647781" fill="#bfbfbf" p-id="11188"></path></svg>