<svg width="40" height="40" viewBox="0 0 40 40" fill="none" xmlns="http://www.w3.org/2000/svg">
<path fill-rule="evenodd" clip-rule="evenodd" d="M11.0291 4.68164C11.8025 4.68164 12.4787 5.20273 12.6752 5.95039L13.3494 8.51133H31.4275C33.1599 8.51133 34.6158 9.8125 34.8103 11.5336L37.0205 31.1082C37.231 32.9766 35.8877 34.6621 34.0193 34.873C33.8927 34.8871 33.765 34.8945 33.6377 34.8945H6.30289C4.92476 34.8945 3.79547 33.8008 3.75094 32.4234L3.11734 12.7766H3.115L2.90719 6.43945C2.87633 5.5 3.61304 4.71328 4.5525 4.68242C4.57086 4.68203 4.58961 4.68164 4.60836 4.68164H11.0291Z" fill="#1F3232"/>
<path d="M11.0291 4.68164C11.8025 4.68164 12.4787 5.20273 12.6752 5.95039L13.349 8.51133H31.4275C33.1599 8.51133 34.6158 9.8125 34.8103 11.5336L37.0205 31.1082C37.231 32.9766 35.8877 34.6621 34.0193 34.873C33.8927 34.8871 33.765 34.8945 33.6377 34.8945H6.30289C4.92476 34.8945 3.79547 33.8008 3.75094 32.4234L3.11656 12.7762L2.90719 6.43945C2.87633 5.5 3.61304 4.71328 4.5525 4.68242L4.58023 4.68164H11.0291ZM11.0291 5.10703H4.59078L4.56656 5.10781C3.86187 5.13086 3.30914 5.72109 3.33219 6.42539L3.54195 12.7625L4.17633 32.4098C4.21344 33.5574 5.15445 34.4687 6.30289 34.4687H33.6377C33.749 34.4687 33.8607 34.4625 33.9716 34.45C35.6064 34.2656 36.7822 32.7906 36.5974 31.1559L34.3873 11.5816C34.2173 10.0754 32.9431 8.93711 31.4275 8.93711H13.0209L12.9377 8.61953L12.2638 6.05898C12.1162 5.49805 11.6091 5.10703 11.0291 5.10703Z" fill="#1B3B3C"/>
<path fill-rule="evenodd" clip-rule="evenodd" d="M9.72812 12.7656H36.6539C38.0637 12.7656 39.207 13.9086 39.207 15.3188C39.207 15.4328 39.1992 15.5465 39.184 15.6594L36.9922 31.943C36.7648 33.6324 35.323 34.8934 33.6184 34.8934H6.37969C4.96953 34.8934 3.82617 33.75 3.82617 32.3398C3.82617 32.2102 3.83633 32.0801 3.85586 31.952L6.36367 15.6523C6.61914 13.9914 8.04805 12.7656 9.72812 12.7656Z" fill="#1B3B3C"/>
<path fill-rule="evenodd" clip-rule="evenodd" d="M8.98438 14.6172H20.4848C20.899 14.6172 21.2348 14.9529 21.2348 15.3672C21.2348 15.7814 20.899 16.1172 20.4848 16.1172H8.98438C8.57013 16.1172 8.23438 15.7814 8.23438 15.3672C8.23438 14.9529 8.57013 14.6172 8.98438 14.6172Z" fill="#00BEB4"/>
</svg>
