<svg width="40" height="40" viewBox="0 0 40 40" fill="none" xmlns="http://www.w3.org/2000/svg">
<path fill-rule="evenodd" clip-rule="evenodd" d="M11.0291 4.67969C11.8025 4.67969 12.4787 5.20078 12.6752 5.94844L13.3494 8.50937H31.4275C33.1599 8.50937 34.6158 9.81055 34.8103 11.5316L37.0205 31.1062C37.231 32.9746 35.8877 34.6602 34.0193 34.8711C33.8927 34.8852 33.765 34.8926 33.6377 34.8926H6.30289C4.92476 34.8926 3.79547 33.7988 3.75094 32.4215L3.11734 12.7746H3.115L2.90719 6.4375C2.87633 5.49805 3.61304 4.71133 4.5525 4.68047C4.57086 4.68008 4.58961 4.67969 4.60836 4.67969H11.0291Z" fill="#00BEB4" fill-opacity="0.1"/>
<path d="M11.0291 4.67969C11.8025 4.67969 12.4787 5.20078 12.6752 5.94844L13.349 8.50937H31.4275C33.1599 8.50937 34.6158 9.81055 34.8103 11.5316L37.0205 31.1062C37.231 32.9746 35.8877 34.6602 34.0193 34.8711C33.8927 34.8852 33.765 34.8926 33.6377 34.8926H6.30289C4.92476 34.8926 3.79547 33.7988 3.75094 32.4215L3.11656 12.7742L2.90719 6.4375C2.87633 5.49805 3.61304 4.71133 4.5525 4.68047L4.58023 4.67969H11.0291ZM11.0291 5.10508H4.59078L4.56656 5.10586C3.86187 5.12891 3.30914 5.71914 3.33219 6.42344L3.54195 12.7605L4.17633 32.4078C4.21344 33.5555 5.15445 34.4668 6.30289 34.4668H33.6377C33.749 34.4668 33.8607 34.4605 33.9716 34.448C35.6064 34.2637 36.7822 32.7887 36.5974 31.1539L34.3873 11.5797C34.2173 10.0734 32.9431 8.93516 31.4275 8.93516H13.0209L12.9377 8.61758L12.2638 6.05703C12.1162 5.49609 11.6091 5.10508 11.0291 5.10508Z" fill="#00BEB4"/>
<path fill-rule="evenodd" clip-rule="evenodd" d="M9.72812 12.7656H36.6539C38.0637 12.7656 39.207 13.9086 39.207 15.3188C39.207 15.4328 39.1992 15.5465 39.184 15.6594L36.9922 31.943C36.7648 33.6324 35.323 34.8934 33.6184 34.8934H6.37969C4.96953 34.8934 3.82617 33.75 3.82617 32.3398C3.82617 32.2102 3.83633 32.0801 3.85586 31.952L6.36367 15.6523C6.61914 13.9914 8.04805 12.7656 9.72812 12.7656Z" fill="#CAF2F0"/>
<path fill-rule="evenodd" clip-rule="evenodd" d="M8.98438 14.6172H20.4848C20.899 14.6172 21.2348 14.9529 21.2348 15.3672C21.2348 15.7814 20.899 16.1172 20.4848 16.1172H8.98438C8.57013 16.1172 8.23438 15.7814 8.23438 15.3672C8.23438 14.9529 8.57013 14.6172 8.98438 14.6172Z" fill="#00BEB4"/>
</svg>
