<svg width="40" height="40" viewBox="0 0 40 40" fill="none" xmlns="http://www.w3.org/2000/svg">
    <path
        d="M7.75 4C7.75 2.20508 9.20508 0.75 11 0.75H27C27.1212 0.75 27.2375 0.798159 27.3232 0.883885L38.1161 11.6768C38.2018 11.7625 38.25 11.8788 38.25 12V36C38.25 37.7949 36.7949 39.25 35 39.25H11C9.20507 39.25 7.75 37.7949 7.75 36V4Z"
        stroke="#D0D5DD" stroke-width="1.5" />
    <path d="M27 0.5V8C27 10.2091 28.7909 12 31 12H38.5" stroke="#D0D5DD" stroke-width="1.5" />
    <rect x="1" y="18" width="27" height="16" rx="2" fill="#444CE7" />
    <path
        d="M11.2365 25.2734H9.68111C9.6527 25.0722 9.5947 24.8935 9.5071 24.7372C9.41951 24.5786 9.30706 24.4437 9.16974 24.3324C9.03243 24.2211 8.87382 24.1359 8.69389 24.0767C8.51634 24.0175 8.32339 23.9879 8.11506 23.9879C7.73864 23.9879 7.41075 24.0814 7.13139 24.2685C6.85204 24.4531 6.63542 24.723 6.48153 25.0781C6.32765 25.4309 6.25071 25.8594 6.25071 26.3636C6.25071 26.8821 6.32765 27.3177 6.48153 27.6705C6.63778 28.0232 6.85559 28.2895 7.13494 28.4695C7.4143 28.6494 7.73745 28.7393 8.1044 28.7393C8.31037 28.7393 8.50095 28.7121 8.67614 28.6577C8.85369 28.6032 9.01113 28.5239 9.14844 28.4197C9.28575 28.3132 9.39938 28.1842 9.48935 28.0327C9.58168 27.8812 9.6456 27.7083 9.68111 27.5142L11.2365 27.5213C11.1963 27.8551 11.0956 28.1771 10.9347 28.4872C10.776 28.795 10.5618 29.0708 10.2919 29.3146C10.0244 29.5561 9.70478 29.7479 9.3331 29.8899C8.96378 30.0296 8.54593 30.0994 8.07955 30.0994C7.43087 30.0994 6.85085 29.9527 6.33949 29.6591C5.83049 29.3655 5.42803 28.9406 5.1321 28.3842C4.83854 27.8279 4.69176 27.1544 4.69176 26.3636C4.69176 25.5705 4.84091 24.8958 5.1392 24.3395C5.4375 23.7831 5.84233 23.3594 6.35369 23.0682C6.86506 22.7746 7.44034 22.6278 8.07955 22.6278C8.50095 22.6278 8.89157 22.687 9.25142 22.8054C9.61364 22.9238 9.93442 23.0966 10.2138 23.3239C10.4931 23.5488 10.7204 23.8246 10.8956 24.1513C11.0732 24.478 11.1868 24.852 11.2365 25.2734ZM16.2844 24.8189C16.256 24.5324 16.1341 24.3099 15.9187 24.1513C15.7032 23.9927 15.4109 23.9134 15.0415 23.9134C14.7906 23.9134 14.5787 23.9489 14.4059 24.0199C14.2331 24.0885 14.1005 24.1844 14.0082 24.3075C13.9182 24.4306 13.8732 24.5703 13.8732 24.7266C13.8685 24.8568 13.8957 24.9704 13.9549 25.0675C14.0165 25.1645 14.1005 25.2486 14.207 25.3196C14.3136 25.3883 14.4367 25.4486 14.5763 25.5007C14.716 25.5504 14.8652 25.593 15.0238 25.6286L15.6772 25.7848C15.9944 25.8558 16.2856 25.9505 16.5508 26.0689C16.8159 26.1873 17.0456 26.3329 17.2397 26.5057C17.4338 26.6785 17.5842 26.8821 17.6907 27.1165C17.7996 27.3509 17.8552 27.6196 17.8576 27.9226C17.8552 28.3677 17.7416 28.7536 17.5167 29.0803C17.2942 29.4046 16.9722 29.6567 16.5508 29.8366C16.1317 30.0142 15.6263 30.103 15.0344 30.103C14.4473 30.103 13.936 30.013 13.5004 29.8331C13.0671 29.6532 12.7286 29.3868 12.4847 29.0341C12.2433 28.679 12.1166 28.2398 12.1048 27.7166H13.5927C13.6093 27.9605 13.6791 28.1641 13.8022 28.3274C13.9277 28.4884 14.0946 28.6103 14.3029 28.6932C14.5136 28.7737 14.7515 28.8139 15.0167 28.8139C15.2771 28.8139 15.5032 28.776 15.695 28.7003C15.8891 28.6245 16.0394 28.5192 16.146 28.3842C16.2525 28.2493 16.3058 28.0942 16.3058 27.919C16.3058 27.7557 16.2572 27.6184 16.1602 27.5071C16.0655 27.3958 15.9258 27.3011 15.7411 27.223C15.5588 27.1449 15.3351 27.0739 15.07 27.0099L14.2781 26.8111C13.6649 26.6619 13.1808 26.4287 12.8256 26.1115C12.4705 25.7943 12.2942 25.367 12.2965 24.8295C12.2942 24.3892 12.4113 24.0045 12.6481 23.6754C12.8872 23.3464 13.2151 23.0895 13.6317 22.9048C14.0484 22.7202 14.5219 22.6278 15.0522 22.6278C15.592 22.6278 16.0631 22.7202 16.4656 22.9048C16.8704 23.0895 17.1853 23.3464 17.4102 23.6754C17.6351 24.0045 17.7511 24.3857 17.7582 24.8189H16.2844ZM22.8372 24.8189C22.8088 24.5324 22.6868 24.3099 22.4714 24.1513C22.256 23.9927 21.9636 23.9134 21.5943 23.9134C21.3433 23.9134 21.1315 23.9489 20.9586 24.0199C20.7858 24.0885 20.6532 24.1844 20.5609 24.3075C20.4709 24.4306 20.426 24.5703 20.426 24.7266C20.4212 24.8568 20.4484 24.9704 20.5076 25.0675C20.5692 25.1645 20.6532 25.2486 20.7598 25.3196C20.8663 25.3883 20.9894 25.4486 21.1291 25.5007C21.2688 25.5504 21.4179 25.593 21.5765 25.6286L22.2299 25.7848C22.5472 25.8558 22.8384 25.9505 23.1035 26.0689C23.3687 26.1873 23.5983 26.3329 23.7924 26.5057C23.9866 26.6785 24.1369 26.8821 24.2434 27.1165C24.3523 27.3509 24.408 27.6196 24.4103 27.9226C24.408 28.3677 24.2943 28.7536 24.0694 29.0803C23.8469 29.4046 23.5249 29.6567 23.1035 29.8366C22.6845 30.0142 22.179 30.103 21.5872 30.103C21.0001 30.103 20.4887 30.013 20.0531 29.8331C19.6199 29.6532 19.2813 29.3868 19.0375 29.0341C18.796 28.679 18.6693 28.2398 18.6575 27.7166H20.1454C20.162 27.9605 20.2318 28.1641 20.3549 28.3274C20.4804 28.4884 20.6473 28.6103 20.8556 28.6932C21.0663 28.7737 21.3043 28.8139 21.5694 28.8139C21.8298 28.8139 22.0559 28.776 22.2477 28.7003C22.4418 28.6245 22.5922 28.5192 22.6987 28.3842C22.8052 28.2493 22.8585 28.0942 22.8585 27.919C22.8585 27.7557 22.81 27.6184 22.7129 27.5071C22.6182 27.3958 22.4785 27.3011 22.2939 27.223C22.1116 27.1449 21.8878 27.0739 21.6227 27.0099L20.8308 26.8111C20.2176 26.6619 19.7335 26.4287 19.3784 26.1115C19.0233 25.7943 18.8469 25.367 18.8493 24.8295C18.8469 24.3892 18.9641 24.0045 19.2008 23.6754C19.4399 23.3464 19.7678 23.0895 20.1845 22.9048C20.6011 22.7202 21.0746 22.6278 21.6049 22.6278C22.1447 22.6278 22.6158 22.7202 23.0183 22.9048C23.4231 23.0895 23.738 23.3464 23.9629 23.6754C24.1878 24.0045 24.3038 24.3857 24.3109 24.8189H22.8372Z"
        fill="white" />
</svg>