<svg width="40" height="40" viewBox="0 0 40 40" fill="none" xmlns="http://www.w3.org/2000/svg">
    <path
        d="M7.75 4C7.75 2.20508 9.20508 0.75 11 0.75H27C27.1212 0.75 27.2375 0.798159 27.3232 0.883885L38.1161 11.6768C38.2018 11.7625 38.25 11.8788 38.25 12V36C38.25 37.7949 36.7949 39.25 35 39.25H11C9.20507 39.25 7.75 37.7949 7.75 36V4Z"
        stroke="#D0D5DD" stroke-width="1.5" />
    <path d="M27 0.5V8C27 10.2091 28.7909 12 31 12H38.5" stroke="#D0D5DD" stroke-width="1.5" />
    <rect x="1" y="18" width="28" height="16" rx="2" fill="#079455" />
    <path
        d="M11.2726 25.2734H9.71724C9.68883 25.0722 9.63083 24.8935 9.54324 24.7372C9.45564 24.5786 9.34319 24.4437 9.20588 24.3324C9.06857 24.2211 8.90995 24.1359 8.73002 24.0767C8.55247 24.0175 8.35952 23.9879 8.15119 23.9879C7.77477 23.9879 7.44688 24.0814 7.16752 24.2685C6.88817 24.4531 6.67155 24.723 6.51767 25.0781C6.36378 25.4309 6.28684 25.8594 6.28684 26.3636C6.28684 26.8821 6.36378 27.3177 6.51767 27.6705C6.67392 28.0232 6.89172 28.2895 7.17108 28.4695C7.45043 28.6494 7.77359 28.7393 8.14054 28.7393C8.3465 28.7393 8.53708 28.7121 8.71227 28.6577C8.88983 28.6032 9.04726 28.5239 9.18457 28.4197C9.32188 28.3132 9.43552 28.1842 9.52548 28.0327C9.61781 27.8812 9.68173 27.7083 9.71724 27.5142L11.2726 27.5213C11.2324 27.8551 11.1318 28.1771 10.9708 28.4872C10.8122 28.795 10.5979 29.0708 10.328 29.3146C10.0605 29.5561 9.74092 29.7479 9.36923 29.8899C8.99991 30.0296 8.58206 30.0994 8.11568 30.0994C7.467 30.0994 6.88699 29.9527 6.37562 29.6591C5.86663 29.3655 5.46416 28.9406 5.16824 28.3842C4.87467 27.8279 4.72789 27.1544 4.72789 26.3636C4.72789 25.5705 4.87704 24.8958 5.17534 24.3395C5.47363 23.7831 5.87846 23.3594 6.38983 23.0682C6.90119 22.7746 7.47647 22.6278 8.11568 22.6278C8.53708 22.6278 8.9277 22.687 9.28755 22.8054C9.64977 22.9238 9.97056 23.0966 10.2499 23.3239C10.5293 23.5488 10.7565 23.8246 10.9317 24.1513C11.1093 24.478 11.2229 24.852 11.2726 25.2734ZM16.3206 24.8189C16.2922 24.5324 16.1702 24.3099 15.9548 24.1513C15.7394 23.9927 15.447 23.9134 15.0777 23.9134C14.8267 23.9134 14.6148 23.9489 14.442 24.0199C14.2692 24.0885 14.1366 24.1844 14.0443 24.3075C13.9543 24.4306 13.9094 24.5703 13.9094 24.7266C13.9046 24.8568 13.9318 24.9704 13.991 25.0675C14.0526 25.1645 14.1366 25.2486 14.2432 25.3196C14.3497 25.3883 14.4728 25.4486 14.6125 25.5007C14.7522 25.5504 14.9013 25.593 15.0599 25.6286L15.7133 25.7848C16.0306 25.8558 16.3218 25.9505 16.5869 26.0689C16.8521 26.1873 17.0817 26.3329 17.2758 26.5057C17.47 26.6785 17.6203 26.8821 17.7268 27.1165C17.8357 27.3509 17.8914 27.6196 17.8937 27.9226C17.8914 28.3677 17.7777 28.7536 17.5528 29.0803C17.3303 29.4046 17.0083 29.6567 16.5869 29.8366C16.1679 30.0142 15.6624 30.103 15.0706 30.103C14.4835 30.103 13.9721 30.013 13.5365 29.8331C13.1032 29.6532 12.7647 29.3868 12.5209 29.0341C12.2794 28.679 12.1527 28.2398 12.1409 27.7166H13.6288C13.6454 27.9605 13.7152 28.1641 13.8383 28.3274C13.9638 28.4884 14.1307 28.6103 14.339 28.6932C14.5497 28.7737 14.7877 28.8139 15.0528 28.8139C15.3132 28.8139 15.5393 28.776 15.7311 28.7003C15.9252 28.6245 16.0756 28.5192 16.1821 28.3842C16.2886 28.2493 16.3419 28.0942 16.3419 27.919C16.3419 27.7557 16.2934 27.6184 16.1963 27.5071C16.1016 27.3958 15.9619 27.3011 15.7773 27.223C15.595 27.1449 15.3712 27.0739 15.1061 27.0099L14.3142 26.8111C13.701 26.6619 13.2169 26.4287 12.8618 26.1115C12.5067 25.7943 12.3303 25.367 12.3327 24.8295C12.3303 24.3892 12.4475 24.0045 12.6842 23.6754C12.9233 23.3464 13.2512 23.0895 13.6679 22.9048C14.0845 22.7202 14.558 22.6278 15.0883 22.6278C15.6281 22.6278 16.0992 22.7202 16.5017 22.9048C16.9065 23.0895 17.2214 23.3464 17.4463 23.6754C17.6712 24.0045 17.7872 24.3857 17.7943 24.8189H16.3206ZM20.2419 22.7273L21.9997 28.2528H22.0672L23.8286 22.7273H25.5331L23.026 30H21.0445L18.5338 22.7273H20.2419Z"
        fill="white" />
</svg>