<svg width="40" height="40" viewBox="0 0 40 40" fill="none" xmlns="http://www.w3.org/2000/svg">
    <path
        d="M7.75 4C7.75 2.20508 9.20508 0.75 11 0.75H27C27.1212 0.75 27.2375 0.798159 27.3232 0.883885L38.1161 11.6768C38.2018 11.7625 38.25 11.8788 38.25 12V36C38.25 37.7949 36.7949 39.25 35 39.25H11C9.20507 39.25 7.75 37.7949 7.75 36V4Z"
        stroke="#D0D5DD" stroke-width="1.5" />
    <path d="M27 0.5V8C27 10.2091 28.7909 12 31 12H38.5" stroke="#D0D5DD" stroke-width="1.5" />
    <rect x="1" y="18" width="31" height="16" rx="2" fill="#444CE7" />
    <path
        d="M7.69363 30H5.1155V22.7273H7.71493C8.44647 22.7273 9.0762 22.8729 9.60414 23.1641C10.1321 23.4529 10.5381 23.8684 10.8222 24.4105C11.1086 24.9527 11.2519 25.6013 11.2519 26.3565C11.2519 27.1141 11.1086 27.7652 10.8222 28.3097C10.5381 28.8542 10.1297 29.272 9.59703 29.5632C9.06673 29.8544 8.43226 30 7.69363 30ZM6.65314 28.6825H7.62971C8.08425 28.6825 8.46659 28.602 8.77672 28.4411C9.08922 28.2777 9.3236 28.0256 9.47985 27.6847C9.63846 27.3414 9.71777 26.8987 9.71777 26.3565C9.71777 25.8191 9.63846 25.38 9.47985 25.0391C9.3236 24.6982 9.09041 24.4472 8.78027 24.2862C8.47014 24.1252 8.0878 24.0447 7.63326 24.0447H6.65314V28.6825ZM12.3909 22.7273H14.2872L16.29 27.6136H16.3753L18.3781 22.7273H20.2744V30H18.7829V25.2663H18.7226L16.8405 29.9645H15.8248L13.9427 25.2486H13.8824V30H12.3909V22.7273ZM26.3637 25.0781C26.314 24.9053 26.2442 24.7526 26.1542 24.62C26.0642 24.4851 25.9542 24.3714 25.824 24.2791C25.6961 24.1844 25.5493 24.1122 25.3836 24.0625C25.2203 24.0128 25.0392 23.9879 24.8403 23.9879C24.4686 23.9879 24.1419 24.0803 23.8602 24.2649C23.5808 24.4496 23.363 24.7183 23.2068 25.071C23.0505 25.4214 22.9724 25.8499 22.9724 26.3565C22.9724 26.8632 23.0493 27.294 23.2032 27.6491C23.3571 28.0043 23.5749 28.2753 23.8566 28.4624C24.1383 28.647 24.471 28.7393 24.8545 28.7393C25.2025 28.7393 25.4996 28.6778 25.7458 28.5547C25.9944 28.4292 26.1838 28.2528 26.314 28.0256C26.4466 27.7983 26.5129 27.5296 26.5129 27.2195L26.8254 27.2656H24.9504V26.108H27.9937V27.0241C27.9937 27.6634 27.8588 28.2126 27.5889 28.6719C27.319 29.1288 26.9473 29.4815 26.4738 29.7301C26.0003 29.9763 25.4582 30.0994 24.8474 30.0994C24.1656 30.0994 23.5666 29.9491 23.0505 29.6484C22.5344 29.3454 22.132 28.9157 21.8431 28.3594C21.5567 27.8007 21.4134 27.1378 21.4134 26.3707C21.4134 25.7812 21.4987 25.2557 21.6691 24.794C21.8419 24.33 22.0834 23.937 22.3936 23.6151C22.7037 23.2931 23.0647 23.0481 23.4767 22.88C23.8886 22.7119 24.3348 22.6278 24.8154 22.6278C25.2274 22.6278 25.6109 22.6882 25.966 22.8089C26.3211 22.9273 26.636 23.0954 26.9106 23.3132C27.1876 23.531 27.4137 23.7902 27.5889 24.0909C27.7641 24.3892 27.8765 24.7183 27.9262 25.0781H26.3637Z"
        fill="white" />
</svg>