<svg width="40" height="40" viewBox="0 0 40 40" fill="none" xmlns="http://www.w3.org/2000/svg">
    <path
        d="M7.75 4C7.75 2.20508 9.20508 0.75 11 0.75H27C27.1212 0.75 27.2375 0.798159 27.3232 0.883885L38.1161 11.6768C38.2018 11.7625 38.25 11.8788 38.25 12V36C38.25 37.7949 36.7949 39.25 35 39.25H11C9.20507 39.25 7.75 37.7949 7.75 36V4Z"
        stroke="#D0D5DD" stroke-width="1.5" />
    <path d="M27 0.5V8C27 10.2091 28.7909 12 31 12H38.5" stroke="#D0D5DD" stroke-width="1.5" />
    <rect x="1" y="18" width="29" height="16" rx="2" fill="#155EEF" />
    <path
        d="M7.40163 30H4.82351V22.7273H7.42294C8.15447 22.7273 8.78421 22.8729 9.31214 23.1641C9.84008 23.4529 10.2461 23.8684 10.5302 24.4105C10.8166 24.9527 10.9599 25.6013 10.9599 26.3565C10.9599 27.1141 10.8166 27.7652 10.5302 28.3097C10.2461 28.8542 9.83771 29.272 9.30504 29.5632C8.77474 29.8544 8.14027 30 7.40163 30ZM6.36115 28.6825H7.33771C7.79226 28.6825 8.1746 28.602 8.48473 28.4411C8.79723 28.2777 9.03161 28.0256 9.18786 27.6847C9.34647 27.3414 9.42578 26.8987 9.42578 26.3565C9.42578 25.8191 9.34647 25.38 9.18786 25.0391C9.03161 24.6982 8.79841 24.4472 8.48828 24.2862C8.17815 24.1252 7.79581 24.0447 7.34126 24.0447H6.36115V28.6825ZM18.7821 26.3636C18.7821 27.1567 18.6318 27.8314 18.3311 28.3878C18.0328 28.9441 17.6257 29.3691 17.1096 29.6626C16.5958 29.9538 16.0182 30.0994 15.3766 30.0994C14.7303 30.0994 14.1503 29.9527 13.6365 29.6591C13.1228 29.3655 12.7168 28.9406 12.4185 28.3842C12.1202 27.8279 11.9711 27.1544 11.9711 26.3636C11.9711 25.5705 12.1202 24.8958 12.4185 24.3395C12.7168 23.7831 13.1228 23.3594 13.6365 23.0682C14.1503 22.7746 14.7303 22.6278 15.3766 22.6278C16.0182 22.6278 16.5958 22.7746 17.1096 23.0682C17.6257 23.3594 18.0328 23.7831 18.3311 24.3395C18.6318 24.8958 18.7821 25.5705 18.7821 26.3636ZM17.2232 26.3636C17.2232 25.8499 17.1462 25.4167 16.9924 25.0639C16.8408 24.7112 16.6266 24.4437 16.3496 24.2614C16.0726 24.0791 15.7483 23.9879 15.3766 23.9879C15.0049 23.9879 14.6806 24.0791 14.4036 24.2614C14.1266 24.4437 13.9112 24.7112 13.7573 25.0639C13.6058 25.4167 13.53 25.8499 13.53 26.3636C13.53 26.8774 13.6058 27.3106 13.7573 27.6634C13.9112 28.0161 14.1266 28.2836 14.4036 28.4659C14.6806 28.6482 15.0049 28.7393 15.3766 28.7393C15.7483 28.7393 16.0726 28.6482 16.3496 28.4659C16.6266 28.2836 16.8408 28.0161 16.9924 27.6634C17.1462 27.3106 17.2232 26.8774 17.2232 26.3636ZM26.3381 25.2734H24.7827C24.7543 25.0722 24.6963 24.8935 24.6087 24.7372C24.5211 24.5786 24.4086 24.4437 24.2713 24.3324C24.134 24.2211 23.9754 24.1359 23.7955 24.0767C23.6179 24.0175 23.425 23.9879 23.2166 23.9879C22.8402 23.9879 22.5123 24.0814 22.233 24.2685C21.9536 24.4531 21.737 24.723 21.5831 25.0781C21.4292 25.4309 21.3523 25.8594 21.3523 26.3636C21.3523 26.8821 21.4292 27.3177 21.5831 27.6705C21.7393 28.0232 21.9571 28.2895 22.2365 28.4695C22.5159 28.6494 22.839 28.7393 23.206 28.7393C23.4119 28.7393 23.6025 28.7121 23.7777 28.6577C23.9553 28.6032 24.1127 28.5239 24.25 28.4197C24.3873 28.3132 24.5009 28.1842 24.5909 28.0327C24.6832 27.8812 24.7472 27.7083 24.7827 27.5142L26.3381 27.5213C26.2978 27.8551 26.1972 28.1771 26.0362 28.4872C25.8776 28.795 25.6634 29.0708 25.3935 29.3146C25.1259 29.5561 24.8063 29.7479 24.4347 29.8899C24.0653 30.0296 23.6475 30.0994 23.1811 30.0994C22.5324 30.0994 21.9524 29.9527 21.4411 29.6591C20.9321 29.3655 20.5296 28.9406 20.2337 28.3842C19.9401 27.8279 19.7933 27.1544 19.7933 26.3636C19.7933 25.5705 19.9425 24.8958 20.2408 24.3395C20.5391 23.7831 20.9439 23.3594 21.4553 23.0682C21.9666 22.7746 22.5419 22.6278 23.1811 22.6278C23.6025 22.6278 23.9931 22.687 24.353 22.8054C24.7152 22.9238 25.036 23.0966 25.3153 23.3239C25.5947 23.5488 25.822 23.8246 25.9972 24.1513C26.1747 24.478 26.2884 24.852 26.3381 25.2734Z"
        fill="white" />
</svg>