<svg width="40" height="40" viewBox="0 0 40 40" fill="none" xmlns="http://www.w3.org/2000/svg">
    <path
        d="M7.75 4C7.75 2.20508 9.20508 0.75 11 0.75H27C27.1212 0.75 27.2375 0.798159 27.3232 0.883885L38.1161 11.6768C38.2018 11.7625 38.25 11.8788 38.25 12V36C38.25 37.7949 36.7949 39.25 35 39.25H11C9.20507 39.25 7.75 37.7949 7.75 36V4Z"
        stroke="#D0D5DD" stroke-width="1.5" />
    <path d="M27 0.5V8C27 10.2091 28.7909 12 31 12H38.5" stroke="#D0D5DD" stroke-width="1.5" />
    <rect x="1" y="18" width="36" height="16" rx="2" fill="#155EEF" />
    <path
        d="M7.40554 30H4.82741V22.7273H7.42685C8.15838 22.7273 8.78812 22.8729 9.31605 23.1641C9.84399 23.4529 10.25 23.8684 10.5341 24.4105C10.8205 24.9527 10.9638 25.6013 10.9638 26.3565C10.9638 27.1141 10.8205 27.7652 10.5341 28.3097C10.25 28.8542 9.84162 29.272 9.30895 29.5632C8.77865 29.8544 8.14418 30 7.40554 30ZM6.36506 28.6825H7.34162C7.79616 28.6825 8.1785 28.602 8.48864 28.4411C8.80114 28.2777 9.03551 28.0256 9.19176 27.6847C9.35038 27.3414 9.42969 26.8987 9.42969 26.3565C9.42969 25.8191 9.35038 25.38 9.19176 25.0391C9.03551 24.6982 8.80232 24.4472 8.49219 24.2862C8.18205 24.1252 7.79972 24.0447 7.34517 24.0447H6.36506V28.6825ZM18.786 26.3636C18.786 27.1567 18.6357 27.8314 18.335 28.3878C18.0368 28.9441 17.6296 29.3691 17.1135 29.6626C16.5997 29.9538 16.0221 30.0994 15.3805 30.0994C14.7342 30.0994 14.1542 29.9527 13.6404 29.6591C13.1267 29.3655 12.7207 28.9406 12.4224 28.3842C12.1241 27.8279 11.975 27.1544 11.975 26.3636C11.975 25.5705 12.1241 24.8958 12.4224 24.3395C12.7207 23.7831 13.1267 23.3594 13.6404 23.0682C14.1542 22.7746 14.7342 22.6278 15.3805 22.6278C16.0221 22.6278 16.5997 22.7746 17.1135 23.0682C17.6296 23.3594 18.0368 23.7831 18.335 24.3395C18.6357 24.8958 18.786 25.5705 18.786 26.3636ZM17.2271 26.3636C17.2271 25.8499 17.1502 25.4167 16.9963 25.0639C16.8448 24.7112 16.6305 24.4437 16.3535 24.2614C16.0765 24.0791 15.7522 23.9879 15.3805 23.9879C15.0088 23.9879 14.6845 24.0791 14.4075 24.2614C14.1305 24.4437 13.9151 24.7112 13.7612 25.0639C13.6097 25.4167 13.5339 25.8499 13.5339 26.3636C13.5339 26.8774 13.6097 27.3106 13.7612 27.6634C13.9151 28.0161 14.1305 28.2836 14.4075 28.4659C14.6845 28.6482 15.0088 28.7393 15.3805 28.7393C15.7522 28.7393 16.0765 28.6482 16.3535 28.4659C16.6305 28.2836 16.8448 28.0161 16.9963 27.6634C17.1502 27.3106 17.2271 26.8774 17.2271 26.3636ZM26.342 25.2734H24.7866C24.7582 25.0722 24.7002 24.8935 24.6126 24.7372C24.525 24.5786 24.4125 24.4437 24.2752 24.3324C24.1379 24.2211 23.9793 24.1359 23.7994 24.0767C23.6218 24.0175 23.4289 23.9879 23.2205 23.9879C22.8441 23.9879 22.5162 24.0814 22.2369 24.2685C21.9575 24.4531 21.7409 24.723 21.587 25.0781C21.4331 25.4309 21.3562 25.8594 21.3562 26.3636C21.3562 26.8821 21.4331 27.3177 21.587 27.6705C21.7433 28.0232 21.9611 28.2895 22.2404 28.4695C22.5198 28.6494 22.8429 28.7393 23.2099 28.7393C23.4158 28.7393 23.6064 28.7121 23.7816 28.6577C23.9592 28.6032 24.1166 28.5239 24.2539 28.4197C24.3912 28.3132 24.5049 28.1842 24.5948 28.0327C24.6871 27.8812 24.7511 27.7083 24.7866 27.5142L26.342 27.5213C26.3017 27.8551 26.2011 28.1771 26.0401 28.4872C25.8815 28.795 25.6673 29.0708 25.3974 29.3146C25.1299 29.5561 24.8103 29.7479 24.4386 29.8899C24.0692 30.0296 23.6514 30.0994 23.185 30.0994C22.5363 30.0994 21.9563 29.9527 21.445 29.6591C20.936 29.3655 20.5335 28.9406 20.2376 28.3842C19.944 27.8279 19.7972 27.1544 19.7972 26.3636C19.7972 25.5705 19.9464 24.8958 20.2447 24.3395C20.543 23.7831 20.9478 23.3594 21.4592 23.0682C21.9705 22.7746 22.5458 22.6278 23.185 22.6278C23.6064 22.6278 23.997 22.687 24.3569 22.8054C24.7191 22.9238 25.0399 23.0966 25.3192 23.3239C25.5986 23.5488 25.8259 23.8246 26.0011 24.1513C26.1786 24.478 26.2923 24.852 26.342 25.2734ZM28.7301 22.7273L30.1967 25.206H30.2536L31.7273 22.7273H33.4638L31.2443 26.3636L33.5135 30H31.745L30.2536 27.5178H30.1967L28.7053 30H26.9439L29.2202 26.3636L26.9865 22.7273H28.7301Z"
        fill="white" />
</svg>