<svg width="40" height="40" viewBox="0 0 40 40" fill="none" xmlns="http://www.w3.org/2000/svg">
    <path
        d="M7.75 4C7.75 2.20508 9.20508 0.75 11 0.75H27C27.1212 0.75 27.2375 0.798159 27.3232 0.883885L38.1161 11.6768C38.2018 11.7625 38.25 11.8788 38.25 12V36C38.25 37.7949 36.7949 39.25 35 39.25H11C9.20507 39.25 7.75 37.7949 7.75 36V4Z"
        stroke="#D0D5DD" stroke-width="1.5" />
    <path d="M27 0.5V8C27 10.2091 28.7909 12 31 12H38.5" stroke="#D0D5DD" stroke-width="1.5" />
    <rect x="1" y="18" width="26" height="16" rx="2" fill="#7F56D9" />
    <path
        d="M5.05691 30V22.7273H9.95748V23.995H6.59455V25.728H9.70534V26.9957H6.59455V28.7322H9.97168V30H5.05691ZM11.18 30V22.7273H14.0493C14.6009 22.7273 15.0708 22.8326 15.4591 23.0433C15.8473 23.2517 16.1433 23.5417 16.3469 23.9134C16.5528 24.2827 16.6558 24.7088 16.6558 25.1918C16.6558 25.6747 16.5516 26.1009 16.3433 26.4702C16.135 26.8395 15.8331 27.1271 15.4378 27.3331C15.0448 27.5391 14.5689 27.642 14.0102 27.642H12.1814V26.4098H13.7616C14.0576 26.4098 14.3014 26.3589 14.4932 26.2571C14.6873 26.1529 14.8317 26.0097 14.9264 25.8274C15.0235 25.6428 15.072 25.4309 15.072 25.1918C15.072 24.9503 15.0235 24.7396 14.9264 24.5597C14.8317 24.3774 14.6873 24.2365 14.4932 24.1371C14.299 24.0353 14.0528 23.9844 13.7545 23.9844H12.7176V30H11.18ZM21.5999 24.8189C21.5715 24.5324 21.4495 24.3099 21.2341 24.1513C21.0187 23.9927 20.7263 23.9134 20.357 23.9134C20.106 23.9134 19.8941 23.9489 19.7213 24.0199C19.5485 24.0885 19.4159 24.1844 19.3236 24.3075C19.2336 24.4306 19.1887 24.5703 19.1887 24.7266C19.1839 24.8568 19.2111 24.9704 19.2703 25.0675C19.3319 25.1645 19.4159 25.2486 19.5225 25.3196C19.629 25.3883 19.7521 25.4486 19.8918 25.5007C20.0315 25.5504 20.1806 25.593 20.3392 25.6286L20.9926 25.7848C21.3099 25.8558 21.6011 25.9505 21.8662 26.0689C22.1314 26.1873 22.361 26.3329 22.5551 26.5057C22.7493 26.6785 22.8996 26.8821 23.0061 27.1165C23.115 27.3509 23.1707 27.6196 23.173 27.9226C23.1707 28.3677 23.057 28.7536 22.8321 29.0803C22.6096 29.4046 22.2876 29.6567 21.8662 29.8366C21.4472 30.0142 20.9417 30.103 20.3499 30.103C19.7628 30.103 19.2514 30.013 18.8158 29.8331C18.3825 29.6532 18.044 29.3868 17.8002 29.0341C17.5587 28.679 17.432 28.2398 17.4202 27.7166H18.9081C18.9247 27.9605 18.9945 28.1641 19.1176 28.3274C19.2431 28.4884 19.41 28.6103 19.6183 28.6932C19.829 28.7737 20.067 28.8139 20.3321 28.8139C20.5925 28.8139 20.8186 28.776 21.0104 28.7003C21.2045 28.6245 21.3548 28.5192 21.4614 28.3842C21.5679 28.2493 21.6212 28.0942 21.6212 27.919C21.6212 27.7557 21.5727 27.6184 21.4756 27.5071C21.3809 27.3958 21.2412 27.3011 21.0566 27.223C20.8743 27.1449 20.6505 27.0739 20.3854 27.0099L19.5935 26.8111C18.9803 26.6619 18.4962 26.4287 18.1411 26.1115C17.786 25.7943 17.6096 25.367 17.6119 24.8295C17.6096 24.3892 17.7268 24.0045 17.9635 23.6754C18.2026 23.3464 18.5305 23.0895 18.9472 22.9048C19.3638 22.7202 19.8373 22.6278 20.3676 22.6278C20.9074 22.6278 21.3785 22.7202 21.781 22.9048C22.1858 23.0895 22.5007 23.3464 22.7256 23.6754C22.9505 24.0045 23.0665 24.3857 23.0736 24.8189H21.5999Z"
        fill="white" />
</svg>