<svg width="24" height="18" viewBox="0 0 24 18" fill="none" xmlns="http://www.w3.org/2000/svg">
    <path
        d="M1.32202e-08 2.54731L21.5 2.54731C22.8807 2.54731 24 3.4977 24 4.67006L24 15.2838C24 16.4562 22.8807 17.4066 21.5 17.4066L12 17.4066L2.5 17.4066C1.11929 17.4066 8.54054e-08 16.4562 7.9321e-08 15.2838L1.32202e-08 2.54731Z"
        fill="#FBBC1A" />
    <path
        d="M2.97454e-08 5.73144L7.49143e-08 14.4347C8.09987e-08 15.6071 1.11929 16.5575 2.5 16.5575L21.5 16.5575C22.8807 16.5575 24 15.6071 24 14.4347L24 5.51916C24 4.3468 22.8807 3.39641 21.5 3.39641L11 3.39641L11 4.45779C11 5.16121 10.3284 5.73144 9.5 5.73144L2.97454e-08 5.73144Z"
        fill="url(#paint0_linear_2323_8307)" />
    <path
        d="M8.81345e-09 1.6982C3.94591e-09 0.760312 0.89543 -4.64716e-09 2 -1.03797e-08L9 -4.67088e-08C10.1046 -5.24413e-08 11 0.760312 11 1.6982L11 2.54731L1.32202e-08 2.54731L8.81345e-09 1.6982Z"
        fill="#FBBC1A" />
    <defs>
        <linearGradient id="paint0_linear_2323_8307" x1="0" y1="0" x2="28.8004" y2="20.3231"
            gradientUnits="userSpaceOnUse">
            <stop stop-color="#FFE69C" />
            <stop offset="1" stop-color="#FFC937" />
        </linearGradient>
    </defs>
</svg>