<svg width="40" height="40" viewBox="0 0 40 40" fill="none" xmlns="http://www.w3.org/2000/svg">
    <path
        d="M7.75 4C7.75 2.20508 9.20508 0.75 11 0.75H27C27.1212 0.75 27.2375 0.798159 27.3232 0.883885L38.1161 11.6768C38.2018 11.7625 38.25 11.8788 38.25 12V36C38.25 37.7949 36.7949 39.25 35 39.25H11C9.20507 39.25 7.75 37.7949 7.75 36V4Z"
        stroke="#D0D5DD" stroke-width="1.5" />
    <path d="M27 0.5V8C27 10.2091 28.7909 12 31 12H38.5" stroke="#D0D5DD" stroke-width="1.5" />
    <rect x="1" y="18" width="19" height="16" rx="2" fill="#444CE7" />
    <path
        d="M7.9161 22.7273H9.43599V27.7983C9.43599 28.267 9.33064 28.6742 9.11994 29.0199C8.91161 29.3655 8.6216 29.6319 8.24991 29.8189C7.87823 30.0059 7.44617 30.0994 6.95375 30.0994C6.51577 30.0994 6.11805 30.0225 5.76056 29.8686C5.40545 29.7124 5.12373 29.4756 4.91539 29.1584C4.70706 28.8388 4.60408 28.4375 4.60645 27.9545H6.13699C6.14172 28.1463 6.18078 28.3108 6.25417 28.4482C6.32993 28.5831 6.43291 28.6873 6.56312 28.7607C6.6957 28.8317 6.85195 28.8672 7.03187 28.8672C7.22127 28.8672 7.38107 28.8269 7.51127 28.7464C7.64385 28.6636 7.74447 28.5429 7.81312 28.3842C7.88178 28.2256 7.9161 28.0303 7.9161 27.7983V22.7273ZM14.6526 24.8189C14.6242 24.5324 14.5023 24.3099 14.2868 24.1513C14.0714 23.9927 13.779 23.9134 13.4097 23.9134C13.1588 23.9134 12.9469 23.9489 12.7741 24.0199C12.6012 24.0885 12.4687 24.1844 12.3763 24.3075C12.2864 24.4306 12.2414 24.5703 12.2414 24.7266C12.2367 24.8568 12.2639 24.9704 12.3231 25.0675C12.3846 25.1645 12.4687 25.2486 12.5752 25.3196C12.6817 25.3883 12.8048 25.4486 12.9445 25.5007C13.0842 25.5504 13.2333 25.593 13.392 25.6286L14.0454 25.7848C14.3626 25.8558 14.6538 25.9505 14.9189 26.0689C15.1841 26.1873 15.4137 26.3329 15.6079 26.5057C15.802 26.6785 15.9523 26.8821 16.0589 27.1165C16.1678 27.3509 16.2234 27.6196 16.2258 27.9226C16.2234 28.3677 16.1098 28.7536 15.8849 29.0803C15.6623 29.4046 15.3403 29.6567 14.9189 29.8366C14.4999 30.0142 13.9945 30.103 13.4026 30.103C12.8155 30.103 12.3041 30.013 11.8685 29.8331C11.4353 29.6532 11.0967 29.3868 10.8529 29.0341C10.6114 28.679 10.4848 28.2398 10.4729 27.7166H11.9608C11.9774 27.9605 12.0473 28.1641 12.1704 28.3274C12.2958 28.4884 12.4627 28.6103 12.6711 28.6932C12.8818 28.7737 13.1197 28.8139 13.3849 28.8139C13.6453 28.8139 13.8714 28.776 14.0631 28.7003C14.2573 28.6245 14.4076 28.5192 14.5141 28.3842C14.6207 28.2493 14.6739 28.0942 14.6739 27.919C14.6739 27.7557 14.6254 27.6184 14.5283 27.5071C14.4336 27.3958 14.2939 27.3011 14.1093 27.223C13.927 27.1449 13.7033 27.0739 13.4381 27.0099L12.6462 26.8111C12.0331 26.6619 11.5489 26.4287 11.1938 26.1115C10.8387 25.7943 10.6623 25.367 10.6647 24.8295C10.6623 24.3892 10.7795 24.0045 11.0162 23.6754C11.2554 23.3464 11.5832 23.0895 11.9999 22.9048C12.4166 22.7202 12.8901 22.6278 13.4204 22.6278C13.9601 22.6278 14.4313 22.7202 14.8337 22.9048C15.2385 23.0895 15.5534 23.3464 15.7783 23.6754C16.0032 24.0045 16.1192 24.3857 16.1263 24.8189H14.6526Z"
        fill="white" />
</svg>