<svg width="40" height="40" viewBox="0 0 40 40" fill="none" xmlns="http://www.w3.org/2000/svg">
    <path
        d="M7.75 4C7.75 2.20508 9.20508 0.75 11 0.75H27C27.1212 0.75 27.2375 0.798159 27.3232 0.883885L38.1161 11.6768C38.2018 11.7625 38.25 11.8788 38.25 12V36C38.25 37.7949 36.7949 39.25 35 39.25H11C9.20507 39.25 7.75 37.7949 7.75 36V4Z"
        stroke="#D0D5DD" stroke-width="1.5" />
    <path d="M27 0.5V8C27 10.2091 28.7909 12 31 12H38.5" stroke="#D0D5DD" stroke-width="1.5" />
    <rect x="1" y="18" width="34" height="16" rx="2" fill="#444CE7" />
    <path
        d="M7.82821 22.7273H9.3481V27.7983C9.3481 28.267 9.24275 28.6742 9.03205 29.0199C8.82372 29.3655 8.53371 29.6319 8.16202 29.8189C7.79033 30.0059 7.35828 30.0994 6.86586 30.0994C6.42788 30.0994 6.03016 30.0225 5.67267 29.8686C5.31756 29.7124 5.03584 29.4756 4.8275 29.1584C4.61917 28.8388 4.51619 28.4375 4.51855 27.9545H6.04909C6.05383 28.1463 6.09289 28.3108 6.16628 28.4482C6.24204 28.5831 6.34502 28.6873 6.47523 28.7607C6.60781 28.8317 6.76406 28.8672 6.94398 28.8672C7.13337 28.8672 7.29318 28.8269 7.42338 28.7464C7.55596 28.6636 7.65658 28.5429 7.72523 28.3842C7.79389 28.2256 7.82821 28.0303 7.82821 27.7983V22.7273ZM14.5647 24.8189C14.5363 24.5324 14.4144 24.3099 14.199 24.1513C13.9835 23.9927 13.6911 23.9134 13.3218 23.9134C13.0709 23.9134 12.859 23.9489 12.6862 24.0199C12.5133 24.0885 12.3808 24.1844 12.2884 24.3075C12.1985 24.4306 12.1535 24.5703 12.1535 24.7266C12.1488 24.8568 12.176 24.9704 12.2352 25.0675C12.2967 25.1645 12.3808 25.2486 12.4873 25.3196C12.5938 25.3883 12.7169 25.4486 12.8566 25.5007C12.9963 25.5504 13.1454 25.593 13.3041 25.6286L13.9575 25.7848C14.2747 25.8558 14.5659 25.9505 14.8311 26.0689C15.0962 26.1873 15.3258 26.3329 15.52 26.5057C15.7141 26.6785 15.8644 26.8821 15.971 27.1165C16.0799 27.3509 16.1355 27.6196 16.1379 27.9226C16.1355 28.3677 16.0219 28.7536 15.797 29.0803C15.5744 29.4046 15.2525 29.6567 14.8311 29.8366C14.412 30.0142 13.9066 30.103 13.3147 30.103C12.7276 30.103 12.2162 30.013 11.7806 29.8331C11.3474 29.6532 11.0088 29.3868 10.765 29.0341C10.5235 28.679 10.3969 28.2398 10.385 27.7166H11.873C11.8895 27.9605 11.9594 28.1641 12.0825 28.3274C12.2079 28.4884 12.3749 28.6103 12.5832 28.6932C12.7939 28.7737 13.0318 28.8139 13.297 28.8139C13.5574 28.8139 13.7835 28.776 13.9752 28.7003C14.1694 28.6245 14.3197 28.5192 14.4262 28.3842C14.5328 28.2493 14.586 28.0942 14.586 27.919C14.586 27.7557 14.5375 27.6184 14.4404 27.5071C14.3457 27.3958 14.2061 27.3011 14.0214 27.223C13.8391 27.1449 13.6154 27.0739 13.3502 27.0099L12.5583 26.8111C11.9452 26.6619 11.461 26.4287 11.1059 26.1115C10.7508 25.7943 10.5744 25.367 10.5768 24.8295C10.5744 24.3892 10.6916 24.0045 10.9284 23.6754C11.1675 23.3464 11.4954 23.0895 11.912 22.9048C12.3287 22.7202 12.8022 22.6278 13.3325 22.6278C13.8722 22.6278 14.3434 22.7202 14.7458 22.9048C15.1507 23.0895 15.4655 23.3464 15.6904 23.6754C15.9153 24.0045 16.0313 24.3857 16.0384 24.8189H14.5647ZM23.8554 26.3636C23.8554 27.1567 23.705 27.8314 23.4044 28.3878C23.1061 28.9441 22.6989 29.3691 22.1828 29.6626C21.6691 29.9538 21.0914 30.0994 20.4498 30.0994C19.8035 30.0994 19.2235 29.9527 18.7098 29.6591C18.1961 29.3655 17.79 28.9406 17.4917 28.3842C17.1934 27.8279 17.0443 27.1544 17.0443 26.3636C17.0443 25.5705 17.1934 24.8958 17.4917 24.3395C17.79 23.7831 18.1961 23.3594 18.7098 23.0682C19.2235 22.7746 19.8035 22.6278 20.4498 22.6278C21.0914 22.6278 21.6691 22.7746 22.1828 23.0682C22.6989 23.3594 23.1061 23.7831 23.4044 24.3395C23.705 24.8958 23.8554 25.5705 23.8554 26.3636ZM22.2964 26.3636C22.2964 25.8499 22.2195 25.4167 22.0656 25.0639C21.9141 24.7112 21.6998 24.4437 21.4229 24.2614C21.1459 24.0791 20.8215 23.9879 20.4498 23.9879C20.0782 23.9879 19.7538 24.0791 19.4768 24.2614C19.1998 24.4437 18.9844 24.7112 18.8305 25.0639C18.679 25.4167 18.6032 25.8499 18.6032 26.3636C18.6032 26.8774 18.679 27.3106 18.8305 27.6634C18.9844 28.0161 19.1998 28.2836 19.4768 28.4659C19.7538 28.6482 20.0782 28.7393 20.4498 28.7393C20.8215 28.7393 21.1459 28.6482 21.4229 28.4659C21.6998 28.2836 21.9141 28.0161 22.0656 27.6634C22.2195 27.3106 22.2964 26.8774 22.2964 26.3636ZM31.0775 22.7273V30H29.7494L26.5853 25.4226H26.532V30H24.9944V22.7273H26.3438L29.483 27.3011H29.547V22.7273H31.0775Z"
        fill="white" />
</svg>