<svg width="40" height="40" viewBox="0 0 40 40" fill="none" xmlns="http://www.w3.org/2000/svg">
    <path
        d="M35 39.25H11C9.20507 39.25 7.75 37.7949 7.75 36V4C7.75 2.20508 9.20508 0.75 11 0.75H27C27.1212 0.75 27.2375 0.798159 27.3232 0.883883L38.1161 11.6768C38.2018 11.7625 38.25 11.8788 38.25 12V36C38.25 37.7949 36.7949 39.25 35 39.25Z"
        stroke="#D0D5DD" stroke-width="1.5" />
    <path d="M27 0.5V8C27 10.2091 28.7909 12 31 12H38.5" stroke="#D0D5DD" stroke-width="1.5" />
    <rect x="1.7" y="18" width="31" height="16" rx="2" fill="#444CE7" />
    <path
        d="M5.91921 22.7273H7.81552L9.81836 27.6136H9.90359L11.9064 22.7273H13.8027V30H12.3113V25.2663H12.2509L10.3688 29.9645H9.35316L7.47106 25.2486H7.41069V30H5.91921V22.7273ZM17.6477 30H15.0696V22.7273H17.669C18.4006 22.7273 19.0303 22.8729 19.5582 23.1641C20.0862 23.4529 20.4922 23.8684 20.7763 24.4105C21.0627 24.9527 21.206 25.6013 21.206 26.3565C21.206 27.1141 21.0627 27.7652 20.7763 28.3097C20.4922 28.8542 20.0838 29.272 19.5511 29.5632C19.0208 29.8544 18.3864 30 17.6477 30ZM16.6072 28.6825H17.5838C18.0384 28.6825 18.4207 28.602 18.7308 28.4411C19.0433 28.2777 19.2777 28.0256 19.4339 27.6847C19.5926 27.3414 19.6719 26.8987 19.6719 26.3565C19.6719 25.8191 19.5926 25.38 19.4339 25.0391C19.2777 24.6982 19.0445 24.4472 18.7344 24.2862C18.4242 24.1252 18.0419 24.0447 17.5874 24.0447H16.6072V28.6825Z M21.5 22.7273H23.1L27.5 30H25.9L21.5 22.7273Z M25.9 22.7273H27.5L23.1 30H21.5L25.9 22.7273Z"
        fill="white" />
</svg>