<svg width="40" height="40" viewBox="0 0 40 40" fill="none" xmlns="http://www.w3.org/2000/svg">
    <path
        d="M7.75 4C7.75 2.20508 9.20508 0.75 11 0.75H27C27.1212 0.75 27.2375 0.798159 27.3232 0.883885L38.1161 11.6768C38.2018 11.7625 38.25 11.8788 38.25 12V36C38.25 37.7949 36.7949 39.25 35 39.25H11C9.20507 39.25 7.75 37.7949 7.75 36V4Z"
        stroke="#D0D5DD" stroke-width="1.5" />
    <path d="M27 0.5V8C27 10.2091 28.7909 12 31 12H38.5" stroke="#D0D5DD" stroke-width="1.5" />
    <rect x="1" y="18" width="29" height="16" rx="2" fill="#DD2590" />
    <path
        d="M5.0237 22.7273H6.92001L8.92285 27.6136H9.00808L11.0109 22.7273H12.9072V30H11.4157V25.2663H11.3554L9.47328 29.9645H8.45765L6.57555 25.2486H6.51518V30H5.0237V22.7273ZM14.1741 30V22.7273H17.0434C17.595 22.7273 18.065 22.8326 18.4532 23.0433C18.8415 23.2517 19.1374 23.5417 19.341 23.9134C19.547 24.2827 19.6499 24.7088 19.6499 25.1918C19.6499 25.6747 19.5458 26.1009 19.3374 26.4702C19.1291 26.8395 18.8273 27.1271 18.4319 27.3331C18.0389 27.5391 17.5631 27.642 17.0044 27.642H15.1755V26.4098H16.7558C17.0517 26.4098 17.2955 26.3589 17.4873 26.2571C17.6814 26.1529 17.8258 26.0097 17.9205 25.8274C18.0176 25.6428 18.0661 25.4309 18.0661 25.1918C18.0661 24.9503 18.0176 24.7396 17.9205 24.5597C17.8258 24.3774 17.6814 24.2365 17.4873 24.1371C17.2932 24.0353 17.047 23.9844 16.7487 23.9844H15.7117V30H14.1741ZM23.2943 30.0994C22.764 30.0994 22.2917 30.0083 21.8774 29.826C21.4655 29.6413 21.1399 29.388 20.9008 29.0661C20.6641 28.7417 20.5422 28.3677 20.5351 27.9439H22.0834C22.0928 28.1214 22.1508 28.2777 22.2574 28.4126C22.3663 28.5452 22.5107 28.6482 22.6906 28.7216C22.8705 28.795 23.0729 28.8317 23.2979 28.8317C23.5322 28.8317 23.7394 28.7902 23.9193 28.7074C24.0992 28.6245 24.2401 28.5097 24.3419 28.3629C24.4437 28.2161 24.4946 28.0469 24.4946 27.8551C24.4946 27.661 24.4401 27.4893 24.3312 27.3402C24.2247 27.1887 24.0708 27.0703 23.8696 26.9851C23.6707 26.8999 23.434 26.8572 23.1594 26.8572H22.4811V25.728H23.1594C23.3914 25.728 23.5961 25.6877 23.7737 25.6072C23.9536 25.5268 24.0933 25.4155 24.1927 25.2734C24.2922 25.129 24.3419 24.9609 24.3419 24.7692C24.3419 24.5869 24.2981 24.4271 24.2105 24.2898C24.1253 24.1501 24.0045 24.0412 23.8483 23.9631C23.6944 23.8849 23.5145 23.8459 23.3085 23.8459C23.1002 23.8459 22.9096 23.8838 22.7368 23.9595C22.564 24.0329 22.4255 24.1383 22.3213 24.2756C22.2171 24.4129 22.1615 24.5739 22.1544 24.7585H20.6807C20.6878 24.3395 20.8073 23.9702 21.0393 23.6506C21.2713 23.331 21.5838 23.0812 21.9768 22.9013C22.3722 22.719 22.8184 22.6278 23.3156 22.6278C23.8175 22.6278 24.2567 22.719 24.6331 22.9013C25.0095 23.0836 25.3019 23.3298 25.5102 23.6399C25.7209 23.9477 25.8251 24.2933 25.8227 24.6768C25.8251 25.084 25.6984 25.4238 25.4427 25.696C25.1894 25.9683 24.8592 26.1411 24.452 26.2145V26.2713C24.987 26.34 25.3942 26.5258 25.6736 26.8288C25.9553 27.1295 26.095 27.5059 26.0926 27.9581C26.095 28.3724 25.9754 28.7405 25.7339 29.0625C25.4948 29.3845 25.1646 29.6378 24.7432 29.8224C24.3218 30.0071 23.8388 30.0994 23.2943 30.0994Z"
        fill="white" />
</svg>