<svg width="40" height="40" viewBox="0 0 40 40" fill="none" xmlns="http://www.w3.org/2000/svg">
    <path
        d="M7.75 4C7.75 2.20508 9.20508 0.75 11 0.75H27C27.1212 0.75 27.2375 0.798159 27.3232 0.883885L38.1161 11.6768C38.2018 11.7625 38.25 11.8788 38.25 12V36C38.25 37.7949 36.7949 39.25 35 39.25H11C9.20507 39.25 7.75 37.7949 7.75 36V4Z"
        stroke="#D0D5DD" stroke-width="1.5" />
    <path d="M27 0.5V8C27 10.2091 28.7909 12 31 12H38.5" stroke="#D0D5DD" stroke-width="1.5" />
    <rect x="1" y="18" width="36" height="16" rx="2" fill="#155EEF" />
    <path
        d="M4.95437 22.7273H6.85067L8.85352 27.6136H8.93874L10.9416 22.7273H12.8379V30H11.3464V25.2663H11.286L9.40394 29.9645H8.38832L6.50621 25.2486H6.44585V30H4.95437V22.7273ZM14.1048 30V22.7273H16.9741C17.5257 22.7273 17.9956 22.8326 18.3839 23.0433C18.7721 23.2517 19.0681 23.5417 19.2717 23.9134C19.4776 24.2827 19.5806 24.7088 19.5806 25.1918C19.5806 25.6747 19.4764 26.1009 19.2681 26.4702C19.0598 26.8395 18.7579 27.1271 18.3626 27.3331C17.9696 27.5391 17.4937 27.642 16.935 27.642H15.1062V26.4098H16.6864C16.9824 26.4098 17.2262 26.3589 17.418 26.2571C17.6121 26.1529 17.7565 26.0097 17.8512 25.8274C17.9483 25.6428 17.9968 25.4309 17.9968 25.1918C17.9968 24.9503 17.9483 24.7396 17.8512 24.5597C17.7565 24.3774 17.6121 24.2365 17.418 24.1371C17.2238 24.0353 16.9776 23.9844 16.6793 23.9844H15.6424V30H14.1048ZM20.5794 30V22.7273H25.4799V23.995H22.117V25.728H25.2278V26.9957H22.117V28.7322H25.4941V30H20.5794ZM31.5249 25.0781C31.4751 24.9053 31.4053 24.7526 31.3153 24.62C31.2254 24.4851 31.1153 24.3714 30.9851 24.2791C30.8572 24.1844 30.7105 24.1122 30.5447 24.0625C30.3814 24.0128 30.2003 23.9879 30.0014 23.9879C29.6297 23.9879 29.303 24.0803 29.0213 24.2649C28.742 24.4496 28.5241 24.7183 28.3679 25.071C28.2116 25.4214 28.1335 25.8499 28.1335 26.3565C28.1335 26.8632 28.2105 27.294 28.3643 27.6491C28.5182 28.0043 28.736 28.2753 29.0178 28.4624C29.2995 28.647 29.6321 28.7393 30.0156 28.7393C30.3636 28.7393 30.6607 28.6778 30.907 28.5547C31.1555 28.4292 31.3449 28.2528 31.4751 28.0256C31.6077 27.7983 31.674 27.5296 31.674 27.2195L31.9865 27.2656H30.1115V26.108H33.1548V27.0241C33.1548 27.6634 33.0199 28.2126 32.75 28.6719C32.4801 29.1288 32.1084 29.4815 31.6349 29.7301C31.1615 29.9763 30.6193 30.0994 30.0085 30.0994C29.3267 30.0994 28.7277 29.9491 28.2116 29.6484C27.6955 29.3454 27.2931 28.9157 27.0043 28.3594C26.7178 27.8007 26.5746 27.1378 26.5746 26.3707C26.5746 25.7812 26.6598 25.2557 26.8303 24.794C27.0031 24.33 27.2446 23.937 27.5547 23.6151C27.8648 23.2931 28.2259 23.0481 28.6378 22.88C29.0497 22.7119 29.496 22.6278 29.9766 22.6278C30.3885 22.6278 30.772 22.6882 31.1271 22.8089C31.4822 22.9273 31.7971 23.0954 32.0717 23.3132C32.3487 23.531 32.5748 23.7902 32.75 24.0909C32.9252 24.3892 33.0376 24.7183 33.0874 25.0781H31.5249Z"
        fill="white" />
</svg>