<svg width="40" height="40" viewBox="0 0 40 40" fill="none" xmlns="http://www.w3.org/2000/svg">
    <path
        d="M7.75 4C7.75 2.20508 9.20508 0.75 11 0.75H27C27.1212 0.75 27.2375 0.798159 27.3232 0.883885L38.1161 11.6768C38.2018 11.7625 38.25 11.8788 38.25 12V36C38.25 37.7949 36.7949 39.25 35 39.25H11C9.20507 39.25 7.75 37.7949 7.75 36V4Z"
        stroke="#D0D5DD" stroke-width="1.5" />
    <path d="M27 0.5V8C27 10.2091 28.7909 12 31 12H38.5" stroke="#D0D5DD" stroke-width="1.5" />
    <rect x="1" y="18" width="28" height="16" rx="2" fill="#7F56D9" />
    <path
        d="M4.91433 30V22.7273H7.78365C8.33526 22.7273 8.80519 22.8326 9.19345 23.0433C9.58171 23.2517 9.87763 23.5417 10.0812 23.9134C10.2872 24.2827 10.3902 24.7088 10.3902 25.1918C10.3902 25.6747 10.286 26.1009 10.0777 26.4702C9.86935 26.8395 9.5675 27.1271 9.17214 27.3331C8.77915 27.5391 8.3033 27.642 7.74458 27.642H5.91575V26.4098H7.496C7.79193 26.4098 8.03578 26.3589 8.22754 26.2571C8.42167 26.1529 8.56608 26.0097 8.66078 25.8274C8.75784 25.6428 8.80637 25.4309 8.80637 25.1918C8.80637 24.9503 8.75784 24.7396 8.66078 24.5597C8.56608 24.3774 8.42167 24.2365 8.22754 24.1371C8.03341 24.0353 7.7872 23.9844 7.4889 23.9844H6.45197V30H4.91433ZM17.472 22.7273V30H16.1439L12.9798 25.4226H12.9266V30H11.3889V22.7273H12.7384L15.8776 27.3011H15.9415V22.7273H17.472ZM23.5649 25.0781C23.5152 24.9053 23.4453 24.7526 23.3554 24.62C23.2654 24.4851 23.1553 24.3714 23.0251 24.2791C22.8973 24.1844 22.7505 24.1122 22.5848 24.0625C22.4214 24.0128 22.2403 23.9879 22.0415 23.9879C21.6698 23.9879 21.3431 24.0803 21.0613 24.2649C20.782 24.4496 20.5642 24.7183 20.4079 25.071C20.2517 25.4214 20.1736 25.8499 20.1736 26.3565C20.1736 26.8632 20.2505 27.294 20.4044 27.6491C20.5583 28.0043 20.7761 28.2753 21.0578 28.4624C21.3395 28.647 21.6721 28.7393 22.0557 28.7393C22.4037 28.7393 22.7008 28.6778 22.947 28.5547C23.1956 28.4292 23.385 28.2528 23.5152 28.0256C23.6478 27.7983 23.714 27.5296 23.714 27.2195L24.0265 27.2656H22.1515V26.108H25.1949V27.0241C25.1949 27.6634 25.0599 28.2126 24.79 28.6719C24.5202 29.1288 24.1485 29.4815 23.675 29.7301C23.2015 29.9763 22.6594 30.0994 22.0486 30.0994C21.3667 30.0994 20.7678 29.9491 20.2517 29.6484C19.7356 29.3454 19.3331 28.9157 19.0443 28.3594C18.7578 27.8007 18.6146 27.1378 18.6146 26.3707C18.6146 25.7812 18.6998 25.2557 18.8703 24.794C19.0431 24.33 19.2846 23.937 19.5947 23.6151C19.9049 23.2931 20.2659 23.0481 20.6778 22.88C21.0898 22.7119 21.536 22.6278 22.0166 22.6278C22.4285 22.6278 22.8121 22.6882 23.1672 22.8089C23.5223 22.9273 23.8372 23.0954 24.1118 23.3132C24.3888 23.531 24.6148 23.7902 24.79 24.0909C24.9652 24.3892 25.0777 24.7183 25.1274 25.0781H23.5649Z"
        fill="white" />
</svg>