<svg width="40" height="40" viewBox="0 0 40 40" fill="none" xmlns="http://www.w3.org/2000/svg">
    <path
        d="M7.75 4C7.75 2.20508 9.20508 0.75 11 0.75H27C27.1212 0.75 27.2375 0.798159 27.3232 0.883885L38.1161 11.6768C38.2018 11.7625 38.25 11.8788 38.25 12V36C38.25 37.7949 36.7949 39.25 35 39.25H11C9.20507 39.25 7.75 37.7949 7.75 36V4Z"
        stroke="#D0D5DD" stroke-width="1.5" />
    <path d="M27 0.5V8C27 10.2091 28.7909 12 31 12H38.5" stroke="#D0D5DD" stroke-width="1.5" />
    <rect x="1" y="18" width="27" height="16" rx="2" fill="#155EEF" />
    <path
        d="M4.98074 30V22.7273H7.85005C8.40166 22.7273 8.8716 22.8326 9.25985 23.0433C9.64811 23.2517 9.94404 23.5417 10.1476 23.9134C10.3536 24.2827 10.4566 24.7088 10.4566 25.1918C10.4566 25.6747 10.3524 26.1009 10.1441 26.4702C9.93575 26.8395 9.63391 27.1271 9.23855 27.3331C8.84556 27.5391 8.3697 27.642 7.81099 27.642H5.98216V26.4098H7.56241C7.85834 26.4098 8.10218 26.3589 8.29395 26.2571C8.48807 26.1529 8.63249 26.0097 8.72718 25.8274C8.82425 25.6428 8.87278 25.4309 8.87278 25.1918C8.87278 24.9503 8.82425 24.7396 8.72718 24.5597C8.63249 24.3774 8.48807 24.2365 8.29395 24.1371C8.09982 24.0353 7.8536 23.9844 7.55531 23.9844H6.51838V30H4.98074ZM15.4007 24.8189C15.3722 24.5324 15.2503 24.3099 15.0349 24.1513C14.8195 23.9927 14.5271 23.9134 14.1578 23.9134C13.9068 23.9134 13.6949 23.9489 13.5221 24.0199C13.3493 24.0885 13.2167 24.1844 13.1244 24.3075C13.0344 24.4306 12.9894 24.5703 12.9894 24.7266C12.9847 24.8568 13.0119 24.9704 13.0711 25.0675C13.1327 25.1645 13.2167 25.2486 13.3232 25.3196C13.4298 25.3883 13.5529 25.4486 13.6926 25.5007C13.8322 25.5504 13.9814 25.593 14.14 25.6286L14.7934 25.7848C15.1106 25.8558 15.4018 25.9505 15.667 26.0689C15.9321 26.1873 16.1618 26.3329 16.3559 26.5057C16.55 26.6785 16.7004 26.8821 16.8069 27.1165C16.9158 27.3509 16.9714 27.6196 16.9738 27.9226C16.9714 28.3677 16.8578 28.7536 16.6329 29.0803C16.4104 29.4046 16.0884 29.6567 15.667 29.8366C15.248 30.0142 14.7425 30.103 14.1507 30.103C13.5635 30.103 13.0522 30.013 12.6166 29.8331C12.1833 29.6532 11.8448 29.3868 11.6009 29.0341C11.3595 28.679 11.2328 28.2398 11.221 27.7166H12.7089C12.7255 27.9605 12.7953 28.1641 12.9184 28.3274C13.0439 28.4884 13.2108 28.6103 13.4191 28.6932C13.6298 28.7737 13.8677 28.8139 14.1329 28.8139C14.3933 28.8139 14.6194 28.776 14.8112 28.7003C15.0053 28.6245 15.1556 28.5192 15.2622 28.3842C15.3687 28.2493 15.422 28.0942 15.422 27.919C15.422 27.7557 15.3734 27.6184 15.2764 27.5071C15.1817 27.3958 15.042 27.3011 14.8573 27.223C14.675 27.1449 14.4513 27.0739 14.1862 27.0099L13.3943 26.8111C12.7811 26.6619 12.297 26.4287 11.9419 26.1115C11.5867 25.7943 11.4104 25.367 11.4127 24.8295C11.4104 24.3892 11.5276 24.0045 11.7643 23.6754C12.0034 23.3464 12.3313 23.0895 12.748 22.9048C13.1646 22.7202 13.6381 22.6278 14.1684 22.6278C14.7082 22.6278 15.1793 22.7202 15.5818 22.9048C15.9866 23.0895 16.3015 23.3464 16.5264 23.6754C16.7513 24.0045 16.8673 24.3857 16.8744 24.8189H15.4007ZM20.5862 30H18.0081V22.7273H20.6075C21.339 22.7273 21.9688 22.8729 22.4967 23.1641C23.0247 23.4529 23.4307 23.8684 23.7148 24.4105C24.0012 24.9527 24.1444 25.6013 24.1444 26.3565C24.1444 27.1141 24.0012 27.7652 23.7148 28.3097C23.4307 28.8542 23.0223 29.272 22.4896 29.5632C21.9593 29.8544 21.3248 30 20.5862 30ZM19.5457 28.6825H20.5223C20.9768 28.6825 21.3592 28.602 21.6693 28.4411C21.9818 28.2777 22.2162 28.0256 22.3724 27.6847C22.531 27.3414 22.6104 26.8987 22.6104 26.3565C22.6104 25.8191 22.531 25.38 22.3724 25.0391C22.2162 24.6982 21.983 24.4472 21.6729 24.2862C21.3627 24.1252 20.9804 24.0447 20.5258 24.0447H19.5457V28.6825Z"
        fill="white" />
</svg>