<svg width="40" height="40" viewBox="0 0 40 40" fill="none" xmlns="http://www.w3.org/2000/svg">
    <path
        d="M7.75 4C7.75 2.20508 9.20508 0.75 11 0.75H27C27.1212 0.75 27.2375 0.798159 27.3232 0.883885L38.1161 11.6768C38.2018 11.7625 38.25 11.8788 38.25 12V36C38.25 37.7949 36.7949 39.25 35 39.25H11C9.20507 39.25 7.75 37.7949 7.75 36V4Z"
        stroke="#D0D5DD" stroke-width="1.5" />
    <path d="M27 0.5V8C27 10.2091 28.7909 12 31 12H38.5" stroke="#D0D5DD" stroke-width="1.5" />
    <rect x="1" y="18" width="26" height="16" rx="2" fill="#444CE7" />
    <path
        d="M4.79812 30V22.7273H7.66744C8.21668 22.7273 8.68543 22.8255 9.07369 23.022C9.46431 23.2161 9.76142 23.492 9.96502 23.8494C10.171 24.2045 10.274 24.6224 10.274 25.103C10.274 25.5859 10.1698 26.0014 9.96147 26.3494C9.75314 26.6951 9.45129 26.9602 9.05593 27.1449C8.66294 27.3295 8.18709 27.4219 7.62837 27.4219H5.70721V26.1861H7.37979C7.67335 26.1861 7.9172 26.1458 8.11133 26.0653C8.30546 25.9848 8.44987 25.8641 8.54457 25.7031C8.64163 25.5421 8.69016 25.3421 8.69016 25.103C8.69016 24.8615 8.64163 24.6579 8.54457 24.4922C8.44987 24.3265 8.30427 24.201 8.10778 24.1158C7.91365 24.0282 7.66862 23.9844 7.37269 23.9844H6.33576V30H4.79812ZM8.72567 26.6903L10.5332 30H8.83576L7.06729 26.6903H8.72567ZM15.3059 24.8189C15.2775 24.5324 15.1556 24.3099 14.9402 24.1513C14.7247 23.9927 14.4324 23.9134 14.063 23.9134C13.8121 23.9134 13.6002 23.9489 13.4274 24.0199C13.2546 24.0885 13.122 24.1844 13.0297 24.3075C12.9397 24.4306 12.8947 24.5703 12.8947 24.7266C12.89 24.8568 12.9172 24.9704 12.9764 25.0675C13.0379 25.1645 13.122 25.2486 13.2285 25.3196C13.335 25.3883 13.4582 25.4486 13.5978 25.5007C13.7375 25.5504 13.8867 25.593 14.0453 25.6286L14.6987 25.7848C15.0159 25.8558 15.3071 25.9505 15.5723 26.0689C15.8374 26.1873 16.0671 26.3329 16.2612 26.5057C16.4553 26.6785 16.6056 26.8821 16.7122 27.1165C16.8211 27.3509 16.8767 27.6196 16.8791 27.9226C16.8767 28.3677 16.7631 28.7536 16.5382 29.0803C16.3156 29.4046 15.9937 29.6567 15.5723 29.8366C15.1532 30.0142 14.6478 30.103 14.0559 30.103C13.4688 30.103 12.9574 30.013 12.5218 29.8331C12.0886 29.6532 11.7501 29.3868 11.5062 29.0341C11.2647 28.679 11.1381 28.2398 11.1262 27.7166H12.6142C12.6307 27.9605 12.7006 28.1641 12.8237 28.3274C12.9492 28.4884 13.1161 28.6103 13.3244 28.6932C13.5351 28.7737 13.773 28.8139 14.0382 28.8139C14.2986 28.8139 14.5247 28.776 14.7164 28.7003C14.9106 28.6245 15.0609 28.5192 15.1674 28.3842C15.274 28.2493 15.3272 28.0942 15.3272 27.919C15.3272 27.7557 15.2787 27.6184 15.1816 27.5071C15.0869 27.3958 14.9473 27.3011 14.7626 27.223C14.5803 27.1449 14.3566 27.0739 14.0914 27.0099L13.2995 26.8111C12.6864 26.6619 12.2022 26.4287 11.8471 26.1115C11.492 25.7943 11.3156 25.367 11.318 24.8295C11.3156 24.3892 11.4328 24.0045 11.6696 23.6754C11.9087 23.3464 12.2366 23.0895 12.6532 22.9048C13.0699 22.7202 13.5434 22.6278 14.0737 22.6278C14.6135 22.6278 15.0846 22.7202 15.487 22.9048C15.8919 23.0895 16.2067 23.3464 16.4316 23.6754C16.6565 24.0045 16.7725 24.3857 16.7797 24.8189H15.3059ZM21.8587 24.8189C21.8303 24.5324 21.7083 24.3099 21.4929 24.1513C21.2775 23.9927 20.9851 23.9134 20.6158 23.9134C20.3648 23.9134 20.1529 23.9489 19.9801 24.0199C19.8073 24.0885 19.6747 24.1844 19.5824 24.3075C19.4924 24.4306 19.4474 24.5703 19.4474 24.7266C19.4427 24.8568 19.4699 24.9704 19.5291 25.0675C19.5907 25.1645 19.6747 25.2486 19.7812 25.3196C19.8878 25.3883 20.0109 25.4486 20.1506 25.5007C20.2902 25.5504 20.4394 25.593 20.598 25.6286L21.2514 25.7848C21.5687 25.8558 21.8598 25.9505 22.125 26.0689C22.3902 26.1873 22.6198 26.3329 22.8139 26.5057C23.008 26.6785 23.1584 26.8821 23.2649 27.1165C23.3738 27.3509 23.4295 27.6196 23.4318 27.9226C23.4295 28.3677 23.3158 28.7536 23.0909 29.0803C22.8684 29.4046 22.5464 29.6567 22.125 29.8366C21.706 30.0142 21.2005 30.103 20.6087 30.103C20.0215 30.103 19.5102 30.013 19.0746 29.8331C18.6413 29.6532 18.3028 29.3868 18.0589 29.0341C17.8175 28.679 17.6908 28.2398 17.679 27.7166H19.1669C19.1835 27.9605 19.2533 28.1641 19.3764 28.3274C19.5019 28.4884 19.6688 28.6103 19.8771 28.6932C20.0878 28.7737 20.3258 28.8139 20.5909 28.8139C20.8513 28.8139 21.0774 28.776 21.2692 28.7003C21.4633 28.6245 21.6136 28.5192 21.7202 28.3842C21.8267 28.2493 21.88 28.0942 21.88 27.919C21.88 27.7557 21.8314 27.6184 21.7344 27.5071C21.6397 27.3958 21.5 27.3011 21.3153 27.223C21.133 27.1449 20.9093 27.0739 20.6442 27.0099L19.8523 26.8111C19.2391 26.6619 18.755 26.4287 18.3999 26.1115C18.0447 25.7943 17.8684 25.367 17.8707 24.8295C17.8684 24.3892 17.9856 24.0045 18.2223 23.6754C18.4614 23.3464 18.7893 23.0895 19.206 22.9048C19.6226 22.7202 20.0961 22.6278 20.6264 22.6278C21.1662 22.6278 21.6373 22.7202 22.0398 22.9048C22.4446 23.0895 22.7595 23.3464 22.9844 23.6754C23.2093 24.0045 23.3253 24.3857 23.3324 24.8189H21.8587Z"
        fill="white" />
</svg>