<svg width="40" height="40" viewBox="0 0 40 40" fill="none" xmlns="http://www.w3.org/2000/svg">
    <path
        d="M7.75 4C7.75 2.20508 9.20508 0.75 11 0.75H27C27.1212 0.75 27.2375 0.798159 27.3232 0.883885L38.1161 11.6768C38.2018 11.7625 38.25 11.8788 38.25 12V36C38.25 37.7949 36.7949 39.25 35 39.25H11C9.20507 39.25 7.75 37.7949 7.75 36V4Z"
        stroke="#D0D5DD" stroke-width="1.5" />
    <path d="M27 0.5V8C27 10.2091 28.7909 12 31 12H38.5" stroke="#D0D5DD" stroke-width="1.5" />
    <rect x="1" y="18" width="27" height="16" rx="2" fill="#444CE7" />
    <path
        d="M9.053 24.8189C9.02459 24.5324 8.90267 24.3099 8.68723 24.1513C8.4718 23.9927 8.17942 23.9134 7.8101 23.9134C7.55916 23.9134 7.34727 23.9489 7.17445 24.0199C7.00163 24.0885 6.86905 24.1844 6.77672 24.3075C6.68676 24.4306 6.64178 24.5703 6.64178 24.7266C6.63704 24.8568 6.66427 24.9704 6.72346 25.0675C6.78501 25.1645 6.86905 25.2486 6.97559 25.3196C7.08212 25.3883 7.20523 25.4486 7.3449 25.5007C7.48458 25.5504 7.63373 25.593 7.79235 25.6286L8.44576 25.7848C8.76299 25.8558 9.05418 25.9505 9.31934 26.0689C9.58449 26.1873 9.81413 26.3329 10.0083 26.5057C10.2024 26.6785 10.3527 26.8821 10.4593 27.1165C10.5682 27.3509 10.6238 27.6196 10.6262 27.9226C10.6238 28.3677 10.5102 28.7536 10.2852 29.0803C10.0627 29.4046 9.74074 29.6567 9.31934 29.8366C8.9003 30.0142 8.39486 30.103 7.803 30.103C7.21588 30.103 6.70452 30.013 6.26891 29.8331C5.83567 29.6532 5.49713 29.3868 5.25328 29.0341C5.01181 28.679 4.88515 28.2398 4.87331 27.7166H6.36124C6.37781 27.9605 6.44765 28.1641 6.57076 28.3274C6.69623 28.4884 6.86313 28.6103 7.07147 28.6932C7.28217 28.7737 7.52009 28.8139 7.78525 28.8139C8.04566 28.8139 8.27175 28.776 8.46351 28.7003C8.65764 28.6245 8.80797 28.5192 8.91451 28.3842C9.02104 28.2493 9.07431 28.0942 9.07431 27.919C9.07431 27.7557 9.02578 27.6184 8.92871 27.5071C8.83401 27.3958 8.69434 27.3011 8.50968 27.223C8.32739 27.1449 8.10366 27.0739 7.83851 27.0099L7.04661 26.8111C6.43345 26.6619 5.94931 26.4287 5.59419 26.1115C5.23908 25.7943 5.06271 25.367 5.06507 24.8295C5.06271 24.3892 5.17989 24.0045 5.41664 23.6754C5.65575 23.3464 5.98364 23.0895 6.4003 22.9048C6.81697 22.7202 7.29045 22.6278 7.82076 22.6278C8.36053 22.6278 8.83165 22.7202 9.23411 22.9048C9.63894 23.0895 9.95381 23.3464 10.1787 23.6754C10.4036 24.0045 10.5196 24.3857 10.5267 24.8189H9.053ZM14.4055 27.4716H15.7123L16.3692 28.3168L17.0155 29.0696L18.2336 30.5966H16.7989L15.9608 29.5668L15.5312 28.956L14.4055 27.4716ZM18.3437 26.3636C18.3437 27.1567 18.1933 27.8314 17.8927 28.3878C17.5944 28.9441 17.1872 29.3691 16.6711 29.6626C16.1573 29.9538 15.5797 30.0994 14.9381 30.0994C14.2918 30.0994 13.7118 29.9527 13.1981 29.6591C12.6843 29.3655 12.2783 28.9406 11.98 28.3842C11.6817 27.8279 11.5326 27.1544 11.5326 26.3636C11.5326 25.5705 11.6817 24.8958 11.98 24.3395C12.2783 23.7831 12.6843 23.3594 13.1981 23.0682C13.7118 22.7746 14.2918 22.6278 14.9381 22.6278C15.5797 22.6278 16.1573 22.7746 16.6711 23.0682C17.1872 23.3594 17.5944 23.7831 17.8927 24.3395C18.1933 24.8958 18.3437 25.5705 18.3437 26.3636ZM16.7847 26.3636C16.7847 25.8499 16.7078 25.4167 16.5539 25.0639C16.4024 24.7112 16.1881 24.4437 15.9111 24.2614C15.6341 24.0791 15.3098 23.9879 14.9381 23.9879C14.5664 23.9879 14.2421 24.0791 13.9651 24.2614C13.6881 24.4437 13.4727 24.7112 13.3188 25.0639C13.1673 25.4167 13.0915 25.8499 13.0915 26.3636C13.0915 26.8774 13.1673 27.3106 13.3188 27.6634C13.4727 28.0161 13.6881 28.2836 13.9651 28.4659C14.2421 28.6482 14.5664 28.7393 14.9381 28.7393C15.3098 28.7393 15.6341 28.6482 15.9111 28.4659C16.1881 28.2836 16.4024 28.0161 16.5539 27.6634C16.7078 27.3106 16.7847 26.8774 16.7847 26.3636ZM19.4827 30V22.7273H21.0203V28.7322H24.1382V30H19.4827Z"
        fill="white" />
</svg>