<svg width="40" height="40" viewBox="0 0 40 40" fill="none" xmlns="http://www.w3.org/2000/svg">
    <path
        d="M7.75 4C7.75 2.20508 9.20508 0.75 11 0.75H27C27.1212 0.75 27.2375 0.798159 27.3232 0.883885L38.1161 11.6768C38.2018 11.7625 38.25 11.8788 38.25 12V36C38.25 37.7949 36.7949 39.25 35 39.25H11C9.20507 39.25 7.75 37.7949 7.75 36V4Z"
        stroke="#D0D5DD" stroke-width="1.5" />
    <path d="M27 0.5V8C27 10.2091 28.7909 12 31 12H38.5" stroke="#D0D5DD" stroke-width="1.5" />
    <rect x="1" y="18" width="28" height="16" rx="2" fill="#7F56D9" />
    <path
        d="M8.96218 24.8189C8.93377 24.5324 8.81185 24.3099 8.59641 24.1513C8.38098 23.9927 8.0886 23.9134 7.71928 23.9134C7.46834 23.9134 7.25645 23.9489 7.08363 24.0199C6.91081 24.0885 6.77823 24.1844 6.6859 24.3075C6.59594 24.4306 6.55096 24.5703 6.55096 24.7266C6.54622 24.8568 6.57345 24.9704 6.63263 25.0675C6.69419 25.1645 6.77823 25.2486 6.88477 25.3196C6.9913 25.3883 7.11441 25.4486 7.25408 25.5007C7.39376 25.5504 7.54291 25.593 7.70153 25.6286L8.35494 25.7848C8.67217 25.8558 8.96336 25.9505 9.22852 26.0689C9.49367 26.1873 9.72331 26.3329 9.91744 26.5057C10.1116 26.6785 10.2619 26.8821 10.3684 27.1165C10.4773 27.3509 10.533 27.6196 10.5353 27.9226C10.533 28.3677 10.4193 28.7536 10.1944 29.0803C9.97189 29.4046 9.64992 29.6567 9.22852 29.8366C8.80948 30.0142 8.30404 30.103 7.71218 30.103C7.12506 30.103 6.6137 30.013 6.17809 29.8331C5.74485 29.6532 5.40631 29.3868 5.16246 29.0341C4.92099 28.679 4.79433 28.2398 4.78249 27.7166H6.27042C6.28699 27.9605 6.35683 28.1641 6.47994 28.3274C6.60541 28.4884 6.77231 28.6103 6.98065 28.6932C7.19135 28.7737 7.42927 28.8139 7.69442 28.8139C7.95484 28.8139 8.18093 28.776 8.37269 28.7003C8.56682 28.6245 8.71715 28.5192 8.82369 28.3842C8.93022 28.2493 8.98349 28.0942 8.98349 27.919C8.98349 27.7557 8.93496 27.6184 8.83789 27.5071C8.74319 27.3958 8.60352 27.3011 8.41886 27.223C8.23656 27.1449 8.01284 27.0739 7.74769 27.0099L6.95579 26.8111C6.34263 26.6619 5.85849 26.4287 5.50337 26.1115C5.14826 25.7943 4.97189 25.367 4.97425 24.8295C4.97189 24.3892 5.08907 24.0045 5.32582 23.6754C5.56493 23.3464 5.89281 23.0895 6.30948 22.9048C6.72615 22.7202 7.19963 22.6278 7.72994 22.6278C8.26971 22.6278 8.74083 22.7202 9.14329 22.9048C9.54812 23.0895 9.86299 23.3464 10.0879 23.6754C10.3128 24.0045 10.4288 24.3857 10.4359 24.8189H8.96218ZM12.8835 22.7273L14.6413 28.2528H14.7088L16.4702 22.7273H18.1747L15.6676 30H13.6861L11.1754 22.7273H12.8835ZM23.4624 25.0781C23.4126 24.9053 23.3428 24.7526 23.2528 24.62C23.1629 24.4851 23.0528 24.3714 22.9226 24.2791C22.7947 24.1844 22.648 24.1122 22.4822 24.0625C22.3189 24.0128 22.1378 23.9879 21.9389 23.9879C21.5672 23.9879 21.2405 24.0803 20.9588 24.2649C20.6795 24.4496 20.4616 24.7183 20.3054 25.071C20.1491 25.4214 20.071 25.8499 20.071 26.3565C20.071 26.8632 20.148 27.294 20.3018 27.6491C20.4557 28.0043 20.6735 28.2753 20.9553 28.4624C21.237 28.647 21.5696 28.7393 21.9531 28.7393C22.3011 28.7393 22.5982 28.6778 22.8445 28.5547C23.093 28.4292 23.2824 28.2528 23.4126 28.0256C23.5452 27.7983 23.6115 27.5296 23.6115 27.2195L23.924 27.2656H22.049V26.108H25.0923V27.0241C25.0923 27.6634 24.9574 28.2126 24.6875 28.6719C24.4176 29.1288 24.0459 29.4815 23.5724 29.7301C23.099 29.9763 22.5568 30.0994 21.946 30.0994C21.2642 30.0994 20.6652 29.9491 20.1491 29.6484C19.633 29.3454 19.2306 28.9157 18.9418 28.3594C18.6553 27.8007 18.5121 27.1378 18.5121 26.3707C18.5121 25.7812 18.5973 25.2557 18.7678 24.794C18.9406 24.33 19.1821 23.937 19.4922 23.6151C19.8023 23.2931 20.1634 23.0481 20.5753 22.88C20.9872 22.7119 21.4335 22.6278 21.9141 22.6278C22.326 22.6278 22.7095 22.6882 23.0646 22.8089C23.4197 22.9273 23.7346 23.0954 24.0092 23.3132C24.2862 23.531 24.5123 23.7902 24.6875 24.0909C24.8627 24.3892 24.9751 24.7183 25.0249 25.0781H23.4624Z"
        fill="white" />
</svg>