<svg width="40" height="40" viewBox="0 0 40 40" fill="none" xmlns="http://www.w3.org/2000/svg">
    <path
        d="M7.75 4C7.75 2.20508 9.20508 0.75 11 0.75H27C27.1212 0.75 27.2375 0.798159 27.3232 0.883885L38.1161 11.6768C38.2018 11.7625 38.25 11.8788 38.25 12V36C38.25 37.7949 36.7949 39.25 35 39.25H11C9.20507 39.25 7.75 37.7949 7.75 36V4Z"
        stroke="#D0D5DD" stroke-width="1.5" />
    <path d="M27 0.5V8C27 10.2091 28.7909 12 31 12H38.5" stroke="#D0D5DD" stroke-width="1.5" />
    <rect x="1" y="18" width="26" height="16" rx="2" fill="#079455" />
    <path
        d="M6.38636 22.7273L7.85298 25.206H7.9098L9.38352 22.7273H11.12L8.90057 26.3636L11.1697 30H9.40128L7.9098 27.5178H7.85298L6.36151 30H4.60014L6.87642 26.3636L4.64276 22.7273H6.38636ZM12.093 30V22.7273H13.6307V28.7322H16.7486V30H12.093ZM21.7122 24.8189C21.6838 24.5324 21.5618 24.3099 21.3464 24.1513C21.131 23.9927 20.8386 23.9134 20.4693 23.9134C20.2183 23.9134 20.0065 23.9489 19.8336 24.0199C19.6608 24.0885 19.5282 24.1844 19.4359 24.3075C19.3459 24.4306 19.301 24.5703 19.301 24.7266C19.2962 24.8568 19.3234 24.9704 19.3826 25.0675C19.4442 25.1645 19.5282 25.2486 19.6348 25.3196C19.7413 25.3883 19.8644 25.4486 20.0041 25.5007C20.1438 25.5504 20.2929 25.593 20.4515 25.6286L21.1049 25.7848C21.4222 25.8558 21.7134 25.9505 21.9785 26.0689C22.2437 26.1873 22.4733 26.3329 22.6674 26.5057C22.8616 26.6785 23.0119 26.8821 23.1184 27.1165C23.2273 27.3509 23.283 27.6196 23.2853 27.9226C23.283 28.3677 23.1693 28.7536 22.9444 29.0803C22.7219 29.4046 22.3999 29.6567 21.9785 29.8366C21.5595 30.0142 21.054 30.103 20.4622 30.103C19.8751 30.103 19.3637 30.013 18.9281 29.8331C18.4949 29.6532 18.1563 29.3868 17.9125 29.0341C17.671 28.679 17.5443 28.2398 17.5325 27.7166H19.0204C19.037 27.9605 19.1068 28.1641 19.2299 28.3274C19.3554 28.4884 19.5223 28.6103 19.7306 28.6932C19.9413 28.7737 20.1793 28.8139 20.4444 28.8139C20.7048 28.8139 20.9309 28.776 21.1227 28.7003C21.3168 28.6245 21.4672 28.5192 21.5737 28.3842C21.6802 28.2493 21.7335 28.0942 21.7335 27.919C21.7335 27.7557 21.685 27.6184 21.5879 27.5071C21.4932 27.3958 21.3535 27.3011 21.1689 27.223C20.9866 27.1449 20.7628 27.0739 20.4977 27.0099L19.7058 26.8111C19.0926 26.6619 18.6085 26.4287 18.2534 26.1115C17.8983 25.7943 17.7219 25.367 17.7243 24.8295C17.7219 24.3892 17.8391 24.0045 18.0758 23.6754C18.3149 23.3464 18.6428 23.0895 19.0595 22.9048C19.4761 22.7202 19.9496 22.6278 20.4799 22.6278C21.0197 22.6278 21.4908 22.7202 21.8933 22.9048C22.2981 23.0895 22.613 23.3464 22.8379 23.6754C23.0628 24.0045 23.1788 24.3857 23.1859 24.8189H21.7122Z"
        fill="white" />
</svg>