<?xml version="1.0" standalone="no"?><!DOCTYPE svg PUBLIC "-//W3C//DTD SVG 1.1//EN" "http://www.w3.org/Graphics/SVG/1.1/DTD/svg11.dtd"><svg t="1780992154990" class="icon" viewBox="0 0 1024 1024" version="1.1" xmlns="http://www.w3.org/2000/svg" p-id="5067" xmlns:xlink="http://www.w3.org/1999/xlink" width="200" height="200"><path d="M0 0m512 0l0 0q512 0 512 512l0 0q0 512-512 512l0 0q-512 0-512-512l0 0q0-512 512-512Z" fill="#FFFFFF" p-id="5068"></path><path d="M832.032 367.2048c4.1232 0.024 8.2432 0.2656 12.3392 0.7232a345.9104 345.9104 0 0 1 91.8656 25.368c8.5232 3.8176 10.6288 6.9104 3.2912 14.608a296.456 296.456 0 0 0-51.4608 75.9424c-14.1488 29.776-29.6128 58.928-44.0896 88.576a190.048 190.048 0 0 1-43.992 58.5664c-45.2752 40.9632-98.0512 58.2384-158.264 49.88-69.096-9.5744-134.5408-32.9024-196.3648-63.6672-3.8496-1.9072-6.5808-3.2896-8.8512-4.672a4.4832 4.4832 0 0 1-2.096-3.9424 4.4832 4.4832 0 0 1 2.3584-3.7904l4.2784-2.304c50.0784-26.7488 91.8656-64.0272 132.1376-103.216 17.0112-16.4512 33.3312-33.7248 50.5072-50.0448a291.1264 291.1264 0 0 1 135.2-72.3872c11.12-2.6656 22.3392-4.8368 33.5264-7.2384h0.528l23.8208-2.2048" fill="#133C9A" p-id="5069"></path><path d="M348.0288 850.6816c-7.6-0.4272-26.3216-2.9936-28.56-3.2896a452.6144 452.6144 0 0 1-139.312-40.7344c-25.4656-11.9104-49.9792-25.96-74.5584-39.648-16.1552-9.016-23.4928-23.032-23.328-42.0496 0.528-70.3472 0.528-140.704 0-211.0736-0.2624-45.2752-1.5792-90.5488-2.2704-135.792a36.6016 36.6016 0 0 1 1.8752-11.744c2.7312-8.16 8.3584-8.656 13.92-3.2912 6.416 6.1856 11.5152 13.6864 17.8656 19.7408 56.856 56 117.1008 107.296 184.6512 149.5456a1017.56 1017.56 0 0 0 118.4512 65.2464c65.6416 29.8096 132.928 56.0992 203.44 72.7808 62.2848 14.7408 122.8608 5.4624 173.3328-34.0864 15.4-13.1616 23.0336-22.8032 41.2944-47.1184a303.6624 303.6624 0 0 1-31.5552 61.464c-11.7456 18.4912-38.2 43.168-58.368 62.5152-30.6336 29.6128-70.6768 53.632-108.2528 73.9008-40.9632 22.0784-83.5408 39.7136-129.0448 49.3536-23.328 5.824-57.0224 12.504-68.6368 13.1616-2.04-0.1648-8.9824 1.4144-12.536 1.12-29.9744 2.2688-48.4656 3.1248-78.408 0z" fill="#3370FF" p-id="5070"></path><path d="M219.28 172.912a44.256 44.256 0 0 1 6.2832 0c128.848 0 256.6448 2.072 385.328 2.072 0.224 0 0.4432 0.0688 0.6256 0.1984a303.4976 303.4976 0 0 1 33.1328 33.856c29.0544 28.8896 50.704 78.968 65.5104 109.5024 7.3712 21.0912 18.4912 41.2608 23.7568 64.752v0.4288a281.552 281.552 0 0 0-38.2992 15.5968c-37.2144 18.8864-54.1264 32.672-85.0224 63.1072-16.8128 16.4512-31.192 31.2912-53.5328 52.3488-7.008 6.5808-24.8416 23.264-25.1376 22.736-5.9232-10.464-106.08-206.4-307.2832-360.552" fill="#00D6B9" p-id="5071"></path></svg>