<?xml version="1.0" standalone="no"?><!DOCTYPE svg PUBLIC "-//W3C//DTD SVG 1.1//EN" "http://www.w3.org/Graphics/SVG/1.1/DTD/svg11.dtd"><svg t="1781754070064" class="icon" viewBox="0 0 1229 1024" version="1.1" xmlns="http://www.w3.org/2000/svg" p-id="2789" xmlns:xlink="http://www.w3.org/1999/xlink" width="240.0390625" height="200"><path d="M690.8 828.8c-72 28.8-148.8 33.6-225.6 28.8-33.6-4.8-67.2-9.6-100.8-19.2-4.8 0-9.6 0-14.4 4.8-43.2 19.2-86.4 43.2-124.8 62.4-14.4 9.6-28.8 9.6-43.2 0s-14.4-24-14.4-43.2c9.6-33.6 9.6-67.2 14.4-100.8 0-4.8-4.8-9.6-4.8-14.4-48-48-86.4-96-115.2-158.4-48-115.2-38.4-230.4 28.8-336C158 137.6 263.6 75.2 388.4 46.4S633.2 32 748.4 89.6c105.6 52.8 182.4 134.4 216 249.6 14.4 43.2 19.2 86.4 14.4 129.6-24-24-52.8-28.8-81.6-14.4 0-28.8 0-57.6-9.6-86.4-19.2-67.2-57.6-120-105.6-163.2-81.6-67.2-182.4-96-288-96-110.4 9.6-206.4 48-283.2 124.8-62.4 62.4-96 139.2-91.2 230.4 4.8 76.8 38.4 139.2 86.4 192l38.4 38.4c19.2 14.4 24 28.8 14.4 48-4.8 19.2-9.6 43.2-14.4 62.4 0 4.8-4.8 9.6 0 9.6 4.8 4.8 9.6 0 9.6 0 24-14.4 52.8-28.8 76.8-48 14.4-9.6 28.8-9.6 48-4.8 81.6 24 168 24 249.6 0 4.8 0 9.6-4.8 9.6 4.8 9.6 28.8 24 48 52.8 62.4z" fill="#0082EF" p-id="2790"></path><path d="M1170.8 732.8c0 33.6-24 57.6-52.8 62.4-48 9.6-86.4 28.8-120 62.4-9.6 9.6-14.4 9.6-24 4.8-4.8-4.8-4.8-14.4 0-24 33.6-33.6 52.8-76.8 62.4-120 4.8-33.6 38.4-52.8 72-52.8 38.4 4.8 62.4 33.6 62.4 67.2z" fill="#0081EE" p-id="2791"></path><path d="M926 992c-33.6 0-62.4-24-67.2-52.8-4.8-48-28.8-86.4-62.4-115.2-4.8-4.8-9.6-9.6-4.8-19.2 4.8-14.4 14.4-14.4 24-9.6 9.6 4.8 14.4 14.4 19.2 19.2 28.8 24 62.4 38.4 96 43.2 33.6 4.8 57.6 38.4 52.8 72 4.8 33.6-24 62.4-57.6 62.4z" fill="#FA6202" p-id="2792"></path><path d="M671.6 742.4c0-33.6 19.2-57.6 52.8-67.2 48-9.6 86.4-28.8 120-62.4 9.6-9.6 19.2-9.6 24 0 4.8 4.8 4.8 14.4-4.8 24-28.8 28.8-48 62.4-57.6 105.6 0 4.8 0 14.4-4.8 19.2-9.6 33.6-38.4 52.8-72 48-33.6-4.8-57.6-33.6-57.6-67.2z" fill="#FECD00" p-id="2793"></path><path d="M1002.8 574.4c14.4 28.8 28.8 52.8 48 72 9.6 9.6 9.6 19.2 4.8 24-4.8 9.6-14.4 9.6-24 0-24-28.8-57.6-48-91.2-57.6-9.6-4.8-19.2-4.8-28.8-4.8-19.2-4.8-38.4-14.4-43.2-38.4-9.6-24-9.6-48 9.6-67.2 19.2-24 43.2-28.8 67.2-24 24 9.6 43.2 24 48 52.8 0 14.4 4.8 28.8 9.6 43.2z" fill="#2CBD00" p-id="2794"></path></svg>